<svg xmlns="http://www.w3.org/2000/svg" width="413.239" height="272.366" viewBox="0 0 413.239 272.366">
  <g id="Grupo_129332" data-name="Grupo 129332" transform="translate(-1000 -759.172)">
    <g id="Grupo_129263" data-name="Grupo 129263" transform="translate(1000 759.172)">
      <path id="Trazado_151846" data-name="Trazado 151846" d="M436.73,358.592c15.511-16.9,19.924-38.837,11.711-58.206-5.193-12.246-15.158-23.623-16.432-36.393-2.548-25.532,29.573-46.173,36.237-71.319,2.929-11.051-.267-23.926-12.821-30.639-12.4-6.63-30.1-5.277-44.138-.633s-25.918,12.076-39.4,17.511-30.076,8.793-44.31,4.469c-14.418-4.381-22.6-15.424-27.178-26.186s-6.83-22.225-14.648-31.976c-12.885-16.07-40.359-24.831-65.962-22.564s-48.478,14.687-60.748,31-14.414,36.052-8.307,54.074c3.1,9.14,8.2,17.894,10.985,27.087s3.038,19.255-3.175,27.535c-12.993,17.315-47.271,19.729-65.221,34.579-14.815,12.255-15.28,30.958-6.872,46.029s24.209,27.3,39.962,38.934c73.482,1.776,148.28,1.894,221.762,3.67C376.736,366.257,408.2,359.8,436.73,358.592Z" transform="translate(-80.961 -96.893)" fill="#a4a4b4" opacity="0.354" style="mix-blend-mode: multiply;isolation: isolate"/>
      <path id="Trazado_151847" data-name="Trazado 151847" d="M359.21,184.865c-.194,20.784,19.563,38.873,16.125,59.372-1.838,10.968-10.2,22.086-5.339,32.09,4.3,8.852,16.6,10.387,26.014,7.509,22.026-6.738,35.414-29.253,41.817-51.38,6.022-20.813,7.517-44.06-2.128-63.462-7.772-15.632-25.7-29.432-43.912-28.156C375.11,142.007,359.356,169.209,359.21,184.865Z" transform="translate(-29.402 -97.474)" fill="#a4a4b4" opacity="0.31" style="mix-blend-mode: multiply;isolation: isolate"/>
      <path id="Trazado_151848" data-name="Trazado 151848" d="M118.069,151.778c-14.713,24.548-15.377,56.9-1.682,82.031,4.328,7.94,10.172,15.34,18.064,19.755s18.072,5.4,25.927.92c11.912-6.8,14.547-22.823,13.6-36.5s-4.048-28.025,1.221-40.687c3.435-8.253,10.03-14.688,15.881-21.447s11.311-14.648,11.614-23.583c.783-23.161-23.806-21.43-38.624-16.62C145.149,121.786,128.326,134.665,118.069,151.778Z" transform="translate(-76.218 -94.973)" fill="#a4a4b4" opacity="0.31" style="mix-blend-mode: multiply;isolation: isolate"/>
      <g id="Grupo_107069" data-name="Grupo 107069" transform="translate(8.231 0)" style="mix-blend-mode: multiply;isolation: isolate">
        <path id="Trazado_151849" data-name="Trazado 151849" d="M431.775,361.444l-1.58-1.038c4.348-3.418,11.288-11.254,8.938-25.343-1.045-6.271-3.638-12.467-6.145-18.458-1.119-2.677-2.277-5.444-3.288-8.192-10.781-29.324-6.065-61.673,12.939-88.75,1.688-2.4,3.514-4.814,5.282-7.145,5.238-6.912,10.653-14.06,12.983-21.781,4.085-13.549-3.99-23.7-13.22-27.406-8.855-3.553-21.356-3.01-34.293,1.49-4.733,1.646-9.333,3.659-13.781,5.605a149.312,149.312,0,0,1-18.485,7.117c-25.68,7.411-57.786,1.113-74.68-14.649-8.119-7.574-12.7-16.729-17.137-25.582-1.717-3.43-3.494-6.978-5.448-10.373-6.076-10.554-17.2-23.8-35.669-26.969-16.231-2.786-32.672,3.337-43.6,8.962-20.913,10.764-35.655,25.342-41.512,41.048-3.948,10.591-4.107,22.118-4.261,33.266-.229,16.6-.466,33.768-13.5,47.593-5.929,6.289-14.084,11.307-21.968,16.161-7.386,4.545-15.022,9.245-20.715,14.941-12.9,12.908-16.062,31.182-8.675,50.138,6.638,17.031,20.168,32.143,33.252,46.758l-1.8.832c-13.17-14.709-26.789-29.92-33.513-47.175-7.563-19.408-4.284-38.162,9-51.451,5.844-5.848,13.58-10.608,21.06-15.212,7.779-4.787,15.823-9.738,21.589-15.855,12.671-13.441,12.894-29.618,13.13-46.745.155-11.244.315-22.87,4.336-33.651,5.983-16.048,21.018-30.928,42.332-41.9,11.292-5.812,28.325-12.128,45.344-9.207,19.351,3.319,30.883,16.992,37.149,27.877,1.974,3.428,3.759,6.993,5.484,10.44,4.377,8.741,8.9,17.78,16.818,25.163,16.331,15.236,47.367,21.324,72.191,14.16a147.609,147.609,0,0,0,18.169-7c4.491-1.966,9.135-4,13.961-5.677,13.573-4.72,26.791-5.251,36.267-1.45,9.9,3.97,18.584,14.762,14.269,29.076-2.394,7.938-7.885,15.184-13.2,22.192-1.759,2.321-3.578,4.72-5.25,7.1-18.772,26.746-23.43,58.7-12.78,87.663,1,2.723,2.154,5.478,3.268,8.143,2.533,6.054,5.153,12.313,6.222,18.718C443.708,349.578,436.368,357.833,431.775,361.444Z" transform="translate(-87.906 -97.739)" fill="#a4a4b4"/>
      </g>
    </g>
    <g id="rZLulr" transform="translate(1021.776 815.563)">
      <g id="Grupo_127421" data-name="Grupo 127421" transform="translate(0 0)">
        <path id="Trazado_163215" data-name="Trazado 163215" d="M842.618-262.467c-.342,1.558-.773,3.1-1.005,4.677a10.831,10.831,0,0,1-3.451,6.61c-8.45,7.639-16.975,15.2-25.478,22.776-4.034,3.6-8.056,7.2-12.137,10.746a1.681,1.681,0,0,0-.475,2.177q8.546,24.646,17.046,49.309a12.7,12.7,0,0,1-8.538,16.752,12.552,12.552,0,0,1-15.161-7.612c-2.737-7.556-5.294-15.177-7.915-22.775q-3.839-11.131-7.652-22.27c-1.657-4.816-3.4-9.6-4.967-14.449-1.817-5.613-.221-10.324,4.12-14.193q13.21-11.772,26.422-23.543c1.371-1.222,2.722-2.468,4.137-3.637a1.045,1.045,0,0,0,.353-1.391,114.347,114.347,0,0,0-9.806-20.062,23.4,23.4,0,0,0-1.676-2.717,2.076,2.076,0,0,1-.025-2.728c3.777-6.513,7.573-13.019,11.18-19.627a10.273,10.273,0,0,0-4.316-13.933,10.4,10.4,0,0,0-13.994,3.925q-6.822,11.838-13.57,23.718a1.121,1.121,0,0,1-1.3.676c-2.076-.267-4.159-.481-6.382-.731.493-1.363.959-2.687,1.448-4q4.836-13,9.687-25.99a13.656,13.656,0,0,1,8.282-8.042c6.615-2.58,13.016-1.79,19.221,1.486,4.4,2.324,7.636,5.925,10.777,9.64a120.8,120.8,0,0,1,13.729,19.4,113.01,113.01,0,0,1,8.531,20.146c.966,3,1.731,6.059,2.563,9.1.172.628.234,1.286.347,1.93Z" transform="translate(-489.499 362.059)" fill="#1d272b"/>
        <path id="Trazado_163216" data-name="Trazado 163216" d="M-494.017,118.523a10.062,10.062,0,0,1,2.82-4.719,8.286,8.286,0,0,1,5.472-1.981c5.369.012,10.737.036,16.105,0a3.2,3.2,0,0,1,2.461,1.049c2.979,2.838,6.082,5.546,9.142,8.3,2.472,2.224,4.95,4.443,7.353,6.918h-1.262q-16.657,0-33.315-.006c-4.65-.006-7.373-2.124-8.618-6.618a1.406,1.406,0,0,0-.159-.289Z" transform="translate(494.017 17.484)" fill="#008f85"/>
        <path id="Trazado_163217" data-name="Trazado 163217" d="M-379.987-256.075c-2.855-1.642-5.623-3.231-8.387-4.826-5.326-3.073-6.164-8.74-2.112-13.37,7.139-8.158,14.192-16.392,21.294-24.582a9.262,9.262,0,0,1,9.342-3.115c3.086.623,6.1,1.586,9.153,2.393,8.37,2.213,16.708,4.564,25.128,6.569a10.213,10.213,0,0,1,7.463,6.1c4.406,9.408,9,18.728,13.471,28.107a1.894,1.894,0,0,0,1.691,1.245c5,.584,10,1.2,14.992,1.814,4.193.512,8.387,1.012,12.577,1.55a8.147,8.147,0,0,1,7.036,8.917A8.051,8.051,0,0,1-276.4-238c-3.147-.128-6.276-.691-9.412-1.073q-9.625-1.172-19.248-2.359c-2.04-.253-4.09-.467-6.111-.836a7.685,7.685,0,0,1-5.683-4.44c-1.688-3.424-3.322-6.875-4.983-10.312-.167-.346-.367-.676-.659-1.21-1.174,4.427-2.288,8.629-3.4,12.83q-2.416,9.091-4.842,18.18a1.477,1.477,0,0,0,.469,1.723q12.155,10.8,24.254,21.667a61.384,61.384,0,0,1,4.9,4.738c1.873,2.1,2.292,4.869,2.954,7.5q5.353,21.272,10.7,42.546a55.849,55.849,0,0,1,1.868,8.694c.573,6.8-4.1,12.432-11.009,13.381a12.543,12.543,0,0,1-13.9-9.473c-2.152-8.428-4.251-16.869-6.374-25.3-1.851-7.355-3.69-14.713-5.579-22.059a3.281,3.281,0,0,0-.986-1.5Q-337.592-198-351.789-210.652c-1.65-1.474-1.637-1.488-3.749-.229,1.847,1.654,3.665,3.283,5.484,4.91q10.109,9.042,20.2,18.106a1.61,1.61,0,0,1,.373,1.3q-2.76,13.254-5.6,26.491c-1.656,7.789-3.26,15.59-4.994,23.361a12.549,12.549,0,0,1-12.793,9.839,12.781,12.781,0,0,1-12.083-10.366c-.536-2.762.164-5.4.727-8.057q4.327-20.353,8.7-40.7a1.489,1.489,0,0,0-.607-1.6q-11.648-10.375-23.274-20.775c-1.672-1.494-3.346-2.986-5-4.5a12.981,12.981,0,0,1-3.231-13.957c.925-2.571,1.348-5.321,2.043-7.978C-383.747-241.861-381.875-248.916-379.987-256.075Z" transform="translate(415.32 340.131)" fill="#1d272b"/>
        <path id="Trazado_163218" data-name="Trazado 163218" d="M55.578,128.163v64.024H24.218c.1-.253.181-.516.3-.756a18.185,18.185,0,0,0,1.36-13.26c-2.349-9.13-4.6-18.284-6.9-27.428q-1.795-7.154-3.592-14.308c-.715-2.839-1.516-5.659-2.142-8.517a19.616,19.616,0,0,0-7.091-11.229c-1.757-1.438-3.407-3.006-5.3-4.693.572-.037.908-.078,1.245-.078q60.525,0,121.05,0,15.062,0,30.125.008a7.817,7.817,0,0,1,7.481,4.709,8.084,8.084,0,0,1-6.723,11.482c-.77.052-1.544.046-2.316.046q-47.284,0-94.568,0Z" transform="translate(108.361 17.408)" fill="#008f85"/>
        <path id="Trazado_163219" data-name="Trazado 163219" d="M-80.019-28.712l-1.046-.25c.834-3.184,1.64-6.306,2.475-9.419a1.32,1.32,0,0,1,2.057-.4c2.864,3.469,6.733,4.519,11.01,4.978,7.961.855,15.892,1.976,23.845,2.911a59.323,59.323,0,0,0,9.747.759A12.693,12.693,0,0,0-20.44-40.368c.168-.824.507-.967,1.229-.976,10.075-.126,20.15-.3,30.225-.4A102.35,102.35,0,0,1,22-41.528a18.909,18.909,0,0,1,11.934,5.564c3.182,3.227,3.833,7.177,3.225,11.43a21.576,21.576,0,0,1-6.805,12.79,2.852,2.852,0,0,1-2.155.829q-39.28-.029-78.56,0a1.69,1.69,0,0,1-1.648-.829A9.041,9.041,0,0,1-53.033-13.3c-.444-1.307-1.317-1.445-2.538-1.369-4.44.277-8.886.469-13.332.638a2.449,2.449,0,0,1-1.571-.495q-4.567-3.987-9.029-8.1A1.893,1.893,0,0,1-80-23.849C-80.052-25.462-80.019-27.077-80.019-28.712Z" transform="translate(172.203 137.19)" fill="#1d272b"/>
        <path id="Trazado_163220" data-name="Trazado 163220" d="M672.2-262.911a25.539,25.539,0,0,1-1.484,4.077q-8.539,15.1-17.212,30.132a8.182,8.182,0,0,1-8.4,4.045c-8.207-.973-16.422-1.875-24.633-2.817-6.13-.7-12.273-1.312-18.381-2.175a7.936,7.936,0,0,1-6.54-9.406,8.222,8.222,0,0,1,9.138-6.609c8.717,1.038,17.444,2.005,26.167,3,3.431.39,6.868.728,10.29,1.175a1.066,1.066,0,0,0,1.29-.629q7.086-12.442,14.2-24.868A8.124,8.124,0,0,1,665.618-271a8.032,8.032,0,0,1,6.3,7.992Z" transform="translate(-354.988 316.005)" fill="#1d272b"/>
        <path id="Trazado_163221" data-name="Trazado 163221" d="M499.957-75.663l-3.493,5.33,6.16,4.052,5.263-7.935a22.093,22.093,0,0,1,10.868,8.724c4.757,7.442,5.158,15.219,1.28,23.143a31.656,31.656,0,0,1-3.089,4.538,1.427,1.427,0,0,1-1.025.442q-16.217.035-32.434-.007a1.823,1.823,0,0,1-1.156-.634,22.74,22.74,0,0,1-2.162-26.7c4.066-6.573,10.061-10.1,17.69-10.949C498.475-75.722,499.1-75.663,499.957-75.663Z" transform="translate(-262.566 163.608)" fill="#1d272b"/>
        <path id="Trazado_163222" data-name="Trazado 163222" d="M-178.456-405.747c-2.193-2.647-5.421-3.191-8.555-4-8.1-2.1-16.173-4.262-24.265-6.368a1.941,1.941,0,0,1-1.559-1.427,23,23,0,0,1,17.2-29.642,22.713,22.713,0,0,1,23.663,9.852,22.792,22.792,0,0,1-6.174,31.487A1.587,1.587,0,0,1-178.456-405.747Z" transform="translate(275.77 453.489)" fill="#1d272b"/>
        <path id="Trazado_163223" data-name="Trazado 163223" d="M616.638-432.833c-7.184-5.945-10.356-13.434-8.644-22.471,1.779-9.391,7.591-15.579,16.874-17.963,8.846-2.272,16.419.418,22.829,7Z" transform="translate(-364.426 474.061)" fill="#1d272b"/>
        <path id="Trazado_163224" data-name="Trazado 163224" d="M732.648-430.935c4.453,6.747,5.555,13.646,3.017,20.965-2.3,6.643-6.889,11.171-13.584,13.874a22.618,22.618,0,0,0-7.184-15.762Z" transform="translate(-448.09 440.453)" fill="#1d272b"/>
        <path id="Trazado_163225" data-name="Trazado 163225" d="M-440.417,22.376c-3.912,0-7.772.023-11.63-.034a1.79,1.79,0,0,1-1.192-.747,12.716,12.716,0,0,1,8.727-19.919c1.625-.229,3.249-.469,5.035-.727-.244.966-.444,1.768-.649,2.568-.6,2.343-1.3,4.666-1.783,7.033a17.438,17.438,0,0,0,1.19,10.775c.1.235.208.47.3.709A1.394,1.394,0,0,1-440.417,22.376Z" transform="translate(464.053 103.885)" fill="#1d272b"/>
        <path id="Trazado_163226" data-name="Trazado 163226" d="M685.509-63.547,665.323-51.8a26.841,26.841,0,0,0-8.437-13.772,3.9,3.9,0,0,1,3.384-1.122c6.267.776,12.546,1.449,18.82,2.165,2.109.24,4.216.5,6.323.744Z" transform="translate(-402.882 156.631)" fill="#1d272b"/>
        <path id="Trazado_163227" data-name="Trazado 163227" d="M652.8-210.219l8.561-13.012,2.272,1.479c-2.538,3.852-5.028,7.647-7.554,11.419a1.2,1.2,0,0,1-.9.39C654.447-209.961,653.725-210.1,652.8-210.219Z" transform="translate(-399.696 278.589)" fill="#1d272b"/>
        <path id="Trazado_163228" data-name="Trazado 163228" d="M586.9-82.233a2.83,2.83,0,0,1-.182.419c-1.293,1.99-2.59,3.976-3.93,6.03l-2.271-1.506,4.27-6.461Z" transform="translate(-343.369 169.892)" fill="#1d272b"/>
      </g>
      <g id="Grupo_128125" data-name="Grupo 128125" transform="translate(228.545 129.704)">
        <g id="Grupo_91938" data-name="Grupo 91938" transform="translate(0 0)">
          <g id="Grupo_91937" data-name="Grupo 91937">
            <path id="Trazado_151023" data-name="Trazado 151023" d="M2026.533,2144.079a6.276,6.276,0,0,1-5.478-9.429l42.547-73.685a6.327,6.327,0,0,1,10.956.008l42.548,73.7a6.268,6.268,0,0,1-5.478,9.41Z" transform="translate(-2020.21 -2057.808)" fill="#1d272b"/>
            <path id="Trazado_151024" data-name="Trazado 151024" d="M2147.588,2172.711a3.66,3.66,0,0,1-3.1,1.87h-85.1a3.683,3.683,0,0,1-3.1-5.492l42.546-73.714a3.6,3.6,0,0,1,2.416-1.735,3.5,3.5,0,0,1,.686-.072,3.577,3.577,0,0,1,3.1,1.79l42.548,73.732A3.656,3.656,0,0,1,2147.588,2172.711Z" transform="translate(-2053.069 -2090.816)" fill="#db8804"/>
          </g>
        </g>
        <g id="Grupo_91939" data-name="Grupo 91939" transform="translate(43.586 26.342)">
          <path id="Trazado_151026" data-name="Trazado 151026" d="M2594.752,2429.936l-3.708-.089a2.053,2.053,0,0,1-1.942-1.948l-1.358-26.122a1.7,1.7,0,0,1,.535-1.346,1.776,1.776,0,0,1,1.416-.444l6.385.445a1.954,1.954,0,0,1,1.382.619,1.98,1.98,0,0,1,.52,1.425l-1.321,25.646A1.89,1.89,0,0,1,2594.752,2429.936Z" transform="translate(-2587.637 -2399.979)" fill="#fff"/>
          <path id="Trazado_151027" data-name="Trazado 151027" d="M2587.771,2856.561a5.3,5.3,0,0,1,3.9-1.285,5.515,5.515,0,0,1,3.932,1.364,5.167,5.167,0,0,1,1.34,3.854,5.056,5.056,0,0,1-1.37,3.787,5.342,5.342,0,0,1-3.9,1.346,5.278,5.278,0,0,1-3.888-1.393,5.149,5.149,0,0,1-1.409-3.824A5.076,5.076,0,0,1,2587.771,2856.561Z" transform="translate(-2586.378 -2820.224)" fill="#fff"/>
        </g>
      </g>
    </g>
    <path id="Trazado_166432" data-name="Trazado 166432" d="M9.578-9.477H6.094V0H3.75V-9.477H.313v-1.9H9.578ZM16.4-2.344H12.289L11.508,0H9.016L13.25-11.375h2.172L19.68,0H17.188Zm-3.477-1.9h2.844L14.336-8.5ZM29.992,0H27.648L23.086-7.484V0H20.742V-11.375h2.344l4.57,7.5v-7.5h2.336Zm8.469-2.344H34.352L33.57,0H31.078l4.234-11.375h2.172L41.742,0H39.25Zm-3.477-1.9h2.844L36.4-8.5ZM50.43-9.477H46.945V0H44.6V-9.477H41.164v-1.9H50.43ZM60.891-5.43A6.867,6.867,0,0,1,60.3-2.484,4.472,4.472,0,0,1,58.6-.531a4.7,4.7,0,0,1-2.535.688,4.732,4.732,0,0,1-2.523-.68A4.515,4.515,0,0,1,51.82-2.465a6.67,6.67,0,0,1-.617-2.9V-5.93a6.831,6.831,0,0,1,.605-2.957,4.508,4.508,0,0,1,1.711-1.961,4.706,4.706,0,0,1,2.527-.684,4.706,4.706,0,0,1,2.527.684,4.508,4.508,0,0,1,1.711,1.961,6.811,6.811,0,0,1,.605,2.949Zm-2.375-.516a4.787,4.787,0,0,0-.641-2.719,2.088,2.088,0,0,0-1.828-.93,2.088,2.088,0,0,0-1.82.918,4.732,4.732,0,0,0-.648,2.691v.555a4.847,4.847,0,0,0,.641,2.7,2.082,2.082,0,0,0,1.844.961,2.064,2.064,0,0,0,1.813-.926,4.819,4.819,0,0,0,.641-2.7ZM69.438-4.93h-4.5v3.047h5.281V0H62.594V-11.375H70.2v1.9H64.938v2.711h4.5Zm8.055,1.945A1.2,1.2,0,0,0,77.023-4a6.148,6.148,0,0,0-1.687-.75,11.963,11.963,0,0,1-1.93-.777,3.153,3.153,0,0,1-1.937-2.82A2.747,2.747,0,0,1,71.988-10a3.389,3.389,0,0,1,1.492-1.129,5.616,5.616,0,0,1,2.184-.406,5.112,5.112,0,0,1,2.172.441,3.458,3.458,0,0,1,1.48,1.246,3.261,3.261,0,0,1,.527,1.828H77.5a1.534,1.534,0,0,0-.492-1.215,2.023,2.023,0,0,0-1.383-.434,2.162,2.162,0,0,0-1.336.363,1.146,1.146,0,0,0-.477.957,1.1,1.1,0,0,0,.559.93,6.311,6.311,0,0,0,1.645.7A7.106,7.106,0,0,1,78.93-5.219,2.972,2.972,0,0,1,79.844-3,2.737,2.737,0,0,1,78.727-.684a4.891,4.891,0,0,1-3.008.84,5.808,5.808,0,0,1-2.391-.48,3.783,3.783,0,0,1-1.645-1.316,3.371,3.371,0,0,1-.566-1.937h2.352q0,1.883,2.25,1.883a2.189,2.189,0,0,0,1.3-.34A1.106,1.106,0,0,0,77.492-2.984Zm12.5-6.492H86.508V0H84.164V-9.477H80.727v-1.9h9.266Zm8.18,4.547h-4.5v3.047h5.281V0H91.328V-11.375h7.609v1.9H93.672v2.711h4.5Zm-2.445-9.516h2.461l-2.164,2.422H94.188Zm13.164,4.969h-3.484V0h-2.344V-9.477H99.625v-1.9h9.266ZM112.719,0h-2.344V-11.375h2.344Zm11.1-3.789A4.025,4.025,0,0,1,122.465-.9,4.76,4.76,0,0,1,119.242.156,4.28,4.28,0,0,1,115.8-1.316a6.038,6.038,0,0,1-1.254-4.043v-.7a6.819,6.819,0,0,1,.578-2.891,4.332,4.332,0,0,1,1.652-1.918,4.629,4.629,0,0,1,2.5-.668,4.637,4.637,0,0,1,3.172,1.055,4.326,4.326,0,0,1,1.391,2.961h-2.344a2.376,2.376,0,0,0-.613-1.6,2.271,2.271,0,0,0-1.605-.5,1.991,1.991,0,0,0-1.754.84,4.707,4.707,0,0,0-.6,2.605V-5.3a5.038,5.038,0,0,0,.559,2.7,1.954,1.954,0,0,0,1.762.852,2.314,2.314,0,0,0,1.621-.5,2.241,2.241,0,0,0,.613-1.535Zm7.961,1.445h-4.109L126.891,0H124.4l4.234-11.375H130.8L135.063,0H132.57Zm-3.477-1.9h2.844L129.719-8.5ZM144.031-6.25l2.367-5.125h2.563l-3.734,7.25V0h-2.383V-4.125l-3.734-7.25h2.57Z" transform="translate(1143.233 786.329)" fill="#008f85"/>
    <path id="Trazado_166433" data-name="Trazado 166433" d="M10.567-4.026A4.277,4.277,0,0,1,9.127-.955,5.058,5.058,0,0,1,5.7.166,4.548,4.548,0,0,1,2.046-1.4a6.416,6.416,0,0,1-1.332-4.3v-.739A7.245,7.245,0,0,1,1.328-9.5a4.6,4.6,0,0,1,1.756-2.038,4.918,4.918,0,0,1,2.652-.71,4.927,4.927,0,0,1,3.37,1.121,4.6,4.6,0,0,1,1.478,3.146H8.093a2.524,2.524,0,0,0-.652-1.7,2.413,2.413,0,0,0-1.706-.527,2.116,2.116,0,0,0-1.864.892,5,5,0,0,0-.635,2.768v.913a5.352,5.352,0,0,0,.594,2.864,2.077,2.077,0,0,0,1.872.9,2.458,2.458,0,0,0,1.722-.527,2.381,2.381,0,0,0,.652-1.631ZM22.13-5.769A7.3,7.3,0,0,1,21.5-2.64,4.751,4.751,0,0,1,19.694-.564,4.994,4.994,0,0,1,17,.166a5.028,5.028,0,0,1-2.681-.722,4.8,4.8,0,0,1-1.826-2.063A7.087,7.087,0,0,1,11.837-5.7v-.6a7.258,7.258,0,0,1,.643-3.142A4.79,4.79,0,0,1,14.3-11.526a5,5,0,0,1,2.685-.726,5,5,0,0,1,2.685.726,4.79,4.79,0,0,1,1.818,2.083,7.237,7.237,0,0,1,.643,3.134Zm-2.523-.548a5.086,5.086,0,0,0-.681-2.889,2.218,2.218,0,0,0-1.942-.988,2.219,2.219,0,0,0-1.934.975,5.028,5.028,0,0,0-.689,2.86v.589A5.15,5.15,0,0,0,15.041-2.9,2.212,2.212,0,0,0,17-1.876a2.192,2.192,0,0,0,1.926-.984,5.12,5.12,0,0,0,.681-2.868Zm7.587-5.769L30.3-3.32l3.088-8.766h3.271V0h-2.5V-3.3l.249-5.7L31.145,0h-1.71L26.181-9,26.43-3.3V0h-2.49V-12.086ZM46.1-5.238H41.321V-2h5.611V0h-8.1V-12.086h8.085v2.017H41.321v2.88H46.1Zm11.555-4.831h-3.7V0h-2.49V-10.069H47.813v-2.017h9.845Zm11.115,4.3a7.3,7.3,0,0,1-.631,3.129A4.751,4.751,0,0,1,66.336-.564a4.994,4.994,0,0,1-2.694.73,5.028,5.028,0,0,1-2.681-.722,4.8,4.8,0,0,1-1.826-2.063A7.087,7.087,0,0,1,58.479-5.7v-.6a7.258,7.258,0,0,1,.643-3.142,4.79,4.79,0,0,1,1.818-2.083,5,5,0,0,1,2.685-.726,5,5,0,0,1,2.685.726,4.79,4.79,0,0,1,1.818,2.083,7.237,7.237,0,0,1,.643,3.134Zm-2.523-.548a5.086,5.086,0,0,0-.681-2.889,2.218,2.218,0,0,0-1.942-.988,2.219,2.219,0,0,0-1.934.975A5.028,5.028,0,0,0,61-6.358v.589A5.15,5.15,0,0,0,61.683-2.9a2.212,2.212,0,0,0,1.959,1.021,2.192,2.192,0,0,0,1.926-.984,5.12,5.12,0,0,0,.681-2.868ZM73.072-2h5.288V0H70.582V-12.086h2.49ZM89.184-5.769a7.3,7.3,0,0,1-.631,3.129A4.751,4.751,0,0,1,86.747-.564a4.994,4.994,0,0,1-2.694.73,5.028,5.028,0,0,1-2.681-.722,4.8,4.8,0,0,1-1.826-2.063A7.087,7.087,0,0,1,78.891-5.7v-.6a7.258,7.258,0,0,1,.643-3.142,4.79,4.79,0,0,1,1.818-2.083,5,5,0,0,1,2.685-.726,5,5,0,0,1,2.685.726A4.79,4.79,0,0,1,88.54-9.442a7.237,7.237,0,0,1,.643,3.134ZM86.66-6.317a5.086,5.086,0,0,0-.681-2.889,2.218,2.218,0,0,0-1.942-.988,2.219,2.219,0,0,0-1.934.975,5.028,5.028,0,0,0-.689,2.86v.589A5.15,5.15,0,0,0,82.095-2.9a2.212,2.212,0,0,0,1.959,1.021,2.192,2.192,0,0,0,1.926-.984,5.12,5.12,0,0,0,.681-2.868Zm13.9,4.79a4.322,4.322,0,0,1-1.9,1.249,7.961,7.961,0,0,1-2.723.444A5.393,5.393,0,0,1,93.18-.519a4.568,4.568,0,0,1-1.826-1.988,7,7,0,0,1-.66-3.063v-.822a7.431,7.431,0,0,1,.61-3.134,4.513,4.513,0,0,1,1.76-2.025,5.069,5.069,0,0,1,2.694-.7,5.048,5.048,0,0,1,3.362,1.025,4.381,4.381,0,0,1,1.436,2.984H98.132A2.41,2.41,0,0,0,97.4-9.762a2.346,2.346,0,0,0-1.565-.481,2.208,2.208,0,0,0-1.934.955,5.019,5.019,0,0,0-.672,2.839v.772a4.778,4.778,0,0,0,.722,2.872,2.473,2.473,0,0,0,2.117.971,2.762,2.762,0,0,0,2-.6V-4.516H95.8V-6.35h4.756ZM105.221,0h-2.49V-12.086h2.49Zm-.772-15.348h2.615l-2.3,2.573h-1.951Zm9.9,12.858h-4.366L109.155,0h-2.648l4.5-12.086h2.308L117.838,0H115.19Zm-3.694-2.017h3.021L112.16-9.031Zm19.814-.432H125.69V0H123.2V-12.086h7.869v2.017H125.69v3.121h4.781Zm11.189-7.147v7.96A4.076,4.076,0,0,1,140.42-.988,4.784,4.784,0,0,1,137.029.166a4.838,4.838,0,0,1-3.362-1.121,4.006,4.006,0,0,1-1.27-3.08v-8.052h2.49v7.977a2.3,2.3,0,0,0,.569,1.731,2.183,2.183,0,0,0,1.573.544q2.1,0,2.133-2.208v-8.043ZM153.531,0h-2.49l-4.848-7.952V0H143.7V-12.086h2.49l4.856,7.969v-7.969h2.482Zm9.446-5.238H158.2V-2h5.611V0h-8.1V-12.086h8.085v2.017H158.2v2.88h4.781Zm6.765.813h-1.984V0h-2.49V-12.086h4.491a5.076,5.076,0,0,1,3.3.955,3.3,3.3,0,0,1,1.162,2.7,3.718,3.718,0,0,1-.535,2.063,3.652,3.652,0,0,1-1.623,1.316l2.615,4.939V0h-2.673Zm-1.984-2.017h2.009a2.057,2.057,0,0,0,1.453-.477,1.706,1.706,0,0,0,.515-1.316,1.826,1.826,0,0,0-.486-1.345,2.018,2.018,0,0,0-1.49-.49h-2ZM182.941-2.49h-4.366L177.745,0H175.1l4.5-12.086H181.9L186.427,0h-2.648Zm-3.694-2.017h3.021L180.75-9.031Zm12.783.083h-1.984V0h-2.49V-12.086h4.491a5.076,5.076,0,0,1,3.3.955,3.3,3.3,0,0,1,1.162,2.7,3.718,3.718,0,0,1-.535,2.063,3.652,3.652,0,0,1-1.623,1.316l2.615,4.939V0H194.3Zm-1.984-2.017h2.009a2.057,2.057,0,0,0,1.453-.477,1.706,1.706,0,0,0,.515-1.316,1.826,1.826,0,0,0-.486-1.345,2.018,2.018,0,0,0-1.49-.49h-2ZM201.053,0h-2.49V-12.086h2.49Zm9.131-2.49h-4.366L204.988,0H202.34l4.5-12.086h2.308L213.67,0h-2.648ZM206.49-4.507h3.021l-1.519-4.524Z" transform="translate(1142.832 805.771)" fill="#1d272b"/>
    <path id="Trazado_166434" data-name="Trazado 166434" d="M0,0H3.642V48.255H0Z" transform="translate(1134.638 767.009)" fill="#d93328"/>
  </g>
</svg>
