<svg xmlns="http://www.w3.org/2000/svg" xmlns:xlink="http://www.w3.org/1999/xlink" width="433.674" height="246.889" viewBox="0 0 433.674 246.889">
  <defs>
    <linearGradient id="linear-gradient" x1="2.863" y1="-1.338" x2="0.5" y2="1" gradientUnits="objectBoundingBox">
      <stop offset="0" stop-color="#fff"/>
      <stop offset="1" stop-color="#f8f8f8"/>
    </linearGradient>
    <linearGradient id="linear-gradient-5" x1="0.5" x2="0.5" y2="1" gradientUnits="objectBoundingBox">
      <stop offset="0" stop-color="#f5f5f5"/>
      <stop offset="0.25" stop-color="#f5f5f5"/>
      <stop offset="1" stop-color="#a7b3cf"/>
    </linearGradient>
    <linearGradient id="linear-gradient-9" x1="0.5" y1="0" xlink:href="#linear-gradient"/>
  </defs>
  <g id="Grupo_129333" data-name="Grupo 129333" transform="translate(-200.599 -1147.31)">
    <g id="Grupo_129265" data-name="Grupo 129265" transform="translate(30 11)">
      <g id="Grupo_129264" data-name="Grupo 129264" transform="translate(170.599 1140.071)">
        <path id="Trazado_151846" data-name="Trazado 151846" d="M458.235,319.559c16.449-14.327,21.128-32.922,12.419-49.342-5.507-10.381-16.074-20.025-17.425-30.85-2.7-21.644,31.361-39.141,38.427-60.457,3.106-9.368-.283-20.282-13.6-25.973-13.15-5.62-31.919-4.473-46.806-.537s-27.484,10.237-41.778,14.844-31.894,7.454-46.988,3.788a43.02,43.02,0,0,1-28.82-22.2c-4.857-9.124-7.243-18.84-15.533-27.106-13.664-13.622-42.8-21.05-69.949-19.128s-51.408,12.45-64.42,26.282-15.286,30.561-8.809,45.839c3.286,7.748,8.7,15.168,11.649,22.961s3.222,16.322-3.367,23.341c-13.779,14.678-50.128,16.725-69.164,29.312-15.711,10.389-16.2,26.243-7.288,39.019s25.672,23.142,42.378,33c77.923,1.506,157.243,1.605,235.166,3.111C394.615,326.056,427.985,320.582,458.235,319.559Z" transform="translate(-80.961 -97.388)" fill="#a4a4b4" opacity="0.354" style="mix-blend-mode: multiply;isolation: isolate"/>
        <path id="Trazado_151847" data-name="Trazado 151847" d="M359.21,165.671c-.126,11.74,12.729,21.958,10.492,33.536-1.2,6.2-6.634,12.475-3.474,18.126,2.8,5,10.8,5.867,16.926,4.241,14.332-3.806,23.043-16.524,27.209-29.023,3.919-11.756,4.891-24.888-1.384-35.847-5.057-8.83-16.724-16.625-28.572-15.9C369.555,141.462,359.3,156.827,359.21,165.671Z" transform="translate(20.179 -102.2)" fill="#a4a4b4" opacity="0.31" style="mix-blend-mode: multiply;isolation: isolate"/>
        <path id="Trazado_151848" data-name="Trazado 151848" d="M113.3,135.58a49.393,49.393,0,0,0-.985,48.062c2.536,4.652,5.96,8.988,10.584,11.575s10.589,3.164,15.191.539c6.979-3.981,8.523-13.372,7.968-21.388s-2.372-16.42.715-23.838c2.013-4.836,5.877-8.606,9.3-12.566s6.627-8.582,6.8-13.817c.459-13.57-13.948-12.556-22.63-9.738A49.344,49.344,0,0,0,113.3,135.58Z" transform="translate(-57.998 -106.594)" fill="#a4a4b4" opacity="0.31" style="mix-blend-mode: multiply;isolation: isolate"/>
        <g id="Grupo_107069" data-name="Grupo 107069" transform="translate(7.477 0)" style="mix-blend-mode: multiply;isolation: isolate">
          <path id="Trazado_151849" data-name="Trazado 151849" d="M454.238,321.305l-1.683-.88c4.632-2.9,12.025-9.541,9.522-21.485-1.114-5.317-3.875-10.569-6.546-15.648-1.192-2.269-2.426-4.616-3.5-6.945-11.486-24.861-6.461-52.286,13.784-75.241,1.8-2.037,3.744-4.081,5.627-6.058,5.58-5.86,11.349-11.92,13.831-18.465,4.351-11.487-4.25-20.1-14.083-23.234-9.434-3.012-22.751-2.552-36.533,1.264-5.042,1.4-9.943,3.1-14.682,4.752a185.771,185.771,0,0,1-19.692,6.034c-27.357,6.283-61.561.943-79.558-12.419-8.65-6.421-13.534-14.182-18.257-21.688-1.83-2.908-3.723-5.916-5.8-8.794a55.21,55.21,0,0,0-38-22.864c-17.292-2.362-34.806,2.829-46.451,7.6-22.28,9.126-37.984,21.485-44.223,34.8-4.206,8.979-4.375,18.752-4.54,28.2-.244,14.075-.5,28.628-14.38,40.349-6.316,5.332-15,9.586-23.4,13.7-7.868,3.853-16,7.838-22.069,12.667-13.742,10.943-17.111,26.436-9.242,42.506,7.071,14.439,21.485,27.251,35.425,39.641l-1.916.706c-14.03-12.47-28.539-25.366-35.7-39.994-8.057-16.454-4.564-32.353,9.585-43.62,6.225-4.958,14.467-8.993,22.436-12.9,8.287-4.058,16.856-8.255,23-13.441,13.5-11.4,13.736-25.11,13.987-39.63.165-9.533.336-19.389,4.619-28.529,6.374-13.605,22.391-26.22,45.1-35.523,12.03-4.927,30.175-10.282,48.306-7.806A57.317,57.317,0,0,1,298.766,122c2.1,2.906,4,5.928,5.843,8.851,4.663,7.41,9.484,15.074,17.917,21.333,17.4,12.917,50.461,18.079,76.907,12a183.636,183.636,0,0,0,19.356-5.937c4.784-1.667,9.732-3.39,14.872-4.813,14.459-4,28.541-4.452,38.636-1.229,10.544,3.366,19.8,12.515,15.2,24.65-2.551,6.729-8.4,12.872-14.058,18.814-1.874,1.968-3.812,4-5.593,6.021-20,22.675-24.96,49.763-13.615,74.32,1.066,2.309,2.294,4.645,3.481,6.9,2.7,5.132,5.489,10.439,6.628,15.869C466.951,311.246,459.131,318.244,454.238,321.305Z" transform="translate(-87.906 -97.739)" fill="#a4a4b4"/>
        </g>
      </g>
    </g>
    <g id="Grupo_127447" data-name="Grupo 127447" transform="translate(-709.393 -203.133)">
      <g id="Grupo_122147" data-name="Grupo 122147" transform="translate(968.244 1378.463)">
        <g id="Grupo_106414" data-name="Grupo 106414" transform="translate(0 0)" opacity="0.27">
          <g id="Grupo_106366" data-name="Grupo 106366" transform="translate(0 0)">
            <path id="Trazado_149847" data-name="Trazado 149847" d="M438.668,123.535c0,60.435-70.443,109.432-157.337,109.432s-157.335-49-157.335-109.432S194.436,14.1,281.33,14.1,438.668,63.093,438.668,123.535Z" transform="translate(-123.995 -14.099)" fill="#afafaf" opacity="0.103"/>
          </g>
        </g>
      </g>
      <g id="Grupo_122148" data-name="Grupo 122148" transform="translate(953.168 1390.309)">
        <g id="Grupo_106414-2" data-name="Grupo 106414" transform="translate(0 0)">
          <g id="coronavirus" transform="translate(0 0)">
            <g id="Grupo_106376" data-name="Grupo 106376" transform="translate(169.774 1.804)">
              <g id="Grupo_106372" data-name="Grupo 106372" transform="translate(47.38 3.357)">
                <g id="haed" transform="translate(3.525 2.887)">
                  <g id="Grupo_106370" data-name="Grupo 106370">
                    <g id="Grupo_106367" data-name="Grupo 106367">
                      <path id="Trazado_149848" data-name="Trazado 149848" d="M211.992,37.326c-.744-2.984-.831-6.637,1.074-9.233,2.993-4.093,10.692-4.91,14.288-1.326,2.383,2.375,3.045,5.19,2.954,8.511-.056,1.888.208,3.742,1.665,5.114.176.167.389.395.287.619-.091.208-.371.219-.593.274-.7.178-1.016.979-1.126,1.687a29.226,29.226,0,0,1-.922,5.079,1.587,1.587,0,0,1-.651.916,1.921,1.921,0,0,1-1.155.117c-1.317-.148-2.622-.367-3.922-.642a.74.74,0,0,0-.228.141,1.905,1.905,0,0,0-.4.948c-.6,2.648-1.194,5.289-1.789,7.938a46.535,46.535,0,0,0-9.318-5.717,12.258,12.258,0,0,0,1.858-9.175A23.016,23.016,0,0,1,211.992,37.326Z" transform="translate(-211.5 -24.496)" fill="#ff8f67"/>
                      <path id="Trazado_149849" data-name="Trazado 149849" d="M221.68,40.219a.163.163,0,0,1-.065-.013c-.185-.065-4.588-1.656-5.671-5.255a.194.194,0,0,1,.128-.239.191.191,0,0,1,.237.128c1.027,3.414,5.389,4.992,5.433,5.009a.191.191,0,0,1-.063.371Z" transform="translate(-207.709 -15.775)" fill="#894c4c"/>
                    </g>
                    <g id="Grupo_106369" data-name="Grupo 106369" transform="translate(15.826 11.208)">
                      <g id="Grupo_106368" data-name="Grupo 106368">
                        <path id="Trazado_149850" data-name="Trazado 149850" d="M222.393,31.645a.514.514,0,0,1-.237.011,2.247,2.247,0,0,0-1.315.2.544.544,0,1,1-.523-.953,3.36,3.36,0,0,1,2.034-.319.541.541,0,0,1,.434.632A.532.532,0,0,1,222.393,31.645Z" transform="translate(-220.034 -30.54)" fill="#1d272b"/>
                        <path id="Trazado_149851" data-name="Trazado 149851" d="M221.523,32.138c.015.445-.145.818-.356.825s-.393-.35-.41-.8.146-.82.358-.829S221.51,31.691,221.523,32.138Z" transform="translate(-219.417 -29.861)" fill="#a86060"/>
                      </g>
                    </g>
                  </g>
                  <path id="Trazado_149852" data-name="Trazado 149852" d="M220.781,35.276a.154.154,0,0,1-.117-.252,1.66,1.66,0,0,1,1.688-.43.153.153,0,1,1-.076.3,1.375,1.375,0,0,0-1.378.33A.153.153,0,0,1,220.781,35.276Z" transform="translate(-203.701 -15.926)" fill="#894c4c"/>
                  <g id="Grupo_106371" data-name="Grupo 106371" transform="translate(7.732 12.859)">
                    <path id="Trazado_149853" data-name="Trazado 149853" d="M216.8,32.6a.267.267,0,0,1-.054-.007l-.94-.273a.192.192,0,0,1-.132-.236.188.188,0,0,1,.236-.13l.942.271a.191.191,0,0,1-.052.375Z" transform="translate(-215.669 -30.993)" fill="#894c4c"/>
                    <path id="Trazado_149854" data-name="Trazado 149854" d="M216.766,34.087h-.006a.19.19,0,0,1-.185-.195c.011-.49-.083-1.821-.653-2.1a.191.191,0,0,1-.087-.256.193.193,0,0,1,.256-.087c.886.438.87,2.246.864,2.451A.189.189,0,0,1,216.766,34.087Z" transform="translate(-215.544 -31.431)" fill="#894c4c"/>
                  </g>
                </g>
                <path id="Trazado_149855" data-name="Trazado 149855" d="M231.658,27.656a11.063,11.063,0,0,0-5.133-4.005c-4.525-1.719-9.546-.171-13.118,3.006a11.961,11.961,0,0,0-3.332,12.012c.881,2.778,2.819,4.914,2.9,7.894-.013.447.015.9.046,1.35a5.492,5.492,0,0,0,1.064-3.1c.427,1.152.119,3.045.2,4.419a6.5,6.5,0,0,0,2.95-1.45,12.945,12.945,0,0,0,1.834-2.622,10.32,10.32,0,0,0,1.287-4.8c.065-.781,1.237-3.189,2.018-1.686.4.771-.376,2.995,1.3,2.73-.274-1.424-.38-1.927.389-3.134.4-.625,1.908-2.127,1.815-2.884.041.334.065,2.524-.4,2.611,3.132-.582,7.543-4.449,7.076-7.99A5.717,5.717,0,0,0,231.658,27.656Z" transform="translate(-209.599 -22.939)" fill="#1d272b"/>
              </g>
              <path id="Trazado_149856" data-name="Trazado 149856" d="M199.776,118.264c-2.967-1.6-5.988-4.851-9.678-4.089-2.737.564-6.27,3.321-6.04,6.338.191,2.437,3.5,4.133,5.309,5.52,4.4,3.367,7.905,6.429,13.192,7.966,5.138,1.495,13.581,1.482,8.026-5.366-1.747-2.151-3.813-3.946-5.4-6.271-.92-1.354-.451-1.467-1.819-2.509C202.419,119.128,200.791,118.811,199.776,118.264Z" transform="translate(-184.048 58.267)" fill="#f7b242"/>
              <g id="Grupo_106373" data-name="Grupo 106373" transform="translate(32.022 35.637)">
                <path id="Trazado_149857" data-name="Trazado 149857" d="M235.094,92.919H212.851c-2.368-.1-4.425-.247-4.425-.247-9.22-.593-7.538-11.484-5.543-17.881,1.268-4.068-.263-6.815.241-10.662.5-3.8,1.936-5.632,1.567-9.646-.551-6.056,5.465-14.136,12.181-14.136h6.477c3.916,0,8.4,1.289,11.015,4.38,2.843,3.36,1.839,7.777,3.924,11.328,2.383,4.055.738,9.277,1.58,13.7.916,4.8,1.194,9.364,1.712,14.258,0,0,.015.13.028.345C241.706,85.943,241.753,92.532,235.094,92.919Z" transform="translate(-201.317 -40.347)" fill="url(#linear-gradient)"/>
              </g>
              <g id="Grupo_106374" data-name="Grupo 106374" transform="translate(45.042 80.924)">
                <path id="Trazado_149858" data-name="Trazado 149858" d="M236.621,118.375c-3.3.662-7.707.085-10.064,3.026-1.745,2.181-2.705,6.555-.6,8.73,1.7,1.76,5.326.955,7.607.868,5.539-.215,10.19-.1,15.243-2.285,4.91-2.129,11.4-7.525,2.756-9.253-2.717-.543-5.455-.606-8.157-1.387-1.571-.452-1.281-.84-3-.77C239.209,117.357,237.746,118.147,236.621,118.375Z" transform="translate(-194.312 -19.893)" fill="#f7b242"/>
                <path id="Trazado_149859" data-name="Trazado 149859" d="M251.566,116.486c1.858,5.357,1.652,11.122,3.23,16.5,1.389,4.742,3.494,9.75,4.005,14.647.438,4.195,3.442,7.677,4.348,11.734,1.022,4.573-2.539,4.124-5.635,5.068-1.463.443-2.275,1.691-3.681,2.1-2.8.816-5.42-1.676-8.267-.731-2.16.721-3.36,2.895-5.971,2.776-4.2-.191-5.265-9.724-5.782-13.635-.729-5.5-3.681-11.085-3.64-16.594.043-5.977-2.8-10-4.5-15.693s-3.837-10.451-4.918-16.454c-1.061-5.876-5.993-8.784-7.191-14.837-.6-3.023-.671-4.745-2.455-7.441-4.521-6.807-3.848-14.6,4.584-18.124a13.367,13.367,0,0,1,17.464,7.084q3.341,7.913,6.687,15.825,4.742,11.218,9.479,22.438c.727,1.721,1.58,3.438,2.2,5.2C251.535,116.4,251.551,116.442,251.566,116.486Z" transform="translate(-208.338 -64.769)" fill="url(#linear-gradient)"/>
              </g>
              <path id="Trazado_149860" data-name="Trazado 149860" d="M227.269,126.83q-.27.84-.545,1.678c-3.191,9.717-8.515,19.115-12.776,28.423-1.165,2.542-4.02,12.1-6.106,12.5-3.855.745-8.421-5.476-12.009-6.655-3.11-1.025-10.79-3.245-10.627-7.786.2-5.493,4.816-11.063,7.41-15.61,1.491-2.618,1.611-5.226,2.641-7.855,1.795-4.584,5.04-8.189,6.718-12.9.66-1.856,1.359-3.592,1.888-5.517q2.05-7.46,4.1-14.92,3.282-11.958,6.568-23.912a13.322,13.322,0,1,1,25.694,7.056q-2.631,9.582-5.268,19.168C232.515,109.37,230.071,118.13,227.269,126.83Z" transform="translate(-183.062 15.904)" fill="url(#linear-gradient)"/>
              <path id="Trazado_149861" data-name="Trazado 149861" d="M223.918,41.364a9.685,9.685,0,0,1,4.384-5.852c.859-.554,8.37-3.52,8.6-2.027-.3-1.967,1.356-2.54,1.072-4.406-.232-1.535-2.715-3.718-3.844-4.569-10.082-7.6-22.573-1.446-27.487,9.075-1.979,4.237-2.179,9.153-1.975,13.748.323,7.308,2.542,17.707,11.738,15.5a20.009,20.009,0,0,1,7.137-.673c5.174.345,2.895-1.841,2-5.014-1.322-4.7-2.934-10.364-1.741-15.35C223.84,41.651,223.879,41.506,223.918,41.364Z" transform="translate(-166.484 -21.129)" fill="url(#linear-gradient)"/>
              <path id="Trazado_149862" data-name="Trazado 149862" d="M226.566,32.342a1.49,1.49,0,0,0-.36-.069,24.465,24.465,0,0,0-2.78.128c-1.713.083-3.425.161-5.14.245l-1.333,5.014c-.219.827.6,2.3,1.044,2.911a4.623,4.623,0,0,0,2.272,1.68,6.112,6.112,0,0,0,1.853.312A5.585,5.585,0,0,0,224,42.546c.571-.195.788-.747,1.1-1.216a15.211,15.211,0,0,0,1.508-2.859,21.975,21.975,0,0,0,1.007-3.451C227.838,34.037,227.561,32.67,226.566,32.342Z" transform="translate(-155.968 -11.622)" fill="url(#linear-gradient-5)"/>
              <path id="Trazado_149863" data-name="Trazado 149863" d="M220.405,34.219s-2.3-5.172-5.17-2.349l-.313.732s2.559-3.4,5.014,1.93S220.405,34.219,220.405,34.219Z" transform="translate(-157.671 -12.673)" fill="url(#linear-gradient-5)"/>
              <path id="Trazado_149864" data-name="Trazado 149864" d="M220.181,35.194s-4.18,0-5.224-3.657l-.26.836s.573,2.874,5.537,3.189S220.181,35.194,220.181,35.194Z" transform="translate(-157.863 -12.237)" fill="url(#linear-gradient-5)"/>
              <g id="Grupo_106375" data-name="Grupo 106375" transform="translate(7.386 34.694)">
                <path id="Trazado_149865" data-name="Trazado 149865" d="M223.811,40.14c-4.992,2.1-8.094,5.016-12.094,8.838a60.254,60.254,0,0,0-5.381,5.546c-2.131,2.609-5.112,3.822-7.267,6.334-2.177,2.542-3.037,5.9-4.91,8.673a20.386,20.386,0,0,0-3.206,6.325c-.8,2.815-1.945,5.706-2.116,8.656-.276,4.788,1.89,5.57,6.353,6.4,3.894.725,3.879.415,5.318-3.3,1.17-3.021,2.014-6.038,3.382-9.018,1.658-3.622,3.937-4.84,6.805-7.835,3.173-3.31,4.747-5.179,9.051-6.616,3.54-1.185,3.948-2.83,5.29-6.155,1.437-3.575,5.472-14.084,1.83-17.37-1.014-.916-2.442-1.209-3.2.135Z" transform="translate(-187.363 -39.839)" fill="url(#linear-gradient)"/>
                <path id="Trazado_149866" data-name="Trazado 149866" d="M188.133,72.617c.445-2.57,1.063-8.676,4.959-8.556a9.012,9.012,0,0,1,4.814,2.2c2.691,2.233,2.171,6.249,1.589,9.29a4.587,4.587,0,0,0-.154,1.569c.1.449.7.818.76,1.178a1.235,1.235,0,0,1-1.493,1.356c-.881-.106-1.244-1.135-2.168-.809-.872.31-.556,1.326-.834,2.047a1.652,1.652,0,0,1-1.986,1.048c-.4-.061-.9-.577-1.153-.6-.58-.054-.391.393-.91.523s-.53.121-.979-.232c-.111-.083.02-.558-.161-.677s-.451,0-.49-.02c-.4-.217-.7.18-1.114-.562-.519-.936-.4-2.507-.523-3.542A14.933,14.933,0,0,1,188.133,72.617Z" transform="translate(-188.031 -19.146)" fill="#b1e5d2"/>
              </g>
              <path id="Trazado_149867" data-name="Trazado 149867" d="M202.758,59.165l-.273-.134-.221-.208a13.934,13.934,0,0,1,3.152-3.629c.48-.336,1.076-.834,1.706-1.365,2.2-1.849,4.938-4.154,7.2-3.555a.3.3,0,0,1,.213.365.293.293,0,0,1-.365.213c-1.966-.512-4.677,1.769-6.663,3.436-.64.538-1.246,1.046-1.747,1.4A13.533,13.533,0,0,0,202.758,59.165Z" transform="translate(-168.485 3.689)" fill="#fff"/>
              <path id="Trazado_149868" data-name="Trazado 149868" d="M233.447,67.034c1.411,1.775,2.882,3.507,4.272,5.305,2.527,3.278,4.208,6.837,7.115,9.83,1.322,1.359,7.686,6.614,2.433,7.193,1.339,2.118,2.231,4.857-1.142,5.567-1.279.267-1.259,1.254-3.043.938-1.417-.25-2.813-1.671-3.894-2.533-2.672-2.129-3.39-4.714-5.34-7.471-2.181-3.086-5.745-5.726-9.071-7.866-4.055-2.609-8.252-6.778-7.738-11.92.289-2.926.76-11.8,3.588-13.479,3.529-2.092,7.632,6.642,8.819,8.714A45.748,45.748,0,0,0,233.447,67.034Z" transform="translate(-155.901 5.482)" fill="url(#linear-gradient-9)"/>
              <path id="Trazado_149869" data-name="Trazado 149869" d="M221.729,78.986a2.586,2.586,0,0,1-.636-.083.3.3,0,1,1,.147-.58,1.625,1.625,0,0,0,1.654-.46c1.741-1.76,1.847-7.486,1.35-9.374a14.746,14.746,0,0,0-1.157-2.8,12.487,12.487,0,0,1-1.315-3.525,32.284,32.284,0,0,1-.278-4.732c-.006-.551-.011-1.09-.028-1.606a.3.3,0,0,1,.291-.308.307.307,0,0,1,.31.289c.015.519.02,1.063.026,1.619a31.881,31.881,0,0,0,.273,4.641,11.839,11.839,0,0,0,1.259,3.355,15.208,15.208,0,0,1,1.2,2.915c.521,1.977.491,7.935-1.5,9.949A2.189,2.189,0,0,1,221.729,78.986Z" transform="translate(-152.592 8.25)" fill="#fff"/>
              <path id="Trazado_149870" data-name="Trazado 149870" d="M198.257,157.689a.368.368,0,0,1-.172-.045.36.36,0,0,1-.145-.488,34.077,34.077,0,0,0,2.322-5.919,45.393,45.393,0,0,1,1.7-4.688c.749-1.678,1.624-3.323,2.472-4.912.87-1.632,1.769-3.319,2.526-5.035.864-1.96,1.715-3.788,2.539-5.557a111.059,111.059,0,0,0,7.69-20.337c.844-3.171,1.827-6.359,2.776-9.44.478-1.548.957-3.1,1.419-4.651l5.624-18.879a.357.357,0,0,1,.449-.243.362.362,0,0,1,.243.449l-5.624,18.881c-.464,1.554-.942,3.1-1.42,4.656-.948,3.074-1.93,6.253-2.769,9.411a111.5,111.5,0,0,1-7.734,20.455c-.822,1.767-1.671,3.594-2.533,5.546-.766,1.739-1.673,3.44-2.548,5.083-.842,1.578-1.712,3.212-2.451,4.866a45.759,45.759,0,0,0-1.671,4.615,34.6,34.6,0,0,1-2.374,6.041A.36.36,0,0,1,198.257,157.689Z" transform="translate(-172.217 27.014)" fill="#fff"/>
            </g>
            <g id="Grupo_106388" data-name="Grupo 106388" transform="translate(54.964 4.6)">
              <g id="Grupo_106386" data-name="Grupo 106386">
                <g id="Grupo_106384" data-name="Grupo 106384" transform="translate(0.517)">
                  <g id="Grupo_106382" data-name="Grupo 106382" transform="translate(30.651 3.358)">
                    <g id="haed-2" data-name="haed" transform="translate(3.526 2.886)">
                      <g id="Grupo_106380" data-name="Grupo 106380">
                        <g id="Grupo_106377" data-name="Grupo 106377">
                          <path id="Trazado_149871" data-name="Trazado 149871" d="M141.334,38.833c-.742-2.984-.829-6.635,1.072-9.233,2.995-4.091,10.7-4.91,14.291-1.324,2.383,2.372,3.045,5.188,2.952,8.511-.054,1.886.21,3.738,1.665,5.114.178.167.391.4.287.617s-.371.223-.592.276c-.7.178-1.02.977-1.126,1.687a29.294,29.294,0,0,1-.922,5.079,1.6,1.6,0,0,1-.651.916,1.906,1.906,0,0,1-1.155.115c-1.317-.148-2.626-.365-3.922-.642a.712.712,0,0,0-.228.143,1.9,1.9,0,0,0-.4.948q-.9,3.969-1.791,7.937a46.476,46.476,0,0,0-9.318-5.715,12.258,12.258,0,0,0,1.86-9.175A22.919,22.919,0,0,1,141.334,38.833Z" transform="translate(-140.843 -26.003)" fill="#ff8f67"/>
                          <path id="Trazado_149872" data-name="Trazado 149872" d="M151.023,41.725a.16.16,0,0,1-.063-.013c-.185-.065-4.591-1.654-5.672-5.253a.193.193,0,0,1,.126-.239.191.191,0,0,1,.239.128c1.025,3.414,5.391,4.99,5.435,5.007a.191.191,0,0,1-.065.371Z" transform="translate(-137.053 -17.282)" fill="#894c4c"/>
                        </g>
                        <g id="Grupo_106379" data-name="Grupo 106379" transform="translate(15.824 11.209)">
                          <g id="Grupo_106378" data-name="Grupo 106378">
                            <path id="Trazado_149873" data-name="Trazado 149873" d="M151.736,33.155a.489.489,0,0,1-.237.007,2.243,2.243,0,0,0-1.313.2.543.543,0,1,1-.525-.951,3.371,3.371,0,0,1,2.034-.319.544.544,0,0,1,.041,1.061Z" transform="translate(-149.377 -32.048)" fill="#1d272b"/>
                            <path id="Trazado_149874" data-name="Trazado 149874" d="M150.868,33.646c.015.445-.145.818-.358.825s-.393-.35-.41-.8.148-.82.358-.827S150.853,33.2,150.868,33.646Z" transform="translate(-148.76 -31.369)" fill="#a86060"/>
                          </g>
                        </g>
                      </g>
                      <path id="Trazado_149875" data-name="Trazado 149875" d="M150.125,36.784a.154.154,0,0,1-.117-.252A1.665,1.665,0,0,1,151.7,36.1a.152.152,0,0,1,.109.185.154.154,0,0,1-.185.111,1.348,1.348,0,0,0-1.378.332A.153.153,0,0,1,150.125,36.784Z" transform="translate(-133.044 -17.433)" fill="#894c4c"/>
                      <g id="Grupo_106381" data-name="Grupo 106381" transform="translate(7.73 12.859)">
                        <path id="Trazado_149876" data-name="Trazado 149876" d="M146.145,34.1a.18.18,0,0,1-.052-.009l-.944-.269a.19.19,0,0,1,.106-.365l.944.269a.189.189,0,0,1,.13.236A.192.192,0,0,1,146.145,34.1Z" transform="translate(-145.012 -32.499)" fill="#894c4c"/>
                        <path id="Trazado_149877" data-name="Trazado 149877" d="M146.107,35.6h0a.19.19,0,0,1-.185-.195c.011-.49-.083-1.821-.653-2.1a.191.191,0,1,1,.169-.343c.888.436.87,2.246.864,2.45A.19.19,0,0,1,146.107,35.6Z" transform="translate(-144.887 -32.938)" fill="#894c4c"/>
                      </g>
                    </g>
                    <path id="Trazado_149878" data-name="Trazado 149878" d="M161,29.162a11.048,11.048,0,0,0-5.131-4c-4.526-1.719-9.546-.171-13.116,3.006a11.956,11.956,0,0,0-3.334,12.012c.881,2.778,2.819,4.912,2.906,7.892a13.231,13.231,0,0,0,.044,1.352,5.478,5.478,0,0,0,1.064-3.1c.426,1.152.121,3.045.206,4.417a6.511,6.511,0,0,0,2.948-1.448,12.933,12.933,0,0,0,1.836-2.622,10.341,10.341,0,0,0,1.285-4.8c.067-.781,1.237-3.191,2.018-1.687.4.775-.376,3,1.305,2.731-.276-1.424-.384-1.927.388-3.136.4-.623,1.908-2.127,1.817-2.882.041.334.065,2.522-.4,2.609,3.132-.58,7.543-4.449,7.076-7.987A5.749,5.749,0,0,0,161,29.162Z" transform="translate(-138.942 -24.447)" fill="#1d272b"/>
                  </g>
                  <path id="Trazado_149879" data-name="Trazado 149879" d="M137.532,121.149c-3.221-.992-6.815-3.6-10.288-2.136-2.576,1.085-5.506,4.473-4.693,7.39.655,2.353,4.228,3.377,6.275,4.386,4.97,2.453,9,4.775,14.486,5.259,5.333.471,13.611-1.178,6.833-6.817-2.131-1.775-4.506-3.136-6.509-5.109-1.166-1.146-.727-1.354-2.275-2.11C140.293,121.49,138.631,121.49,137.532,121.149Z" transform="translate(-122.413 59.329)" fill="#f7b242"/>
                  <path id="Trazado_149880" data-name="Trazado 149880" d="M159.279,119.485c-3.367.074-7.6-1.268-10.436,1.213-2.1,1.841-3.814,5.98-2.127,8.491,1.363,2.027,5.077,1.875,7.338,2.188,5.491.762,10.047,1.7,15.406.426,5.209-1.231,12.546-5.4,4.335-8.621-2.579-1.014-5.261-1.556-7.786-2.8-1.467-.721-1.114-1.055-2.82-1.285C162.007,118.938,160.431,119.461,159.279,119.485Z" transform="translate(-102.233 59.748)" fill="#f7b242"/>
                  <g id="Grupo_106383" data-name="Grupo 106383" transform="translate(15.294 35.639)">
                    <path id="Trazado_149881" data-name="Trazado 149881" d="M164.439,94.427H142.192c-2.364-.1-4.424-.247-4.424-.247-9.218-.6-7.536-11.484-5.541-17.881,1.27-4.07-.261-6.817.243-10.664.5-3.8,1.936-5.63,1.567-9.646-.551-6.056,5.465-14.132,12.179-14.132h6.477c3.918,0,8.4,1.285,11.017,4.378,2.843,3.362,1.84,7.777,3.922,11.33,2.381,4.054.74,9.274,1.58,13.7.918,4.8,1.2,9.366,1.712,14.26,0,0,.013.128.03.343C171.051,87.451,171.1,94.039,164.439,94.427Z" transform="translate(-130.66 -41.856)" fill="url(#linear-gradient)"/>
                  </g>
                  <path id="Trazado_149882" data-name="Trazado 149882" d="M160.031,126.478c-.92,5.593-3.848,10.564-5.029,16.046-1.038,4.832-1.574,10.236-3.458,14.787-1.619,3.892-.638,8.385-1.773,12.385-1.281,4.506-4.2,2.416-7.373,1.769-1.5-.306-2.806.4-4.233.095-2.854-.619-3.97-4.057-6.919-4.582-2.244-.393-4.334.942-6.576-.406-3.6-2.173.007-11.059,1.417-14.742,1.982-5.181,2.053-11.5,4.714-16.322,2.887-5.233,2.31-10.127,3.523-15.945s1.608-11.017,3.52-16.808c1.871-5.671-1.079-10.575.751-16.468.916-2.943,1.674-4.491,1.387-7.714-.725-8.139,3.584-14.672,12.674-13.746A13.365,13.365,0,0,1,164.63,79.376q-.832,8.553-1.667,17.1-1.179,12.122-2.361,24.242c-.184,1.862-.25,3.777-.547,5.624C160.046,126.388,160.039,126.432,160.031,126.478Z" transform="translate(-121.809 13.332)" fill="url(#linear-gradient)"/>
                  <path id="Trazado_149883" data-name="Trazado 149883" d="M174.783,121.678c.121.577.237,1.152.354,1.728,2.016,10.028,2.016,20.83,2.891,31.031.243,2.785,2.466,12.506.849,13.885-2.985,2.548-10.023-.614-13.728.124-3.214.643-10.989,2.5-13.086-1.534-2.535-4.875-1.261-12-1.246-17.236.009-3.011-1.174-5.339-1.571-8.131-.7-4.875.349-9.613-.519-14.538-.339-1.943-.586-3.8-1.076-5.732q-1.894-7.5-3.788-15l-6.069-24.042A13.323,13.323,0,1,1,163.629,75.7l4.862,19.276C170.742,103.9,172.932,112.726,174.783,121.678Z" transform="translate(-109.617 14.112)" fill="url(#linear-gradient)"/>
                  <path id="Trazado_149884" data-name="Trazado 149884" d="M137.954,150.993a.416.416,0,0,1-.1-.011.363.363,0,0,1-.252-.445l9.72-35.2,3.369-37.35a.359.359,0,0,1,.716.067l-3.379,37.411L138.3,150.73A.36.36,0,0,1,137.954,150.993Z" transform="translate(-109.443 24.375)" fill="#fff"/>
                  <path id="Trazado_149885" data-name="Trazado 149885" d="M153.263,42.868a9.676,9.676,0,0,1,4.384-5.849c.857-.554,8.37-3.52,8.6-2.027-.3-1.967,1.354-2.54,1.072-4.408-.234-1.532-2.717-3.72-3.846-4.569-10.08-7.594-22.571-1.445-27.487,9.075-1.977,4.237-2.181,9.155-1.975,13.75.323,7.308,2.544,17.707,11.74,15.5a20.078,20.078,0,0,1,7.135-.673c5.175.345,2.895-1.84,2-5.012-1.322-4.7-2.937-10.364-1.743-15.352C153.185,43.159,153.224,43.011,153.263,42.868Z" transform="translate(-112.556 -22.637)" fill="url(#linear-gradient)"/>
                  <path id="Trazado_149886" data-name="Trazado 149886" d="M155.906,33.848a1.444,1.444,0,0,0-.356-.067,24.025,24.025,0,0,0-2.78.13q-2.573.12-5.142.243s-1.328,5-1.331,5.016c-.219.823.6,2.294,1.042,2.908a4.638,4.638,0,0,0,2.272,1.684,6.181,6.181,0,0,0,1.854.31,5.683,5.683,0,0,0,1.884-.015c.571-.2.784-.749,1.1-1.22a15.288,15.288,0,0,0,1.506-2.858,21.8,21.8,0,0,0,1.007-3.453C157.18,35.543,156.9,34.18,155.906,33.848Z" transform="translate(-102.038 -13.129)" fill="url(#linear-gradient-5)"/>
                  <path id="Trazado_149887" data-name="Trazado 149887" d="M149.749,35.727s-2.3-5.172-5.172-2.349l-.312.731s2.557-3.4,5.012,1.93S149.749,35.727,149.749,35.727Z" transform="translate(-103.742 -14.18)" fill="url(#linear-gradient-5)"/>
                  <path id="Trazado_149888" data-name="Trazado 149888" d="M149.524,36.7s-4.178,0-5.224-3.657l-.26.838s.573,2.871,5.535,3.186S149.524,36.7,149.524,36.7Z" transform="translate(-103.935 -13.744)" fill="url(#linear-gradient-5)"/>
                </g>
                <g id="Grupo_106385" data-name="Grupo 106385" transform="translate(0 38.56)">
                  <path id="Trazado_149889" data-name="Trazado 149889" d="M146.17,44.074c-4.371,3.2-6.718,6.748-9.73,11.389a59.741,59.741,0,0,0-3.953,6.637c-1.474,3.03-4.094,4.9-5.609,7.842-1.532,2.976-1.6,6.438-2.778,9.57a20.253,20.253,0,0,0-1.661,6.891c-.128,2.928-.579,6-.063,8.912.836,4.725,3.125,4.986,7.657,4.766,3.959-.193,3.872-.493,4.415-4.441.439-3.206.567-6.338,1.209-9.552.781-3.905,2.717-5.615,4.818-9.194,2.322-3.955,3.425-6.136,7.28-8.526,3.169-1.966,3.189-3.664,3.725-7.206.577-3.814,2.079-14.972-2.223-17.325-1.2-.658-2.654-.614-3.086.868Z" transform="translate(-122.134 -43.431)" fill="url(#linear-gradient-9)"/>
                  <path id="Trazado_149890" data-name="Trazado 149890" d="M122.723,80.6c-.163-2.607-.97-8.693,2.85-9.472a9.032,9.032,0,0,1,5.19,1.029c3.138,1.554,3.555,5.582,3.694,8.676a4.368,4.368,0,0,0,.21,1.56c.2.414.87.636,1.009.972a1.233,1.233,0,0,1-1.139,1.663c-.879.1-1.474-.816-2.3-.287-.779.5-.234,1.417-.341,2.186a1.648,1.648,0,0,1-1.687,1.476c-.41.033-1.014-.354-1.261-.319-.579.083-.289.475-.768.719s-.488.239-1.005,0c-.126-.057-.109-.545-.313-.617-.187-.067-.441.1-.478.089-.441-.115-.645.337-1.216-.287-.719-.792-.97-2.348-1.324-3.325A14.93,14.93,0,0,1,122.723,80.6Z" transform="translate(-121.786 -19.84)" fill="#b1e5d2"/>
                </g>
                <path id="Trazado_149891" data-name="Trazado 149891" d="M131.261,71.372a.3.3,0,0,1-.18-.538c1.352-1.024,1.934-2.878,2.553-4.842a13.963,13.963,0,0,1,1.947-4.395c.362-.462.784-1.114,1.231-1.808,1.561-2.412,3.5-5.417,5.834-5.515a.286.286,0,0,1,.313.287.3.3,0,0,1-.287.313c-2.021.085-3.948,3.063-5.355,5.239-.456.7-.886,1.37-1.263,1.852a13.57,13.57,0,0,0-1.849,4.206c-.619,1.967-1.259,4-2.763,5.138A.3.3,0,0,1,131.261,71.372Z" transform="translate(-114.592 4.392)" fill="#fff"/>
              </g>
              <path id="Trazado_149892" data-name="Trazado 149892" d="M162.788,68.544c1.413,1.773,2.885,3.5,4.274,5.3,2.527,3.277,4.209,6.835,7.117,9.828,1.322,1.359,7.684,6.618,2.431,7.2,1.339,2.114,2.233,4.855-1.142,5.565-1.278.267-1.259,1.25-3.041.938-1.417-.25-2.815-1.671-3.894-2.531-2.674-2.131-3.39-4.716-5.342-7.473-2.183-3.084-5.743-5.726-9.071-7.868-4.055-2.609-8.252-6.779-7.738-11.918.291-2.928.758-11.8,3.586-13.479,3.533-2.09,7.636,6.642,8.823,8.714A46.5,46.5,0,0,0,162.788,68.544Z" transform="translate(-101.455 3.975)" fill="url(#linear-gradient-9)"/>
              <path id="Trazado_149893" data-name="Trazado 149893" d="M151.073,80.494a2.575,2.575,0,0,1-.636-.083.3.3,0,0,1-.217-.363.3.3,0,0,1,.363-.219,1.617,1.617,0,0,0,1.652-.456c1.741-1.758,1.847-7.486,1.352-9.376a15.063,15.063,0,0,0-1.157-2.8,12.494,12.494,0,0,1-1.317-3.525,32.514,32.514,0,0,1-.278-4.751c-.006-.545-.011-1.077-.026-1.585a.3.3,0,0,1,.291-.31h.009a.3.3,0,0,1,.3.291c.017.514.022,1.05.028,1.6a31.91,31.91,0,0,0,.271,4.662,11.831,11.831,0,0,0,1.261,3.355,15.326,15.326,0,0,1,1.2,2.915c.519,1.979.488,7.938-1.5,9.949A2.185,2.185,0,0,1,151.073,80.494Z" transform="translate(-98.146 6.742)" fill="#fff"/>
              <g id="Grupo_106387" data-name="Grupo 106387" transform="translate(9.67 133.655)">
                <path id="Trazado_149894" data-name="Trazado 149894" d="M150.207,140.656a.269.269,0,0,1-.065-.007.3.3,0,0,1-.228-.358c.234-1.05-.679-5.348-1.05-6.915l-1.048-3.89a.263.263,0,0,1-.009-.078c0-2.718-4.094-15.775-4.135-15.907l-3.807-18.427a.3.3,0,0,1,.232-.354.3.3,0,0,1,.354.234l3.8,18.4c.163.508,4.117,13.125,4.156,16.016l1.04,3.863c.141.6,1.357,5.815,1.053,7.193A.3.3,0,0,1,150.207,140.656Z" transform="translate(-116.66 -94.714)" fill="#fff"/>
                <path id="Trazado_149895" data-name="Trazado 149895" d="M135.648,138.566a.3.3,0,0,1-.228-.106c-1.228-1.432-2.168-11.25-2.272-12.365l-5.791-23.352a.3.3,0,1,1,.582-.145l5.8,23.4c.406,4.347,1.3,11.1,2.136,12.075a.3.3,0,0,1-.032.423A.3.3,0,0,1,135.648,138.566Z" transform="translate(-127.348 -88.171)" fill="#fff"/>
              </g>
            </g>
            <g id="Grupo_106403" data-name="Grupo 106403" transform="translate(38.509)">
              <g id="Grupo_106389" data-name="Grupo 106389" transform="translate(0 71.166)">
                <path id="Trazado_149896" data-name="Trazado 149896" d="M347.835,66.331c0,4.287-5.4,7.8-12,7.8H130.666c-6.6,0-12-3.51-12-7.8s5.4-7.8,12-7.8H335.837C342.435,58.534,347.835,62.042,347.835,66.331Z" transform="translate(-108.64 -58.534)" fill="#443b2c"/>
                <g id="cascet" transform="translate(0 5.142)">
                  <rect id="Rectángulo_33884" data-name="Rectángulo 33884" width="244.74" height="48.28" transform="translate(4.859 14.574)" fill="#443b2c"/>
                  <rect id="Rectángulo_33885" data-name="Rectángulo 33885" width="244.436" height="15.487" transform="translate(4.859 0.605)" fill="#443b2c"/>
                  <rect id="Rectángulo_33886" data-name="Rectángulo 33886" width="244.74" height="2.635" transform="translate(4.859 14.574)" fill="#332c21"/>
                  <rect id="Rectángulo_33887" data-name="Rectángulo 33887" width="244.74" height="2.633" transform="translate(4.859)" fill="#332c21"/>
                  <path id="Rectángulo_33888" data-name="Rectángulo 33888" d="M1.965,0H37.206a1.965,1.965,0,0,1,1.965,1.965V7.448a1.965,1.965,0,0,1-1.965,1.965H1.966A1.966,1.966,0,0,1,0,7.447V1.965A1.965,1.965,0,0,1,1.965,0Z" transform="translate(0 6.679)" fill="#b57878"/>
                  <rect id="Rectángulo_33889" data-name="Rectángulo 33889" width="39.169" height="9.413" rx="1.965" transform="translate(214.984 6.679)" fill="#0b0904"/>
                  <rect id="Rectángulo_33890" data-name="Rectángulo 33890" width="240.188" height="4.252" transform="translate(8.5 58.602)" fill="#332c21"/>
                  <path id="Rectángulo_33891" data-name="Rectángulo 33891" d="M1.965,0H37.206a1.965,1.965,0,0,1,1.965,1.965V7.447a1.964,1.964,0,0,1-1.964,1.964H1.964A1.964,1.964,0,0,1,0,7.447V1.965A1.965,1.965,0,0,1,1.965,0Z" transform="translate(1.517 56.782)" fill="#0b0904"/>
                  <path id="Rectángulo_33892" data-name="Rectángulo 33892" d="M1.965,0H37.207a1.963,1.963,0,0,1,1.963,1.963V7.447a1.964,1.964,0,0,1-1.964,1.964H1.965A1.965,1.965,0,0,1,0,7.446V1.965A1.965,1.965,0,0,1,1.965,0Z" transform="translate(212.456 56.782)" fill="#0b0904"/>
                </g>
              </g>
              <g id="Grupo_106390" data-name="Grupo 106390" transform="translate(208.598 100.405)">
                <path id="Trazado_149897" data-name="Trazado 149897" d="M243.049,77.388a3.411,3.411,0,0,1-3.644,3.087h-7.39a3.129,3.129,0,1,1,0-6.173h7.39A3.41,3.41,0,0,1,243.049,77.388Z" transform="translate(-223.514 -74.302)" fill="#0b0904"/>
                <path id="Trazado_149898" data-name="Trazado 149898" d="M228.618,82.337h-2.429V79.2a3.647,3.647,0,0,1,3.644-3.644h15.69a3.646,3.646,0,0,1,3.64,3.644v2.934h-2.427V79.2a1.218,1.218,0,0,0-1.213-1.216h-15.69a1.218,1.218,0,0,0-1.215,1.216Z" transform="translate(-225.379 -73.229)" fill="#0b0904"/>
                <path id="Trazado_149899" data-name="Trazado 149899" d="M225.752,80.631a2.125,2.125,0,1,1,2.127,2.125A2.128,2.128,0,0,1,225.752,80.631Z" transform="translate(-225.752 -70.712)" fill="#0b0904"/>
                <path id="Trazado_149900" data-name="Trazado 149900" d="M236.779,80.631a2.125,2.125,0,1,1,2.125,2.125A2.125,2.125,0,0,1,236.779,80.631Z" transform="translate(-216.331 -70.712)" fill="#0b0904"/>
              </g>
              <g id="Grupo_106391" data-name="Grupo 106391" transform="translate(37.879 100.405)">
                <path id="Trazado_149901" data-name="Trazado 149901" d="M150.982,77.388a3.411,3.411,0,0,1-3.644,3.087h-7.388a3.129,3.129,0,1,1,0-6.173h7.388A3.41,3.41,0,0,1,150.982,77.388Z" transform="translate(-131.45 -74.302)" fill="#0b0904"/>
                <path id="Trazado_149902" data-name="Trazado 149902" d="M136.554,82.337h-2.429V79.2a3.646,3.646,0,0,1,3.64-3.644h15.69A3.646,3.646,0,0,1,157.1,79.2v2.934h-2.429V79.2a1.216,1.216,0,0,0-1.213-1.216h-15.69a1.216,1.216,0,0,0-1.211,1.216Z" transform="translate(-133.314 -73.229)" fill="#0b0904"/>
                <ellipse id="Elipse_4245" data-name="Elipse 4245" cx="2.125" cy="2.125" rx="2.125" ry="2.125" transform="translate(0 7.794)" fill="#0b0904"/>
                <path id="Trazado_149903" data-name="Trazado 149903" d="M144.713,80.631a2.126,2.126,0,1,1,2.127,2.125A2.128,2.128,0,0,1,144.713,80.631Z" transform="translate(-124.268 -70.712)" fill="#0b0904"/>
              </g>
              <g id="Grupo_106402" data-name="Grupo 106402" transform="translate(213.826)">
                <g id="Grupo_106401" data-name="Grupo 106401">
                  <g id="Grupo_106399" data-name="Grupo 106399" transform="translate(0.517)">
                    <g id="Grupo_106397" data-name="Grupo 106397" transform="translate(30.652 3.357)">
                      <g id="haed-3" data-name="haed" transform="translate(3.525 2.886)">
                        <g id="Grupo_106395" data-name="Grupo 106395">
                          <g id="Grupo_106392" data-name="Grupo 106392">
                            <path id="Trazado_149904" data-name="Trazado 149904" d="M247.773,36.353c-.745-2.984-.831-6.633,1.072-9.233,3-4.093,10.694-4.91,14.291-1.326,2.383,2.374,3.043,5.188,2.952,8.511-.056,1.89.21,3.742,1.665,5.114.176.165.389.395.286.618-.089.21-.369.223-.588.282-.7.172-1.022.974-1.127,1.686a29.428,29.428,0,0,1-.923,5.075,1.586,1.586,0,0,1-.647.916,1.913,1.913,0,0,1-1.155.121q-1.978-.228-3.926-.645a.7.7,0,0,0-.226.141,1.906,1.906,0,0,0-.4.951q-.9,3.966-1.789,7.933a46.407,46.407,0,0,0-9.32-5.715,12.238,12.238,0,0,0,1.86-9.173A22.974,22.974,0,0,1,247.773,36.353Z" transform="translate(-247.28 -23.523)" fill="#ff8f67"/>
                            <path id="Trazado_149905" data-name="Trazado 149905" d="M257.462,39.243a.189.189,0,0,1-.063-.011c-.187-.065-4.59-1.652-5.674-5.255a.192.192,0,0,1,.128-.237.189.189,0,0,1,.237.128c1.029,3.418,5.391,4.99,5.435,5a.19.19,0,0,1,.117.243A.193.193,0,0,1,257.462,39.243Z" transform="translate(-243.49 -14.801)" fill="#894c4c"/>
                          </g>
                          <g id="Grupo_106394" data-name="Grupo 106394" transform="translate(15.827 11.209)">
                            <g id="Grupo_106393" data-name="Grupo 106393">
                              <path id="Trazado_149906" data-name="Trazado 149906" d="M258.173,30.675a.5.5,0,0,1-.239.006,2.213,2.213,0,0,0-1.313.206.544.544,0,0,1-.523-.955,3.387,3.387,0,0,1,2.032-.319.546.546,0,0,1,.043,1.063Z" transform="translate(-255.815 -29.568)" fill="#1d272b"/>
                              <path id="Trazado_149907" data-name="Trazado 149907" d="M257.305,31.164c.013.449-.147.82-.36.825s-.391-.352-.406-.8.147-.818.356-.825S257.29,30.717,257.305,31.164Z" transform="translate(-255.197 -28.888)" fill="#a86060"/>
                            </g>
                          </g>
                        </g>
                        <path id="Trazado_149908" data-name="Trazado 149908" d="M256.563,34.3a.16.16,0,0,1-.1-.037.153.153,0,0,1-.017-.215,1.67,1.67,0,0,1,1.687-.434.153.153,0,1,1-.076.3,1.35,1.35,0,0,0-1.378.336A.157.157,0,0,1,256.563,34.3Z" transform="translate(-239.481 -14.953)" fill="#894c4c"/>
                        <g id="Grupo_106396" data-name="Grupo 106396" transform="translate(7.732 12.861)">
                          <path id="Trazado_149909" data-name="Trazado 149909" d="M252.583,31.623a.167.167,0,0,1-.052-.007l-.944-.273a.188.188,0,0,1-.13-.236.192.192,0,0,1,.235-.13l.942.273a.19.19,0,0,1,.132.236A.193.193,0,0,1,252.583,31.623Z" transform="translate(-251.45 -30.021)" fill="#894c4c"/>
                          <path id="Trazado_149910" data-name="Trazado 149910" d="M252.548,33.113h-.006a.19.19,0,0,1-.185-.195c.013-.49-.083-1.817-.655-2.1a.189.189,0,0,1-.087-.254.191.191,0,0,1,.256-.087c.892.438.872,2.246.866,2.45A.188.188,0,0,1,252.548,33.113Z" transform="translate(-251.325 -30.458)" fill="#894c4c"/>
                        </g>
                      </g>
                      <path id="Trazado_149911" data-name="Trazado 149911" d="M267.438,26.681a11.074,11.074,0,0,0-5.133-4c-4.525-1.717-9.544-.172-13.118,3.006A11.972,11.972,0,0,0,245.855,37.7c.883,2.78,2.822,4.912,2.908,7.892a13.149,13.149,0,0,0,.043,1.35,5.475,5.475,0,0,0,1.066-3.1c.426,1.152.121,3.047.206,4.419a6.511,6.511,0,0,0,2.948-1.448,12.837,12.837,0,0,0,1.834-2.62,10.305,10.305,0,0,0,1.285-4.8c.067-.779,1.239-3.191,2.021-1.686.4.773-.378,3,1.3,2.728-.273-1.422-.382-1.923.389-3.136.4-.619,1.906-2.125,1.817-2.88.039.334.067,2.522-.4,2.611,3.132-.582,7.543-4.452,7.074-7.989A5.721,5.721,0,0,0,267.438,26.681Z" transform="translate(-245.38 -21.967)" fill="#1d272b"/>
                    </g>
                    <path id="Trazado_149912" data-name="Trazado 149912" d="M243.969,118.668c-3.219-.992-6.813-3.6-10.286-2.134-2.578,1.083-5.506,4.473-4.7,7.388.656,2.353,4.232,3.377,6.275,4.385,4.973,2.451,9,4.775,14.488,5.259,5.331.469,13.611-1.179,6.831-6.818-2.129-1.773-4.506-3.134-6.509-5.109-1.165-1.146-.725-1.35-2.273-2.108C246.733,119.008,245.068,119.008,243.969,118.668Z" transform="translate(-228.85 61.811)" fill="#f7b242"/>
                    <path id="Trazado_149913" data-name="Trazado 149913" d="M265.718,117.005c-3.369.072-7.6-1.268-10.434,1.213-2.1,1.84-3.818,5.978-2.131,8.489,1.367,2.029,5.079,1.875,7.336,2.188,5.491.762,10.049,1.7,15.41.428,5.207-1.231,12.546-5.4,4.337-8.623-2.583-1.012-5.264-1.558-7.788-2.8-1.465-.719-1.116-1.05-2.82-1.283C268.444,116.458,266.87,116.981,265.718,117.005Z" transform="translate(-208.671 62.229)" fill="#f7b242"/>
                    <g id="Grupo_106398" data-name="Grupo 106398" transform="translate(15.296 35.634)">
                      <path id="Trazado_149914" data-name="Trazado 149914" d="M270.873,91.949H248.632c-2.368-.1-4.426-.247-4.426-.247-9.218-.593-7.534-11.484-5.541-17.881,1.268-4.07-.265-6.817.243-10.662.5-3.8,1.936-5.632,1.567-9.646-.553-6.058,5.465-14.139,12.181-14.139h6.475c3.916.006,8.4,1.291,11.015,4.384,2.845,3.36,1.841,7.775,3.926,11.326,2.379,4.059.736,9.277,1.578,13.7.916,4.8,1.2,9.364,1.712,14.258,0,0,.013.126.028.345C277.487,84.971,277.535,91.56,270.873,91.949Z" transform="translate(-237.098 -39.373)" fill="url(#linear-gradient)"/>
                    </g>
                    <path id="Trazado_149915" data-name="Trazado 149915" d="M266.467,124c-.918,5.6-3.848,10.568-5.027,16.048-1.038,4.829-1.574,10.236-3.462,14.785-1.615,3.894-.636,8.389-1.771,12.387-1.28,4.506-4.2,2.418-7.371,1.769-1.5-.306-2.8.4-4.235.095-2.854-.619-3.968-4.059-6.919-4.584-2.242-.393-4.334.944-6.574-.408-3.6-2.17.007-11.057,1.417-14.742,1.98-5.177,2.051-11.5,4.714-16.32,2.885-5.233,2.309-10.127,3.521-15.945s1.608-11.017,3.521-16.808c1.869-5.669-1.081-10.575.751-16.468.918-2.941,1.673-4.489,1.389-7.714-.729-8.137,3.581-14.672,12.673-13.744A13.368,13.368,0,0,1,271.068,76.9L269.4,94q-1.177,12.122-2.361,24.244c-.184,1.86-.25,3.775-.547,5.62C266.482,123.906,266.475,123.952,266.467,124Z" transform="translate(-228.246 15.813)" fill="url(#linear-gradient)"/>
                    <path id="Trazado_149916" data-name="Trazado 149916" d="M281.224,119.2q.178.862.351,1.728c2.018,10.028,2.016,20.828,2.895,31.031.239,2.785,2.464,12.5.847,13.885-2.987,2.55-10.024-.614-13.729.126-3.212.643-10.985,2.5-13.082-1.535-2.537-4.875-1.263-12-1.248-17.234.009-3.013-1.174-5.339-1.573-8.135-.7-4.877.351-9.609-.515-14.54-.341-1.94-.59-3.8-1.077-5.73q-1.894-7.5-3.787-15-3.037-12.024-6.075-24.043a13.324,13.324,0,1,1,25.837-6.527L274.928,92.5C277.18,101.418,279.373,110.247,281.224,119.2Z" transform="translate(-216.055 16.594)" fill="url(#linear-gradient-9)"/>
                    <path id="Trazado_149917" data-name="Trazado 149917" d="M244.391,148.512a.344.344,0,0,1-.1-.013.36.36,0,0,1-.25-.443l9.721-35.194,3.367-37.352a.36.36,0,1,1,.718.065l-3.379,37.415-9.732,35.257A.364.364,0,0,1,244.391,148.512Z" transform="translate(-215.88 26.854)" fill="#fff"/>
                    <path id="Trazado_149918" data-name="Trazado 149918" d="M259.7,40.389a9.692,9.692,0,0,1,4.382-5.847c.859-.556,8.372-3.523,8.6-2.027-.3-1.969,1.357-2.539,1.074-4.408-.234-1.535-2.717-3.72-3.846-4.571-10.082-7.6-22.573-1.445-27.487,9.075-1.979,4.239-2.179,9.153-1.979,13.748.326,7.31,2.546,17.707,11.74,15.5a20.1,20.1,0,0,1,7.137-.671c5.176.343,2.9-1.84,2-5.014-1.322-4.7-2.935-10.364-1.739-15.35C259.622,40.678,259.661,40.533,259.7,40.389Z" transform="translate(-218.993 -20.156)" fill="url(#linear-gradient)"/>
                    <path id="Trazado_149919" data-name="Trazado 149919" d="M262.345,31.371a1.347,1.347,0,0,0-.358-.07,23.64,23.64,0,0,0-2.78.132q-2.57.12-5.14.243s-1.33,5-1.333,5.014c-.219.827.6,2.3,1.044,2.908a4.645,4.645,0,0,0,2.27,1.686,6.186,6.186,0,0,0,1.853.308,5.644,5.644,0,0,0,1.886-.015c.573-.195.788-.749,1.105-1.22a15.226,15.226,0,0,0,1.5-2.858,21.311,21.311,0,0,0,1.007-3.453C263.617,33.064,263.341,31.7,262.345,31.371Z" transform="translate(-208.476 -10.649)" fill="url(#linear-gradient-5)"/>
                    <path id="Trazado_149920" data-name="Trazado 149920" d="M256.187,33.247s-2.3-5.172-5.17-2.351l-.313.732s2.557-3.4,5.014,1.934S256.187,33.247,256.187,33.247Z" transform="translate(-210.179 -11.7)" fill="url(#linear-gradient-5)"/>
                    <path id="Trazado_149921" data-name="Trazado 149921" d="M255.963,34.222s-4.18,0-5.222-3.657l-.263.834s.577,2.874,5.537,3.186S255.963,34.222,255.963,34.222Z" transform="translate(-210.372 -11.264)" fill="url(#linear-gradient-5)"/>
                  </g>
                  <g id="Grupo_106400" data-name="Grupo 106400" transform="translate(0 38.56)">
                    <path id="Trazado_149922" data-name="Trazado 149922" d="M252.61,41.593c-4.374,3.2-6.72,6.748-9.732,11.391a59.766,59.766,0,0,0-3.953,6.639c-1.476,3.028-4.093,4.9-5.609,7.838-1.534,2.976-1.6,6.438-2.78,9.572a20.23,20.23,0,0,0-1.66,6.893c-.13,2.926-.579,6-.065,8.912.838,4.721,3.126,4.984,7.658,4.764,3.957-.193,3.872-.493,4.413-4.439.441-3.208.567-6.338,1.211-9.552.781-3.911,2.717-5.619,4.818-9.194,2.322-3.955,3.425-6.138,7.278-8.528,3.171-1.967,3.191-3.662,3.727-7.208.575-3.813,2.077-14.968-2.223-17.325-1.2-.656-2.655-.614-3.084.872Z" transform="translate(-228.571 -40.951)" fill="url(#linear-gradient-9)"/>
                    <path id="Trazado_149923" data-name="Trazado 149923" d="M229.162,78.123c-.163-2.6-.972-8.688,2.848-9.47a9.041,9.041,0,0,1,5.192,1.029c3.134,1.552,3.553,5.578,3.69,8.676a4.444,4.444,0,0,0,.21,1.558c.2.415.872.638,1.012.972a1.238,1.238,0,0,1-1.14,1.665c-.881.1-1.472-.818-2.3-.286-.777.5-.234,1.415-.339,2.184a1.645,1.645,0,0,1-1.687,1.474c-.412.037-1.012-.35-1.263-.317-.579.083-.287.475-.764.721s-.491.237-1.007,0c-.126-.059-.109-.547-.313-.619-.187-.067-.439.1-.48.089-.441-.117-.643.339-1.215-.287-.721-.792-.97-2.346-1.324-3.325A14.689,14.689,0,0,1,229.162,78.123Z" transform="translate(-228.222 -17.359)" fill="#f7b242"/>
                  </g>
                  <path id="Trazado_149924" data-name="Trazado 149924" d="M237.7,68.892a.3.3,0,0,1-.182-.54c1.354-1.024,1.938-2.878,2.557-4.84a13.907,13.907,0,0,1,1.949-4.395c.358-.462.781-1.114,1.229-1.806,1.561-2.414,3.5-5.418,5.834-5.519a.3.3,0,1,1,.024.6c-2.019.087-3.948,3.067-5.353,5.244-.456.7-.884,1.368-1.263,1.851a13.551,13.551,0,0,0-1.849,4.206c-.619,1.966-1.259,4-2.765,5.138A.306.306,0,0,1,237.7,68.892Z" transform="translate(-221.03 6.872)" fill="#fff"/>
                </g>
                <path id="Trazado_149925" data-name="Trazado 149925" d="M269.229,66.063c1.413,1.773,2.884,3.5,4.272,5.305,2.527,3.275,4.208,6.837,7.117,9.828,1.32,1.361,7.683,6.616,2.429,7.195,1.341,2.118,2.233,4.857-1.14,5.565-1.279.271-1.259,1.254-3.043.938-1.415-.248-2.813-1.671-3.892-2.529-2.674-2.131-3.392-4.716-5.341-7.473-2.183-3.087-5.747-5.724-9.073-7.868-4.054-2.611-8.252-6.779-7.74-11.916.293-2.93.76-11.808,3.588-13.483,3.531-2.09,7.636,6.642,8.823,8.715A45.926,45.926,0,0,0,269.229,66.063Z" transform="translate(-207.893 6.455)" fill="url(#linear-gradient)"/>
                <path id="Trazado_149926" data-name="Trazado 149926" d="M257.51,78.013a2.6,2.6,0,0,1-.636-.083.3.3,0,0,1-.217-.363.3.3,0,0,1,.365-.217,1.611,1.611,0,0,0,1.652-.458c1.741-1.76,1.847-7.486,1.35-9.374a15,15,0,0,0-1.155-2.8,12.415,12.415,0,0,1-1.317-3.525,32.47,32.47,0,0,1-.278-4.768c-.006-.54-.011-1.068-.024-1.572a.3.3,0,0,1,.291-.308h.007a.3.3,0,0,1,.3.291c.015.508.02,1.038.026,1.584a32.08,32.08,0,0,0,.269,4.677,11.819,11.819,0,0,0,1.261,3.356,15.286,15.286,0,0,1,1.2,2.915c.519,1.977.488,7.937-1.5,9.949A2.183,2.183,0,0,1,257.51,78.013Z" transform="translate(-204.584 9.222)" fill="#fff"/>
                <path id="Trazado_149927" data-name="Trazado 149927" d="M229.843,130.215h-.033a.451.451,0,0,1-.417-.48c.6-8.359,6.728-27.307,6.989-28.11a.457.457,0,0,1,.567-.289.45.45,0,0,1,.289.567c-.065.195-6.357,19.647-6.948,27.895A.448.448,0,0,1,229.843,130.215Z" transform="translate(-227.87 49.183)" fill="#fff"/>
              </g>
            </g>
            <g id="Grupo_106413" data-name="Grupo 106413" transform="translate(0 6.603)">
              <g id="Grupo_106409" data-name="Grupo 106409" transform="translate(47.377 3.358)">
                <g id="haed-4" data-name="haed" transform="translate(3.525 2.886)">
                  <g id="Grupo_106407" data-name="Grupo 106407">
                    <g id="Grupo_106404" data-name="Grupo 106404">
                      <path id="Trazado_149928" data-name="Trazado 149928" d="M120.436,39.912c-.745-2.98-.831-6.635,1.074-9.231,2.995-4.093,10.69-4.91,14.29-1.326,2.385,2.374,3.043,5.19,2.952,8.511-.056,1.888.21,3.742,1.665,5.114.178.167.389.395.287.619s-.369.219-.59.276c-.7.174-1.022.977-1.127,1.686a29.405,29.405,0,0,1-.923,5.079,1.586,1.586,0,0,1-.647.916,1.9,1.9,0,0,1-1.155.117c-1.318-.148-2.626-.367-3.924-.643a.782.782,0,0,0-.228.143,1.9,1.9,0,0,0-.4.949q-.9,3.969-1.791,7.935a46.66,46.66,0,0,0-9.32-5.715,12.24,12.24,0,0,0,1.86-9.173A22.954,22.954,0,0,1,120.436,39.912Z" transform="translate(-119.943 -27.084)" fill="#ff8f67"/>
                      <path id="Trazado_149929" data-name="Trazado 149929" d="M130.127,42.807a.154.154,0,0,1-.063-.013c-.187-.065-4.591-1.656-5.676-5.255a.192.192,0,1,1,.367-.111c1.025,3.414,5.392,4.992,5.435,5.009a.189.189,0,0,1,.117.243A.193.193,0,0,1,130.127,42.807Z" transform="translate(-116.153 -18.363)" fill="#894c4c"/>
                    </g>
                    <g id="Grupo_106406" data-name="Grupo 106406" transform="translate(15.827 11.209)">
                      <g id="Grupo_106405" data-name="Grupo 106405">
                        <path id="Trazado_149930" data-name="Trazado 149930" d="M130.838,34.232a.5.5,0,0,1-.239.011,2.25,2.25,0,0,0-1.311.2.544.544,0,1,1-.527-.951,3.344,3.344,0,0,1,2.032-.317.537.537,0,0,1,.436.629A.53.53,0,0,1,130.838,34.232Z" transform="translate(-128.478 -33.129)" fill="#1d272b"/>
                        <path id="Trazado_149931" data-name="Trazado 149931" d="M129.968,34.725c.015.445-.145.818-.358.825s-.395-.35-.408-.8.146-.821.356-.827S129.953,34.28,129.968,34.725Z" transform="translate(-127.86 -32.45)" fill="#a86060"/>
                      </g>
                    </g>
                  </g>
                  <path id="Trazado_149932" data-name="Trazado 149932" d="M129.225,37.864a.151.151,0,0,1-.1-.037.153.153,0,0,1-.019-.215,1.664,1.664,0,0,1,1.687-.43.155.155,0,0,1,.111.187.158.158,0,0,1-.187.109,1.362,1.362,0,0,0-1.378.33A.15.15,0,0,1,129.225,37.864Z" transform="translate(-112.144 -18.513)" fill="#894c4c"/>
                  <g id="Grupo_106408" data-name="Grupo 106408" transform="translate(7.732 12.86)">
                    <path id="Trazado_149933" data-name="Trazado 149933" d="M125.246,35.185a.17.17,0,0,1-.052-.009l-.944-.271a.19.19,0,0,1,.106-.365l.942.271a.191.191,0,0,1-.052.375Z" transform="translate(-124.113 -33.582)" fill="#894c4c"/>
                    <path id="Trazado_149934" data-name="Trazado 149934" d="M125.21,36.674a.2.2,0,0,1-.191-.195c.011-.49-.083-1.819-.653-2.1a.191.191,0,0,1,.167-.343c.89.434.872,2.244.866,2.45A.188.188,0,0,1,125.21,36.674Z" transform="translate(-123.987 -34.019)" fill="#894c4c"/>
                  </g>
                </g>
                <path id="Trazado_149935" data-name="Trazado 149935" d="M140.1,30.244a11.057,11.057,0,0,0-5.133-4.005c-4.523-1.717-9.542-.171-13.118,3.006a11.969,11.969,0,0,0-3.332,12.012c.883,2.778,2.822,4.916,2.909,7.894a13.166,13.166,0,0,0,.043,1.35,5.492,5.492,0,0,0,1.064-3.1c.428,1.152.121,3.045.2,4.419a6.481,6.481,0,0,0,2.952-1.45,12.792,12.792,0,0,0,1.832-2.622,10.251,10.251,0,0,0,1.285-4.8c.067-.783,1.237-3.191,2.021-1.686.4.771-.378,2.995,1.3,2.728-.273-1.424-.382-1.925.389-3.136.4-.623,1.908-2.123,1.819-2.88.037.332.065,2.524-.406,2.609,3.132-.582,7.542-4.449,7.076-7.989A5.742,5.742,0,0,0,140.1,30.244Z" transform="translate(-118.043 -25.528)" fill="#1d272b"/>
              </g>
              <path id="Trazado_149936" data-name="Trazado 149936" d="M108.218,120.853c-2.963-1.6-5.986-4.851-9.676-4.091-2.735.566-6.27,3.323-6.038,6.338.187,2.438,3.494,4.135,5.305,5.522,4.4,3.367,7.907,6.429,13.194,7.966,5.14,1.495,13.581,1.482,8.026-5.365-1.747-2.153-3.813-3.95-5.4-6.271-.916-1.354-.449-1.471-1.817-2.511C110.862,121.719,109.232,121.4,108.218,120.853Z" transform="translate(-92.493 55.678)" fill="#f7b242"/>
              <g id="Grupo_106410" data-name="Grupo 106410" transform="translate(32.021 35.637)">
                <path id="Trazado_149937" data-name="Trazado 149937" d="M143.537,95.507H121.295c-2.366-.1-4.426-.245-4.426-.245-9.216-.6-7.536-11.486-5.541-17.881,1.27-4.068-.263-6.818.243-10.664.5-3.8,1.936-5.632,1.569-9.644-.554-6.058,5.463-14.138,12.179-14.138h6.475c3.916,0,8.4,1.287,11.017,4.38,2.843,3.362,1.84,7.777,3.924,11.33,2.379,4.055.734,9.275,1.578,13.7.916,4.806,1.2,9.366,1.712,14.26,0,0,.013.128.028.343C150.15,88.531,150.2,95.12,143.537,95.507Z" transform="translate(-109.761 -42.935)" fill="url(#linear-gradient)"/>
              </g>
              <g id="Grupo_106411" data-name="Grupo 106411" transform="translate(45.041 80.923)">
                <path id="Trazado_149938" data-name="Trazado 149938" d="M145.065,120.962c-3.3.662-7.707.085-10.064,3.026-1.747,2.183-2.707,6.555-.6,8.732,1.7,1.756,5.328.953,7.607.868,5.539-.217,10.191-.1,15.241-2.286,4.912-2.129,11.4-7.523,2.757-9.253-2.718-.541-5.455-.606-8.159-1.387-1.567-.451-1.279-.84-3-.768C147.656,119.944,146.193,120.734,145.065,120.962Z" transform="translate(-102.757 -22.48)" fill="#f7b242"/>
                <path id="Trazado_149939" data-name="Trazado 149939" d="M160.01,119.077c1.858,5.355,1.654,11.122,3.23,16.5,1.389,4.74,3.5,9.746,4.007,14.646.434,4.193,3.44,7.677,4.345,11.734,1.025,4.569-2.535,4.126-5.635,5.068-1.461.445-2.27,1.693-3.679,2.1-2.8.814-5.422-1.678-8.265-.732-2.158.723-3.362,2.895-5.973,2.778-4.2-.193-5.266-9.724-5.784-13.635-.729-5.5-3.679-11.085-3.638-16.594.046-5.977-2.8-10-4.5-15.7S130.276,114.8,129.2,108.8c-1.057-5.876-5.99-8.784-7.189-14.835-.6-3.023-.671-4.745-2.459-7.443-4.519-6.807-3.844-14.6,4.588-18.126A13.368,13.368,0,0,1,141.6,75.479q3.341,7.916,6.685,15.825,4.745,11.221,9.481,22.439c.729,1.721,1.582,3.436,2.2,5.2C159.978,118.989,159.993,119.03,160.01,119.077Z" transform="translate(-116.782 -67.357)" fill="url(#linear-gradient)"/>
              </g>
              <path id="Trazado_149940" data-name="Trazado 149940" d="M135.715,129.418c-.18.56-.363,1.116-.547,1.678-3.188,9.717-8.515,19.115-12.776,28.425-1.165,2.54-4.018,12.1-6.106,12.5-3.855.747-8.421-5.476-12.009-6.655-3.11-1.027-10.792-3.243-10.627-7.785.2-5.492,4.816-11.065,7.412-15.612,1.491-2.62,1.608-5.226,2.641-7.853,1.793-4.589,5.042-8.191,6.715-12.9.662-1.856,1.361-3.592,1.89-5.515q2.05-7.463,4.1-14.92,3.282-11.961,6.568-23.914a13.323,13.323,0,1,1,25.7,7.056q-2.631,9.582-5.268,19.168C140.961,111.958,138.517,120.718,135.715,129.418Z" transform="translate(-91.508 13.316)" fill="url(#linear-gradient)"/>
              <path id="Trazado_149941" data-name="Trazado 149941" d="M132.362,43.95a9.7,9.7,0,0,1,4.384-5.85c.859-.554,8.37-3.52,8.6-2.025-.3-1.969,1.359-2.542,1.074-4.41-.234-1.532-2.713-3.718-3.844-4.567-10.08-7.6-22.571-1.446-27.485,9.075-1.979,4.237-2.181,9.153-1.979,13.748.323,7.31,2.544,17.707,11.74,15.5a19.969,19.969,0,0,1,7.137-.671c5.174.345,2.895-1.841,2-5.016-1.32-4.7-2.934-10.366-1.738-15.348C132.285,44.239,132.324,44.094,132.362,43.95Z" transform="translate(-74.93 -23.717)" fill="url(#linear-gradient)"/>
              <path id="Trazado_149942" data-name="Trazado 149942" d="M135.007,34.93a1.348,1.348,0,0,0-.358-.069,24.015,24.015,0,0,0-2.778.13q-2.57.12-5.144.243s-1.328,5.007-1.33,5.016c-.221.827.6,2.294,1.044,2.909a4.633,4.633,0,0,0,2.27,1.682,6.111,6.111,0,0,0,1.853.31,5.633,5.633,0,0,0,1.884-.015c.573-.195.788-.749,1.107-1.218a15.179,15.179,0,0,0,1.5-2.859,21.5,21.5,0,0,0,1.007-3.453C136.283,36.625,136,35.26,135.007,34.93Z" transform="translate(-64.413 -14.21)" fill="url(#linear-gradient-5)"/>
              <path id="Trazado_149943" data-name="Trazado 149943" d="M128.853,36.807s-2.3-5.172-5.172-2.349l-.315.732s2.561-3.4,5.016,1.929S128.853,36.807,128.853,36.807Z" transform="translate(-66.117 -15.261)" fill="url(#linear-gradient-5)"/>
              <path id="Trazado_149944" data-name="Trazado 149944" d="M128.624,37.783s-4.178,0-5.222-3.657l-.261.836s.577,2.872,5.537,3.186S128.624,37.783,128.624,37.783Z" transform="translate(-66.309 -14.824)" fill="url(#linear-gradient-5)"/>
              <g id="Grupo_106412" data-name="Grupo 106412" transform="translate(7.384 34.695)">
                <path id="Trazado_149945" data-name="Trazado 149945" d="M132.255,42.726c-4.992,2.1-8.094,5.018-12.1,8.841a60.438,60.438,0,0,0-5.378,5.544c-2.134,2.607-5.112,3.824-7.265,6.334-2.177,2.542-3.043,5.9-4.914,8.673a20.288,20.288,0,0,0-3.2,6.323c-.8,2.819-1.949,5.706-2.12,8.658-.274,4.788,1.891,5.57,6.353,6.4,3.894.727,3.881.417,5.318-3.3,1.17-3.021,2.014-6.036,3.38-9.018,1.663-3.623,3.937-4.838,6.809-7.833,3.171-3.312,4.747-5.181,9.047-6.618,3.54-1.185,3.952-2.83,5.292-6.155,1.441-3.573,5.474-14.084,1.832-17.37-1.016-.914-2.446-1.209-3.2.133Z" transform="translate(-95.807 -42.427)" fill="url(#linear-gradient)"/>
                <path id="Trazado_149946" data-name="Trazado 149946" d="M96.579,75.2c.443-2.57,1.061-8.676,4.957-8.554a9,9,0,0,1,4.814,2.2c2.691,2.233,2.171,6.251,1.593,9.292a4.4,4.4,0,0,0-.156,1.567c.1.447.7.82.758,1.179a1.234,1.234,0,0,1-1.495,1.354c-.875-.106-1.242-1.135-2.166-.808-.872.31-.554,1.326-.836,2.047a1.648,1.648,0,0,1-1.982,1.05c-.408-.063-.9-.577-1.153-.6-.582-.054-.391.393-.914.523s-.528.121-.977-.232c-.108-.083.019-.556-.163-.677-.167-.1-.451,0-.484-.02-.4-.215-.707.18-1.12-.562-.517-.935-.4-2.507-.521-3.54A14.88,14.88,0,0,1,96.579,75.2Z" transform="translate(-96.475 -21.734)" fill="#f7b242"/>
              </g>
              <path id="Trazado_149947" data-name="Trazado 149947" d="M111.2,61.764l-.263-.145-.23-.2a13.948,13.948,0,0,1,3.162-3.638c.478-.336,1.076-.836,1.706-1.367,2.2-1.849,4.938-4.152,7.2-3.555a.3.3,0,0,1,.215.365.294.294,0,0,1-.367.213c-1.96-.514-4.675,1.769-6.661,3.436-.642.538-1.246,1.046-1.749,1.4A13.581,13.581,0,0,0,111.2,61.764Z" transform="translate(-76.934 1.102)" fill="#fff"/>
              <path id="Trazado_149948" data-name="Trazado 149948" d="M141.891,69.622c1.413,1.776,2.883,3.5,4.274,5.305,2.524,3.278,4.206,6.837,7.115,9.83,1.322,1.361,7.683,6.616,2.431,7.195,1.341,2.116,2.231,4.857-1.142,5.567-1.28.267-1.259,1.252-3.043.938-1.415-.252-2.811-1.673-3.892-2.533-2.676-2.129-3.39-4.717-5.341-7.471-2.184-3.086-5.747-5.728-9.073-7.868-4.055-2.609-8.252-6.778-7.74-11.92.295-2.926.762-11.8,3.588-13.479,3.531-2.09,7.636,6.642,8.823,8.714A46.007,46.007,0,0,0,141.891,69.622Z" transform="translate(-64.347 2.894)" fill="url(#linear-gradient-9)"/>
              <path id="Trazado_149949" data-name="Trazado 149949" d="M130.173,81.574a2.571,2.571,0,0,1-.634-.083.3.3,0,1,1,.146-.582,1.608,1.608,0,0,0,1.652-.458c1.741-1.76,1.847-7.484,1.35-9.372a14.83,14.83,0,0,0-1.155-2.8,12.431,12.431,0,0,1-1.315-3.525,32.215,32.215,0,0,1-.28-4.747c-.006-.547-.009-1.081-.024-1.591a.3.3,0,0,1,.289-.308h.009a.3.3,0,0,1,.3.289c.015.514.02,1.053.026,1.6a31.558,31.558,0,0,0,.271,4.656,11.788,11.788,0,0,0,1.261,3.355,15.469,15.469,0,0,1,1.2,2.917c.521,1.975.488,7.933-1.5,9.947A2.186,2.186,0,0,1,130.173,81.574Z" transform="translate(-61.038 5.662)" fill="#fff"/>
              <path id="Trazado_149950" data-name="Trazado 149950" d="M106.7,160.279a.361.361,0,0,1-.317-.532,34.177,34.177,0,0,0,2.323-5.928,45.763,45.763,0,0,1,1.695-4.677c.751-1.68,1.628-3.327,2.476-4.916.87-1.632,1.769-3.317,2.524-5.031.866-1.962,1.717-3.8,2.542-5.567a111.058,111.058,0,0,0,7.686-20.327c.842-3.169,1.823-6.351,2.774-9.429.48-1.554.959-3.106,1.424-4.664l5.624-18.881a.353.353,0,0,1,.449-.243.36.36,0,0,1,.241.449L130.52,99.414q-.7,2.339-1.426,4.671c-.948,3.071-1.927,6.245-2.765,9.4a111.714,111.714,0,0,1-7.731,20.448c-.823,1.767-1.673,3.6-2.537,5.554-.766,1.737-1.671,3.436-2.546,5.077-.842,1.58-1.713,3.215-2.453,4.871a45.107,45.107,0,0,0-1.667,4.6,34.7,34.7,0,0,1-2.375,6.051A.364.364,0,0,1,106.7,160.279Z" transform="translate(-80.662 24.425)" fill="#fff"/>
            </g>
          </g>
        </g>
        <path id="Trazado_151844" data-name="Trazado 151844" d="M.19,9.559C.021,6.955-.82.871,3.152.089a9.717,9.717,0,0,1,5.4,1.029C11.808,2.67,12.244,6.7,12.387,9.794a4.284,4.284,0,0,0,.218,1.558c.208.415.906.638,1.053.972a1.244,1.244,0,0,1-1.186,1.665c-.916.1-1.531-.818-2.389-.286-.808.5-.243,1.415-.353,2.184a1.689,1.689,0,0,1-1.754,1.474c-.428.037-1.053-.35-1.313-.317-.6.083-.3.475-.794.721s-.511.237-1.047,0c-.131-.059-.114-.547-.326-.619-.195-.067-.457.1-.5.089-.459-.117-.669.339-1.263-.287-.75-.792-1.008-2.346-1.377-3.325A14.254,14.254,0,0,1,.19,9.559Z" transform="matrix(0.875, -0.485, 0.485, 0.875, 314.01, 90.197)" fill="#f7b242"/>
        <path id="Trazado_151845" data-name="Trazado 151845" d="M.19,9.559C.021,6.955-.82.871,3.152.089a9.717,9.717,0,0,1,5.4,1.029C11.808,2.67,12.244,6.7,12.387,9.794a4.284,4.284,0,0,0,.218,1.558c.208.415.906.638,1.053.972a1.244,1.244,0,0,1-1.186,1.665c-.916.1-1.531-.818-2.389-.286-.808.5-.243,1.415-.353,2.184a1.689,1.689,0,0,1-1.754,1.474c-.428.037-1.053-.35-1.313-.317-.6.083-.3.475-.794.721s-.511.237-1.047,0c-.131-.059-.114-.547-.326-.619-.195-.067-.457.1-.5.089-.459-.117-.669.339-1.263-.287-.75-.792-1.008-2.346-1.377-3.325A14.254,14.254,0,0,1,.19,9.559Z" transform="matrix(0.875, -0.485, 0.485, 0.875, 76.661, 94.787)" fill="#f7b242"/>
      </g>
    </g>
    <path id="Trazado_166437" data-name="Trazado 166437" d="M7.782-7.7H4.951V0h-1.9V-7.7H.254V-9.242H7.782Zm4.507,4.316H10.772V0h-1.9V-9.242H12.3a3.882,3.882,0,0,1,2.526.73,2.519,2.519,0,0,1,.889,2.063,2.843,2.843,0,0,1-.409,1.577,2.792,2.792,0,0,1-1.241,1.006l2,3.777V0H14.022ZM10.772-4.926h1.536a1.573,1.573,0,0,0,1.111-.365A1.3,1.3,0,0,0,13.813-6.3a1.4,1.4,0,0,0-.371-1.028A1.543,1.543,0,0,0,12.3-7.7h-1.53ZM22.382-1.9H19.043L18.408,0H16.383l3.44-9.242h1.765L25.048,0H23.023ZM19.557-3.447h2.311L20.706-6.906ZM30.7-2.425a.977.977,0,0,0-.381-.828,5,5,0,0,0-1.371-.609,9.72,9.72,0,0,1-1.568-.632A2.562,2.562,0,0,1,25.81-6.786a2.232,2.232,0,0,1,.422-1.336,2.753,2.753,0,0,1,1.212-.917,4.563,4.563,0,0,1,1.774-.33,4.154,4.154,0,0,1,1.765.359A2.81,2.81,0,0,1,32.186-8a2.649,2.649,0,0,1,.428,1.485h-1.9a1.246,1.246,0,0,0-.4-.987,1.644,1.644,0,0,0-1.124-.352,1.756,1.756,0,0,0-1.085.3.931.931,0,0,0-.387.778.892.892,0,0,0,.454.755,5.128,5.128,0,0,0,1.336.571A5.773,5.773,0,0,1,31.872-4.24a2.415,2.415,0,0,1,.743,1.8,2.224,2.224,0,0,1-.908,1.882,3.974,3.974,0,0,1-2.444.682,4.719,4.719,0,0,1-1.942-.39,3.074,3.074,0,0,1-1.336-1.07,2.739,2.739,0,0,1-.46-1.574h1.911q0,1.53,1.828,1.53a1.778,1.778,0,0,0,1.06-.276A.9.9,0,0,0,30.7-2.425Zm5.1.9h4.043V0H33.9V-9.242h1.9ZM46.281-1.9H42.942L42.307,0H40.282l3.44-9.242h1.765L48.947,0H46.922ZM43.456-3.447h2.311L44.6-6.906ZM49.81,0V-9.242h2.844a4.319,4.319,0,0,1,2.18.549,3.829,3.829,0,0,1,1.5,1.562,4.816,4.816,0,0,1,.54,2.3v.425a4.83,4.83,0,0,1-.53,2.292A3.8,3.8,0,0,1,54.85-.559,4.351,4.351,0,0,1,52.673,0Zm1.9-7.7v6.17h.92a2.068,2.068,0,0,0,1.708-.73,3.3,3.3,0,0,0,.6-2.088v-.489a3.351,3.351,0,0,0-.584-2.136A2.061,2.061,0,0,0,52.654-7.7ZM65.851-4.412a5.579,5.579,0,0,1-.482,2.393A3.633,3.633,0,0,1,63.988-.432a3.819,3.819,0,0,1-2.06.559,3.845,3.845,0,0,1-2.05-.552A3.669,3.669,0,0,1,58.481-2a5.42,5.42,0,0,1-.5-2.358v-.457a5.55,5.55,0,0,1,.492-2.4,3.663,3.663,0,0,1,1.39-1.593,3.824,3.824,0,0,1,2.053-.555,3.824,3.824,0,0,1,2.053.555,3.663,3.663,0,0,1,1.39,1.593,5.534,5.534,0,0,1,.492,2.4Zm-1.93-.419A3.889,3.889,0,0,0,63.4-7.04a1.7,1.7,0,0,0-1.485-.755,1.7,1.7,0,0,0-1.479.746,3.845,3.845,0,0,0-.527,2.187v.451a3.938,3.938,0,0,0,.521,2.2,1.692,1.692,0,0,0,1.5.781A1.677,1.677,0,0,0,63.4-2.187a3.915,3.915,0,0,0,.521-2.193ZM72.5,0h-1.9V-9.242h1.9Zm9.28,0h-1.9L76.166-6.081V0h-1.9V-9.242h1.9l3.713,6.094V-9.242h1.9Zm3.688,0h-1.9V-9.242h1.9Zm9.02-3.079a3.27,3.27,0,0,1-1.1,2.349,3.868,3.868,0,0,1-2.618.857,3.478,3.478,0,0,1-2.8-1.2A4.906,4.906,0,0,1,86.95-4.354v-.565a5.54,5.54,0,0,1,.47-2.349,3.52,3.52,0,0,1,1.343-1.558,3.761,3.761,0,0,1,2.028-.543,3.768,3.768,0,0,1,2.577.857A3.515,3.515,0,0,1,94.5-6.106h-1.9a1.93,1.93,0,0,0-.5-1.3,1.845,1.845,0,0,0-1.3-.4,1.618,1.618,0,0,0-1.425.682,3.824,3.824,0,0,0-.486,2.117v.7a4.093,4.093,0,0,0,.454,2.19,1.588,1.588,0,0,0,1.431.692,1.88,1.88,0,0,0,1.317-.4,1.821,1.821,0,0,0,.5-1.247ZM97.76,0h-1.9V-9.242h1.9Zm6.982-1.9H101.4L100.769,0H98.744l3.44-9.242h1.765L107.409,0h-2.025Zm-2.825-1.542h2.311l-1.162-3.459Zm8.258,1.917h4.043V0h-5.948V-9.242h1.9Zm13.933-2.476h-3.656V-1.53h4.291V0h-6.2V-9.242h6.183V-7.7h-4.278v2.2h3.656ZM133.377,0h-1.9l-3.707-6.081V0h-1.9V-9.242h1.9l3.713,6.094V-9.242h1.9Zm10.461-4.005h-3.656V-1.53h4.291V0h-6.2V-9.242h6.183V-7.7h-4.278v2.2h3.656Zm3.656,2.476h4.043V0H145.59V-9.242h1.9Z" transform="translate(359.876 1165.635)" fill="#008f85"/>
    <path id="Trazado_166435" data-name="Trazado 166435" d="M9.051-4.751A6,6,0,0,1,8.6-2.328,4.16,4.16,0,0,1,7.349-.677L9,.622,7.7,1.777,5.578.075a4.486,4.486,0,0,1-.752.062A4.141,4.141,0,0,1,2.618-.458a3.951,3.951,0,0,1-1.5-1.7A5.837,5.837,0,0,1,.574-4.7v-.492A5.977,5.977,0,0,1,1.1-7.776,3.945,3.945,0,0,1,2.6-9.492a4.118,4.118,0,0,1,2.211-.6,4.118,4.118,0,0,1,2.211.6,3.945,3.945,0,0,1,1.5,1.716A5.96,5.96,0,0,1,9.051-5.2ZM6.973-5.2a4.188,4.188,0,0,0-.561-2.379,1.827,1.827,0,0,0-1.6-.813,1.827,1.827,0,0,0-1.593.8,4.141,4.141,0,0,0-.567,2.355v.485a4.241,4.241,0,0,0,.561,2.365,1.822,1.822,0,0,0,1.613.841,1.806,1.806,0,0,0,1.586-.81,4.216,4.216,0,0,0,.561-2.362ZM18.088-9.953V-3.4A3.356,3.356,0,0,1,17.066-.813a3.94,3.94,0,0,1-2.792.95A3.984,3.984,0,0,1,11.5-.786a3.3,3.3,0,0,1-1.046-2.536V-9.953H12.51v6.569a1.9,1.9,0,0,0,.468,1.425,1.8,1.8,0,0,0,1.3.448q1.729,0,1.757-1.818V-9.953Zm7.67,5.64H21.82v2.666h4.621V0H19.77V-9.953h6.658v1.661H21.82V-5.92h3.938Zm10.534,1.7a1.052,1.052,0,0,0-.41-.892,5.38,5.38,0,0,0-1.477-.656,10.467,10.467,0,0,1-1.688-.68,2.759,2.759,0,0,1-1.7-2.468,2.4,2.4,0,0,1,.455-1.439,2.965,2.965,0,0,1,1.306-.988,4.914,4.914,0,0,1,1.911-.355,4.473,4.473,0,0,1,1.9.386,3.026,3.026,0,0,1,1.3,1.09,2.853,2.853,0,0,1,.461,1.6H36.3a1.342,1.342,0,0,0-.431-1.063,1.77,1.77,0,0,0-1.21-.379,1.891,1.891,0,0,0-1.169.318,1,1,0,0,0-.417.837.96.96,0,0,0,.489.813A5.522,5.522,0,0,0,35-5.872a6.217,6.217,0,0,1,2.55,1.306,2.6,2.6,0,0,1,.8,1.941A2.4,2.4,0,0,1,37.372-.6,4.279,4.279,0,0,1,34.74.137a5.082,5.082,0,0,1-2.092-.42,3.31,3.31,0,0,1-1.439-1.152,2.95,2.95,0,0,1-.5-1.7h2.058q0,1.647,1.969,1.647a1.915,1.915,0,0,0,1.142-.3A.967.967,0,0,0,36.292-2.611Zm9.434-1.7H41.788v2.666h4.621V0H39.737V-9.953H46.4v1.661H41.788V-5.92h3.938Zm9.058.67H53.149V0H51.1V-9.953h3.7a4.181,4.181,0,0,1,2.721.786,2.713,2.713,0,0,1,.957,2.222,3.062,3.062,0,0,1-.441,1.7A3.007,3.007,0,0,1,56.7-4.163L58.851-.1V0h-2.2ZM53.149-5.3H54.8A1.694,1.694,0,0,0,56-5.7a1.4,1.4,0,0,0,.424-1.083,1.5,1.5,0,0,0-.4-1.107,1.662,1.662,0,0,0-1.227-.4H53.149Zm12.872.991H62.084v2.666h4.621V0H60.033V-9.953h6.658v1.661H62.084V-5.92h3.938Zm9.7,1A3.522,3.522,0,0,1,74.536-.786a4.165,4.165,0,0,1-2.82.923A3.745,3.745,0,0,1,68.7-1.152a5.284,5.284,0,0,1-1.1-3.538V-5.3a5.966,5.966,0,0,1,.506-2.529,3.791,3.791,0,0,1,1.446-1.678,4.05,4.05,0,0,1,2.184-.584,4.058,4.058,0,0,1,2.775.923,3.785,3.785,0,0,1,1.217,2.591H73.685a2.079,2.079,0,0,0-.537-1.4,1.987,1.987,0,0,0-1.4-.434,1.742,1.742,0,0,0-1.535.735,4.118,4.118,0,0,0-.523,2.28v.752a4.408,4.408,0,0,0,.489,2.358,1.71,1.71,0,0,0,1.542.745,2.025,2.025,0,0,0,1.418-.434,1.961,1.961,0,0,0,.537-1.343Zm9.522-1.436a6.008,6.008,0,0,1-.52,2.577A3.913,3.913,0,0,1,83.238-.465a4.113,4.113,0,0,1-2.218.6,4.141,4.141,0,0,1-2.208-.595,3.951,3.951,0,0,1-1.5-1.7,5.836,5.836,0,0,1-.54-2.54v-.492a5.977,5.977,0,0,1,.53-2.587,3.945,3.945,0,0,1,1.5-1.716,4.118,4.118,0,0,1,2.211-.6,4.118,4.118,0,0,1,2.211.6,3.945,3.945,0,0,1,1.5,1.716,5.96,5.96,0,0,1,.53,2.581ZM83.166-5.2a4.188,4.188,0,0,0-.561-2.379,1.827,1.827,0,0,0-1.6-.813,1.827,1.827,0,0,0-1.593.8,4.141,4.141,0,0,0-.567,2.355v.485a4.241,4.241,0,0,0,.561,2.365,1.822,1.822,0,0,0,1.613.841,1.806,1.806,0,0,0,1.586-.81,4.216,4.216,0,0,0,.561-2.362ZM94.609-1.258A3.56,3.56,0,0,1,93.044-.229,6.556,6.556,0,0,1,90.8.137a4.442,4.442,0,0,1-2.266-.564,3.762,3.762,0,0,1-1.5-1.637,5.762,5.762,0,0,1-.543-2.522v-.677a6.119,6.119,0,0,1,.5-2.581A3.717,3.717,0,0,1,88.44-9.512a4.174,4.174,0,0,1,2.218-.578,4.157,4.157,0,0,1,2.769.844,3.608,3.608,0,0,1,1.183,2.458h-2a1.985,1.985,0,0,0-.6-1.251,1.932,1.932,0,0,0-1.289-.4,1.818,1.818,0,0,0-1.593.786,4.134,4.134,0,0,0-.554,2.338v.636a3.935,3.935,0,0,0,.595,2.365,2.037,2.037,0,0,0,1.743.8A2.275,2.275,0,0,0,92.559-2V-3.719H90.692V-5.229h3.917Zm7.649-3.056H98.321v2.666h4.621V0H96.271V-9.953h6.658v1.661H98.321V-5.92h3.938Zm11.361,0h-3.937v2.666H114.3V0h-6.672V-9.953h6.658v1.661h-4.607V-5.92h3.938Zm3.938,2.666h4.354V0h-6.405V-9.953h2.051Zm15-2.42h-3.937V0h-2.051V-9.953h6.48v1.661h-4.43v2.57h3.938Zm5.988,2.017h-3.6L134.271,0h-2.181L135.8-9.953h1.9L141.422,0h-2.181Zm-3.042-1.661H138l-1.251-3.726ZM144.4-1.647h4.354V0h-6.405V-9.953H144.4Zm7.581,0h4.354V0h-6.405V-9.953h2.051ZM163.5-4.313h-3.937v2.666h4.621V0h-6.672V-9.953h6.658v1.661h-4.607V-5.92H163.5Zm9.7,1a3.522,3.522,0,0,1-1.186,2.529,4.165,4.165,0,0,1-2.82.923,3.745,3.745,0,0,1-3.011-1.289,5.284,5.284,0,0,1-1.1-3.538V-5.3a5.966,5.966,0,0,1,.506-2.529,3.791,3.791,0,0,1,1.446-1.678,4.05,4.05,0,0,1,2.184-.584A4.058,4.058,0,0,1,172-9.167a3.785,3.785,0,0,1,1.217,2.591h-2.051a2.079,2.079,0,0,0-.537-1.4,1.987,1.987,0,0,0-1.4-.434,1.742,1.742,0,0,0-1.535.735,4.118,4.118,0,0,0-.523,2.28v.752a4.408,4.408,0,0,0,.489,2.358,1.71,1.71,0,0,0,1.542.745,2.025,2.025,0,0,0,1.418-.434,1.961,1.961,0,0,0,.537-1.343ZM176.729,0h-2.051V-9.953h2.051Zm1.9,0V-9.953h3.063a4.651,4.651,0,0,1,2.348.591,4.123,4.123,0,0,1,1.617,1.682,5.187,5.187,0,0,1,.581,2.478v.458a5.2,5.2,0,0,1-.571,2.468A4.088,4.088,0,0,1,184.058-.6a4.686,4.686,0,0,1-2.345.6Zm2.051-8.292v6.645h.991a2.227,2.227,0,0,0,1.839-.786,3.552,3.552,0,0,0,.649-2.249v-.526a3.609,3.609,0,0,0-.629-2.3,2.219,2.219,0,0,0-1.839-.783ZM195.9-4.751a6.008,6.008,0,0,1-.52,2.577A3.913,3.913,0,0,1,193.9-.465a4.113,4.113,0,0,1-2.218.6,4.141,4.141,0,0,1-2.208-.595,3.951,3.951,0,0,1-1.5-1.7,5.837,5.837,0,0,1-.54-2.54v-.492a5.977,5.977,0,0,1,.53-2.587,3.945,3.945,0,0,1,1.5-1.716,4.118,4.118,0,0,1,2.211-.6,4.118,4.118,0,0,1,2.211.6,3.945,3.945,0,0,1,1.5,1.716A5.96,5.96,0,0,1,195.9-5.2ZM193.826-5.2a4.188,4.188,0,0,0-.561-2.379,1.827,1.827,0,0,0-1.6-.813,1.827,1.827,0,0,0-1.593.8,4.141,4.141,0,0,0-.567,2.355v.485a4.241,4.241,0,0,0,.561,2.365,1.822,1.822,0,0,0,1.613.841,1.806,1.806,0,0,0,1.586-.81,4.216,4.216,0,0,0,.561-2.362Z" transform="translate(359.876 1180.077)" fill="#1d272b"/>
    <path id="Trazado_166436" data-name="Trazado 166436" d="M0,0H3.163V41.907H0Z" transform="translate(352.76 1147.31)" fill="#d93328"/>
  </g>
</svg>
