<?xml version="1.0" encoding="utf-8"?>
<!-- Generator: Adobe Illustrator 25.4.1, SVG Export Plug-In . SVG Version: 6.00 Build 0)  -->
<svg version="1.1" id="Capa_1" xmlns="http://www.w3.org/2000/svg" xmlns:xlink="http://www.w3.org/1999/xlink" x="0px" y="0px"
	 viewBox="0 0 1336 696.8" style="enable-background:new 0 0 1336 696.8;" xml:space="preserve">
<style type="text/css">
	.st0{opacity:0.551;}
	.st1{clip-path:url(#SVGID_00000014629517737116947670000015804293340969987969_);}
	.st2{opacity:0.5;fill:#E6E6E6;enable-background:new    ;}
	.st3{clip-path:url(#SVGID_00000137133404223036832790000006433976446753991323_);}
</style>
<g id="Grupo_129326" transform="translate(-551.992 -6718.023)" class="st0">
	<g>
		<defs>
			<rect id="SVGID_1_" x="555" y="6718" width="1333" height="348.4"/>
		</defs>
		<clipPath id="SVGID_00000081628259344441565230000006852463727819291522_">
			<use xlink:href="#SVGID_1_"  style="overflow:visible;"/>
		</clipPath>
		
			<g id="Enmascarar_grupo_66" transform="translate(554.992 6718.023)" style="clip-path:url(#SVGID_00000081628259344441565230000006852463727819291522_);">
			<path id="Trazado_108753" class="st2" d="M350.4,139c197.7,103.9,415.7,163.6,636.2,91.8c437.5-142.4,437-111,437-111v661.8H-27
				V58C-27,58,125.3,20.7,350.4,139z"/>
		</g>
	</g>
	<g>
		<defs>
			<rect id="SVGID_00000169544826523945036140000006046308164764930452_" x="552" y="7066.4" width="1333" height="348.4"/>
		</defs>
		<clipPath id="SVGID_00000021839957998144234330000003414473700196788876_">
			<use xlink:href="#SVGID_00000169544826523945036140000006046308164764930452_"  style="overflow:visible;"/>
		</clipPath>
		
			<g id="Grupo_67" transform="translate(551.992 7066.445)" style="clip-path:url(#SVGID_00000021839957998144234330000003414473700196788876_);">
			<path id="Trazado_108755" class="st2" d="M350.4,209.4c197.7-103.9,415.7-163.6,636.2-91.8c437.5,142.4,437,111,437,111v-661.8
				H-27v723.7C-27,290.4,125.3,327.7,350.4,209.4z"/>
		</g>
	</g>
</g>
</svg>
