<svg xmlns="http://www.w3.org/2000/svg" xmlns:xlink="http://www.w3.org/1999/xlink" width="81.543" height="81.543" viewBox="0 0 81.543 81.543">
  <defs>
    <radialGradient id="radial-gradient" cx="0.076" cy="0.019" r="1.465" gradientTransform="translate(0.001)" gradientUnits="objectBoundingBox">
      <stop offset="0" stop-color="#f6f6f7"/>
      <stop offset="0.477" stop-color="#f9f9fa"/>
      <stop offset="0.715" stop-color="#fff"/>
    </radialGradient>
  </defs>
  <g id="Grupo_129358" data-name="Grupo 129358" transform="translate(-528.462 -3304.604)">
    <g id="Grupo_18419" data-name="Grupo 18419" transform="translate(528.462 3304.604)">
      <path id="Trazado_40936" data-name="Trazado 40936" d="M276.166,2186.491a40.771,40.771,0,1,1-40.771-40.77A40.771,40.771,0,0,1,276.166,2186.491Z" transform="translate(-194.623 -2145.721)" fill="#fff"/>
    </g>
    <path id="Trazado_40937" data-name="Trazado 40937" d="M275.978,2186.287a40.771,40.771,0,1,0-40.771,40.772A40.61,40.61,0,0,0,275.978,2186.287Z" transform="translate(334.026 1159.087)" fill="url(#radial-gradient)"/>
    <path id="Trazado_40938" data-name="Trazado 40938" d="M264.735,2184.708a31.121,31.121,0,1,0-31.121,31.12A31,31,0,0,0,264.735,2184.708Z" transform="translate(335.743 1160.802)" fill="none" stroke="#1d272d" stroke-miterlimit="10" stroke-width="4"/>
    <path id="Trazado_40939" data-name="Trazado 40939" d="M270.742,2164.488a40.776,40.776,0,0,1-70.2,40.6,40.647,40.647,0,0,0,70.2-40.6Z" transform="translate(335.14 1163.006)" fill="#eceef0"/>
    <path id="Trazado_166449" data-name="Trazado 166449" d="M7.25,0H-7.137V-3.115L-.51-10.082q2.45-2.79,2.45-4.432a3.083,3.083,0,0,0-.581-2.025,2.073,2.073,0,0,0-1.685-.694,2.1,2.1,0,0,0-1.77.927,3.812,3.812,0,0,0-.68,2.315H-7.562a6.771,6.771,0,0,1,.949-3.5,6.653,6.653,0,0,1,2.634-2.513,7.824,7.824,0,0,1,3.767-.906,7.7,7.7,0,0,1,5.147,1.543A5.51,5.51,0,0,1,6.74-14.939a6.436,6.436,0,0,1-.453,2.372,10.4,10.4,0,0,1-1.409,2.421A35.491,35.491,0,0,1,1.8-6.754L-.864-3.682H7.25Z" transform="translate(568.38 3356.301)" fill="#12263f"/>
  </g>
</svg>
