<svg xmlns="http://www.w3.org/2000/svg" xmlns:xlink="http://www.w3.org/1999/xlink" width="81.543" height="81.543" viewBox="0 0 81.543 81.543">
  <defs>
    <radialGradient id="radial-gradient" cx="0.076" cy="0.019" r="1.465" gradientTransform="translate(0.001)" gradientUnits="objectBoundingBox">
      <stop offset="0" stop-color="#f6f6f7"/>
      <stop offset="0.477" stop-color="#f9f9fa"/>
      <stop offset="0.715" stop-color="#fff"/>
    </radialGradient>
  </defs>
  <g id="Grupo_129359" data-name="Grupo 129359" transform="translate(-733.462 -3304.604)">
    <g id="Grupo_18419" data-name="Grupo 18419" transform="translate(733.462 3304.604)">
      <path id="Trazado_40936" data-name="Trazado 40936" d="M276.166,2186.491a40.771,40.771,0,1,1-40.771-40.77A40.771,40.771,0,0,1,276.166,2186.491Z" transform="translate(-194.623 -2145.721)" fill="#fff"/>
    </g>
    <path id="Trazado_40937" data-name="Trazado 40937" d="M275.978,2186.287a40.771,40.771,0,1,0-40.771,40.772A40.61,40.61,0,0,0,275.978,2186.287Z" transform="translate(539.026 1159.087)" fill="url(#radial-gradient)"/>
    <path id="Trazado_40938" data-name="Trazado 40938" d="M264.735,2184.708a31.121,31.121,0,1,0-31.121,31.12A31,31,0,0,0,264.735,2184.708Z" transform="translate(540.743 1160.802)" fill="none" stroke="#1d272d" stroke-miterlimit="10" stroke-width="4"/>
    <path id="Trazado_40939" data-name="Trazado 40939" d="M270.742,2164.488a40.776,40.776,0,0,1-70.2,40.6,40.647,40.647,0,0,0,70.2-40.6Z" transform="translate(540.14 1163.006)" fill="#eceef0"/>
    <path id="Trazado_166450" data-name="Trazado 166450" d="M-2.775-12.305H-.524a2.341,2.341,0,0,0,2.676-2.62,2.265,2.265,0,0,0-.637-1.664,2.416,2.416,0,0,0-1.8-.644,2.587,2.587,0,0,0-1.65.552,1.685,1.685,0,0,0-.7,1.374H-7.406a4.885,4.885,0,0,1,.906-2.9A5.985,5.985,0,0,1-3.986-20.2a8.593,8.593,0,0,1,3.533-.715,8.443,8.443,0,0,1,5.409,1.572,5.225,5.225,0,0,1,1.968,4.319A4.355,4.355,0,0,1,6.11-12.51a5.8,5.8,0,0,1-2.372,1.919A5.543,5.543,0,0,1,6.315-8.786,4.755,4.755,0,0,1,7.25-5.792,5.32,5.32,0,0,1,5.126-1.374,8.816,8.816,0,0,1-.453.283a9.143,9.143,0,0,1-3.76-.772A5.89,5.89,0,0,1-6.839-2.627a5.559,5.559,0,0,1-.892-3.108h4.8a2.149,2.149,0,0,0,.765,1.643A2.7,2.7,0,0,0-.283-3.4a2.828,2.828,0,0,0,2.011-.7,2.343,2.343,0,0,0,.75-1.791A2.739,2.739,0,0,0,1.7-8.1,3.256,3.256,0,0,0-.453-8.751H-2.775Z" transform="translate(773.38 3356.301)" fill="#12263f"/>
  </g>
</svg>
