<svg xmlns="http://www.w3.org/2000/svg" xmlns:xlink="http://www.w3.org/1999/xlink" width="79.155" height="79.153" viewBox="0 0 79.155 79.153">
  <defs>
    <radialGradient id="radial-gradient" cx="0.077" cy="0.019" r="1.465" gradientTransform="matrix(1, 0, 0, -1, 0, 9.666)" gradientUnits="objectBoundingBox">
      <stop offset="0" stop-color="#f4f4f5"/>
      <stop offset="0.477" stop-color="#f7f8fa"/>
      <stop offset="0.715" stop-color="#fff"/>
    </radialGradient>
  </defs>
  <g id="Grupo_129363" data-name="Grupo 129363" transform="translate(-412.883 -4445.609)">
    <g id="Group_18420" data-name="Group 18420" transform="translate(412.883 4445.609)">
      <g id="Group_18419" data-name="Group 18419">
        <path id="Path_40936" data-name="Path 40936" d="M201.954,554.407a39.577,39.577,0,1,1-39.578-39.575h0A39.576,39.576,0,0,1,201.954,554.407Z" transform="translate(-122.8 -514.832)" fill="#fff"/>
      </g>
    </g>
    <path id="Path_40937" data-name="Path 40937" d="M201.953,554.407a39.42,39.42,0,1,0,0,.312Z" transform="translate(290.083 3930.777)" fill="url(#radial-gradient)"/>
    <path id="Path_40938" data-name="Path 40938" d="M190.028,551.858a30.209,30.209,0,1,0-30.209,30.209h0a30.1,30.1,0,0,0,30.209-29.984Z" transform="translate(292.761 3933.459)" fill="none" stroke="#1d272b" stroke-miterlimit="10" stroke-width="2"/>
    <path id="Path_40939" data-name="Path 40939" d="M195.973,530.78a39.581,39.581,0,0,1-68.14,39.411,39.456,39.456,0,0,0,68.14-39.411Z" transform="translate(292.062 3937.049)" fill="#e7e9eb"/>
    <path id="Trazado_165747" data-name="Trazado 165747" d="M7258.156-1509.49c-.01.214-.025.38-.025.547,0,2.421.009,4.842-.011,7.263a.7.7,0,0,0,.5.747,10.915,10.915,0,0,1,6.734,9.43,10.987,10.987,0,0,1-5.089,10.469c-.111.077-.223.153-.333.232-.011.008-.01.031-.047.151h14.2a3.925,3.925,0,0,1,.558.013.659.659,0,0,1,.621.731.66.66,0,0,1-.609.692,2.78,2.78,0,0,1-.456.012h-30.438c-.1,0-.2,0-.306,0a.731.731,0,0,1-.763-.715.716.716,0,0,1,.749-.725c.729-.016,1.457-.006,2.186-.006.712,0,1.422,0,2.135,0,.143,0,.286-.023.555-.047-.237-.168-.369-.263-.5-.355a10.965,10.965,0,0,1-5.085-9.98,10.964,10.964,0,0,1,6.618-9.831.752.752,0,0,0,.5-.8q-.026-3.656,0-7.313c0-.419-.115-.558-.542-.546-.778.021-.982-.21-.984-1,0-.88-.006-1.761,0-2.641,0-.61.253-.864.866-.865q4.777-.007,9.554,0c.639,0,.889.252.9.893.008.863,0,1.727,0,2.59,0,.818-.2,1.015-1.018,1.031C7258.49-1509.512,7258.357-1509.5,7258.156-1509.49Zm-6.865.012v8.487c0,.907-.014.925-.859,1.257a9.9,9.9,0,0,0-5.947,11.668,9.928,9.928,0,0,0,10.874,7.32,9.942,9.942,0,0,0,8.524-8.684,9.887,9.887,0,0,0-6.407-10.383c-.759-.282-.812-.359-.812-1.187q0-3.935,0-7.869v-.609Zm-1.467-1.593c.057.029.071.043.086.043,2.655.01,5.311.022,7.966.018a.386.386,0,0,0,.286-.244c.031-.414.014-.832.014-1.265h-8.352Z" transform="translate(-6804.828 5982.112)" fill="#1d272b"/>
    <path id="Trazado_165748" data-name="Trazado 165748" d="M7430.832-1493.74c0,.626-.026,1.254.01,1.878a1.093,1.093,0,0,1-.649,1.141c-.924.5-1.814,1.056-2.735,1.557a.769.769,0,0,0-.472.794c.027,1.15,0,2.3.016,3.453a.993.993,0,0,1-.57.979q-1.73.965-3.432,1.978a1.006,1.006,0,0,1-1.137-.006c-1.121-.665-2.248-1.32-3.389-1.952a1.074,1.074,0,0,1-.621-1.06c.02-1.066,0-2.133.013-3.2a.7.7,0,0,0-.407-.726c-.951-.518-1.876-1.083-2.822-1.612a1.007,1.007,0,0,1-.575-.981c.018-1.337.016-2.674,0-4.012a.971.971,0,0,1,.555-.94q1.748-.985,3.476-2a.98.98,0,0,1,1.094,0c.889.527,1.793,1.026,2.679,1.557a.629.629,0,0,0,.739,0c1.032-.615,2.084-1.2,3.117-1.813a.963.963,0,0,1,1.089,0q1.724,1.023,3.475,2.006a.949.949,0,0,1,.554.936C7430.818-1495.095,7430.832-1494.417,7430.832-1493.74Zm-7.625-.011c0,.457.017.914,0,1.371a.617.617,0,0,0,.357.65c.8.44,1.579.922,2.386,1.351a.777.777,0,0,0,.629.008q1.254-.668,2.462-1.42a.786.786,0,0,0,.319-.549c.033-.9,0-1.794.023-2.69a.716.716,0,0,0-.452-.753c-.395-.194-.764-.437-1.147-.652-.5-.281-1-.772-1.506-.773s-.985.544-1.514.757C7423.514-1495.951,7422.8-1495.185,7423.207-1493.751Zm2.332,6.828c0-.473.027-.949-.014-1.418a.751.751,0,0,0-.29-.512q-1.207-.747-2.458-1.42a.663.663,0,0,0-.544.005q-1.312.716-2.59,1.5a.724.724,0,0,0-.293.51c-.029.911-.034,1.825,0,2.736a.834.834,0,0,0,.347.579c.787.493,1.609.928,2.4,1.411a.587.587,0,0,0,.691-.018c.784-.467,1.572-.928,2.373-1.364a.646.646,0,0,0,.379-.688C7425.521-1486.044,7425.54-1486.485,7425.539-1486.924Zm-9.984-6.569c0,.474-.03.95.016,1.42a.815.815,0,0,0,.317.547c.774.484,1.568.938,2.373,1.37a.719.719,0,0,0,.585.016q1.295-.7,2.549-1.471a.721.721,0,0,0,.282-.515c.029-.93.031-1.861,0-2.79a.78.78,0,0,0-.312-.548q-1.182-.74-2.416-1.4a.8.8,0,0,0-.635.012c-.53.26-1.007.639-1.55.862a1.678,1.678,0,0,0-1.213,2.089A2,2,0,0,1,7415.555-1493.493Z" transform="translate(-6958.754 5968.503)" fill="#1d272b"/>
    <path id="Trazado_165749" data-name="Trazado 165749" d="M7486.529-1274.122c-1.437,0-2.875,0-4.312,0-.6,0-.957-.277-.965-.736s.341-.746.944-.747q4.337,0,8.676,0c.614,0,.955.263.961.727s-.354.755-.991.756Q7488.686-1274.118,7486.529-1274.122Z" transform="translate(-7019.106 5767.954)" fill="#1d272b"/>
    <path id="Trazado_165750" data-name="Trazado 165750" d="M7486.543-1251.863q-2.158,0-4.312,0c-.619,0-.96-.258-.968-.719-.009-.477.351-.759.991-.76q4.313,0,8.624,0c.736,0,1.143.47.9,1.027a.781.781,0,0,1-.826.454C7489.484-1251.867,7488.014-1251.863,7486.543-1251.863Z" transform="translate(-7019.115 5747.957)" fill="#1d272b"/>
    <path id="Trazado_165751" data-name="Trazado 165751" d="M7486.5-1296.441c-1.437,0-2.873,0-4.311,0-.584,0-.914-.256-.932-.7-.017-.465.327-.756.93-.757q4.362-.006,8.723,0c.607,0,.945.286.928.755-.016.45-.337.7-.926.7C7489.442-1296.438,7487.972-1296.441,7486.5-1296.441Z" transform="translate(-7019.111 5787.979)" fill="#1d272b"/>
    <path id="Trazado_165752" data-name="Trazado 165752" d="M7543.183-1229.36c-.472,0-.945.017-1.417,0a.737.737,0,0,1-.8-.735c0-.447.311-.726.844-.73.927-.007,1.856-.006,2.783,0,.543,0,.859.262.877.7s-.312.754-.87.771c-.473.015-.945,0-1.418,0Z" transform="translate(-7072.743 5727.739)" fill="#1d272b"/>
    <path id="Trazado_165753" data-name="Trazado 165753" d="M7571.562-1184.58a.7.7,0,0,1-.724-.737.7.7,0,0,1,.707-.7.714.714,0,0,1,.755.712A.713.713,0,0,1,7571.562-1184.58Z" transform="translate(-7099.574 5687.486)" fill="#1d272b"/>
    <path id="Trazado_165754" data-name="Trazado 165754" d="M7250.977-1484.159a.731.731,0,0,1,.729.75.738.738,0,0,1-.762.72.734.734,0,0,1-.7-.727A.733.733,0,0,1,7250.977-1484.159Z" transform="translate(-6811.608 5955.279)" fill="#1d272b"/>
    <path id="Trazado_165755" data-name="Trazado 165755" d="M7266.643-1446.285a.718.718,0,0,1-.714.757.72.72,0,0,1-.735-.684.74.74,0,0,1,.688-.791A.741.741,0,0,1,7266.643-1446.285Z" transform="translate(-6825.037 5921.907)" fill="#1d272b"/>
    <path id="Trazado_165756" data-name="Trazado 165756" d="M7251.714-1401.491a.753.753,0,0,1-.765.722.744.744,0,0,1-.7-.784.734.734,0,0,1,.733-.694A.746.746,0,0,1,7251.714-1401.491Z" transform="translate(-6811.617 5881.705)" fill="#1d272b"/>
    <path id="Trazado_165757" data-name="Trazado 165757" d="M7281.561-1416.409a.729.729,0,0,1-.754.721.729.729,0,0,1-.694-.779.727.727,0,0,1,.728-.7A.732.732,0,0,1,7281.561-1416.409Z" transform="translate(-6838.438 5895.104)" fill="#1d272b"/>
    <path id="Trazado_165758" data-name="Trazado 165758" d="M7283.894-1350.392c-.59,0-1.146-.016-1.7,0-2.624.087-5.246.193-7.871.264a1.21,1.21,0,0,1-.807-.284.687.687,0,0,1,.372-1.121,2.466,2.466,0,0,1,.553-.065q4.951-.174,9.9-.34c.915-.03,1.115.178,1.09,1.082a8.642,8.642,0,0,1-7.975,8.3,8.651,8.651,0,0,1-9.183-6.633,8.712,8.712,0,0,1,5.023-10.028c.417-.174.795-.214,1.088.19s.084.842-.418,1.152a13.416,13.416,0,0,0-2.406,1.655,7.1,7.1,0,0,0-1.218,8.35,7.229,7.229,0,0,0,7.723,3.753,7.27,7.27,0,0,0,5.824-6.027A2.036,2.036,0,0,0,7283.894-1350.392Z" transform="translate(-6827.59 5843.162)" fill="#1d272b"/>
    <path id="Trazado_165759" data-name="Trazado 165759" d="M7319.035-1311.034h-1.422v-1.394h1.422Z" transform="translate(-6872.122 5801.027)" fill="#1d272b"/>
    <path id="Trazado_165760" data-name="Trazado 165760" d="M7341.431-1311.121h-1.4v-1.412h1.4Z" transform="translate(-6892.262 5801.122)" fill="#1d272b"/>
    <path id="Trazado_165761" data-name="Trazado 165761" d="M7363.8-1310.946h-1.411v-1.38h1.411Z" transform="translate(-6912.342 5800.936)" fill="#1d272b"/>
    <path id="Trazado_165762" data-name="Trazado 165762" d="M7385.724-1310.976a.792.792,0,0,1-.149.042c-1.5-.021-1.333.333-1.252-1.4h1.4Z" transform="translate(-6931.998 5800.944)" fill="#1d272b"/>
  </g>
</svg>
