<svg xmlns="http://www.w3.org/2000/svg" xmlns:xlink="http://www.w3.org/1999/xlink" width="260.926" height="315.677" viewBox="0 0 260.926 315.677">
  <defs>
    <linearGradient id="linear-gradient" x1="0.5" x2="0.5" y2="1" gradientUnits="objectBoundingBox">
      <stop offset="0" stop-color="#fff"/>
      <stop offset="1" stop-color="#f8f8f8"/>
    </linearGradient>
    <radialGradient id="radial-gradient" cx="0.076" cy="0.019" r="1.465" gradientTransform="translate(0.001)" gradientUnits="objectBoundingBox">
      <stop offset="0" stop-color="#f6f6f7"/>
      <stop offset="0.477" stop-color="#f9f9fa"/>
      <stop offset="0.715" stop-color="#fff"/>
    </radialGradient>
  </defs>
  <g id="Grupo_129367" data-name="Grupo 129367" transform="translate(-694.359 -5009.276)">
    <g id="Grupo_129309" data-name="Grupo 129309" transform="translate(694.359 5009.276)">
      <g id="Grupo_57070" data-name="Grupo 57070" transform="translate(0 0)">
        <g id="Grupo_57069" data-name="Grupo 57069" opacity="0.7" style="mix-blend-mode: multiply;isolation: isolate">
          <rect id="Rectángulo_29501" data-name="Rectángulo 29501" width="260.926" height="315.677" rx="9.04" fill="#fff" opacity="0"/>
          <rect id="Rectángulo_29502" data-name="Rectángulo 29502" width="258.714" height="313.756" rx="9.04" transform="translate(1.106 0.961)" fill="#f3f3f3" opacity="0.048"/>
          <rect id="Rectángulo_29503" data-name="Rectángulo 29503" width="256.502" height="311.835" rx="9.04" transform="translate(2.212 1.921)" fill="#e7e7e7" opacity="0.095"/>
          <rect id="Rectángulo_29504" data-name="Rectángulo 29504" width="254.289" height="309.914" rx="9.04" transform="translate(3.318 2.882)" fill="#dbdbdb" opacity="0.143"/>
          <rect id="Rectángulo_29505" data-name="Rectángulo 29505" width="252.077" height="307.993" rx="9.04" transform="translate(4.425 3.842)" fill="#cecece" opacity="0.19"/>
          <rect id="Rectángulo_29506" data-name="Rectángulo 29506" width="249.865" height="306.071" rx="9.04" transform="translate(5.531 4.803)" fill="#c2c2c2" opacity="0.238"/>
          <rect id="Rectángulo_29507" data-name="Rectángulo 29507" width="247.653" height="304.15" rx="9.04" transform="translate(6.637 5.763)" fill="#b6b6b6" opacity="0.286"/>
          <rect id="Rectángulo_29508" data-name="Rectángulo 29508" width="245.44" height="302.229" rx="9.04" transform="translate(7.743 6.724)" fill="#aaa" opacity="0.333"/>
          <rect id="Rectángulo_29509" data-name="Rectángulo 29509" width="243.228" height="300.308" rx="9.04" transform="translate(8.849 7.684)" fill="#9e9e9e" opacity="0.381"/>
          <rect id="Rectángulo_29510" data-name="Rectángulo 29510" width="241.016" height="298.387" rx="9.04" transform="translate(9.955 8.645)" fill="#929292" opacity="0.429"/>
          <rect id="Rectángulo_29511" data-name="Rectángulo 29511" width="238.804" height="296.466" rx="9.04" transform="translate(11.061 9.605)" fill="#868686" opacity="0.476"/>
          <rect id="Rectángulo_29512" data-name="Rectángulo 29512" width="236.591" height="294.545" rx="9.04" transform="translate(12.167 10.566)" fill="#797979" opacity="0.524"/>
          <rect id="Rectángulo_29513" data-name="Rectángulo 29513" width="234.379" height="292.624" rx="9.04" transform="translate(13.274 11.526)" fill="#6d6d6d" opacity="0.571"/>
          <rect id="Rectángulo_29514" data-name="Rectángulo 29514" width="232.167" height="290.703" rx="9.04" transform="translate(14.38 12.487)" fill="#616161" opacity="0.619"/>
          <rect id="Rectángulo_29515" data-name="Rectángulo 29515" width="229.955" height="288.782" rx="9.04" transform="translate(15.486 13.447)" fill="#555" opacity="0.667"/>
          <rect id="Rectángulo_29516" data-name="Rectángulo 29516" width="227.742" height="286.861" rx="9.04" transform="translate(16.592 14.408)" fill="#494949" opacity="0.714"/>
          <rect id="Rectángulo_29517" data-name="Rectángulo 29517" width="225.53" height="284.94" rx="9.04" transform="translate(17.698 15.368)" fill="#3d3d3d" opacity="0.762"/>
          <rect id="Rectángulo_29518" data-name="Rectángulo 29518" width="223.318" height="283.019" rx="9.04" transform="translate(18.804 16.329)" fill="#313131" opacity="0.81"/>
          <rect id="Rectángulo_29519" data-name="Rectángulo 29519" width="221.105" height="281.098" rx="9.04" transform="translate(19.91 17.29)" fill="#242424" opacity="0.857"/>
          <rect id="Rectángulo_29520" data-name="Rectángulo 29520" width="218.893" height="279.177" rx="9.04" transform="translate(21.017 18.25)" fill="#181818" opacity="0.905"/>
          <rect id="Rectángulo_29521" data-name="Rectángulo 29521" width="216.681" height="277.256" rx="9.04" transform="translate(22.123 19.211)" fill="#0c0c0c" opacity="0.952"/>
          <rect id="Rectángulo_29522" data-name="Rectángulo 29522" width="214.469" height="275.334" rx="9.04" transform="translate(23.229 20.171)"/>
        </g>
        <rect id="Rectángulo_29523" data-name="Rectángulo 29523" width="243.055" height="300.158" rx="10" transform="translate(7.865 8.005)" fill="url(#linear-gradient)"/>
        <path id="Trazado_123976" data-name="Trazado 123976" d="M185.015,982.253H428.071v9.987H320.214l-14.156,9.57-15.228-9.778-105.815.208Z" transform="translate(-177.15 -974.247)" fill="#008f85"/>
        <path id="Trazado_123977" data-name="Trazado 123977" d="M273.916,988.734l-8.135,7.631a2.051,2.051,0,0,1-2.874.021l-8.6-7.868" transform="translate(-135.603 -975.647)" fill="none" stroke="#12263f" stroke-linecap="round" stroke-miterlimit="10" stroke-width="0.806"/>
      </g>
      <line id="Línea_1692" data-name="Línea 1692" x2="41.303" transform="translate(108.554 293.026)" fill="none" stroke="#12263f" stroke-linecap="round" stroke-miterlimit="10" stroke-width="0.806"/>
      <text id="Decoloraciones_por_problemas_vasculares_y_patologías_mitigar_en_proceso_de_preservación_con_la_inyección_arterial_con_uso_de_químicos_o_tintes_cosméticos_para_este_fin._" data-name="Decoloraciones por problemas vasculares y patologías, mitigar en proceso de preservación con la inyección arterial con uso de químicos o tintes cosméticos para este fin.
" transform="translate(9.554 139.791)" fill="#12263f" font-size="14" font-family="Roboto-Bold, Roboto" font-weight="700"><tspan x="23.513" y="15">Decoloraciones por problemas </tspan><tspan x="11.222" y="39">vasculares y patologías</tspan><tspan y="39" font-family="Roboto-Regular, Roboto" font-weight="400">, mitigar en </tspan><tspan x="22.577" y="63" font-family="Roboto-Regular, Roboto" font-weight="400">proceso de preservación con la </tspan><tspan x="0.155" y="87" font-family="Roboto-Regular, Roboto" font-weight="400">inyección arterial con uso de químicos </tspan><tspan x="16.363" y="111" font-family="Roboto-Regular, Roboto" font-weight="400">o tintes cosméticos para este fin.</tspan><tspan font-family="Roboto-Regular, Roboto" font-weight="400"><tspan x="119.5" y="135"></tspan></tspan></text>
    </g>
    <g id="Grupo_129310" data-name="Grupo 129310" transform="translate(547.024 4289.796)">
      <g id="Grupo_42274" data-name="Grupo 42274" transform="translate(233.65 755.984)">
        <g id="Grupo_18423" data-name="Grupo 18423" transform="translate(0 0)">
          <g id="Grupo_18421" data-name="Grupo 18421">
            <g id="Grupo_18420" data-name="Grupo 18420">
              <g id="Grupo_18419" data-name="Grupo 18419">
                <path id="Trazado_40936" data-name="Trazado 40936" d="M280.92,2188.868a43.148,43.148,0,1,1-43.148-43.147A43.148,43.148,0,0,1,280.92,2188.868Z" transform="translate(-194.623 -2145.721)" fill="#fff"/>
              </g>
            </g>
          </g>
          <path id="Trazado_40937" data-name="Trazado 40937" d="M280.672,2188.6a43.147,43.147,0,1,0-43.148,43.15A42.978,42.978,0,0,0,280.672,2188.6Z" transform="translate(-194.375 -2145.45)" fill="url(#radial-gradient)"/>
          <path id="Trazado_40938" data-name="Trazado 40938" d="M268.318,2186.472a32.935,32.935,0,1,0-32.935,32.935A32.813,32.813,0,0,0,268.318,2186.472Z" transform="translate(-192.103 -2143.181)" fill="none" stroke="#1d272b" stroke-miterlimit="10" stroke-width="2"/>
          <g id="Grupo_18422" data-name="Grupo 18422" transform="translate(7.644 24.225)">
            <path id="Trazado_40939" data-name="Trazado 40939" d="M274.835,2164.488a43.154,43.154,0,0,1-74.29,42.97,43.017,43.017,0,0,0,74.29-42.97Z" transform="translate(-200.545 -2164.488)" fill="#eceef0"/>
          </g>
        </g>
      </g>
      <g id="m2J3ff" transform="translate(-5112.127 1611.192)">
        <g id="Grupo_128179" data-name="Grupo 128179" transform="translate(5373.479 -828.703)">
          <path id="Trazado_165236" data-name="Trazado 165236" d="M5401.653-797.417a1.577,1.577,0,0,1-.647-1.513c.033-1.919.008-3.839-.011-5.758,0-.407-.075-.813-.121-1.279-.654.045-1.241.125-1.826.113a2.965,2.965,0,0,1-1.361-.228c-.72-.411-1.149-.169-1.628.369a23.187,23.187,0,0,1-1.723,1.686c-.4.366-.86.8-1.41.28s-.309-1.016.145-1.476c.711-.719,1.432-1.431,2.1-2.186a1.041,1.041,0,0,0,.154-.773,4.888,4.888,0,0,0-.41-1.317,1.47,1.47,0,0,0-.654-.668c-.636-.278-1.32-.444-1.972-.688a3.492,3.492,0,0,1-1.984-3.814,1.537,1.537,0,0,1,.458-.6,8.739,8.739,0,0,0,2.717-5.757,5.446,5.446,0,0,0-4.855-5.809,5.349,5.349,0,0,0-5.812,5.231,8.05,8.05,0,0,0,2.315,5.907,2.927,2.927,0,0,1,.164,3.892,2.762,2.762,0,0,1-1.476,1.038c-1.909.547-3.8,1.168-5.677,1.819a3.644,3.644,0,0,0-2.789,3.829c-.057,2.125-.11,4.251-.107,6.377a1.3,1.3,0,0,1-.677,1.322h-1.089v-7.627a3.8,3.8,0,0,0,.131-.589,5.263,5.263,0,0,1,3.7-4.944c.992-.367,2-.676,3.011-1s2.024-.611,3.019-.965a1.124,1.124,0,0,0,.606-1.72,10.13,10.13,0,0,1-2.886-7.444,6.994,6.994,0,0,1,2.412-5.168,8.271,8.271,0,0,1,4.018-1.828h1.245c.322.077.645.151.965.232,4.16,1.058,6.359,4.843,5.348,9.182a10.788,10.788,0,0,1-2.511,4.832,1.087,1.087,0,0,0,.462,1.9,12.871,12.871,0,0,0,1.6.569.794.794,0,0,0,.661-.135c1.108-1.16,2.159-2.375,3.278-3.525,1.587-1.633,3.217-3.225,4.826-4.831-.638-.767-.72-1.343-.24-1.736.644-.527,1.047.019,1.452.39.872.8,1.721,1.62,2.46,2.32l1.472-1.372c-.3-.269-.633-.524-.918-.821-.568-.591-.668-1.2-.239-1.548.589-.472,1.058-.106,1.5.294.191.175.383.349.564.535q1.57,1.6,3.135,3.211v.623c-.743.812-.93.823-1.749.086-.325-.292-.646-.59-.987-.9l-1.57,1.51c.913.807,1.783,1.544,2.614,2.323.457.428.939.92.319,1.579-.6.637-1.064.115-1.545-.212-.02-.013-.05-.009-.116-.018-.131.12-.286.253-.429.4-1.995,2-3.975,4.009-5.989,5.987a1.717,1.717,0,0,0-.539,1.521c.137,2.659.151,5.326.15,7.99,0,.3-.384.607-.589.911Zm-2.73-16.006c.4.43.713.806,1.062,1.15.41.4.548.8.093,1.26-.489.494-.9.31-1.325-.1-.363-.355-.758-.677-1.293-1.15a11.9,11.9,0,0,0-.73,1.743,2.5,2.5,0,0,0,1.207,2.579,2.259,2.259,0,0,0,2.618-.081c2.61-2.476,5.188-4.984,7.711-7.417l-3.62-3.68-1.216,1.028c.456.39.875.7,1.235,1.071s.585.848.126,1.3a.922.922,0,0,1-1.383-.059c-.4-.353-.791-.712-1.2-1.078l-.88,1.084c.389.43.779.808,1.1,1.237.312.413.371.967-.083,1.235a1.421,1.421,0,0,1-1.166-.094,7.881,7.881,0,0,1-1.287-1.07Z" transform="translate(-5373.48 828.703)" fill="#1d272b"/>
          <path id="Trazado_165237" data-name="Trazado 165237" d="M5407.136-664.1a1.354,1.354,0,0,1-.8-1.491c.066-1.366.008-2.738.048-4.106.015-.51.089-1.077.805-1.112.508-.024.87.166.875.737.012,1.731.042,3.462-.007,5.192-.008.265-.4.52-.612.779Z" transform="translate(-5401.221 695.389)" fill="#1d272b"/>
          <path id="Trazado_165238" data-name="Trazado 165238" d="M5518.12-663.843a1.3,1.3,0,0,1-.8-1.416c.063-1.294.014-2.593.027-3.89a1.468,1.468,0,0,1,.131-.824,1.3,1.3,0,0,1,.863-.532.962.962,0,0,1,.676.661q.1,2.6.029,5.211c-.008.269-.4.527-.615.79Z" transform="translate(-5494.927 695.13)" fill="#1d272b"/>
        </g>
      </g>
    </g>
  </g>
</svg>
