<svg xmlns="http://www.w3.org/2000/svg" xmlns:xlink="http://www.w3.org/1999/xlink" width="419.014" height="489.718" viewBox="0 0 419.014 489.718">
  <defs>
    <linearGradient id="linear-gradient" x1="0.5" x2="0.5" y2="1" gradientUnits="objectBoundingBox">
      <stop offset="0" stop-color="#f5f5f5"/>
      <stop offset="0.25" stop-color="#f5f5f5"/>
      <stop offset="1" stop-color="#a7b3cf"/>
    </linearGradient>
    <linearGradient id="linear-gradient-8" x1="0.5" x2="0.5" y2="1" gradientUnits="objectBoundingBox">
      <stop offset="0" stop-color="#fff"/>
      <stop offset="1" stop-color="#d2e6ee"/>
    </linearGradient>
    <linearGradient id="linear-gradient-12" x1="0.5" x2="0.5" y2="1" gradientUnits="objectBoundingBox">
      <stop offset="0" stop-color="#f5f5f5"/>
      <stop offset="0.25" stop-color="#f5f5f5"/>
      <stop offset="1" stop-color="#eeeef2"/>
    </linearGradient>
    <linearGradient id="linear-gradient-14" x1="0.5" x2="0.5" y2="1" gradientUnits="objectBoundingBox">
      <stop offset="0" stop-color="#fff"/>
      <stop offset="1" stop-color="#f8f8f8"/>
    </linearGradient>
  </defs>
  <g id="Grupo_129350" data-name="Grupo 129350" transform="translate(-215.85 -1442)">
    <path id="Trazado_165948" data-name="Trazado 165948" d="M411.512,567.4c14.411-30.672,18.512-70.478,10.881-105.629-4.825-22.223-14.083-42.869-15.267-66.044-2.368-46.334,27.477-83.793,33.668-129.426,2.721-20.055-.248-43.42-11.913-55.6-11.522-12.032-27.966-9.576-41.01-1.149s-24.081,21.916-36.6,31.778-27.944,15.958-41.169,8.109c-13.4-7.95-20.995-27.99-25.251-47.52s-6.346-40.333-13.61-58.027c-11.972-29.162-37.5-45.062-61.286-40.948S164.91,129.6,153.509,159.207s-13.393,65.425-7.718,98.131c2.879,16.587,7.621,32.472,10.207,49.155s2.823,34.942-2.95,49.969c-12.072,31.422-43.92,35.8-60.6,62.751-13.765,22.24-14.2,56.18-6.385,83.531s22.493,49.542,37.13,70.655c68.273,3.223,137.769,3.437,206.042,6.66C355.771,581.311,385.009,569.593,411.512,567.4Z" transform="translate(162.851 1342.836)" fill="#a4a4b4" opacity="0.354" style="mix-blend-mode: multiply;isolation: isolate"/>
    <path id="Trazado_165949" data-name="Trazado 165949" d="M359.21,179.023c-.169,18.032,16.972,33.725,13.989,51.509-1.595,9.515-8.846,19.161-4.632,27.84,3.728,7.68,14.4,9.011,22.569,6.514,19.109-5.846,30.724-25.379,36.279-44.576,5.225-18.056,6.522-38.225-1.846-55.057-6.743-13.562-22.3-25.534-38.1-24.427C373,141.841,359.337,165.441,359.21,179.023Z" transform="translate(194.723 1389.336)" fill="#a4a4b4" opacity="0.31" style="mix-blend-mode: multiply;isolation: isolate"/>
    <path id="Trazado_165950" data-name="Trazado 165950" d="M115.881,144.344a68.281,68.281,0,0,0-1.362,66.442c3.505,6.431,8.239,12.425,14.631,16s14.638,4.374,21,.745c9.648-5.5,11.783-18.486,11.015-29.567s-3.279-22.7.989-32.954c2.782-6.685,8.124-11.9,12.863-17.371s9.162-11.864,9.407-19.1c.635-18.759-19.282-17.358-31.284-13.462A68.214,68.214,0,0,0,115.881,144.344Z" transform="translate(174.557 1339.602)" fill="#a4a4b4" opacity="0.31" style="mix-blend-mode: multiply;isolation: isolate"/>
    <g id="Grupo_128901" data-name="Grupo 128901" transform="translate(248.588 1442)" style="mix-blend-mode: multiply;isolation: isolate">
      <path id="Trazado_151849" data-name="Trazado 151849" d="M411.25,575.814l-1.486-1.881c4.088-6.2,10.614-20.4,8.4-45.945-.983-11.369-3.421-22.6-5.778-33.462-1.052-4.852-2.141-9.87-3.092-14.852-10.138-53.162-5.7-111.807,12.166-160.9,1.587-4.356,3.3-8.728,4.966-12.954,4.925-12.53,10.018-25.489,12.208-39.486,3.841-24.563-3.752-42.974-12.431-49.684-8.327-6.441-20.081-5.457-32.246,2.7A152.179,152.179,0,0,0,381,229.517c-5.528,4.665-11.244,9.488-17.381,12.9-24.147,13.436-54.337,2.017-70.222-26.557-7.635-13.732-11.946-30.327-16.114-46.378-1.615-6.219-3.286-12.651-5.122-18.8-5.713-19.133-16.17-43.148-33.54-48.893-15.263-5.05-30.721,6.049-41,16.248-19.665,19.514-33.527,45.943-39.034,74.416-3.713,19.2-3.862,40.1-4.007,60.309-.215,30.1-.438,61.219-12.692,86.283-5.575,11.4-13.243,20.5-20.657,29.3-6.945,8.239-14.126,16.76-19.479,27.087-12.13,23.4-15.1,56.531-8.157,90.9,6.241,30.876,18.964,58.273,31.268,84.768l-1.691,1.509c-12.384-26.667-25.19-54.243-31.513-85.524-7.112-35.186-4.028-69.185,8.461-93.276,5.495-10.6,12.769-19.232,19.8-27.579,7.315-8.678,14.878-17.653,20.3-28.743,11.915-24.368,12.124-53.7,12.346-84.745.146-20.385.3-41.462,4.077-61.006,5.626-29.094,19.763-56.07,39.805-75.962,10.618-10.536,26.634-21.986,42.637-16.692,18.2,6.018,29.04,30.805,34.931,50.539,1.856,6.214,3.534,12.677,5.157,18.927,4.116,15.846,8.371,32.233,15.814,45.619,15.356,27.622,44.54,38.659,67.882,25.671,5.982-3.328,11.626-8.091,17.085-12.7a153.388,153.388,0,0,1,13.127-10.292c12.763-8.558,25.192-9.519,34.1-2.628,9.307,7.2,17.475,26.763,13.417,52.712-2.251,14.39-7.414,27.526-12.408,40.232-1.654,4.208-3.365,8.558-4.936,12.875C405.61,368.522,401.23,426.448,411.244,478.96c.941,4.937,2.025,9.932,3.073,14.763,2.382,10.975,4.845,22.323,5.85,33.934C422.471,554.3,415.569,569.268,411.25,575.814Z" transform="translate(-87.906 -97.739)" fill="#a4a4b4"/>
    </g>
    <g id="Grupo_128905" data-name="Grupo 128905" transform="translate(215.85 1494.744)">
      <path id="Trazado_165850" data-name="Trazado 165850" d="M1146.859,1063.043c.48-11.552-1.221-22.96-6.39-33.715-4.447-9.253-15.449-14.5-25.484-14.517-31.861-.041-35.913,42.056-56.195,58.294-6.2,4.962-13.124,9-18.988,14.354-21.654,19.758-11.9,56.332,7.982,73.654,13.8,12.02,35.483,18.849,52.488,9.453,8.877-4.905,15.616-13.059,20.417-21.993,6.813-12.679,11.206-27.308,16.052-40.82C1141.9,1093.371,1146.223,1078.4,1146.859,1063.043Z" transform="translate(-870.593 -997.102)" fill="#12263f"/>
      <g id="Grupo_128895" data-name="Grupo 128895" transform="translate(34.733 0)">
        <g id="Grupo_128884" data-name="Grupo 128884" transform="translate(161.319 25.472)">
          <path id="Trazado_165851" data-name="Trazado 165851" d="M1192.295,1135.566l15.373-16.219s16.455,9.049,35.637,17.7c5.274-9.178,13.88-39.37,14.343-40.809s-10.08-19.581-7.722-20.036,5.421,9.686,7.914,8.658,8.9-24.552,10.4-23.269c2.807,2.4-3.373,14.632-1.893,15.523s5.234-13.556,8.093-12.94-4.826,13.152-3.984,14.357,8.875-10.555,10.535-7.832c.9,1.479-7.409,10.241-5.7,11.221s9.2-4.539,10.092-2.751-6.988,3.651-9.176,8.175-6.167,6.285-7.488,14.838-4.929,54.269-14.249,57.94C1246.337,1163.324,1192.295,1135.566,1192.295,1135.566Z" transform="translate(-1151.388 -1046.606)" fill="#f4b1a4"/>
          <path id="Trazado_165852" data-name="Trazado 165852" d="M1216.213,1170.339a48.626,48.626,0,0,1,4.716,1.641c7.541,3.8,27.887,19.069,27.887,19.069s-4.511,15.994-9.432,22.146l-34.448-14.149Z" transform="translate(-1157.89 -1102.568)" fill="url(#linear-gradient)"/>
          <path id="Trazado_165853" data-name="Trazado 165853" d="M1336.07,1076.892c-1.875-1.076,7.312-10.21,6.323-11.833-1.821-2.989-10.635,9.917-11.56,8.594s7.508-15.079,4.371-15.755-7.257,15.178-8.881,14.2,5.158-14.4,2.077-17.035c-1.647-1.409-8.355,22.7-11.092,23.827s-6.424-8.292-9.012-7.793,8.983,20.4,8.474,21.987c-.083.26-.408,1.373-.92,3.1,4.113.374,9.591,1.105,13.234,2.5,1.585-8.591,5.739-10.557,8.059-15.354,2.4-4.964,11.051-7.009,10.069-8.971S1337.946,1077.968,1336.07,1076.892Z" transform="translate(-1210.858 -1043.246)" fill="#f7b242"/>
          <path id="Trazado_165854" data-name="Trazado 165854" d="M1327.512,1134.019s6.6-2.143,10.152,1.861C1337.664,1135.881,1334.9,1133.737,1327.512,1134.019Z" transform="translate(-1220.936 -1083.592)" fill="#d1d1d1"/>
          <g id="Grupo_128882" data-name="Grupo 128882">
            <g id="Grupo_128881" data-name="Grupo 128881">
              <path id="Trazado_165855" data-name="Trazado 165855" d="M1236.593,1472.3c.635-5.4,1.153-9.36,1.518-11.425,3.3-18.65-1.725-47.1-1.725-47.1l-11.691-4.391-18.23,62.915Z" transform="translate(-1158.676 -1225.516)" fill="#1d272b"/>
              <path id="Trazado_165856" data-name="Trazado 165856" d="M1175.684,1463.772l7.867-22.905,8.21-48.058-49.459,6.456s-13.849,20.8-17.146,38.018c-1.093,5.708-1.2,15.341-1.075,26.489Z" transform="translate(-1116.283 -1216.992)" fill="#1d272b"/>
              <path id="Trazado_165857" data-name="Trazado 165857" d="M1156.146,1162.327s-18.336-1.166-25.59,6.725,16.092,70.31,17.411,80.353-6.724,36.745-6.724,36.745,43.074,8.65,55.384.52c0,0,1.319-72.215,0-79.39s-12.31-36.347-14.948-39.216S1156.146,1162.327,1156.146,1162.327Z" transform="translate(-1118.916 -1098.415)" fill="url(#linear-gradient)"/>
              <path id="Trazado_165858" data-name="Trazado 165858" d="M1190.169,1111.611s-.095.539-.265,1.456c-.817,4.4-3.966,18.994-6.093,23.006-2.57,4.849,8.8,20.313,19.742,18.426,3.258-.562-2.753-14.209-2.465-15.655.553-2.767,1.3-6.542,2.07-10.413.433-2.184.871-4.4,1.284-6.478,1.17-5.914,2.125-10.75,2.125-10.75Z" transform="translate(-1146.836 -1072.151)" fill="#ffc3b5"/>
              <path id="Trazado_165859" data-name="Trazado 165859" d="M1196.219,1113.067c.17-.917.265-1.456.265-1.456l16.4-.408s-.955,4.837-2.125,10.75c-.41,2.069-.845,4.27-1.276,6.442a15.374,15.374,0,0,1-7.829-3.917,20.642,20.642,0,0,1-5.931-8.8C1195.924,1114.641,1196.091,1113.749,1196.219,1113.067Z" transform="translate(-1153.15 -1072.151)" fill="#fc8899"/>
              <path id="Trazado_165860" data-name="Trazado 165860" d="M1200.979,1035.406s-7.729-.891-12.574,5.362-10.066,25.591,1.969,36.1,23.925-1.387,25.689-14.005S1218.511,1034.951,1200.979,1035.406Z" transform="translate(-1146.609 -1033.144)" fill="#ffc3b5"/>
              <path id="Trazado_165861" data-name="Trazado 165861" d="M1251.421,1084.313c-1.437,2.787-3.848,4.33-5.385,3.447s-1.621-3.859-.184-6.646,3.847-4.33,5.385-3.447S1252.857,1081.526,1251.421,1084.313Z" transform="translate(-1178.407 -1054.775)" fill="#ffc3b5"/>
              <path id="Trazado_165862" data-name="Trazado 165862" d="M1194.188,1030.989s-10.325,18.39-17.712,19.24-8.357,10.621-8.357,10.621,2.641-22.516,9.954-26.859S1194.188,1030.989,1194.188,1030.989Z" transform="translate(-1138.954 -1030.794)" fill="#12263f"/>
              <g id="Grupo_128879" data-name="Grupo 128879" transform="translate(33.993 18.83)">
                <path id="Trazado_165863" data-name="Trazado 165863" d="M1184.057,1088.467c-.582-.8-5.7-7.924-5.92-10.144-.006-.063-.6-6.245,1.565-8.186a2.207,2.207,0,0,1,2-.514c3.317.7,6.215,5.806,6.337,6.023l-1.043.571c-.028-.049-2.7-4.9-5.525-5.5a1.084,1.084,0,0,0-1.022.251c-1.333,1.2-1.383,5.395-1.2,7.241.145,1.456,3.5,6.538,5.712,9.6Z" transform="translate(-1178.059 -1069.565)" fill="#fcfcfc"/>
              </g>
              <path id="Trazado_165864" data-name="Trazado 165864" d="M1181.132,1074.831c.6,3.266-.588,6.4-2.679,6.833s-4.293-2.015-4.893-5.281.608-6.261,2.7-6.689S1180.531,1071.565,1181.132,1074.831Z" transform="translate(-1141.672 -1050.775)" fill="#ffc3b5"/>
              <g id="Grupo_128880" data-name="Grupo 128880" transform="translate(0 70.211)">
                <path id="Trazado_165865" data-name="Trazado 165865" d="M1248.858,1218.048c-7.927,6.375-20.724,20.447-30.894,27.245-11.488-7.29-30.872-26.009-30.872-26.009l-15.559,19.137c-.383.078,43.388,30.422,50.2,28.88,8.039-1.82,25.282-26.492,34.509-43.306Z" transform="translate(-1140.708 -1197.317)" fill="#ffc3b5"/>
                <path id="Trazado_165866" data-name="Trazado 165866" d="M1169.014,1207.638s-27.592-27.464-38.788-31.312-21.453,4.373-22.151,14.869,43.423,40.551,43.423,40.551Z" transform="translate(-1108.066 -1175.362)" fill="url(#linear-gradient)"/>
              </g>
              <path id="Trazado_165867" data-name="Trazado 165867" d="M1250.8,1076.678a4.2,4.2,0,0,1,.262,1.094l-1.562,3.372-.756-.005,1.919-4.559A.635.635,0,0,1,1250.8,1076.678Z" transform="translate(-1180.42 -1054.344)" fill="#fcfcfc"/>
              <path id="Trazado_165868" data-name="Trazado 165868" d="M1216.393,1081.375a73.11,73.11,0,0,1-12.092-1.835c-6.83-1.6-15.654-.468-15.654-.468l-5.049,9.912s1.6,13.287,16.434,17.128c0,0,4.8.961,10.779-4.375S1216.393,1081.375,1216.393,1081.375Z" transform="translate(-1146.915 -1055.425)" fill="#fcfcfc"/>
            </g>
          </g>
          <g id="Grupo_128883" data-name="Grupo 128883" transform="translate(110.05 67.016)">
            <path id="Trazado_165869" data-name="Trazado 165869" d="M1345.512,1173c-1.558.052-4.816.434-5.589,1.791,0,.011-1.243,2.9-1.445,17.52l-3.814-.271c1.239-16.686,2.825-18.627,2.734-18.424,1.195-2.442,5.082-3.022,7.791-2.982l.459.014Z" transform="translate(-1334.664 -1169.733)" fill="#d93328"/>
            <rect id="Rectángulo_35677" data-name="Rectángulo 35677" width="3.26" height="3.994" transform="translate(43.068 5.353) rotate(180)" fill="#d93328"/>
            <path id="Trazado_165870" data-name="Trazado 165870" d="M1363.331,1233.425a37.608,37.608,0,0,0-4.047-16.97l-.524-1.036-12.806-.09-1.211,2.815a37.626,37.626,0,0,0-3.058,15l.149,38.043h0v0c0,1.3,4.812,2.358,10.748,2.358s10.748-1.056,10.748-2.358Z" transform="translate(-1338.275 -1192.724)" fill="#1d272b"/>
            <rect id="Rectángulo_35678" data-name="Rectángulo 35678" width="11.873" height="9.672" transform="translate(20.544 25.648) rotate(180)" fill="#466eb6"/>
            <path id="Trazado_165871" data-name="Trazado 165871" d="M1355.26,1168.784h31.191v5.841a4.483,4.483,0,0,1-4.483,4.483h-9.958c-1.808,0-4.969,1.592-4.969,3.4l-.769,5.229-8.838.065v-8.694h-2.174Z" transform="translate(-1345.257 -1168.784)" fill="#d1d1d1"/>
          </g>
          <path id="Trazado_165872" data-name="Trazado 165872" d="M1316.693,1196.722s6.879-11.919,8.572-14.226,1.732-9.764,2.347-11.609,5.075.615,3.691,4-.112,4.228,1.118,4.843,12.3-1.025,14.456.615,1.23,4.511,0,4.921c0,0,1.743,1.743,1.128,3.589s-1.435,2.153-1.435,2.153.717.307.41,2.255a2.566,2.566,0,0,1-1.845,2.256,3.081,3.081,0,0,0-.513,2.153c.1,1.435-1.845,1.23-6.254,1.743s-5.721-.359-7.259.769-2.871,5.383-2.871,5.383Z" transform="translate(-1215.371 -1102.525)" fill="#f7b242"/>
        </g>
        <g id="Grupo_128894" data-name="Grupo 128894" transform="translate(0 0)">
          <g id="Grupo_128887" data-name="Grupo 128887">
            <path id="Trazado_165873" data-name="Trazado 165873" d="M639.307,1298.852s-20.57,8.8-23.808,8.245a30.987,30.987,0,0,0-4.766-1.562c-3.2-.835-11.4-1.177-15.932.564s-8.464,1.732-8.517,3.15.661,1.872,2.664,1.8,7.346-1.437,7.367-1.378c.277.768.464.169-.911.718-1.159.463-12.918,5.843-16.581,7.521a1.223,1.223,0,0,0-.615,1.594h0a1.223,1.223,0,0,0,1.574.656l12.238-4.825a.132.132,0,0,1,.156.049h0a.131.131,0,0,1-.056.192l-14.1,6.21a1.5,1.5,0,0,0-.834,1.786h0a1.5,1.5,0,0,0,2.007.968l14.618-6.015a.128.128,0,0,1,.169.074h0a.128.128,0,0,1-.069.16l-13.956,6.1a1.422,1.422,0,0,0-.791,1.718h0a1.422,1.422,0,0,0,1.887.9l13.469-5.37a.121.121,0,0,1,.162.084h0a.121.121,0,0,1-.069.14L583.4,1327.2a1.526,1.526,0,0,0-.843,1.872h0a1.525,1.525,0,0,0,1.467,1.052c2.71-.03,10.064-2.726,16.991-4.606,8.768-2.379,43.735-12.05,43.735-12.05s.42-7.327-2.72-10.148S639.3,1301.356,639.307,1298.852Z" transform="translate(-577.126 -1154.268)" fill="#f4b1a4"/>
            <path id="Trazado_165874" data-name="Trazado 165874" d="M718.887,1171.325,707,1225.014l-27.626,10.146,7.451,16.429,38.882-8.158-5.7-28.524Z" transform="translate(-629.718 -1088.676)" fill="url(#linear-gradient)"/>
            <g id="Grupo_128885" data-name="Grupo 128885" transform="translate(92.772 192.436)">
              <path id="Trazado_165875" data-name="Trazado 165875" d="M848.891,1470.405c0,.015.01.035.015.06Z" transform="translate(-809.678 -1434.941)" fill="#f7cc7f"/>
              <path id="Trazado_165876" data-name="Trazado 165876" d="M806.063,1466.124c1.123-13.133,1.091-33.955,1.3-33.278l-8.961-35.464c-10.216.044-20.145.093-28.946.088-.291,1.933-.581,3.986-.868,6.2-1.887,14.757,2.691,40.2,6.843,62.455Z" transform="translate(-768.149 -1397.382)" fill="#293241"/>
            </g>
            <path id="Trazado_165877" data-name="Trazado 165877" d="M833.85,1466.124H866c-1.611-15.177,12.156-50.4,10.515-63.724-14.715-.241-34.49-5.091-51.509-5.018l-5.134,16.989c2.987,13.586,3.361,50.053,4.281,51.661Z" transform="translate(-701.978 -1204.945)"/>
            <path id="Trazado_165878" data-name="Trazado 165878" d="M762.44,1160.474l10.878-3.685s19.588-5.572,23.268-6.336c.319-.066,11.538,33.924,20.74,59.451s19.867,79.852,19.867,79.852a105.065,105.065,0,0,1-32.727,10.036c-19.035,2.41-45.072,1.65-45.072,1.65s5.893-70.769,5.625-87.229S762.44,1160.474,762.44,1160.474Z" transform="translate(-670.874 -1077.941)" fill="#1d272b"/>
            <path id="Trazado_165879" data-name="Trazado 165879" d="M742.283,1223.542l8.073-59.5,14.207-6.872s-5.691,27.341-5.556,49.984-2.193,108.008-2.193,108.008-10.169,3.777-14.346-1.9S742.283,1223.542,742.283,1223.542Z" transform="translate(-661.187 -1081.398)" fill="url(#linear-gradient)"/>
            <path id="Trazado_165880" data-name="Trazado 165880" d="M865.479,1232.175c2.675-63.806-11.715-78.891-11.715-78.891L823.61,1150.5s-16.178,37.917-10.161,89.5c3.2,27.428,9.832,52.169,21.189,64.583,8.28,9.051,40.228-2.011,45.927-13.745C881.595,1289.222,864.152,1263.86,865.479,1232.175Z" transform="translate(-697.986 -1077.966)" fill="url(#linear-gradient)"/>
            <path id="Trazado_165881" data-name="Trazado 165881" d="M806.715,1107.1l3.156,21.08s-4.574,20.545-13.054,19.483c-7.115-.892-9.807-12.794-9.807-12.794s.05-4.692-.068-10.125c-.082-3.8-.432-7.824-1.385-10.554C783.239,1107.549,806.715,1107.1,806.715,1107.1Z" transform="translate(-684.247 -1055.641)" fill="#f4b1a4"/>
            <path id="Trazado_165882" data-name="Trazado 165882" d="M785.526,1115.359c-2.318-6.637,17.411-5.545,17.411-5.545l3.617-.437a19.322,19.322,0,0,1-3.045,6.9c-3.792,5.016-10.918,8.383-16.6,9.605A37.6,37.6,0,0,0,785.526,1115.359Z" transform="translate(-684.217 -1056.814)" fill="#fc8899"/>
            <g id="Grupo_128886" data-name="Grupo 128886" transform="translate(81.628)">
              <path id="Trazado_165883" data-name="Trazado 165883" d="M750.385,1037.178s-1.775,13.964,2.081,23.07a51.186,51.186,0,0,0,8.715,14.217l9.15-37.823Z" transform="translate(-747.658 -1019.403)" fill="#12263f"/>
              <path id="Trazado_165884" data-name="Trazado 165884" d="M782.3,1034.732c.458-.363,12.855,25.326,8.387,35.079s-16.906,16.8-23.72,12.574c-7.537-4.677-16.967-33.792-8.714-45.047S782.3,1034.732,782.3,1034.732Z" transform="translate(-750.268 -1016.789)" fill="#ffc3b5"/>
              <path id="Trazado_165885" data-name="Trazado 165885" d="M827.246,1100.94c1.039-2.268,1.166-5.4.744-8.86l-.341.088-1.524,10.9A21.786,21.786,0,0,0,827.246,1100.94Z" transform="translate(-786.823 -1047.917)" fill="#f47458"/>
              <path id="Trazado_165886" data-name="Trazado 165886" d="M771.231,1002.182c8.171,2.178,12.736,4.464,20.985,11.441,10.144,8.579,6.333,24.549.67,32.948s-3.351,14.892-3.351,14.892l-2.322-2.862c-1.774-2.352-1.9-15.221-1.7-16.935.527-4.52.6-5.479-2.106-8.189-2.083-2.088-3.836-8.092-7.182-11.575l-11.751,2.961s-7.435,1.689-12.7-.523C736.636,1017.989,749.554,996.175,771.231,1002.182Z" transform="translate(-745.201 -1001.147)" fill="#12263f"/>
              <path id="Trazado_165887" data-name="Trazado 165887" d="M757.362,1090.485s1.911,17.193,9.867,21.465c4.98,2.675,17.812-1.379,23.673-11.722,0,0-5.861-9.078-6.205-13.33,0,0-10.523,1.1-18.546,2.25C760.754,1089.919,757.362,1090.485,757.362,1090.485Z" transform="translate(-751.456 -1045.252)" fill="#fcfcfc"/>
              <path id="Trazado_165888" data-name="Trazado 165888" d="M815.591,1065.6l-6.206,12.066,1.379.115L816.453,1066Z" transform="translate(-778.214 -1034.299)" fill="#fcfcfc"/>
              <path id="Trazado_165889" data-name="Trazado 165889" d="M825.809,1088.235l-2.069,12.411,1.3.191,1.992-12.756Z" transform="translate(-785.597 -1045.86)" fill="#fcfcfc"/>
              <path id="Trazado_165890" data-name="Trazado 165890" d="M821.527,1069.329c.09,3.474,1.8,6.247,3.819,6.2s3.582-2.91,3.492-6.383-1.8-6.247-3.818-6.195S821.437,1065.856,821.527,1069.329Z" transform="translate(-784.457 -1032.932)" fill="#ffc3b5"/>
            </g>
            <path id="Trazado_165891" data-name="Trazado 165891" d="M615.179,1344.177a4.921,4.921,0,0,1,2.754-5.176,4.315,4.315,0,1,1,8.229-2.357l1.678,11.072a3.718,3.718,0,1,1-7.352,1.114,3.675,3.675,0,0,1-.041-.494A4.919,4.919,0,0,1,615.179,1344.177Z" transform="translate(-596.669 -1171.819)" fill="#fff"/>
            <path id="Trazado_165892" data-name="Trazado 165892" d="M628.309,1314.55a4.51,4.51,0,0,1,.533,5.46,3.479,3.479,0,0,1,.8.594,4.34,4.34,0,0,1-6.081,6.123l-7.136-7.088a3.739,3.739,0,0,1,5.24-5.276,2.932,2.932,0,0,1,.291.337A4.649,4.649,0,0,1,628.309,1314.55Z" transform="translate(-596.87 -1161.734)" fill="#fff"/>
            <path id="Trazado_165893" data-name="Trazado 165893" d="M632.739,1325.894a1.928,1.928,0,1,1-2.19-1.778A2,2,0,0,1,632.739,1325.894Z" transform="translate(-603.76 -1167.253)" fill="#fff"/>
            <path id="Trazado_165894" data-name="Trazado 165894" d="M624.8,1340.285h0a6.935,6.935,0,0,1-9.8-.5l-5.459-6.044a6.936,6.936,0,0,1,.5-9.8h0a6.935,6.935,0,0,1,9.8.5l5.458,6.044A6.934,6.934,0,0,1,624.8,1340.285Z" transform="translate(-592.882 -1166.256)" fill="#f67"/>
            <path id="Trazado_165895" data-name="Trazado 165895" d="M648.736,1329.744c-5.6,1.825-16.226,2.761-18.5,1.952,0,0-1.111-.39-4.278-1.831s-11.02-1.925-16.026-.939-9.071.268-9.382,1.726.347,2.057,2.434,2.339,7.866-.166,7.873-.1c.026.283-.666.5-1.072.579-1.287.251-14.42,3.722-18.514,4.8a1.285,1.285,0,0,0,.587,2.5l13.534-2.791a.137.137,0,0,1,.061.267l-15.711,3.888a1.572,1.572,0,0,0,.718,3.061l16.212-3.594a.134.134,0,0,1,.061.261l-15.541,3.8a1.493,1.493,0,0,0,.662,2.912l15.026-2.883c.076-.016.139.077.145.155,0,.062.11.518.049.533l-12.737,2.329a1.6,1.6,0,0,0-1.209,1.785h0a1.6,1.6,0,0,0,1.329,1.352c2.809.457,9.4-.987,16.909-1.686,3.245-.3,10.973-2.842,18.045-3.958a42.537,42.537,0,0,1,21.294,1.821c.615-2.117,2.652-7.488,1.9-9.722C651.584,1335.282,649.892,1332.63,648.736,1329.744Z" transform="translate(-582.999 -1169.47)" fill="#ffc3b5"/>
            <path id="Trazado_165896" data-name="Trazado 165896" d="M633.244,1352.462a2.508,2.508,0,1,1-2.848-2.3A2.592,2.592,0,0,1,633.244,1352.462Z" transform="translate(-603.426 -1180.647)" fill="#fff"/>
            <path id="Trazado_165897" data-name="Trazado 165897" d="M628.1,1354.768a2.508,2.508,0,1,1-2.847-2.3A2.591,2.591,0,0,1,628.1,1354.768Z" transform="translate(-600.779 -1181.833)" fill="#fff"/>
            <path id="Trazado_165898" data-name="Trazado 165898" d="M624.433,1361.455a1.7,1.7,0,1,1-1.915-1.446A1.7,1.7,0,0,1,624.433,1361.455Z" transform="translate(-599.721 -1185.716)" fill="#fff"/>
            <path id="Trazado_165899" data-name="Trazado 165899" d="M630.386,1367.763a2.028,2.028,0,1,1-2.2-1.363A1.848,1.848,0,0,1,630.386,1367.763Z" transform="translate(-602.481 -1188.999)" fill="#fff"/>
            <path id="Trazado_165900" data-name="Trazado 165900" d="M630.949,1361.687a2.029,2.029,0,1,1-2.2-1.363A1.848,1.848,0,0,1,630.949,1361.687Z" transform="translate(-602.771 -1185.874)" fill="#fff"/>
            <path id="Trazado_165901" data-name="Trazado 165901" d="M697.866,1239.307l2.1,20.632s71.576-2.1,76.161-4.015,24.453-61.513,24.453-61.513,5.279-35.731-5.575-38.688-18.114,8.123-22.7,24.552-13.755,48.523-13.755,48.523Z" transform="translate(-639.227 -1080.406)" fill="url(#linear-gradient)"/>
          </g>
          <g id="Grupo_128893" data-name="Grupo 128893" transform="translate(63.797 135.656)">
            <path id="Trazado_165902" data-name="Trazado 165902" d="M973.914,1103.014c3.929-12.542,1.464-35.992-4.643-47.231-12.047-22.172-46.953-41.618-66.113-23.761-19.487,4.285-34.755,24.11-35.322,43.986-21.148,11.651-34.353,38.487-15.042,59.714-5.964,18.429,8.739,44.769,22.775,57.645,3.369,3.091-2.093,24.573,18.425,34.2C908.494,1234.37,1024.274,1228.152,973.914,1103.014Z" transform="translate(-813.823 -1025.033)" fill="#12263f"/>
            <g id="Grupo_128892" data-name="Grupo 128892" transform="translate(0 13.171)">
              <path id="Trazado_165903" data-name="Trazado 165903" d="M963.16,1054.427a23.742,23.742,0,0,1,13.039,9.725c5.026,7.781,8.9,32.108-7.228,42.52s-29.16-6.306-29.542-20.947S941.872,1051.586,963.16,1054.427Z" transform="translate(-858.305 -1051.697)" fill="#ffc3b5"/>
              <path id="Trazado_165904" data-name="Trazado 165904" d="M932.893,1101.4c.332,3.461,2.235,6.11,4.251,5.917s3.382-3.155,3.051-6.617-2.235-6.11-4.251-5.916S932.562,1097.936,932.893,1101.4Z" transform="translate(-855.268 -1070.521)" fill="#ffc3b5"/>
              <path id="Trazado_165905" data-name="Trazado 165905" d="M972.217,1049.579s12.519,27.467,20.9,29.378,8.259,12.678,8.259,12.678-2.135-29.129-9.989-34.832S972.217,1049.579,972.217,1049.579Z" transform="translate(-873.514 -1049.579)" fill="#12263f"/>
              <path id="Trazado_165906" data-name="Trazado 165906" d="M1004.125,1109.344c-1.1,3.474-.094,6.9,2.255,7.641s5.147-1.466,6.25-4.941.093-6.9-2.255-7.642S1005.228,1105.869,1004.125,1109.344Z" transform="translate(-888.093 -1074.917)" fill="#ffc3b5"/>
              <g id="Grupo_128888" data-name="Grupo 128888" transform="translate(0 19.526)">
                <path id="Trazado_165907" data-name="Trazado 165907" d="M788.9,1140.9c-4.509-7.748,16.138-21.881,31.333-34.018a81.557,81.557,0,0,1,10.77-8.029c4.208-3.653,11.83-9.921,19.15-12.74,1.194-.46,11.772.33,12.747.346s7.171,1.9,5.67,4.213c-.355.547-4.532-.068-7.279-.5,3.1.665,8.728,2.543,9.192,3.536,1.082,2.319-9.379,1.052-12.414.351-2.427-.56-6.423,3.849-7.927,5.639l-.011.013a1.532,1.532,0,0,0,.828,2.46,3.7,3.7,0,0,0,2.257-.047c.316-.13,1.632-2.583,2.755-3.192,1.784-.966,3.348.115,1.657,2.8a53.045,53.045,0,0,1-3.314,4.65c-1.99,2.523-11.076,3.733-13.249,3.369-1.09.018-4.139.892-4.741.891,0,0-13.078,11.261-22.409,23.705,12.737,3.531,34.108,10.616,34.108,10.616s1.4,27.032.055,26.216S794.16,1149.927,788.9,1140.9Z" transform="translate(-788.274 -1085.967)" fill="#ffc3b5"/>
              </g>
              <g id="Grupo_128889" data-name="Grupo 128889" transform="translate(130.68 18.922)">
                <path id="Trazado_165908" data-name="Trazado 165908" d="M1045.486,1084.842c.016,0-6.545.421-6.529.416-3.039.885-6.688,2.688-7.08,3.712-.914,2.391,7.73-.4,10.707-1.32,1.97-.606,8.772,1.878,11.4,3.434Z" transform="translate(-1031.809 -1084.842)" fill="#f48c7f"/>
                <path id="Trazado_165909" data-name="Trazado 165909" d="M1073.132,1096.475l1.272.934A6.294,6.294,0,0,0,1073.132,1096.475Z" transform="translate(-1050.958 -1090.233)" fill="#f79c8d"/>
              </g>
              <path id="Trazado_165910" data-name="Trazado 165910" d="M1008.374,1488.794c.029-46.292-18.128-59.738-20.858-57.887l-67.656,7.036-13.963,50.85Z" transform="translate(-842.781 -1226.211)" fill="#1d272b"/>
              <path id="Trazado_165911" data-name="Trazado 165911" d="M844.332,1202.531l6.543-25.406,55.687,6.87s15.638-1,24.061-.735c5.97.189,40-4.857,62.624-10.456.129.3,4.087,20.76,8.056,28.338-16.985,8.5-25.526,9.39-37.229,19.448-.006.043-1.2,50.167-2.389,79.687,2.543,7.337,8.939,22.2,8.939,22.2s-20.839,11.907-52.5,9.2a169.37,169.37,0,0,1-32.746-5.953s5.842-21.136,7.4-33.472c-6.8-30.257-17.055-73.326-17.055-73.326Z" transform="translate(-814.252 -1106.682)" fill="url(#linear-gradient-8)"/>
              <path id="Trazado_165912" data-name="Trazado 165912" d="M978.717,1142.44s1.789,20.626,4.09,26.342,1.954,26.274-10.485,29.984-12.215-22.671-12.73-28.781-1.082-26.1-1.082-26.1Z" transform="translate(-867.162 -1092.611)" fill="#ffc3b5"/>
              <path id="Trazado_165913" data-name="Trazado 165913" d="M979.342,1148.7a22.569,22.569,0,0,1-4.474,3.725c-6.025,3.836-11.549,3.782-16.037,1.488-.192-5.446-.322-10.028-.322-10.028l20.207-1.443S978.945,1145.063,979.342,1148.7Z" transform="translate(-867.162 -1092.611)" fill="#fc8899"/>
              <path id="Trazado_165914" data-name="Trazado 165914" d="M939.181,1102.789l-3.889,19.723s7.871,10.186,15.835,11.112,6.3.555,10.556-.186,13.643-7.223,13.643-7.223-1.111-16.483-.185-19.446C975.14,1106.771,954.923,1111.308,939.181,1102.789Z" transform="translate(-856.403 -1074.237)" fill="#fcfcfc"/>
              <g id="Grupo_128890" data-name="Grupo 128890" transform="translate(114.221 23.963)">
                <path id="Trazado_165915" data-name="Trazado 165915" d="M1002.129,1124.639l-.792-1.252c.043-.028,4.375-2.772,8.861-5.9,7.783-5.432,9.573-7.5,9.947-8.247,1.456-2.912,1.026-10.991-.7-13.1-.419-.511-.713-.432-.854-.394-2.682.725-11.068,7.36-14.073,9.856l-.013.011c-.375.3-2.261,1.788-2.549,1.98l-.822-1.233c.175-.117,1.532-1.182,2.444-1.9.54-.449,11.1-9.188,14.626-10.14a2.24,2.24,0,0,1,2.387.886c2.254,2.755,2.483,11.485.876,14.7-.289.579-1.17,2.341-10.428,8.8C1006.529,1121.851,1002.173,1124.611,1002.129,1124.639Z" transform="translate(-1001.137 -1094.237)" fill="#fcfcfc"/>
              </g>
              <g id="Grupo_128891" data-name="Grupo 128891" transform="translate(66.89 22.659)">
                <path id="Trazado_165916" data-name="Trazado 165916" d="M928.393,1119.2c-.035-.018-3.517-1.775-7.09-3.953a50.8,50.8,0,0,1-5.15-3.513c-1.746-1.4-2.742-2.552-3.044-3.534-.654-2.125.651-5.994,1.243-7.559a22.653,22.653,0,0,1,4.327-7.5c1.113-1.115,2.168-1.531,3.133-1.235,3.506,1.071,9.721,8.53,9.984,8.847l-1.141.946c-1.712-2.065-6.717-7.594-9.276-8.376-.384-.117-.986.2-1.652.866a21.513,21.513,0,0,0-3.99,6.98c-1.086,2.874-1.561,5.464-1.212,6.6.741,2.41,9.308,7.482,14.533,10.112Z" transform="translate(-912.931 -1091.806)" fill="#fcfcfc"/>
              </g>
              <ellipse id="Elipse_4453" data-name="Elipse 4453" cx="16.886" cy="21.107" rx="16.886" ry="21.107" transform="translate(61.051 98.508)" fill="url(#linear-gradient-8)"/>
              <ellipse id="Elipse_4454" data-name="Elipse 4454" cx="16.886" cy="21.107" rx="16.886" ry="21.107" transform="translate(118.04 97.242)" fill="url(#linear-gradient-8)"/>
              <path id="Trazado_165917" data-name="Trazado 165917" d="M1040.313,1089.553c-4.306.277-6.19-1.05-7.717-.217s3.612,3.52,5.556,4.353,11.805,3.008,13.889,2.036,7.639,2.5,12.778,7.5,23.344,22.879,23.344,22.879l-11.815,6.149,6.944,20.7s31.265-14.065,34.043-20.733c.759-1.822-9.031-14.448-21.115-23.893s-34.039-20.376-35.845-22.32-12.223-7.223-13.056-7.778-10.586.217-10.586.217-9.682,5-9.137,6.544c.833,2.361,9.2-2.284,9.569-2.284.206,0,2.76,1.03,5.926,2.346,2.4.995,1.729,2.963.618,3.58A8.345,8.345,0,0,1,1040.313,1089.553Z" transform="translate(-899.166 -1062.76)" fill="#ffc3b5"/>
              <path id="Trazado_165918" data-name="Trazado 165918" d="M1106.961,1172.8c-5.291,1.309-11.206,2.588-17.238,3.777l9.865,31.484c4.348-2.161,9.448-3.93,15.429-6.924C1111.048,1193.564,1107.091,1173.1,1106.961,1172.8Z" transform="translate(-927.967 -1106.682)" fill="url(#linear-gradient-8)"/>
              <path id="Trazado_165919" data-name="Trazado 165919" d="M912.063,1109.826c-1.123.608-2.439,3.062-2.755,3.192l1.1,4.26a53.032,53.032,0,0,0,3.314-4.65C915.411,1109.941,913.847,1108.86,912.063,1109.826Z" transform="translate(-844.362 -1077.337)" fill="#f7a491"/>
            </g>
          </g>
        </g>
      </g>
      <g id="Grupo_128899" data-name="Grupo 128899" transform="translate(0 91.143)">
        <g id="Grupo_128898" data-name="Grupo 128898" transform="translate(2.678)">
          <path id="Trazado_165942" data-name="Trazado 165942" d="M617.472,1215.46H608.31l-.839-8.381h10.839Z" transform="translate(-560.678 -1198.209)" fill="#1d272b"/>
          <path id="Trazado_165943" data-name="Trazado 165943" d="M563.093,1188.814H539.6a28.479,28.479,0,0,0-28.479,28.479l.028,56.938h9.442l.073-56.938a18.936,18.936,0,0,1,18.936-18.936h29.971v-3.064A6.479,6.479,0,0,0,563.093,1188.814Z" transform="translate(-511.122 -1188.814)" fill="#d1d1d1"/>
        </g>
        <path id="Trazado_165944" data-name="Trazado 165944" d="M532.593,1318.037l-12.556,10.219a9.94,9.94,0,1,0,5.418,8.107l13.265-10.8a4.854,4.854,0,0,0-6.128-7.529Z" transform="translate(-505.608 -1254.718)" fill="#1d272b"/>
        <path id="Trazado_165945" data-name="Trazado 165945" d="M625.517,1291.787a2.477,2.477,0,1,1-4.955,0c0-1.368,2.477-15.969,2.477-15.969S625.517,1290.419,625.517,1291.787Z" transform="translate(-564.734 -1233.564)" fill="#fcfcfc"/>
        <path id="Trazado_165946" data-name="Trazado 165946" d="M617.924,1245.727a2.477,2.477,0,0,1-4.955,0c0-1.368,2.477-18.4,2.477-18.4S617.924,1244.359,617.924,1245.727Z" transform="translate(-560.828 -1208.623)" fill="#fcfcfc"/>
        <path id="Trazado_165947" data-name="Trazado 165947" d="M608.26,1273.042a2.477,2.477,0,1,1-4.955,0c0-1.368,2.477-16.723,2.477-16.723S608.26,1271.674,608.26,1273.042Z" transform="translate(-555.857 -1223.535)" fill="#fcfcfc"/>
      </g>
    </g>
    <path id="Trazado_166446" data-name="Trazado 166446" d="M13.016-4.1H5.824L4.457,0H.1l7.41-19.906h3.8L18.758,0H14.4ZM6.932-7.424h4.977l-2.5-7.451ZM20.617,0V-19.906h6.125a9.3,9.3,0,0,1,4.7,1.183,8.247,8.247,0,0,1,3.233,3.363A10.374,10.374,0,0,1,35.834-10.4v.916a10.4,10.4,0,0,1-1.142,4.936,8.176,8.176,0,0,1-3.22,3.35A9.372,9.372,0,0,1,26.783,0Zm4.1-16.584V-3.295H26.7a4.454,4.454,0,0,0,3.678-1.572,7.1,7.1,0,0,0,1.3-4.5v-1.053a7.218,7.218,0,0,0-1.258-4.6,4.439,4.439,0,0,0-3.678-1.565ZM50.791-8.627H42.916v5.332h9.242V0H38.814V-19.906H52.131v3.322H42.916v4.744h7.875Zm19.4,2a7.044,7.044,0,0,1-2.372,5.059A8.331,8.331,0,0,1,62.18.273,7.491,7.491,0,0,1,56.157-2.3a10.567,10.567,0,0,1-2.194-7.075V-10.6a11.933,11.933,0,0,1,1.012-5.059,7.582,7.582,0,0,1,2.892-3.356,8.1,8.1,0,0,1,4.368-1.169,8.115,8.115,0,0,1,5.551,1.846,7.57,7.57,0,0,1,2.434,5.182h-4.1a4.157,4.157,0,0,0-1.073-2.8,3.974,3.974,0,0,0-2.81-.868,3.485,3.485,0,0,0-3.069,1.47,8.237,8.237,0,0,0-1.046,4.56v1.5A8.816,8.816,0,0,0,59.1-4.566a3.42,3.42,0,0,0,3.083,1.49,4.049,4.049,0,0,0,2.837-.868A3.921,3.921,0,0,0,66.09-6.631Zm17.76-13.275V-6.795a6.713,6.713,0,0,1-2.044,5.168,7.88,7.88,0,0,1-5.585,1.9,7.969,7.969,0,0,1-5.537-1.846,6.6,6.6,0,0,1-2.092-5.072V-19.906h4.1V-6.768a3.793,3.793,0,0,0,.937,2.851,3.6,3.6,0,0,0,2.591.9q3.459,0,3.514-3.637V-19.906Zm14.3,15.8H95.061L93.693,0H89.332l7.41-19.906h3.8L107.994,0h-4.361ZM96.168-7.424h4.977l-2.5-7.451Zm29.313.793a7.044,7.044,0,0,1-2.372,5.059,8.331,8.331,0,0,1-5.64,1.846A7.491,7.491,0,0,1,111.446-2.3a10.567,10.567,0,0,1-2.194-7.075V-10.6a11.933,11.933,0,0,1,1.012-5.059,7.582,7.582,0,0,1,2.892-3.356,8.1,8.1,0,0,1,4.368-1.169,8.115,8.115,0,0,1,5.551,1.846,7.57,7.57,0,0,1,2.434,5.182h-4.1a4.157,4.157,0,0,0-1.073-2.8,3.974,3.974,0,0,0-2.81-.868,3.485,3.485,0,0,0-3.069,1.47,8.237,8.237,0,0,0-1.046,4.56v1.5a8.816,8.816,0,0,0,.978,4.717,3.42,3.42,0,0,0,3.083,1.49,4.049,4.049,0,0,0,2.837-.868,3.921,3.921,0,0,0,1.073-2.687ZM132.535,0h-4.1V-19.906h4.1Zm20.152-9.5a12.017,12.017,0,0,1-1.039,5.154A7.825,7.825,0,0,1,148.675-.93a8.226,8.226,0,0,1-4.437,1.2,8.282,8.282,0,0,1-4.416-1.189,7.9,7.9,0,0,1-3.008-3.4,11.673,11.673,0,0,1-1.08-5.079v-.984a11.954,11.954,0,0,1,1.06-5.175,7.889,7.889,0,0,1,2.994-3.432,8.236,8.236,0,0,1,4.423-1.2,8.236,8.236,0,0,1,4.423,1.2,7.889,7.889,0,0,1,2.994,3.432,11.92,11.92,0,0,1,1.06,5.161Zm-4.156-.9a8.377,8.377,0,0,0-1.121-4.758,3.653,3.653,0,0,0-3.2-1.627,3.655,3.655,0,0,0-3.186,1.606,8.281,8.281,0,0,0-1.135,4.71V-9.5a8.482,8.482,0,0,0,1.121,4.73,3.644,3.644,0,0,0,3.227,1.682,3.611,3.611,0,0,0,3.172-1.62,8.432,8.432,0,0,0,1.121-4.724ZM145-25.238h4.307L145.523-21h-3.213ZM171.855,0h-4.1L159.77-13.1V0h-4.1V-19.906h4.1l8,13.125V-19.906h4.088ZM182.41,0V-19.906h6.125a9.3,9.3,0,0,1,4.7,1.183,8.247,8.247,0,0,1,3.233,3.363,10.374,10.374,0,0,1,1.162,4.956v.916a10.4,10.4,0,0,1-1.142,4.936,8.176,8.176,0,0,1-3.22,3.35A9.372,9.372,0,0,1,188.576,0Zm4.1-16.584V-3.295h1.982a4.454,4.454,0,0,0,3.678-1.572,7.1,7.1,0,0,0,1.3-4.5v-1.053a7.218,7.218,0,0,0-1.258-4.6,4.439,4.439,0,0,0-3.678-1.565Zm26.072,7.957h-7.875v5.332h9.242V0H200.607V-19.906h13.316v3.322h-9.215v4.744h7.875Z" transform="translate(404.707 1484.759)" fill="#008f85"/>
    <path id="Trazado_166447" data-name="Trazado 166447" d="M3.779-2.118h5.6V0H1.143V-12.8H3.779Zm14.5-.519H13.658L12.779,0h-2.8l4.764-12.8h2.443L21.973,0h-2.8ZM14.37-4.772h3.2l-1.608-4.79Zm15.917.264V0H27.65V-12.8h4.992a5.776,5.776,0,0,1,2.536.527,3.886,3.886,0,0,1,1.683,1.5,4.178,4.178,0,0,1,.589,2.21,3.674,3.674,0,0,1-1.288,2.966A5.363,5.363,0,0,1,32.6-4.509Zm0-2.136h2.355a2.316,2.316,0,0,0,1.6-.492,1.79,1.79,0,0,0,.549-1.406,2.111,2.111,0,0,0-.554-1.521,2.068,2.068,0,0,0-1.529-.6H30.287Zm19.485.536A7.725,7.725,0,0,1,49.1-2.795,5.03,5.03,0,0,1,47.193-.6a5.288,5.288,0,0,1-2.852.773A5.324,5.324,0,0,1,41.5-.589a5.08,5.08,0,0,1-1.934-2.184,7.5,7.5,0,0,1-.694-3.265v-.633A7.685,7.685,0,0,1,39.555-10,5.072,5.072,0,0,1,41.48-12.2a5.3,5.3,0,0,1,2.843-.769,5.3,5.3,0,0,1,2.843.769A5.072,5.072,0,0,1,49.091-10a7.663,7.663,0,0,1,.681,3.318ZM47.1-6.688a5.385,5.385,0,0,0-.721-3.059,2.349,2.349,0,0,0-2.057-1.046A2.349,2.349,0,0,0,42.275-9.76a5.324,5.324,0,0,0-.729,3.028v.624a5.453,5.453,0,0,0,.721,3.041,2.342,2.342,0,0,0,2.074,1.081A2.321,2.321,0,0,0,46.38-3.028,5.421,5.421,0,0,0,47.1-6.064ZM58.324-3.357A1.353,1.353,0,0,0,57.8-4.5a6.917,6.917,0,0,0-1.9-.844,13.458,13.458,0,0,1-2.171-.875A3.547,3.547,0,0,1,51.548-9.4a3.09,3.09,0,0,1,.584-1.85,3.812,3.812,0,0,1,1.679-1.27,6.318,6.318,0,0,1,2.457-.457,5.751,5.751,0,0,1,2.443.5,3.891,3.891,0,0,1,1.666,1.4,3.668,3.668,0,0,1,.593,2.057H58.333a1.726,1.726,0,0,0-.554-1.367,2.276,2.276,0,0,0-1.556-.488,2.432,2.432,0,0,0-1.5.409,1.289,1.289,0,0,0-.536,1.077,1.235,1.235,0,0,0,.628,1.046,7.1,7.1,0,0,0,1.85.791,7.994,7.994,0,0,1,3.278,1.679,3.343,3.343,0,0,1,1.028,2.5A3.08,3.08,0,0,1,59.713-.769a5.5,5.5,0,0,1-3.384.945A6.534,6.534,0,0,1,53.64-.365a4.256,4.256,0,0,1-1.85-1.481,3.793,3.793,0,0,1-.637-2.18H53.8q0,2.118,2.531,2.118A2.462,2.462,0,0,0,57.8-2.29,1.244,1.244,0,0,0,58.324-3.357ZM65.558,0H62.921V-12.8h2.637ZM78.047-4.263a4.528,4.528,0,0,1-1.525,3.252A5.355,5.355,0,0,1,72.9.176a4.816,4.816,0,0,1-3.872-1.657,6.793,6.793,0,0,1-1.411-4.548v-.782a7.671,7.671,0,0,1,.65-3.252,4.874,4.874,0,0,1,1.859-2.158,5.207,5.207,0,0,1,2.808-.751A5.217,5.217,0,0,1,76.5-11.786a4.866,4.866,0,0,1,1.564,3.331H75.428a2.673,2.673,0,0,0-.69-1.8,2.555,2.555,0,0,0-1.806-.558,2.24,2.24,0,0,0-1.973.945,5.3,5.3,0,0,0-.672,2.931v.967a5.667,5.667,0,0,0,.628,3.032,2.2,2.2,0,0,0,1.982.958,2.6,2.6,0,0,0,1.824-.558,2.521,2.521,0,0,0,.69-1.727ZM82.582,0H79.945V-12.8h2.637ZM95.537-6.108a7.725,7.725,0,0,1-.668,3.313A5.03,5.03,0,0,1,92.958-.6a5.288,5.288,0,0,1-2.852.773,5.324,5.324,0,0,1-2.839-.765,5.08,5.08,0,0,1-1.934-2.184,7.5,7.5,0,0,1-.694-3.265v-.633A7.685,7.685,0,0,1,85.32-10,5.072,5.072,0,0,1,87.245-12.2a5.3,5.3,0,0,1,2.843-.769,5.3,5.3,0,0,1,2.843.769A5.072,5.072,0,0,1,94.856-10a7.663,7.663,0,0,1,.681,3.318Zm-2.672-.58a5.385,5.385,0,0,0-.721-3.059,2.349,2.349,0,0,0-2.057-1.046A2.349,2.349,0,0,0,88.04-9.76a5.324,5.324,0,0,0-.729,3.028v.624a5.453,5.453,0,0,0,.721,3.041,2.342,2.342,0,0,0,2.074,1.081,2.321,2.321,0,0,0,2.039-1.042,5.421,5.421,0,0,0,.721-3.037ZM90.6-16.225h2.769L90.932-13.5H88.866ZM107.859,0h-2.637L100.09-8.42V0H97.453V-12.8h2.637l5.142,8.438V-12.8h2.628Zm6.785,0V-12.8h3.938a5.98,5.98,0,0,1,3.019.76,5.3,5.3,0,0,1,2.079,2.162,6.669,6.669,0,0,1,.747,3.186V-6.1a6.688,6.688,0,0,1-.734,3.173,5.256,5.256,0,0,1-2.07,2.153A6.025,6.025,0,0,1,118.608,0Zm2.637-10.661v8.543h1.274a2.863,2.863,0,0,0,2.364-1.011,4.567,4.567,0,0,0,.835-2.892V-6.7a4.64,4.64,0,0,0-.809-2.958,2.854,2.854,0,0,0-2.364-1.006Zm16.761,5.115h-5.062v3.428h5.941V0h-8.578V-12.8H134.9v2.136h-5.924v3.05h5.063ZM139.1-2.118h5.6V0h-8.235V-12.8H139.1Zm21.639-2.145a4.528,4.528,0,0,1-1.525,3.252A5.355,5.355,0,0,1,155.593.176a4.816,4.816,0,0,1-3.872-1.657,6.793,6.793,0,0,1-1.411-4.548v-.782a7.671,7.671,0,0,1,.65-3.252,4.874,4.874,0,0,1,1.859-2.158,5.207,5.207,0,0,1,2.808-.751,5.217,5.217,0,0,1,3.568,1.187,4.866,4.866,0,0,1,1.564,3.331h-2.637a2.673,2.673,0,0,0-.69-1.8,2.555,2.555,0,0,0-1.806-.558,2.24,2.24,0,0,0-1.973.945,5.3,5.3,0,0,0-.672,2.931v.967a5.667,5.667,0,0,0,.628,3.032,2.2,2.2,0,0,0,1.982.958,2.6,2.6,0,0,0,1.824-.558,2.521,2.521,0,0,0,.69-1.727ZM169.7-2.637h-4.623L164.2,0h-2.8l4.764-12.8H168.6L173.391,0h-2.8Zm-3.911-2.136h3.2l-1.608-4.79ZM174.586,0V-12.8h3.938a5.98,5.98,0,0,1,3.019.76,5.3,5.3,0,0,1,2.079,2.162,6.669,6.669,0,0,1,.747,3.186V-6.1a6.688,6.688,0,0,1-.734,3.173,5.256,5.256,0,0,1-2.07,2.153A6.025,6.025,0,0,1,178.55,0Zm2.637-10.661v8.543H178.5a2.863,2.863,0,0,0,2.364-1.011,4.567,4.567,0,0,0,.835-2.892V-6.7a4.64,4.64,0,0,0-.809-2.958,2.854,2.854,0,0,0-2.364-1.006Zm16.286,8.024h-4.623L188.007,0h-2.8l4.764-12.8h2.443L197.2,0h-2.8ZM189.6-4.772h3.2l-1.608-4.79Zm12.85,1.6,2.9-9.624h2.936L203.827,0h-2.751l-4.438-12.8h2.927Zm14.739-2.373h-5.062v3.428h5.941V0h-8.578V-12.8h8.561v2.136h-5.924v3.05h5.063Zm7.163.861h-2.1V0h-2.637V-12.8h4.755a5.375,5.375,0,0,1,3.5,1.011A3.488,3.488,0,0,1,229.1-8.93a3.937,3.937,0,0,1-.567,2.184,3.866,3.866,0,0,1-1.718,1.393l2.769,5.229V0h-2.83Zm-2.1-2.136h2.127a2.178,2.178,0,0,0,1.538-.505,1.806,1.806,0,0,0,.545-1.393,1.933,1.933,0,0,0-.514-1.424,2.137,2.137,0,0,0-1.578-.519h-2.118Z" transform="translate(405.285 1503.016)" fill="#1d272b"/>
    <rect id="Rectángulo_34968" data-name="Rectángulo 34968" width="4.661" height="55.93" transform="translate(395.963 1455.255)" fill="#d93328"/>
    <g id="Grupo_129291" data-name="Grupo 129291" transform="translate(267.009 1771.784)">
      <g id="Grupo_128221" data-name="Grupo 128221" transform="translate(43.432 3.936)">
        <path id="Trazado_165244" data-name="Trazado 165244" d="M1011.176,1154.054s-16.339-.1-20.234-3.086c-3.054-2.34-2.276-4.552-7.284-13.39a11.438,11.438,0,0,1-.455-4.921c.386-2.55-4.35-2.984-3.946,3.288a13.324,13.324,0,0,0-2.377,9.459c.963,5.868,3.2,6.7,3.59,10.572.272,2.734,0,7.537,5.245,8.077,4.86.5,8.5-.724,16.9-.344s10.344-.448,10.344-.448Z" transform="translate(-974.866 -1130.903)" fill="#edbe8c"/>
        <path id="Trazado_165245" data-name="Trazado 165245" d="M973.133,1172.262s-1.39-2.4-2.684-2.525-1.3,1.763-.849,2.267,1.588,1.762,1.923,2.223S973.8,1173.239,973.133,1172.262Z" transform="translate(-969.33 -1159.937)" fill="#edbe8c"/>
        <path id="Trazado_165246" data-name="Trazado 165246" d="M981.878,1142.634a9.562,9.562,0,0,1-.634-2.893,1.155,1.155,0,0,0-2.224-.534c-.8,1.484.193,4.3,1.1,4.581S982.3,1143.994,981.878,1142.634Z" transform="translate(-976.357 -1136.549)" fill="#edbe8c"/>
        <path id="Trazado_165247" data-name="Trazado 165247" d="M977.168,1149.345a9.56,9.56,0,0,1-1.247-2.686,1.155,1.155,0,0,0-2.287-.039c-.455,1.621,1.121,4.153,2.068,4.233S977.874,1150.581,977.168,1149.345Z" transform="translate(-972.488 -1141.919)" fill="#edbe8c"/>
        <path id="Trazado_165248" data-name="Trazado 165248" d="M974.688,1159.708a9.567,9.567,0,0,1-1.3-2.659,1.155,1.155,0,0,0-2.287.01c-.42,1.63,1.211,4.128,2.159,4.188S975.421,1160.928,974.688,1159.708Z" transform="translate(-970.6 -1149.708)" fill="#edbe8c"/>
      </g>
      <g id="Grupo_128223" data-name="Grupo 128223" transform="translate(42.231 36.742)">
        <g id="Grupo_128222" data-name="Grupo 128222">
          <path id="Trazado_165249" data-name="Trazado 165249" d="M1186.177,1373.755a4.836,4.836,0,0,1-2.082-.472L967.339,1270.194a4.856,4.856,0,0,1,4.172-8.771l216.755,103.089a4.857,4.857,0,0,1-2.089,9.242Z" transform="translate(-964.568 -1260.952)" fill="#1d272b"/>
        </g>
      </g>
      <g id="Grupo_128225" data-name="Grupo 128225" transform="translate(66.511 36.742)">
        <g id="Grupo_128224" data-name="Grupo 128224">
          <path id="Trazado_165250" data-name="Trazado 165250" d="M1065.679,1373.755a4.857,4.857,0,0,1-2.089-9.243l216.755-103.089a4.856,4.856,0,0,1,4.172,8.771l-216.755,103.089A4.839,4.839,0,0,1,1065.679,1373.755Z" transform="translate(-1060.819 -1260.951)" fill="#1d272b"/>
        </g>
      </g>
      <g id="Grupo_128226" data-name="Grupo 128226" transform="translate(184.115 81.44)" opacity="0.5" style="mix-blend-mode: multiply;isolation: isolate">
        <path id="Trazado_165251" data-name="Trazado 165251" d="M1535.9,1438.146l-8.871,4.247,2.677,9.481,11.725-5.77Z" transform="translate(-1527.027 -1438.146)" fill="#3e2b9e"/>
      </g>
      <g id="Grupo_128228" data-name="Grupo 128228" transform="translate(186.711 13.306)">
        <g id="Grupo_128227" data-name="Grupo 128227">
          <ellipse id="Elipse_4387" data-name="Elipse 4387" cx="18.051" cy="12.695" rx="18.051" ry="12.695" fill="#3e2b9e"/>
        </g>
      </g>
      <g id="Grupo_128230" data-name="Grupo 128230" transform="translate(14.568 49.591)">
        <g id="Grupo_128229" data-name="Grupo 128229">
          <path id="Trazado_165252" data-name="Trazado 165252" d="M1184.307,1321.6H859.764a4.856,4.856,0,1,1,0-9.712h324.543a4.856,4.856,0,1,1,0,9.712Z" transform="translate(-854.908 -1311.888)" fill="#1d272b"/>
        </g>
      </g>
      <g id="Grupo_128231" data-name="Grupo 128231" transform="translate(130.38 83.329)" opacity="0.5" style="mix-blend-mode: multiply;isolation: isolate">
        <path id="Trazado_165253" data-name="Trazado 165253" d="M1314.009,1448.893l11.506,5.473,15.009-3.617-10.445-5.117Z" transform="translate(-1314.009 -1445.632)" fill="#3e2b9e"/>
      </g>
      <g id="Grupo_128233" data-name="Grupo 128233" transform="translate(0 36.237)">
        <g id="Grupo_128232" data-name="Grupo 128232">
          <rect id="Rectángulo_35475" data-name="Rectángulo 35475" width="359.345" height="13.759" rx="6.879" fill="#1d272b"/>
        </g>
      </g>
      <path id="Trazado_165254" data-name="Trazado 165254" d="M1017.337,1281.624l-12.41.028s-.27-15.25-3.238-17.385-8.951-2.618-12.974-5.681c0,0,28.014-.337,28.553.107S1020.709,1278.387,1017.337,1281.624Z" transform="translate(-940.393 -1222.349)" fill="#3e2b9e" opacity="0.5" style="mix-blend-mode: multiply;isolation: isolate"/>
      <g id="Grupo_128234" data-name="Grupo 128234" transform="translate(333.596 36.387)" opacity="0.5" style="mix-blend-mode: multiply;isolation: isolate">
        <path id="Trazado_165255" data-name="Trazado 165255" d="M2123.05,1259.547h2.428s-2.293,9.545-2.428,13.2l8.667.329s2.429.975,2.769,2.751c0,0-9.5.14-11.436,6.632l-3.1-.254S2118.06,1259.7,2123.05,1259.547Z" transform="translate(-2119.598 -1259.547)" fill="#3e2b9e"/>
      </g>
      <g id="Grupo_128236" data-name="Grupo 128236" transform="translate(71.267)">
        <g id="Grupo_128235" data-name="Grupo 128235">
          <path id="Trazado_165256" data-name="Trazado 165256" d="M1081.3,1175.721a181.183,181.183,0,0,0-.539-26.556c-.964-8.777-2.929-10.266,3.1-10.539,34.259-1.551,50.988-9.6,64.275-12.019,11.13-2.03,40.125-9.014,58.451-7.462,19.042,1.612,46.256-3.845,62.381-3.845,18.345,0,22.513,11.876,31.191,9.891,2.971-.68-.215-5.45,6.824-5.45,4.823,0,6.974-3.441,8.915-1.932a24.052,24.052,0,0,0,10.564,4.657c5.606,1.164,11.824,10.755,10.354,19.1-1.278,7.257,9.163,6.134,8.9,9.442-.38,4.831-2.428,7.4-2.039,18.734.23,6.694-32.742,3.9-51.93-1.055s-32.341-3.234-45.061-1.294-34.928-7.977-45.061-9.055-43.983,7.546-56.272,5.605a99.614,99.614,0,0,0-36.675.847C1097.042,1167.383,1077.66,1205.532,1081.3,1175.721Z" transform="translate(-1079.673 -1115.3)" fill="url(#linear-gradient-12)"/>
        </g>
      </g>
      <g id="Grupo_128238" data-name="Grupo 128238" transform="translate(70.983 26.254)">
        <g id="Grupo_128237" data-name="Grupo 128237">
          <path id="Trazado_165257" data-name="Trazado 165257" d="M1306.147,1226.467c-.788-.575-82.98-1.725-102.684-5.749s-81.223,2.3-82.085,2.3-34.844-3.562-37.409-1.712c-5.933,4.282-2.563,8.559-3.307,26.973-.263,6.521-4.164,27.131-.662,33.149,5.048,8.672,7.637,1.16,57.945-1.715,35.886-2.051,44.951-13.7,53-10.477s7.762,19.772,32.484,28.684,36.222-17.249,45.708-18.191,24.364,11.994,51.674,17.744,20.361-45.564,22.577-59.578S1306.935,1227.042,1306.147,1226.467Z" transform="translate(-1078.549 -1219.378)" fill="url(#linear-gradient-12)"/>
        </g>
      </g>
      <g id="Grupo_128240" data-name="Grupo 128240" transform="translate(156.895 33.866)" style="mix-blend-mode: screen;isolation: isolate">
        <g id="Grupo_128239" data-name="Grupo 128239" opacity="0.5" style="mix-blend-mode: screen;isolation: isolate">
          <path id="Trazado_165258" data-name="Trazado 165258" d="M1590.348,1252.789H1420.739a1.619,1.619,0,0,1,0-3.237h169.609a1.619,1.619,0,0,1,0,3.237Z" transform="translate(-1419.121 -1249.551)" fill="#3e2b9e"/>
        </g>
      </g>
      <g id="Grupo_128242" data-name="Grupo 128242" transform="translate(85.403 33.866)" style="mix-blend-mode: screen;isolation: isolate">
        <g id="Grupo_128241" data-name="Grupo 128241" opacity="0.5" style="mix-blend-mode: screen;isolation: isolate">
          <path id="Trazado_165259" data-name="Trazado 165259" d="M1195.257,1252.789h-57.926a1.619,1.619,0,0,1,0-3.237h57.926a1.619,1.619,0,0,1,0,3.237Z" transform="translate(-1135.712 -1249.551)" fill="#3e2b9e"/>
        </g>
      </g>
      <g id="Grupo_128243" data-name="Grupo 128243" transform="translate(146.757 98.917)" opacity="0.5" style="mix-blend-mode: multiply;isolation: isolate">
        <path id="Trazado_165260" data-name="Trazado 165260" d="M1388.474,1507.427l11.307,5.377-19,9.037-1.846-9.877Z" transform="translate(-1378.932 -1507.427)" fill="#3e2b9e"/>
      </g>
    </g>
    <g id="Grupo_129293" data-name="Grupo 129293" transform="translate(320.83 1912.021)">
      <rect id="Rectángulo_35479" data-name="Rectángulo 35479" width="37.229" height="14.973" rx="7.486" transform="translate(0 0)" fill="#008f85"/>
    </g>
    <g id="Grupo_129294" data-name="Grupo 129294" transform="translate(515.071 1912.021)">
      <rect id="Rectángulo_35480" data-name="Rectángulo 35480" width="37.229" height="14.973" rx="7.486" transform="translate(0 0)" fill="#008f85"/>
    </g>
    <g id="Grupo_128922" data-name="Grupo 128922" transform="translate(422.844 1809.097)">
      <path id="Trazado_165959" data-name="Trazado 165959" d="M309.911,636.753l-3.344.094a1.488,1.488,0,0,1,.054.357l.132,4.782a1.471,1.471,0,0,1-.014.246l3.319-.149a1.054,1.054,0,0,0,1-1.056l-.09-3.274A1.031,1.031,0,0,0,309.911,636.753Z" transform="translate(-253.46 -630.865)" fill="#1d272b" fill-rule="evenodd"/>
      <g id="Grupo_128916" data-name="Grupo 128916" transform="translate(0 29.805)">
        <path id="Trazado_165960" data-name="Trazado 165960" d="M110.529,737.1a4.125,4.125,0,0,1,1.144-1.5l6.2-.171h0l5.729-.158c5.652,1.608,6.183,8.72,8.4,10.107,2.776,1.74,3.376,4.189,2.463,7.174-.793,2.591-.636,6.843,1.946,8.346,4.468,2.6,3.368,5.8,1.487,9.113-.142.25,2.361,32.443,2.295,37.282-.084,6.23-2.514,14.137-9.274,15.426h-28.5C72.683,813.033,95.093,754.961,110.529,737.1Z" transform="translate(-87.818 -735.269)" fill="#d8dce8" fill-rule="evenodd"/>
        <path id="Trazado_165961" data-name="Trazado 165961" d="M168.386,735.269c5.652,1.608,6.183,8.72,8.4,10.107,2.776,1.74,3.376,4.189,2.463,7.174-.793,2.591-.636,6.843,1.946,8.346,4.468,2.6,3.367,5.8,1.487,9.113-.142.25,2.361,32.443,2.295,37.282-.085,6.23-2.514,14.137-9.274,15.426-36.383-3.869-32.293-64.6-19.885-85.622a2.878,2.878,0,0,1,.734-1.5l6.153-.171h0Z" transform="translate(-132.604 -735.269)" fill="#bdc8d3" fill-rule="evenodd"/>
      </g>
      <g id="Grupo_128917" data-name="Grupo 128917" transform="translate(19.807 11.35)">
        <path id="Trazado_165962" data-name="Trazado 165962" d="M169.4,673.059a15.224,15.224,0,0,1,5.472,8.409l.067,0,10.064-.277a16.254,16.254,0,0,1,5.75-10.405Z" transform="translate(-169.405 -667.983)" fill="#008f85" fill-rule="evenodd"/>
        <path id="Trazado_165963" data-name="Trazado 165963" d="M265.709,659.253l5.728,18.1c1.209,3.819,6.262.89,4.794-1.244a20.794,20.794,0,0,1-3.466-15.965Z" transform="translate(-242.329 -659.253)" fill="#008f85" fill-rule="evenodd"/>
      </g>
      <path id="Trazado_165964" data-name="Trazado 165964" d="M183.9,629.4l-35.769.984a1.818,1.818,0,0,0-1.762,1.862l.223,8.105a1.782,1.782,0,0,0,1.862,1.763l35.7-3.318a1.864,1.864,0,0,0,1.763-1.862l-.159-5.772A1.818,1.818,0,0,0,183.9,629.4Z" transform="translate(-132.151 -625.295)" fill="#04776f" fill-rule="evenodd"/>
      <path id="Trazado_165965" data-name="Trazado 165965" d="M199.646,616.643l-29.175-4.128c-.838-.119-1.5.6-1.474,1.6l.093,3.372Z" transform="translate(-149.288 -612.502)" fill="#04776f" fill-rule="evenodd"/>
      <path id="Trazado_165966" data-name="Trazado 165966" d="M173.367,621.455l22.836-.629-21.42-3.03c-.838-.119-1.5.6-1.474,1.6Z" transform="translate(-152.554 -616.501)" fill="#01655e" fill-rule="evenodd"/>
      <g id="Grupo_128920" data-name="Grupo 128920" transform="translate(22.402 58.728)">
        <rect id="Rectángulo_35693" data-name="Rectángulo 35693" width="22.667" height="33.889" rx="5.78" fill="#008f85"/>
        <g id="Grupo_128919" data-name="Grupo 128919" transform="translate(4.119 9.132)">
          <rect id="Rectángulo_35694" data-name="Rectángulo 35694" width="11.586" height="0.685" transform="translate(1.422 9.415)" fill="#fff"/>
          <rect id="Rectángulo_35695" data-name="Rectángulo 35695" width="11.586" height="0.685" transform="translate(1.422 10.827)" fill="#fff"/>
          <rect id="Rectángulo_35696" data-name="Rectángulo 35696" width="11.586" height="0.685" transform="translate(1.422 12.239)" fill="#fff"/>
          <rect id="Rectángulo_35697" data-name="Rectángulo 35697" width="11.586" height="0.685" transform="translate(1.422 13.651)" fill="#fff"/>
          <rect id="Rectángulo_35698" data-name="Rectángulo 35698" width="11.586" height="0.685" transform="translate(1.422 15.063)" fill="#fff"/>
          <rect id="Rectángulo_35699" data-name="Rectángulo 35699" width="11.586" height="0.685" transform="translate(1.422 16.475)" fill="#fff"/>
          <rect id="Rectángulo_35700" data-name="Rectángulo 35700" width="11.586" height="0.685" transform="translate(1.422 20.327)" fill="#fff"/>
          <g id="Grupo_128918" data-name="Grupo 128918">
            <rect id="Rectángulo_35701" data-name="Rectángulo 35701" width="14.43" height="2.659" transform="translate(0 3.632)" fill="#fff"/>
            <rect id="Rectángulo_35702" data-name="Rectángulo 35702" width="12.558" height="2.659" transform="translate(0.936)" fill="#fff"/>
          </g>
        </g>
        <path id="Trazado_165967" data-name="Trazado 165967" d="M216.34,860.964h1.728v2.205h2.205V864.9h-2.205V867.1H216.34V864.9h-2.205V863.17h2.205Z" transform="translate(-205.87 -859.372)" fill="#f7f7fb" fill-rule="evenodd"/>
      </g>
      <g id="Grupo_128921" data-name="Grupo 128921" transform="translate(22.687 24.547)">
        <path id="Trazado_165968" data-name="Trazado 165968" d="M194.052,713.613l-10.126.283a2.043,2.043,0,0,0-1.876,1.681l-.784,5.173,15.825-.442-1.072-5.122A2.044,2.044,0,0,0,194.052,713.613Z" transform="translate(-181.266 -713.612)" fill="#1d272b" fill-rule="evenodd"/>
      </g>
    </g>
    <g id="Grupo_128915" data-name="Grupo 128915" transform="translate(403.61 1830.854)">
      <path id="Trazado_165951" data-name="Trazado 165951" d="M482.45,896.606H453.38a3.858,3.858,0,0,1-3.847-3.847V832.847H486.3v59.912A3.859,3.859,0,0,1,482.45,896.606Z" transform="translate(-449.533 -801.11)" fill="#bdc8d3" fill-rule="evenodd"/>
      <g id="Grupo_128906" data-name="Grupo 128906" transform="translate(14.644 3.787)">
        <rect id="Rectángulo_35679" data-name="Rectángulo 35679" width="7.477" height="15.204" fill="#aab7c4"/>
        <rect id="Rectángulo_35680" data-name="Rectángulo 35680" width="3.657" height="15.204" transform="translate(1.023)" fill="#d8dce8"/>
      </g>
      <g id="Grupo_128909" data-name="Grupo 128909" transform="translate(6.569 12.627)">
        <g id="Grupo_128908" data-name="Grupo 128908" transform="translate(1.141)">
          <g id="Grupo_128907" data-name="Grupo 128907">
            <path id="Trazado_165952" data-name="Trazado 165952" d="M481.29,762.4v-6.583a1.686,1.686,0,0,1,1.681-1.681h17.982a1.686,1.686,0,0,1,1.681,1.681V762.4Z" transform="translate(-481.29 -754.133)" fill="#1d272b" fill-rule="evenodd"/>
          </g>
          <rect id="Rectángulo_35681" data-name="Rectángulo 35681" width="1.578" height="4.536" rx="0.789" transform="translate(13.933 1.096)" fill="#fff"/>
        </g>
        <rect id="Rectángulo_35682" data-name="Rectángulo 35682" width="23.627" height="1.974" rx="0.987" transform="translate(0 8.264)" fill="#1d272b"/>
      </g>
      <g id="Grupo_128910" data-name="Grupo 128910" transform="translate(0 22.865)">
        <path id="Trazado_165954" data-name="Trazado 165954" d="M478.762,796.3H457.068l-7.536,8.872H486.3Z" transform="translate(-449.533 -796.303)" fill="#d8dce8" fill-rule="evenodd"/>
        <path id="Trazado_165955" data-name="Trazado 165955" d="M501.8,796.3H490.861l-3.8,8.872H505.6Z" transform="translate(-477.949 -796.303)" fill="#f4f5fa" fill-rule="evenodd"/>
      </g>
      <g id="Grupo_128911" data-name="Grupo 128911" transform="translate(5.354 0)">
        <path id="Trazado_165956" data-name="Trazado 165956" d="M504.7,710.576c-12.9-.871-15.869-14.191-33.113-5.556v7.656c16.834-9.871,19.954.023,33.113.661Z" transform="translate(-471.585 -702.12)" fill="#008f85" fill-rule="evenodd"/>
        <path id="Trazado_165957" data-name="Trazado 165957" d="M471.585,711.643v6.047c16.834-9.871,19.954.023,33.113.661V717.2C491.8,716.329,488.83,703.009,471.585,711.643Z" transform="translate(-471.585 -707.136)" fill="#008f85" fill-rule="evenodd"/>
      </g>
      <g id="Grupo_128914" data-name="Grupo 128914" transform="translate(4.008 38.517)">
        <rect id="Rectángulo_35683" data-name="Rectángulo 35683" width="28.749" height="42.982" rx="7.331" fill="#008f85"/>
        <g id="Grupo_128913" data-name="Grupo 128913" transform="translate(5.224 11.582)">
          <rect id="Rectángulo_35684" data-name="Rectángulo 35684" width="14.695" height="0.868" transform="translate(1.803 11.941)" fill="#fff"/>
          <rect id="Rectángulo_35685" data-name="Rectángulo 35685" width="14.695" height="0.868" transform="translate(1.803 13.732)" fill="#fff"/>
          <rect id="Rectángulo_35686" data-name="Rectángulo 35686" width="14.695" height="0.868" transform="translate(1.803 15.523)" fill="#fff"/>
          <rect id="Rectángulo_35687" data-name="Rectángulo 35687" width="14.695" height="0.868" transform="translate(1.803 17.314)" fill="#fff"/>
          <rect id="Rectángulo_35688" data-name="Rectángulo 35688" width="14.695" height="0.868" transform="translate(1.803 19.105)" fill="#fff"/>
          <rect id="Rectángulo_35689" data-name="Rectángulo 35689" width="14.695" height="0.868" transform="translate(1.803 20.896)" fill="#fff"/>
          <rect id="Rectángulo_35690" data-name="Rectángulo 35690" width="14.695" height="0.868" transform="translate(1.803 25.781)" fill="#fff"/>
          <g id="Grupo_128912" data-name="Grupo 128912">
            <rect id="Rectángulo_35691" data-name="Rectángulo 35691" width="18.302" height="3.372" transform="translate(0 4.606)" fill="#fff"/>
            <rect id="Rectángulo_35692" data-name="Rectángulo 35692" width="15.927" height="3.372" transform="translate(1.187)" fill="#fff"/>
          </g>
        </g>
        <path id="Trazado_165958" data-name="Trazado 165958" d="M514.2,869.09h-2.191v2.8h-2.8v2.191h2.8v2.8H514.2v-2.8H517v-2.191h-2.8Z" transform="translate(-498.734 -867.07)" fill="#f7f7fb" fill-rule="evenodd"/>
      </g>
    </g>
    <g id="Grupo_128929" data-name="Grupo 128929" transform="translate(336.904 1859.27)">
      <g id="Grupo_128925" data-name="Grupo 128925" transform="translate(20.323)">
        <g id="Grupo_128923" data-name="Grupo 128923" transform="translate(21.502)">
          <path id="Trazado_165970" data-name="Trazado 165970" d="M1220.738,379.129c-16.546-3.26-28.443-7.646-28.127-11.751-15.2,8.368-3.791,21.324-15.988,37.165l9.386,4.533C1204.647,400.413,1204.76,387.068,1220.738,379.129Z" transform="translate(-1176.623 -367.378)" fill-rule="evenodd" fill="url(#linear-gradient-14)"/>
          <path id="Trazado_165971" data-name="Trazado 165971" d="M1204.545,386.433c-8.231,9.405-7.4,18.9-17.88,33.716l5.159,2.492c12.165-10.466,17.046-21.544,27.147-31.178A68.618,68.618,0,0,1,1204.545,386.433Z" transform="translate(-1184.227 -381.807)" fill-rule="evenodd" fill="url(#linear-gradient-12)"/>
        </g>
        <g id="Grupo_128924" data-name="Grupo 128924" transform="translate(0 17.59)">
          <path id="Trazado_165972" data-name="Trazado 165972" d="M1112.194,439.831c-11.271,2.66-20.984,3.084-24.05,0-1.4,10.714,14.8,16.677,20.854,31.919l8.507.445C1120.489,460.22,1110.039,450.471,1112.194,439.831Z" transform="translate(-1088.057 -439.831)" fill-rule="evenodd" fill="url(#linear-gradient-12)"/>
          <path id="Trazado_165973" data-name="Trazado 165973" d="M1112.8,446.013c3.076,9.351,10.994,16.01,17.143,29.984l4.676.245c-1.841-11.319-8-20.869-10.269-30.955A48.339,48.339,0,0,1,1112.8,446.013Z" transform="translate(-1106.792 -443.962)" fill-rule="evenodd" fill="url(#linear-gradient-12)"/>
        </g>
      </g>
      <g id="Grupo_128928" data-name="Grupo 128928" transform="translate(0 36.289)">
        <rect id="Rectángulo_35703" data-name="Rectángulo 35703" width="69.615" height="30.791" transform="translate(15.578)" fill="#1d272b"/>
        <rect id="Rectángulo_35704" data-name="Rectángulo 35704" width="15.578" height="30.791" fill="url(#linear-gradient)"/>
        <rect id="Rectángulo_35705" data-name="Rectángulo 35705" width="66.692" height="30.791" transform="translate(17.04)" fill="url(#linear-gradient)"/>
        <rect id="Rectángulo_35706" data-name="Rectángulo 35706" width="26.996" height="25.628" rx="6.535" transform="translate(36.888 2.582)" fill="#1d272b"/>
        <g id="Grupo_128927" data-name="Grupo 128927" transform="translate(43.486 4.788)">
          <g id="Grupo_128926" data-name="Grupo 128926" transform="translate(0 10.337)">
            <rect id="Rectángulo_35707" data-name="Rectángulo 35707" width="13.799" height="0.815" transform="translate(0 3.336)" fill="#fff"/>
            <rect id="Rectángulo_35708" data-name="Rectángulo 35708" width="13.799" height="0.815" transform="translate(0 5.018)" fill="#fff"/>
            <rect id="Rectángulo_35709" data-name="Rectángulo 35709" width="13.799" height="0.815" transform="translate(0 6.7)" fill="#fff"/>
            <rect id="Rectángulo_35710" data-name="Rectángulo 35710" width="13.799" height="0.815" transform="translate(0 8.382)" fill="#fff"/>
            <rect id="Rectángulo_35711" data-name="Rectángulo 35711" width="13.799" height="0.815" transform="translate(0 10.064)" fill="#fff"/>
            <rect id="Rectángulo_35712" data-name="Rectángulo 35712" width="10.593" height="2.228" transform="translate(1.603)" fill="#fff"/>
          </g>
          <path id="Trazado_165974" data-name="Trazado 165974" d="M1196.581,536.575h2.534v3.234h3.234v2.533h-3.234v3.234h-2.534v-3.234h-3.234v-2.533h3.234Z" transform="translate(-1190.948 -536.575)" fill="#f7f7fb" fill-rule="evenodd"/>
        </g>
      </g>
    </g>
    <g id="Grupo_128245" data-name="Grupo 128245" transform="translate(250.144 1819.984)">
      <rect id="Rectángulo_35476" data-name="Rectángulo 35476" width="63.562" height="12.565" rx="6.282" fill="url(#linear-gradient)"/>
    </g>
    <g id="Grupo_128246" data-name="Grupo 128246" transform="translate(254.948 1831.44)">
      <path id="Trazado_165261" data-name="Trazado 165261" d="M526.7,1317.548H482.357a4.435,4.435,0,1,1,0-8.869H526.7a4.435,4.435,0,1,1,0,8.869Z" transform="translate(-477.922 -1308.679)" fill="#1d272b"/>
    </g>
    <g id="Grupo_128247" data-name="Grupo 128247" transform="translate(259.752 1832.18)">
      <path id="Trazado_165262" data-name="Trazado 165262" d="M503.213,1406.88a4.435,4.435,0,0,1-4.435-4.435v-86.123a4.435,4.435,0,0,1,8.869,0v86.123A4.435,4.435,0,0,1,503.213,1406.88Z" transform="translate(-498.778 -1311.888)" fill="#1d272b"/>
    </g>
    <g id="Grupo_128248" data-name="Grupo 128248" transform="translate(294.49 1832.18)">
      <path id="Trazado_165263" data-name="Trazado 165263" d="M654.006,1406.88a4.435,4.435,0,0,1-4.434-4.435v-86.123a4.435,4.435,0,0,1,8.869,0v86.123A4.435,4.435,0,0,1,654.006,1406.88Z" transform="translate(-649.572 -1311.888)" fill="#1d272b"/>
    </g>
    <g id="Grupo_128249" data-name="Grupo 128249" transform="translate(259.383 1779.703)">
      <rect id="Rectángulo_35477" data-name="Rectángulo 35477" width="20.695" height="40.774" rx="5" fill="#868695"/>
    </g>
    <g id="Grupo_128250" data-name="Grupo 128250" transform="translate(264.187 1772.313)">
      <rect id="Rectángulo_35478" data-name="Rectángulo 35478" width="11.456" height="12.195" rx="5" fill="#1d272b"/>
    </g>
    <g id="Grupo_128251" data-name="Grupo 128251" transform="translate(284.512 1811.854)">
      <path id="Trazado_165264" data-name="Trazado 165264" d="M635.451,1227.723c0,2.236-2.328,4.065-5.174,4.065H611.431c-2.845,0-5.174-1.829-5.174-4.065s2.328-4.065,5.174-4.065h18.847C633.123,1223.658,635.451,1225.487,635.451,1227.723Z" transform="translate(-606.257 -1223.658)" fill="#008f85"/>
    </g>
    <g id="Grupo_90783" data-name="Grupo 90783" transform="translate(468.668 1857.9)">
      <g id="Grupo_90780" data-name="Grupo 90780" transform="translate(27.121 3.541)">
        <path id="Trazado_149804" data-name="Trazado 149804" d="M219.787,154.112a2.3,2.3,0,0,1-.5-.214c-1.946-1.09-3.7-2.133-3.714-2.143a.149.149,0,0,1,.153-.257c.017.01,1.764,1.051,3.706,2.139.455.255.8.294,1.038.117.569-.432.513-2.114.165-3.553-.444-1.832-3.163-2.7-4.176-2.648A9.283,9.283,0,0,0,214.2,148a.149.149,0,0,1-.1-.282,9.413,9.413,0,0,1,2.342-.468c1.284-.063,4.029,1.008,4.482,2.876.278,1.146.533,3.249-.274,3.861A.943.943,0,0,1,219.787,154.112Z" transform="translate(-214.002 -147.252)" fill="#efebe9"/>
      </g>
      <g id="Grupo_90781" data-name="Grupo 90781" transform="translate(0 4.251)">
        <path id="Trazado_149805" data-name="Trazado 149805" d="M106.466,155.952a9.028,9.028,0,0,1-.975-.331,4.649,4.649,0,0,1-2.88-2.739c-.379-1.122-.35-1.88.09-2.317.878-.874,3.163-.09,4.831.483.236.081.459.157.662.224a5.425,5.425,0,0,0,3.228.312.149.149,0,1,1,.1.28,5.64,5.64,0,0,1-3.424-.308c-.2-.067-.428-.144-.666-.225-1.5-.516-3.777-1.3-4.524-.554-.346.345-.352,1.021-.018,2.01a4.366,4.366,0,0,0,2.71,2.558,13.478,13.478,0,0,0,9.352-.177.149.149,0,1,1,.135.266A13.75,13.75,0,0,1,106.466,155.952Z" transform="translate(-102.348 -150.173)" fill="#97e8ce"/>
      </g>
      <path id="Trazado_149806" data-name="Trazado 149806" d="M158.8,140.792l-1.824-4.1a.3.3,0,0,0-.183-.165c-.893-.278-1.6-.817-4.606-3.01-3.15-2.294-6.5.7-8.312,1.743-1.351.78-4.47,2.378-5.536,2.921a.3.3,0,0,0-.08.48l3.543,3.664a.3.3,0,0,0,.248.091c2.35-.225,2.582.493,5.869.939,3.354.455,5.484-.259,7.219-1.532a4.235,4.235,0,0,1,3.327-.612A.3.3,0,0,0,158.8,140.792Z" transform="translate(-129.468 -132.674)" fill="#b2f2ef"/>
      <path id="Trazado_149807" data-name="Trazado 149807" d="M144.7,141.816a.414.414,0,0,1,.108-.656c1.425-.733,3.359-1.741,4.367-2.324.3-.173.629-.389.978-.618,1.441-.946,3.413-2.242,5.237-1.732a3.524,3.524,0,0,1,1.121.557l.59.43a22.483,22.483,0,0,0,3.862,2.562.412.412,0,0,1,.219.214l.982,2.207a.415.415,0,0,1-.347.581,4.623,4.623,0,0,0-2.359.865,8.428,8.428,0,0,1-6.568,1.366,18,18,0,0,1-2.626-.546l-.346-.1a7.314,7.314,0,0,0-2.632-.335.414.414,0,0,1-.318-.126Z" transform="translate(-134.326 -135.473)" fill="#00a79e"/>
      <g id="Grupo_90782" data-name="Grupo 90782" transform="translate(10.523 1.622)">
        <path id="Trazado_149808" data-name="Trazado 149808" d="M150,142.141c.319-.184.668-.414,1.038-.657,1.506-.989,3.568-2.343,5.451-1.817a3.626,3.626,0,0,1,1.153.572l.624.455a23.732,23.732,0,0,0,4.1,2.717.1.1,0,0,0,.051.006l-.11-.248a26.825,26.825,0,0,1-3.924-2.636l-.624-.455a3.816,3.816,0,0,0-1.216-.6c-1.97-.551-4.076.832-5.614,1.843-.367.241-.714.469-1.028.65-.973.562-2.764,1.5-4.226,2.255l.145.15C147.27,143.623,149.033,142.7,150,142.141Z" transform="translate(-145.671 -139.35)" fill="#008f85"/>
        <path id="Trazado_149809" data-name="Trazado 149809" d="M166.176,149.071a23.715,23.715,0,0,1-4.059-2.694l-.624-.455a3.818,3.818,0,0,0-1.216-.6c-1.97-.551-4.076.832-5.618,1.845-.366.24-.711.467-1.024.648-.838.484-2.282,1.247-3.6,1.931l.144.149c1.306-.678,2.727-1.429,3.556-1.908.318-.184.666-.412,1.038-.657,1.506-.989,3.568-2.344,5.451-1.817a3.619,3.619,0,0,1,1.152.573l.625.456a23.738,23.738,0,0,0,4.1,2.716.1.1,0,0,0,.13-.054A.1.1,0,0,0,166.176,149.071Z" transform="translate(-148.974 -143.774)" fill="#008f85"/>
        <path id="Trazado_149810" data-name="Trazado 149810" d="M165.226,151.766a3.819,3.819,0,0,0-1.216-.6c-1.97-.551-4.076.832-5.618,1.845-.366.24-.711.467-1.024.648-.707.408-1.846,1.016-2.977,1.606l0,0a.415.415,0,0,0,.2.113c1.1-.573,2.185-1.155,2.871-1.551.318-.183.666-.412,1.038-.657,1.506-.989,3.568-2.344,5.451-1.817a3.619,3.619,0,0,1,1.153.572l.624.455c1.212.884,2.034,1.483,2.663,1.9q.134-.035.266-.062c-.644-.422-1.5-1.045-2.812-2Z" transform="translate(-152.273 -148.198)" fill="#008f85"/>
        <path id="Trazado_149811" data-name="Trazado 149811" d="M173.364,157.609a3.814,3.814,0,0,0-1.216-.6c-1.97-.551-4.076.832-5.614,1.842-.367.241-.714.469-1.028.65-.261.151-.582.33-.94.524.093.023.187.048.281.073.284-.156.542-.3.758-.425.319-.185.668-.414,1.038-.656,1.506-.989,3.568-2.344,5.451-1.817a3.621,3.621,0,0,1,1.152.572l.625.456c.458.334.86.627,1.217.885.066-.036.132-.07.2-.1-.377-.273-.806-.585-1.3-.945Z" transform="translate(-159.976 -152.622)" fill="#008f85"/>
        <path id="Trazado_149812" data-name="Trazado 149812" d="M179.988,163.452a3.828,3.828,0,0,0-1.216-.6c-1.97-.551-4.076.832-5.614,1.843l-.416.272.277.058.249-.163c1.506-.989,3.568-2.343,5.451-1.817a3.619,3.619,0,0,1,1.153.573l.611.446c.058-.039.115-.08.173-.12l-.043-.031Z" transform="translate(-166.166 -157.046)" fill="#008f85"/>
      </g>
    </g>
    <g id="Grupo_90787" data-name="Grupo 90787" transform="translate(477.475 1862.395)">
      <g id="Grupo_90784" data-name="Grupo 90784" transform="translate(27.121 3.541)">
        <path id="Trazado_149813" data-name="Trazado 149813" d="M256.043,172.614a2.3,2.3,0,0,1-.5-.214c-1.946-1.09-3.7-2.132-3.713-2.143a.149.149,0,0,1,.153-.257c.017.01,1.764,1.051,3.707,2.139.455.255.8.295,1.038.117.569-.432.513-2.114.165-3.553-.444-1.832-3.163-2.7-4.177-2.648a9.265,9.265,0,0,0-2.258.452.149.149,0,0,1-.1-.282,9.418,9.418,0,0,1,2.343-.468c1.284-.063,4.029,1.008,4.482,2.876.278,1.146.533,3.249-.274,3.861A.942.942,0,0,1,256.043,172.614Z" transform="translate(-250.258 -165.754)" fill="#efebe9"/>
      </g>
      <g id="Grupo_90785" data-name="Grupo 90785" transform="translate(0 4.251)">
        <path id="Trazado_149814" data-name="Trazado 149814" d="M142.723,174.454a8.9,8.9,0,0,1-.975-.331,4.649,4.649,0,0,1-2.88-2.739c-.379-1.122-.35-1.88.09-2.317.878-.874,3.163-.09,4.831.483.236.081.459.157.662.224a5.424,5.424,0,0,0,3.228.312.149.149,0,0,1,.1.28,5.643,5.643,0,0,1-3.424-.308c-.2-.067-.428-.144-.666-.225-1.5-.516-3.777-1.3-4.524-.554-.346.345-.352,1.021-.018,2.01a4.365,4.365,0,0,0,2.71,2.558,13.476,13.476,0,0,0,9.352-.177.149.149,0,0,1,.135.266A13.75,13.75,0,0,1,142.723,174.454Z" transform="translate(-138.604 -168.675)" fill="#9de2f5"/>
      </g>
      <path id="Trazado_149815" data-name="Trazado 149815" d="M195.053,159.294l-1.825-4.1a.3.3,0,0,0-.183-.164c-.893-.278-1.6-.818-4.606-3.01-3.15-2.294-6.5.7-8.312,1.743-1.351.78-4.47,2.378-5.536,2.921a.3.3,0,0,0-.08.48l3.544,3.664a.3.3,0,0,0,.248.091c2.35-.225,2.582.492,5.869.939,3.354.455,5.484-.259,7.219-1.531a4.235,4.235,0,0,1,3.327-.612A.3.3,0,0,0,195.053,159.294Z" transform="translate(-165.724 -151.176)" fill="#b2f2ef"/>
      <path id="Trazado_149816" data-name="Trazado 149816" d="M180.96,160.318a.414.414,0,0,1,.108-.656c1.425-.733,3.36-1.741,4.367-2.323.3-.173.629-.39.978-.619,1.441-.946,3.414-2.242,5.237-1.732a3.522,3.522,0,0,1,1.121.557l.59.43a22.48,22.48,0,0,0,3.862,2.561.412.412,0,0,1,.219.214l.982,2.207a.415.415,0,0,1-.347.581,4.623,4.623,0,0,0-2.359.865,8.429,8.429,0,0,1-6.568,1.366,18.047,18.047,0,0,1-2.626-.546l-.346-.1a7.315,7.315,0,0,0-2.632-.335.414.414,0,0,1-.318-.125Z" transform="translate(-170.583 -153.975)" fill="#00a79e"/>
      <g id="Grupo_90786" data-name="Grupo 90786" transform="translate(10.523 1.622)">
        <path id="Trazado_149817" data-name="Trazado 149817" d="M186.253,160.644c.319-.184.668-.413,1.038-.657,1.506-.989,3.568-2.344,5.451-1.817a3.622,3.622,0,0,1,1.152.573l.624.455a23.752,23.752,0,0,0,4.1,2.717.1.1,0,0,0,.051.006l-.111-.248a26.822,26.822,0,0,1-3.924-2.636l-.624-.455a3.821,3.821,0,0,0-1.216-.6c-1.97-.551-4.076.832-5.614,1.843-.367.241-.714.469-1.028.65-.973.562-2.764,1.5-4.227,2.255l.145.149C183.526,162.125,185.289,161.2,186.253,160.644Z" transform="translate(-181.927 -157.853)" fill="#008f85"/>
        <path id="Trazado_149818" data-name="Trazado 149818" d="M202.432,167.573a23.732,23.732,0,0,1-4.059-2.694l-.624-.454a3.816,3.816,0,0,0-1.216-.6c-1.97-.551-4.076.832-5.618,1.845-.366.24-.711.467-1.024.648-.838.484-2.282,1.247-3.6,1.931l.145.149c1.306-.678,2.727-1.429,3.556-1.908.318-.183.665-.412,1.038-.656,1.506-.989,3.568-2.344,5.451-1.817a3.62,3.62,0,0,1,1.152.572l.625.456a23.7,23.7,0,0,0,4.1,2.716.1.1,0,0,0,.13-.054A.1.1,0,0,0,202.432,167.573Z" transform="translate(-185.23 -162.277)" fill="#008f85"/>
        <path id="Trazado_149819" data-name="Trazado 149819" d="M201.483,170.268a3.817,3.817,0,0,0-1.216-.6c-1.97-.551-4.076.832-5.618,1.845-.366.24-.711.467-1.024.648-.707.408-1.846,1.016-2.977,1.607l0,0a.413.413,0,0,0,.2.112c1.1-.573,2.186-1.155,2.871-1.551.318-.183.665-.412,1.038-.657,1.506-.989,3.568-2.344,5.451-1.817a3.623,3.623,0,0,1,1.152.572l.624.455c1.212.884,2.034,1.483,2.664,1.9.089-.024.178-.044.266-.063-.644-.422-1.5-1.044-2.813-2Z" transform="translate(-188.53 -166.7)" fill="#008f85"/>
        <path id="Trazado_149820" data-name="Trazado 149820" d="M209.621,176.111a3.82,3.82,0,0,0-1.216-.6c-1.97-.551-4.076.832-5.614,1.842-.367.241-.713.469-1.028.651-.261.151-.582.329-.94.524.093.023.187.048.281.073.284-.156.542-.3.758-.425.319-.185.668-.414,1.038-.657,1.506-.989,3.568-2.344,5.451-1.817a3.625,3.625,0,0,1,1.152.572l.626.456c.458.334.86.627,1.217.885q.1-.054.2-.1c-.377-.273-.806-.585-1.3-.945Z" transform="translate(-196.233 -171.124)" fill="#008f85"/>
        <path id="Trazado_149821" data-name="Trazado 149821" d="M216.244,181.954a3.818,3.818,0,0,0-1.216-.6c-1.97-.551-4.076.832-5.614,1.842l-.416.272c.089.019.181.039.277.058l.249-.163c1.506-.989,3.568-2.343,5.451-1.817a3.618,3.618,0,0,1,1.152.573l.611.445c.058-.039.115-.08.173-.12l-.043-.031Z" transform="translate(-202.422 -175.548)" fill="#008f85"/>
      </g>
    </g>
    <g id="Grupo_90795" data-name="Grupo 90795" transform="translate(460.941 1851.148)">
      <g id="Grupo_90788" data-name="Grupo 90788" transform="translate(8.631 3.462)">
        <rect id="Rectángulo_33170" data-name="Rectángulo 33170" width="3.421" height="3.421" transform="translate(4.315 3.251) rotate(161.881)" fill="#cfd8dc"/>
        <rect id="Rectángulo_33171" data-name="Rectángulo 33171" width="2.326" height="3.421" transform="matrix(-0.95, 0.311, -0.311, -0.95, 3.795, 3.422)" fill="#37474f"/>
        <rect id="Rectángulo_33172" data-name="Rectángulo 33172" width="0.931" height="3.421" transform="translate(3.132 3.639) rotate(161.882)" fill="#fff"/>
      </g>
      <path id="Trazado_149822" data-name="Trazado 149822" d="M83.181,105.556l.9,2.757a.986.986,0,0,1-.63,1.243l-4.526,1.481a.985.985,0,0,1-1.243-.63l-.238-.728a.985.985,0,0,0-1.243-.63L70.845,110.8l-.307-.936,11.4-4.94A.986.986,0,0,1,83.181,105.556Z" transform="translate(-70.538 -104.877)" fill="#fff"/>
      <g id="Grupo_90790" data-name="Grupo 90790" transform="translate(8.185 5.824)">
        <rect id="Rectángulo_33173" data-name="Rectángulo 33173" width="6.295" height="2.408" rx="1.204" transform="translate(0 1.958) rotate(-18.119)" fill="#37474f"/>
        <g id="Grupo_90789" data-name="Grupo 90789" transform="translate(0.656 0.542)">
          <path id="Trazado_149823" data-name="Trazado 149823" d="M125.853,131.1a.26.26,0,0,1,.328.166l.375,1.144a.26.26,0,0,1-.494.162l-.374-1.145A.26.26,0,0,1,125.853,131.1Z" transform="translate(-121.122 -131.086)" fill="#2a383e"/>
          <path id="Trazado_149824" data-name="Trazado 149824" d="M122.1,132.325a.26.26,0,0,1,.328.166l.375,1.144a.26.26,0,1,1-.494.162l-.374-1.144A.26.26,0,0,1,122.1,132.325Z" transform="translate(-118.284 -132.014)" fill="#2a383e"/>
          <path id="Trazado_149825" data-name="Trazado 149825" d="M118.357,133.551a.26.26,0,0,1,.328.166l.375,1.145a.26.26,0,0,1-.494.162l-.374-1.145A.26.26,0,0,1,118.357,133.551Z" transform="translate(-115.446 -132.943)" fill="#2a383e"/>
          <path id="Trazado_149826" data-name="Trazado 149826" d="M114.609,134.778a.26.26,0,0,1,.328.166l.375,1.144a.26.26,0,1,1-.494.162l-.374-1.145A.26.26,0,0,1,114.609,134.778Z" transform="translate(-112.609 -133.871)" fill="#2a383e"/>
          <path id="Trazado_149827" data-name="Trazado 149827" d="M110.861,136a.26.26,0,0,1,.328.166l.375,1.145a.26.26,0,1,1-.494.162l-.374-1.144A.26.26,0,0,1,110.861,136Z" transform="translate(-109.771 -134.799)" fill="#2a383e"/>
          <path id="Trazado_149828" data-name="Trazado 149828" d="M107.113,137.231a.26.26,0,0,1,.328.166l.375,1.145a.26.26,0,0,1-.494.162l-.375-1.145A.26.26,0,0,1,107.113,137.231Z" transform="translate(-106.934 -135.728)" fill="#2a383e"/>
        </g>
      </g>
      <path id="Trazado_149829" data-name="Trazado 149829" d="M73.144,109.139a13.335,13.335,0,0,1,4.086-.853,1.238,1.238,0,0,1,.7.176,3.4,3.4,0,0,1,.486.594,1.583,1.583,0,0,0,1.288.462,4.681,4.681,0,0,0,1.363-.366,2.737,2.737,0,0,0,1.464-.965c.638-1.049.133-2.275-.736-3.2l.145-.063a.986.986,0,0,1,1.243.63l.9,2.757a.986.986,0,0,1-.63,1.243l-4.526,1.481a.985.985,0,0,1-1.243-.63l-.238-.728a.985.985,0,0,0-1.243-.63L70.845,110.8l-.307-.936.68-.295A12.221,12.221,0,0,0,73.144,109.139Z" transform="translate(-70.538 -104.877)" fill="#cfd8dc"/>
      <g id="Grupo_90792" data-name="Grupo 90792" transform="translate(6.096 8.343)">
        <g id="Grupo_90791" data-name="Grupo 90791">
          <path id="Trazado_149830" data-name="Trazado 149830" d="M95.763,149.005c-.919-3.967,3.351-8.263,3.351-8.263l1.219-.4,2.2-.72,1.219-.4s5.984.941,7.586,4.684,4.029,14.916,3.153,16.283A11.616,11.616,0,0,1,110.182,163l-.266.111a11.944,11.944,0,0,1-1.656.542l-.278.067a11.619,11.619,0,0,1-5.136.279C101.33,163.418,96.684,152.973,95.763,149.005Z" transform="translate(-95.633 -139.225)" fill="#cfd8dc"/>
          <path id="Trazado_149831" data-name="Trazado 149831" d="M111.093,165.021c.259-.085.517-.18.769-.283l.256-.107A11.494,11.494,0,0,0,116.1,162.1c.179-.4.12-2.547-.77-6.881a54.457,54.457,0,0,0-2.433-8.746c-1.289-3.012-5.952-4.053-6.882-4.232l-4.3,1.405c-.643.693-3.79,4.29-3.05,7.482a54.52,54.52,0,0,0,3.208,8.492c1.845,4.023,3.069,5.791,3.448,6a11.5,11.5,0,0,0,4.711-.312l.267-.064C110.569,165.182,110.834,165.106,111.093,165.021Z" transform="translate(-97.849 -141.507)" fill="#fff"/>
        </g>
        <path id="Trazado_149832" data-name="Trazado 149832" d="M121.074,163.016c-1.507-4.148-2.962-8.408-3.619-10.6a18.74,18.74,0,0,1-.629-7.8l1.5-.492a18.728,18.728,0,0,1,4.1,6.666c.766,2.157,2.112,6.453,3.348,10.69.572,1.961,1.012,3.537,1.34,4.761-.324.163-.664.321-1.016.472l-.266.111a11.943,11.943,0,0,1-1.656.542l-.278.067c-.373.086-.741.159-1.1.22C122.348,166.467,121.772,164.936,121.074,163.016Z" transform="translate(-111.557 -142.931)" fill="#bdbdbd"/>
      </g>
      <g id="Grupo_90794" data-name="Grupo 90794" transform="translate(7.534 15.904)">
        <path id="Trazado_149833" data-name="Trazado 149833" d="M104.16,182.079a39.7,39.7,0,0,0,14.121-4.621l-1.976-7.107a39.741,39.741,0,0,1-14.752,4.827Z" transform="translate(-101.553 -170.352)" fill="#ebfdff"/>
        <g id="Grupo_90793" data-name="Grupo 90793" transform="translate(6.22 4.068)">
          <path id="Trazado_149834" data-name="Trazado 149834" d="M127.158,189.428q.669-.176,1.33-.375l-.451-1.352q.924-.277,1.834-.6l.436,1.357q.651-.231,1.294-.484l.577,1.849q-.636.25-1.28.478l.419,1.3q-.884.313-1.783.583l-.433-1.3q-.654.2-1.315.371Z" transform="translate(-127.158 -187.101)" fill="#0090b8"/>
        </g>
      </g>
    </g>
    <g id="Grupo_90798" data-name="Grupo 90798" transform="translate(462.543 1867.804)">
      <path id="Trazado_149835" data-name="Trazado 149835" d="M90.7,207.832,95.279,260.5a3.165,3.165,0,0,0,3.153,2.891h29.463a3.165,3.165,0,0,0,3.153-2.891l4.581-52.671Z" transform="translate(-87.402 -199.48)" fill="#d93328"/>
      <path id="Trazado_149836" data-name="Trazado 149836" d="M133.6,224.689H106.332a4.236,4.236,0,0,0-4.22,4.6l3.794,40.871a2.079,2.079,0,0,0,2.071,1.9h27.2a2.079,2.079,0,0,0,2.079-2.079l-1.579-43.215A2.079,2.079,0,0,0,133.6,224.689Z" transform="translate(-96.032 -212.242)" fill="#b42218"/>
      <path id="Trazado_149837" data-name="Trazado 149837" d="M126.148,328.535h-5.471a1.359,1.359,0,0,0-1.354,1.477l1.482,17.046a1.357,1.357,0,0,0,1.912,1.121q1.981-.9,4.157-1.718a2.078,2.078,0,0,0,1.351-1.944v-13.9A2.077,2.077,0,0,0,126.148,328.535Z" transform="translate(-109.07 -290.863)" fill="#d93328"/>
      <path id="Trazado_149838" data-name="Trazado 149838" d="M127.487,173.447H78.3a1.281,1.281,0,0,0-1.165,1.384l.06,5.619a1.275,1.275,0,0,0,1.165,1.349h49.07a1.275,1.275,0,0,0,1.166-1.349l.06-5.619A1.281,1.281,0,0,0,127.487,173.447Z" transform="translate(-77.131 -173.447)" fill="#b42218"/>
      <g id="Grupo_90796" data-name="Grupo 90796" transform="translate(2.203 2.186)">
        <path id="Trazado_149839" data-name="Trazado 149839" d="M103.583,182.447H86.922a.724.724,0,0,0-.724.732l.027,2.532a.724.724,0,0,0,.724.716h4.688a.379.379,0,0,0,.278-.115c1.223-1.308,5.595-2.43,11.707-3.123a.374.374,0,0,0,.332-.37h0A.373.373,0,0,0,103.583,182.447Z" transform="translate(-86.199 -182.447)" fill="#d93328"/>
      </g>
      <g id="Grupo_90797" data-name="Grupo 90797" transform="translate(12.538 15.93)">
        <path id="Trazado_149840" data-name="Trazado 149840" d="M182.534,253.115c-.283-.164-.564-.307-.819-.486a.369.369,0,0,1-.1-.313,1.586,1.586,0,0,0-1.085-1.835c-.079-.023-.188-.12-.192-.188-.021-.31-.009-.622-.009-.927a5.243,5.243,0,0,0,.993-10.319c1.355-.129,3.785,1.576,4.771,3.374a6.919,6.919,0,0,1,.4,5.894,6.908,6.908,0,0,1,5.553,8.906c.337-3.126-.774-5.375-3.84-6.246C185.9,250.322,184.007,251.2,182.534,253.115Z" transform="translate(-167.794 -239.036)" fill="#f8f8f8"/>
        <path id="Trazado_149841" data-name="Trazado 149841" d="M157.686,303.414a6.876,6.876,0,0,1-10.584-.26,6.859,6.859,0,0,1-6.4,2.464,6.429,6.429,0,0,1-3.91-2.049c2.3,1.638,4.651,1.856,6.874,0,2.012-1.679,2.28-3.88,1.332-6.3.272-.159.545-.333.832-.477a.329.329,0,0,1,.264.071,1.561,1.561,0,0,0,2.079,0,.346.346,0,0,1,.3-.035c.28.139.544.309.818.468-1.058,2.726-.63,5.109,1.861,6.754C153.414,305.548,155.652,305.12,157.686,303.414Z" transform="translate(-134.841 -282.753)" fill="#f8f8f8"/>
        <path id="Trazado_149842" data-name="Trazado 149842" d="M138.629,253.065a5.3,5.3,0,0,0-6.369-1.992,5.161,5.161,0,0,0-2.7,2.508,5.392,5.392,0,0,0-.408,3.629,6.857,6.857,0,0,1,5.416-8.977,6.86,6.86,0,0,1,5.216-9.207,5.427,5.427,0,0,0-2.95,2,5.1,5.1,0,0,0-1.01,3.441,5.292,5.292,0,0,0,4.9,4.887c0,.307.015.619-.009.928a.371.371,0,0,1-.2.23,1.584,1.584,0,0,0-.994,1.8.374.374,0,0,1-.116.3C139.161,252.779,138.9,252.91,138.629,253.065Z" transform="translate(-128.748 -239.027)" fill="#f8f8f8"/>
        <path id="Trazado_149843" data-name="Trazado 149843" d="M156.448,296.027a6.506,6.506,0,0,1-3.967-6.46c.011-.2.067-.311.293-.251.38.1.768.173,1.137.3a.459.459,0,0,1,.242.342,4.862,4.862,0,0,0,2.5,4.31.376.376,0,0,1,.171.29C156.719,295.04,156.583,295.514,156.448,296.027Z" transform="translate(-146.707 -277.088)" fill="#f8f8f8"/>
        <path id="Trazado_149844" data-name="Trazado 149844" d="M192.595,289.375a6.412,6.412,0,0,1-3.907,6.764c-.129-.508-.267-1-.369-1.505-.014-.07.127-.2.224-.26a4.821,4.821,0,0,0,2.356-3.3,5.514,5.514,0,0,0,.095-.969c0-.19.049-.312.239-.362Z" transform="translate(-173.848 -277.145)" fill="#f8f8f8"/>
        <path id="Trazado_149845" data-name="Trazado 149845" d="M171.054,266.9c-.376.367-.723.719-1.089,1.05a.332.332,0,0,1-.3,0,4.888,4.888,0,0,0-5.046,0,.36.36,0,0,1-.328-.016c-.359-.322-.7-.669-1.046-1.011A6.387,6.387,0,0,1,171.054,266.9Z" transform="translate(-154.864 -259.133)" fill="#f8f8f8"/>
      </g>
    </g>
  </g>
</svg>
