<svg xmlns="http://www.w3.org/2000/svg" xmlns:xlink="http://www.w3.org/1999/xlink" width="79.155" height="79.154" viewBox="0 0 79.155 79.154">
  <defs>
    <radialGradient id="radial-gradient" cx="0.077" cy="0.019" r="1.465" gradientTransform="matrix(1, 0, 0, -1, 0, 9.666)" gradientUnits="objectBoundingBox">
      <stop offset="0" stop-color="#f4f4f5"/>
      <stop offset="0.477" stop-color="#f7f8fa"/>
      <stop offset="0.715" stop-color="#fff"/>
    </radialGradient>
  </defs>
  <g id="Grupo_129351" data-name="Grupo 129351" transform="translate(-800 -1583.622)">
    <g id="Group_18420" data-name="Group 18420" transform="translate(800 1583.622)">
      <g id="Group_18419" data-name="Group 18419">
        <path id="Path_40936" data-name="Path 40936" d="M201.954,554.407a39.577,39.577,0,1,1-39.578-39.575h0A39.576,39.576,0,0,1,201.954,554.407Z" transform="translate(-122.8 -514.832)" fill="#fff"/>
      </g>
    </g>
    <path id="Path_40937" data-name="Path 40937" d="M201.953,554.407a39.42,39.42,0,1,0,0,.312Z" transform="translate(677.201 1068.79)" fill="url(#radial-gradient)"/>
    <path id="Path_40938" data-name="Path 40938" d="M190.028,551.858a30.209,30.209,0,1,0-30.209,30.209h0a30.1,30.1,0,0,0,30.209-29.984Z" transform="translate(679.878 1071.472)" fill="none" stroke="#1d272b" stroke-miterlimit="10" stroke-width="2"/>
    <path id="Path_40939" data-name="Path 40939" d="M195.973,530.78a39.581,39.581,0,0,1-68.14,39.411,39.456,39.456,0,0,0,68.14-39.411Z" transform="translate(679.179 1075.062)" fill="#e7e9eb"/>
    <path id="Trazado_166371" data-name="Trazado 166371" d="M256.336-350.762c0-.088,0-.171,0-.254,0-1.085,0-2.17,0-3.255a1.053,1.053,0,0,1,1.111-1.1h.363c0-.069.009-.124.009-.18,0-.656.016-1.313,0-1.969a10.052,10.052,0,0,1,.259-2.486c.277-1.255.512-2.519.791-3.773a2.488,2.488,0,0,1,1.94-2.005,2.5,2.5,0,0,1,2.635.88,2.9,2.9,0,0,1,.6,1.43c.264,1.419.543,2.836.8,4.256a5.538,5.538,0,0,1,.082.931c.011.9,0,1.8,0,2.7v.216c.134,0,.259,0,.383,0a1.035,1.035,0,0,1,1.091,1.022c.023.406.01.815.011,1.222,0,.793,0,1.585,0,2.384.215.033.431.067.648.1a4.94,4.94,0,0,1,1.84.659,5.911,5.911,0,0,1,3.111,5.31c.024,5.59.008,11.18.008,16.77a2.13,2.13,0,0,1-2.182,2.176H262.9q-5.014,0-10.029,0a2.126,2.126,0,0,1-2.142-2.15q0-4.47,0-8.941c0-2.624-.026-5.247,0-7.871a5.942,5.942,0,0,1,3.065-5.258,5.653,5.653,0,0,1,2.378-.78C256.226-350.741,256.272-350.751,256.336-350.762Zm14.47,6.712h-18.86v6.7c0,3.134,0,6.268,0,9.4a.969.969,0,0,0,1,.992c2.626-.014,5.251-.008,7.877-.005.894,0,1.788.015,2.682.017.458,0,.915-.017,1.373-.017q2.469,0,4.939,0a.917.917,0,0,0,1-1q0-7.956,0-15.912ZM252-345.3h18.761c-.006-.063-.008-.111-.015-.158a4.889,4.889,0,0,0-4.688-4.088c-.623-.012-1.246,0-1.868,0q-3.581,0-7.162,0a5.445,5.445,0,0,0-.87.05,4.845,4.845,0,0,0-3.846,3A3.868,3.868,0,0,0,252-345.3Zm11.7-10.086c0-.051.008-.087.008-.124,0-.984,0-1.969,0-2.953a3,3,0,0,0-.055-.536c-.268-1.429-.543-2.857-.813-4.285a1.727,1.727,0,0,0-.319-.834,1.337,1.337,0,0,0-1.387-.5,1.311,1.311,0,0,0-1.059,1.059q-.378,1.744-.724,3.494a11.8,11.8,0,0,0-.283,1.7c-.048.961-.015,1.925-.016,2.888a.55.55,0,0,0,.014.085Zm-3.969,1.232v.186c0,.424,0,.847,0,1.271a.609.609,0,0,1-.6.659.605.605,0,0,1-.616-.658c0-.445,0-.889,0-1.334,0-.04-.006-.08-.01-.119h-.925v3.368h7.6v-3.37h-.89c0,.05-.008.091-.008.132,0,.45,0,.9,0,1.35a.607.607,0,0,1-.613.632.608.608,0,0,1-.6-.64c0-.439,0-.879,0-1.318,0-.051,0-.1-.007-.155h-1.068v.164c0,.439,0,.879,0,1.318a.6.6,0,0,1-.6.629.6.6,0,0,1-.616-.624c0-.445,0-.889,0-1.334,0-.051,0-.1-.007-.158Z" transform="translate(578.203 1968.003)" fill="#1d272b"/>
    <path id="Trazado_166372" data-name="Trazado 166372" d="M332.678,387.56a7.84,7.84,0,0,1,3.833,1.032,14.862,14.862,0,0,1,4.109,3.5.593.593,0,0,1,.013.8,15.113,15.113,0,0,1-3.923,3.407,7.967,7.967,0,0,1-4.186,1.147,8.1,8.1,0,0,1-3.43-.879,13.886,13.886,0,0,1-3.561-2.6c-.329-.321-.645-.657-.96-.992a.622.622,0,0,1,0-.943,16.357,16.357,0,0,1,3.82-3.22,8.462,8.462,0,0,1,4.033-1.252C332.509,387.558,332.593,387.56,332.678,387.56Zm-3.832,4.933a3.718,3.718,0,0,0,3.737,3.731,3.722,3.722,0,0,0,.015-7.444A3.71,3.71,0,0,0,328.846,392.493Zm10.507.006a15.115,15.115,0,0,0-2.316-2.126,5.036,5.036,0,0,1,0,4.26A15.047,15.047,0,0,0,339.353,392.5Zm-13.551,0a16.84,16.84,0,0,0,2.232,1.993,5.126,5.126,0,0,1-.042-3.935A14.627,14.627,0,0,0,325.8,392.5Z" transform="translate(506.907 1238.502)" fill="#1d272b"/>
    <path id="Trazado_166373" data-name="Trazado 166373" d="M506.819,464.623a2.5,2.5,0,1,1-2.508,2.462A2.492,2.492,0,0,1,506.819,464.623Zm-.011,3.766a1.274,1.274,0,1,0-1.273-1.267A1.271,1.271,0,0,0,506.808,468.389Z" transform="translate(332.668 1163.887)" fill="#1d272b"/>
  </g>
</svg>
