<svg xmlns="http://www.w3.org/2000/svg" xmlns:xlink="http://www.w3.org/1999/xlink" width="79.155" height="79.154" viewBox="0 0 79.155 79.154">
  <defs>
    <radialGradient id="radial-gradient" cx="0.077" cy="0.019" r="1.465" gradientTransform="matrix(1, 0, 0, -1, 0, 9.666)" gradientUnits="objectBoundingBox">
      <stop offset="0" stop-color="#f4f4f5"/>
      <stop offset="0.477" stop-color="#f7f8fa"/>
      <stop offset="0.715" stop-color="#fff"/>
    </radialGradient>
  </defs>
  <g id="Grupo_129352" data-name="Grupo 129352" transform="translate(-800 -1698.447)">
    <g id="Group_18420" data-name="Group 18420" transform="translate(800 1698.447)">
      <g id="Group_18419" data-name="Group 18419">
        <path id="Path_40936" data-name="Path 40936" d="M201.954,554.407a39.577,39.577,0,1,1-39.578-39.575h0A39.576,39.576,0,0,1,201.954,554.407Z" transform="translate(-122.8 -514.832)" fill="#fff"/>
      </g>
    </g>
    <path id="Path_40937" data-name="Path 40937" d="M201.953,554.407a39.42,39.42,0,1,0,0,.312Z" transform="translate(677.201 1183.615)" fill="url(#radial-gradient)"/>
    <path id="Path_40938" data-name="Path 40938" d="M190.028,551.858a30.209,30.209,0,1,0-30.209,30.209h0a30.1,30.1,0,0,0,30.209-29.984Z" transform="translate(679.878 1186.297)" fill="none" stroke="#1d272b" stroke-miterlimit="10" stroke-width="2"/>
    <path id="Path_40939" data-name="Path 40939" d="M195.973,530.78a39.581,39.581,0,0,1-68.14,39.411,39.456,39.456,0,0,0,68.14-39.411Z" transform="translate(679.179 1189.887)" fill="#e7e9eb"/>
    <path id="Trazado_166374" data-name="Trazado 166374" d="M696.93,704.292c.451-.118.887-.271,1.336-.341a4.583,4.583,0,0,1,3.333.749.219.219,0,0,0,.288,0,4.793,4.793,0,1,1,4.771,8.29c-.052.024-.1.053-.134.07.11.369.245.721.318,1.085a4.608,4.608,0,0,1-.809,3.741,4.666,4.666,0,0,1-3.293,1.954.213.213,0,0,0-.185.14,3.968,3.968,0,0,1-4.142,2.26c-.224-.029-.441-.1-.664-.147a.574.574,0,0,0-.209.005,5.3,5.3,0,0,1-.881.16c-3.444.016-6.89-.026-10.333.037a10.821,10.821,0,0,1-5.189-1.25c-.583-.3-1.152-.621-1.712-.96a.794.794,0,0,1-.072-1.333.808.808,0,0,1,.935-.013,16.571,16.571,0,0,0,2.821,1.427,7.307,7.307,0,0,0,2.719.517c2.145-.018,4.289-.008,6.434-.012q2.179,0,4.358-.01a.771.771,0,0,0,.793-.8.657.657,0,0,0-.233-.485,1.079,1.079,0,0,0-.775-.3q-3.138.006-6.276,0a.8.8,0,1,1,.018-1.6q2.393,0,4.786-.006,1.767,0,3.534-.015a.737.737,0,0,0,.74-.534.81.81,0,0,0-.289-.932.889.889,0,0,0-.459-.133c-2.456,0-4.913.013-7.369.023-.063,0-.127,0-.19,0a.8.8,0,0,1-.816-.794.791.791,0,0,1,.8-.8c1.173-.011,2.345-.015,3.518-.02,1.754-.008,3.508-.021,5.261-.017a.787.787,0,0,0,.807-.81.765.765,0,0,0-.8-.8q-3.471.015-6.941.037c-.872,0-1.743.011-2.615.012a.8.8,0,0,1-.344-1.536,1.044,1.044,0,0,1,.37-.063c1.262-.011,2.525-.016,3.787-.024q1.957-.013,3.914-.029a.743.743,0,0,0,.751-.56.811.811,0,0,0-.347-.938.937.937,0,0,0-.421-.1c-.57-.01-1.141,0-1.712,0l-9.208,0a.8.8,0,0,1-.544-1.411.84.84,0,0,1,.572-.194c1.025,0,2.05,0,3.075,0a.8.8,0,1,0,.054-1.594c-1-.006-2.008,0-3.011,0a7.358,7.358,0,0,0-2.079.287,2.729,2.729,0,0,0-1.11.553,1.569,1.569,0,0,0-.255.319c-.363.564-.716,1.134-1.081,1.7a.723.723,0,0,1-.611.344c-.718.016-1.437.029-2.155.033a.785.785,0,0,1-.756-.548.8.8,0,0,1,.25-.873.792.792,0,0,1,.512-.181c.5-.007.993-.016,1.489-.018a.263.263,0,0,0,.256-.139c.246-.406.505-.8.754-1.209a3.279,3.279,0,0,1,1.561-1.267,7.963,7.963,0,0,1,3.026-.6c.349-.008.7-.007,1.046,0a.2.2,0,0,0,.217-.15,4.786,4.786,0,0,1,8.394-.886C696.672,703.828,696.8,704.076,696.93,704.292Zm1.993,16.376a2.116,2.116,0,0,0,.978-.2,2.358,2.358,0,0,0,1.352-1.582.808.808,0,0,1,.826-.624,2.688,2.688,0,0,0,1.37-.256,3.173,3.173,0,0,0,1.215-4.855.831.831,0,0,1,.509-1.349,3.162,3.162,0,0,0,2.506-3.724,3.2,3.2,0,0,0-4.962-2.012,3.276,3.276,0,0,0-1.108,1.357.81.81,0,0,1-1.122.415.779.779,0,0,1-.371-.987c.132-.308.3-.6.453-.9a3.109,3.109,0,0,0-2.037-.431,3.35,3.35,0,0,0-1.551.672.8.8,0,0,1-1.286-.471,3.687,3.687,0,0,0-.12-.443,3.185,3.185,0,0,0-5.62-.832c-.036.048-.065.1-.112.175a2.426,2.426,0,0,1,2.131.929,2.4,2.4,0,0,1,.385,2.268h.228q2.654,0,5.309,0a2.343,2.343,0,0,1,2.325,2.19,8.735,8.735,0,0,1-.065,1.049c.069.018.177.039.28.076a2.33,2.33,0,0,1,1.626,2.065,2.384,2.384,0,0,1-1.254,2.375c-.113.06-.149.1-.1.236a2.423,2.423,0,0,1-1.179,3,.589.589,0,0,0-.517,1.03A6.348,6.348,0,0,1,698.923,720.668Z" transform="translate(144.368 1035.342)" fill="#1d272b"/>
    <path id="Trazado_166375" data-name="Trazado 166375" d="M1063.994,152.588c0,.525,0,1.026,0,1.528a1.589,1.589,0,0,1-.713,1.39,1.542,1.542,0,0,1-.9.268c-1.057,0-2.113,0-3.17,0a1.586,1.586,0,0,1-1.619-1.629c0-.512,0-1.025,0-1.544a.982.982,0,0,0-.108-.032.754.754,0,0,1-.684-.751c-.014-.871-.037-1.745.01-2.614a2.362,2.362,0,0,1,2.386-2.222c.9,0,1.807,0,2.71,0,1.358,0,2.715,0,4.073.008a1.417,1.417,0,0,1,.553.1.762.762,0,0,1,.414.888.819.819,0,0,1-.791.613c-.2,0-.4-.01-.6-.01h-6.229a.82.82,0,0,0-.93.922q0,.642,0,1.284v.187h.218c1.833,0,3.667-.009,5.5.01a2.974,2.974,0,0,1,2.2.981q3.522,3.767,7.029,7.548,3.136,3.369,6.268,6.741a1.5,1.5,0,0,1,.334.525.756.756,0,0,1-.387.885.779.779,0,0,1-.947-.14c-.367-.38-.723-.77-1.083-1.156l-6.033-6.484-5.318-5.721q-.5-.534-.994-1.066a1.557,1.557,0,0,0-1.043-.507C1064.1,152.585,1064.058,152.588,1063.994,152.588Zm-1.61.005h-3.177v1.573h3.177Z" transform="translate(-221.471 1572.275)" fill="#1d272b"/>
    <path id="Trazado_166376" data-name="Trazado 166376" d="M1496.128,250.054a.815.815,0,0,1,.573.228q2.935,2.73,5.872,5.458l1.752,1.629a.8.8,0,1,1-1.087,1.174q-3.815-3.539-7.629-7.082a.8.8,0,0,1-.2-.979A.774.774,0,0,1,1496.128,250.054Z" transform="translate(-646.104 1472.469)" fill="#1d272b"/>
    <path id="Trazado_166377" data-name="Trazado 166377" d="M784.646,603.2a2.4,2.4,0,1,1-2.4-2.4A2.4,2.4,0,0,1,784.646,603.2Zm-2.392.8a.794.794,0,0,0,.788-.8.8.8,0,1,0-1.59.017A.787.787,0,0,0,782.254,603.993Z" transform="translate(46.69 1132.839)" fill="#1d272b"/>
    <path id="Trazado_166378" data-name="Trazado 166378" d="M1339.283,577.967a2.4,2.4,0,1,1-2.4-2.393A2.4,2.4,0,0,1,1339.283,577.967Zm-2.4.8a.8.8,0,0,0,.8-.794.8.8,0,0,0-1.594,0A.8.8,0,0,0,1336.885,578.767Z" transform="translate(-490.369 1157.268)" fill="#1d272b"/>
    <path id="Trazado_166379" data-name="Trazado 166379" d="M1210.053,480.374a.793.793,0,0,1-.789-.667c-.133-.662-.263-1.325-.395-1.987s-.267-1.313-.394-1.971a.791.791,0,0,1,.545-.932.779.779,0,0,1,.968.445,5.412,5.412,0,0,1,.181.785c.222,1.1.439,2.2.662,3.306A.8.8,0,0,1,1210.053,480.374Z" transform="translate(-368.337 1254.866)" fill="#1d272b"/>
    <path id="Trazado_166380" data-name="Trazado 166380" d="M1084.748,475.7c-.059.3-.132.685-.209,1.068q-.294,1.474-.591,2.948a.806.806,0,0,1-.947.676.794.794,0,0,1-.633-.947q.394-2.019.814-4.033a.775.775,0,0,1,.9-.594A.815.815,0,0,1,1084.748,475.7Z" transform="translate(-246.228 1254.843)" fill="#1d272b"/>
    <path id="Trazado_166381" data-name="Trazado 166381" d="M1421.633,183.691a.789.789,0,0,1-.8-.791.8.8,0,0,1,.826-.8.786.786,0,0,1,.779.791A.808.808,0,0,1,1421.633,183.691Z" transform="translate(-573.981 1538.269)" fill="#1d272b"/>
  </g>
</svg>
