<svg xmlns="http://www.w3.org/2000/svg" xmlns:xlink="http://www.w3.org/1999/xlink" width="330.672" height="296.487" viewBox="0 0 330.672 296.487">
  <defs>
    <linearGradient id="linear-gradient" x1="0.44" y1="0.637" x2="0.9" y2="-0.426" gradientUnits="objectBoundingBox">
      <stop offset="0.181" stop-color="#fff"/>
      <stop offset="0.284" stop-color="#e5e5e5"/>
      <stop offset="0.504" stop-color="#a4a4a4"/>
      <stop offset="0.819" stop-color="#3d3d3d"/>
      <stop offset="1"/>
    </linearGradient>
    <radialGradient id="radial-gradient" cx="0.5" cy="0.5" r="0.5" gradientUnits="objectBoundingBox">
      <stop offset="0" stop-color="#f6f6f7"/>
      <stop offset="0.477" stop-color="#f9f9fa"/>
      <stop offset="0.715" stop-color="#fff"/>
    </radialGradient>
    <linearGradient id="linear-gradient-2" x1="0.5" x2="0.5" y2="1" gradientUnits="objectBoundingBox">
      <stop offset="0" stop-color="#f5f5f5"/>
      <stop offset="0.25" stop-color="#f5f5f5"/>
      <stop offset="1" stop-color="#a7b3cf"/>
    </linearGradient>
    <linearGradient id="linear-gradient-3" x1="0.5" x2="0.5" y2="1" gradientUnits="objectBoundingBox">
      <stop offset="0" stop-color="#fff"/>
      <stop offset="1" stop-color="#d2e6ee"/>
    </linearGradient>
    <linearGradient id="linear-gradient-9" x1="0.5" x2="0.5" y2="1" gradientUnits="objectBoundingBox">
      <stop offset="0" stop-color="#f5f5f5"/>
      <stop offset="0.25" stop-color="#f5f5f5"/>
      <stop offset="1" stop-color="#eeeef2"/>
    </linearGradient>
  </defs>
  <g id="Grupo_129327" data-name="Grupo 129327" transform="translate(-231.5 -440.457)">
    <g id="Grupo_127748" data-name="Grupo 127748" transform="translate(231.5 440.457)">
      <path id="Trazado_151846" data-name="Trazado 151846" d="M363.883,385.031A77.191,77.191,0,0,0,373.2,320.82c-4.13-13.509-12.054-26.06-13.067-40.147C358.1,252.507,383.647,229.736,388.946,202c2.329-12.191-.212-26.394-10.2-33.8-9.861-7.314-23.936-5.821-35.1-.7s-20.611,13.322-31.33,19.317-23.917,9.7-35.237,4.93c-11.466-4.833-17.97-17.015-21.613-28.887s-5.431-24.518-11.649-35.274c-10.247-17.727-32.1-27.393-52.456-24.892s-38.551,16.2-48.309,34.2-11.463,39.771-6.606,59.653c2.464,10.083,6.523,19.74,8.736,29.881s2.416,21.241-2.525,30.375c-10.333,19.1-37.592,21.765-51.867,38.146-11.782,13.52-12.151,34.152-5.465,50.778s19.252,30.116,31.78,42.95c58.435,1.959,117.918,2.089,176.354,4.049C316.173,393.487,341.2,386.363,363.883,385.031Z" transform="translate(-80.961 -97.556)" fill="#a4a4b4" opacity="0.354" style="mix-blend-mode: multiply;isolation: isolate"/>
      <path id="Trazado_151847" data-name="Trazado 151847" d="M359.21,179.452c-.171,18.234,17.163,34.1,14.146,52.087-1.613,9.622-8.945,19.376-4.684,28.152,3.77,7.766,14.566,9.112,22.822,6.588,19.324-5.912,31.069-25.664,36.686-45.076,5.283-18.259,6.595-38.654-1.866-55.675-6.818-13.714-22.549-25.821-38.524-24.7C373.159,141.853,359.338,165.718,359.21,179.452Z" transform="translate(-101.732 -82.082)" fill="#a4a4b4" opacity="0.31" style="mix-blend-mode: multiply;isolation: isolate"/>
      <path id="Trazado_151848" data-name="Trazado 151848" d="M116.656,146.979c-12.908,21.536-13.49,49.92-1.476,71.966,3.8,6.966,8.924,13.458,15.847,17.331s15.855,4.738,22.746.807c10.451-5.961,12.762-20.022,11.93-32.026s-3.551-24.586,1.071-35.694c3.014-7.241,8.8-12.886,13.932-18.815s9.923-12.851,10.189-20.689c.687-20.319-20.885-18.8-33.885-14.581A73.885,73.885,0,0,0,116.656,146.979Z" transform="translate(-79.941 -97.143)" fill="#a4a4b4" opacity="0.31" style="mix-blend-mode: multiply;isolation: isolate"/>
      <g id="Grupo_107069" data-name="Grupo 107069" transform="translate(7.222 0)" style="mix-blend-mode: multiply;isolation: isolate">
        <path id="Trazado_151849" data-name="Trazado 151849" d="M360.459,388.56l-1.252-1.144c3.446-3.77,8.947-12.412,7.085-27.949-.829-6.916-2.883-13.749-4.87-20.356-.887-2.952-1.8-6-2.606-9.035A140.449,140.449,0,0,1,369.07,232.2c1.338-2.65,2.786-5.309,4.186-7.88,4.152-7.622,8.444-15.505,10.29-24.02,3.237-14.942-3.162-26.142-10.478-30.224-7.019-3.918-16.927-3.319-27.181,1.644-3.751,1.815-7.4,4.035-10.923,6.182a101,101,0,0,1-14.651,7.849c-20.354,8.173-45.8,1.227-59.192-16.155-6.436-8.353-10.069-18.449-13.583-28.212-1.361-3.783-2.77-7.7-4.318-11.439-4.816-11.639-13.63-26.248-28.272-29.742-12.865-3.072-25.9,3.68-34.56,9.884-16.576,11.871-28.26,27.948-32.9,45.268-3.129,11.68-3.255,24.393-3.377,36.687-.181,18.309-.369,37.241-10.7,52.487-4.7,6.936-11.163,12.47-17.412,17.822-5.854,5.012-11.907,10.2-16.419,16.478-10.224,14.235-12.731,34.388-6.876,55.293,5.261,18.783,15.985,35.448,26.356,51.566l-1.425.918c-10.439-16.222-21.233-33-26.563-52.026-5.995-21.4-3.4-42.086,7.132-56.741,4.632-6.449,10.764-11.7,16.693-16.777,6.166-5.279,12.541-10.739,17.112-17.485,10.043-14.824,10.22-32.664,10.407-51.552.123-12.4.25-25.222,3.437-37.111,4.743-17.7,16.659-34.108,33.553-46.209,8.95-6.409,22.451-13.375,35.94-10.154,15.338,3.661,24.478,18.739,29.444,30.744,1.564,3.78,2.979,7.712,4.347,11.514,3.469,9.64,7.056,19.608,13.33,27.751,12.944,16.8,37.543,23.517,57.219,15.616a99.884,99.884,0,0,0,14.4-7.723c3.56-2.168,7.241-4.41,11.065-6.261,10.758-5.206,21.235-5.791,28.745-1.6,7.845,4.378,14.73,16.28,11.309,32.066-1.9,8.754-6.249,16.745-10.459,24.473-1.394,2.56-2.836,5.206-4.161,7.832a138.724,138.724,0,0,0-10.13,96.677c.793,3,1.707,6.042,2.59,8.98,2.008,6.676,4.084,13.58,4.931,20.642C369.918,375.475,364.1,384.578,360.459,388.56Z" transform="translate(-87.906 -97.739)" fill="#a4a4b4"/>
      </g>
    </g>
    <g id="Grupo_127749" data-name="Grupo 127749" transform="translate(254.979 460.222)">
      <path id="Trazado_163831" data-name="Trazado 163831" d="M281.715,388.024,287.409,383l11.22,13.9L324.752,383l-1.172,22.272,9.378-6.531-8.708,31.482-55.483,32.264-57.161-34.161,69.034-43.819Z" transform="translate(-174.518 -262.059)" opacity="0.5" fill="url(#linear-gradient)" style="mix-blend-mode: multiply;isolation: isolate"/>
      <path id="Trazado_163832" data-name="Trazado 163832" d="M268.011,442.583s-1.243-12.373-.573-13.664,5.576-10.331,5.919-11.626,4.225-14.227,3.989-15.99c-.188-1.369-2.642-2.516-4.523,1.441s-3.751,8.231-4.295,7.215.292-16.328.528-18.348c.295-2.473.15-6.647-1.932-7.065s-2.559,4.174-2.894,6.875-1.273,8.193-1.7,8.223.362-13.1-1.128-16.738c-.512-1.257-3.43-1.937-3.826,1.224s-.2,15.971-.525,15.639-.624-12.459-1.192-13.9-1.476-1.581-2.6-.683-1.246,10.674-1.53,12.5.024,5.833-.37,5.959.048-8.995-.222-10.533-1.141-2.559-1.932-1.983-1.637,3.012-2.387,8.451a82.787,82.787,0,0,0,.308,16.234c.573,3.5,4.576,11.634,4.062,13.748s-2.248,12.62-2.122,13.013S268.011,442.583,268.011,442.583Z" transform="translate(-115.829 -263.98)" fill="#db8804"/>
      <path id="Trazado_163833" data-name="Trazado 163833" d="M241.3,443.071s1.669-12.327,1.045-13.635-5.214-10.519-5.511-11.834-3.722-14.356-3.427-16.113c.23-1.364,2.728-2.42,4.464,1.6s3.472,8.357,4.043,7.358.284-16.331.118-18.356c-.209-2.476.078-6.645,2.17-6.993s2.417,4.263,2.65,6.974.994,8.236,1.417,8.279.094-13.1,1.7-16.687c.557-1.241,3.5-1.819,3.786,1.353s-.351,15.966-.019,15.65,1.058-12.435,1.675-13.852,1.53-1.533,2.623-.6.871,10.717,1.088,12.55-.222,5.83.163,5.969.268-8.992.589-10.522,1.235-2.513,2-1.908,1.533,3.062,2.09,8.523a82.706,82.706,0,0,1-.879,16.218c-.694,3.472-4.978,11.462-4.536,13.592s1.811,12.692,1.667,13.083S241.3,443.071,241.3,443.071Z" transform="translate(-137.929 -262.611)" fill="#db8804"/>
      <g id="Grupo_127706" data-name="Grupo 127706" transform="translate(122.765 64.511)">
        <g id="Grupo_127704" data-name="Grupo 127704">
          <path id="Trazado_163834" data-name="Trazado 163834" d="M385.317,402.029v-.838c-3.814-25.352-13.9-31.742-53-46.665l-45.239.61c-38.178,12.935-47.955,21.538-51.335,50.276l-4.224,38.035H388.969Z" transform="translate(-231.516 -240.755)" fill="#1d272b"/>
          <g id="Grupo_127689" data-name="Grupo 127689" transform="translate(53.595 101.274)">
            <path id="Trazado_163835" data-name="Trazado 163835" d="M251.515,350.961l-4.71,16.182,24.049,28.732.086-42.792Z" transform="translate(-246.805 -350.961)" fill="#f8d1b9"/>
            <path id="Trazado_163836" data-name="Trazado 163836" d="M273.517,351.083l4.331,17.216-24.183,28.044.421-43.151Z" transform="translate(-229.616 -350.655)" fill="#f8d1b9"/>
          </g>
          <g id="Grupo_127700" data-name="Grupo 127700" transform="translate(40.359 16.683)">
            <g id="Grupo_127692" data-name="Grupo 127692" transform="translate(0 1.483)">
              <g id="Grupo_127691" data-name="Grupo 127691">
                <g id="Grupo_127690" data-name="Grupo 127690" transform="translate(15.361 83.361)">
                  <path id="Trazado_163838" data-name="Trazado 163838" d="M247.411,351.033a44.97,44.97,0,0,0,2.973,3.586.17.17,0,0,0,.021-.077A45.655,45.655,0,0,1,247.411,351.033Z" transform="translate(-247.411 -351.033)" fill="#fff"/>
                </g>
                <path id="Trazado_163839" data-name="Trazado 163839" d="M318.7,378.223c0-4.273-1.234-6.019-3.355-6.716.508-8.76,1.784-18.036-1.437-24.462-6.1-12.262-22.958-19.792-34.473-19.792-11.039,0-23.238,6.555-29.415,17.955-3.8,7.049-3.754,16.223-3.253,25.692-2.359.627-3.733,2.3-3.733,6.839,0,6.748,3.032,17.4,7.772,18.912.6,1.655,1.276,3.225,2.016,4.771.039.088.1.179.133.252a57.842,57.842,0,0,0,5.441,8.939,45.67,45.67,0,0,0,2.994,3.509.169.169,0,0,1-.021.077c5.728,6.229,12.522,9.847,19.81,9.847,11.151,0,21.114-8.41,27.883-21.709a15.478,15.478,0,0,1,1.753-2.678c.4-.992.785-1.974,1.111-3C316.087,394.082,318.7,384.477,318.7,378.223Z" transform="translate(-243.029 -327.253)" fill="#f8d1b9"/>
              </g>
            </g>
            <g id="Grupo_127699" data-name="Grupo 127699" transform="translate(2.94)">
              <path id="Trazado_163841" data-name="Trazado 163841" d="M299.389,344.207c.687,5.63-9.868,5.388-16.907,4.228s-11.19.224-17.769,2.107c-6.646,1.907-13.153,8.767-14.078,12.2-.568,2.058-.084,11.982-.084,11.982l-5.889-2.766s-1.91-13.763.2-23.035c2.037-8.918,6.4-16.844,23.056-20.448,15.105-3.26,25.713-1.283,26.176,2.461,1.178.242,2.124-.7,3.52-.7,3.52,0,8.848,4.291,11.912,9.223s7.344,13.766,5.23,29.04c-.48,3.986-1.29,5.048-1.29,5.048l-4.922,2.818s2.184-19.259-5.8-24.9C300.213,349.707,299.389,344.207,299.389,344.207Z" transform="translate(-243.868 -326.83)" fill="#1d272b"/>
              <g id="Grupo_127698" data-name="Grupo 127698" transform="translate(50.494 3.204)">
                <g id="Grupo_127697" data-name="Grupo 127697">
                  <g id="Grupo_127695" data-name="Grupo 127695">
                    <path id="Trazado_163842" data-name="Trazado 163842" d="M266.584,348.973c7.975,5.64,5.8,24.885,5.8,24.885l4.915-2.811s.824-1.062,1.29-5.037c2.124-15.273-.81-24.3-3.867-29.239s-9.745-9.027-13.268-9.027a15.644,15.644,0,0,0-3.183.687c1.5,4.971,4.981,12.111,4.953,13.275C263.225,341.706,264.06,347.207,266.584,348.973Z" transform="translate(-258.272 -327.744)" fill="#1d272b"/>
                  </g>
                  <g id="Grupo_127696" data-name="Grupo 127696" transform="translate(4.869 13.962)">
                    <path id="Trazado_163843" data-name="Trazado 163843" d="M259.745,331.727c-.01.347-.046.824-.084,1.311A3.9,3.9,0,0,0,259.745,331.727Z" transform="translate(-259.661 -331.727)" fill="#205f89"/>
                  </g>
                </g>
              </g>
            </g>
          </g>
          <g id="Grupo_127703" data-name="Grupo 127703" transform="translate(43.896)">
            <g id="Grupo_127702" data-name="Grupo 127702">
              <path id="Trazado_163844" data-name="Trazado 163844" d="M313.836,331.385c-.014-2.38-15.389-9.314-34.652-9.314s-35.132,6.934-35.146,9.314h0v30.852a2.7,2.7,0,0,0,.533-.137c0-1.833,15.452-7.046,34.722-7.046,17.272,0,31.753,4.922,34.543,6.485V331.385Z" transform="translate(-244.038 -322.071)" fill="url(#radial-gradient)"/>
            </g>
          </g>
        </g>
        <path id="Trazado_163846" data-name="Trazado 163846" d="M245.079,340.875c15.095,6.173,39.963,9.949,60.894.68.687,19.9-2.233,41-2.233,41s-27.441,18.523-54.2,0C244.823,357.856,245.079,340.875,245.079,340.875Z" transform="translate(-197.541 -274.958)" fill="#1d272b"/>
        <g id="Grupo_127705" data-name="Grupo 127705" transform="translate(78.155 66.654)">
          <path id="Trazado_163847" data-name="Trazado 163847" d="M284.088,341.085a74.27,74.27,0,0,1-30.277,5.973v43.2a55.871,55.871,0,0,0,28.044-8.182S284.775,360.979,284.088,341.085Z" transform="translate(-253.811 -341.085)" fill="#1d272b"/>
        </g>
      </g>
      <g id="Grupo_127707" data-name="Grupo 127707" transform="translate(9.518 0)">
        <path id="Trazado_163848" data-name="Trazado 163848" d="M202.849,337.335a3.659,3.659,0,0,0,4.085,3.181l8.724-1.1a3.659,3.659,0,0,0,3.181-4.091h0a3.662,3.662,0,0,0-4.094-3.172l-8.715,1.095a3.657,3.657,0,0,0-3.181,4.085Z" transform="translate(-202.821 -230.951)" fill="#1d272b"/>
        <path id="Trazado_163849" data-name="Trazado 163849" d="M211.643,375.758c9.555,18.495,30.049,21.006,52.04,11.011s32.408-35.013,20.472-52.058c-10.05-14.347-30.9-20.084-51.561-7.169C211.009,341.033,202.745,358.537,211.643,375.758Z" transform="translate(-192.064 -254.894)" fill="#1d272b"/>
        <path id="Trazado_163850" data-name="Trazado 163850" d="M212.286,370.2c6.032,14.192,26.349,18.452,45.4,9.479s29.615-27.75,23.6-41.951-26.358-18.452-45.4-9.482C216.822,337.214,206.266,355.994,212.286,370.2Z" transform="translate(-187.021 -248.39)" fill="url(#linear-gradient-2)"/>
        <path id="Trazado_163851" data-name="Trazado 163851" d="M220.708,344.655c2.5,3.884,8,4.8,12.312,2.035s5.759-8.151,3.263-12.039-8.009-4.8-12.306-2.035S218.209,340.764,220.708,344.655Z" transform="translate(-168.946 -233.203)" fill="url(#linear-gradient-3)"/>
        <path id="Trazado_163852" data-name="Trazado 163852" d="M215.525,344.318c2.638,2.808,7.687,2.156,11.3-1.462s4.391-8.821,1.759-11.623-7.69-2.156-11.293,1.459S212.893,341.507,215.525,344.318Z" transform="translate(-180.162 -236.311)" fill="url(#linear-gradient-3)"/>
        <path id="Trazado_163853" data-name="Trazado 163853" d="M241.159,332.334c.249,3.842-3.681,7.078-8.791,7.248-5.1.155-9.44-2.829-9.689-6.665s3.681-7.087,8.785-7.241S240.911,328.492,241.159,332.334Z" transform="translate(-162.48 -244.077)" fill="url(#linear-gradient-3)"/>
        <path id="Trazado_163854" data-name="Trazado 163854" d="M214.648,344.055c-.282-3.378,3.126-6.3,7.621-6.526s8.354,2.335,8.636,5.707-3.126,6.3-7.615,6.523S214.93,347.433,214.648,344.055Z" transform="translate(-178.815 -219.997)" fill="url(#linear-gradient-3)"/>
        <path id="Trazado_163855" data-name="Trazado 163855" d="M242.059,332.071c-2.684-2.756-7.724-2.007-11.272,1.671-3.53,3.684-4.221,8.9-1.541,11.66s7.724,2.013,11.266-1.674S244.746,334.837,242.059,332.071Z" transform="translate(-152.43 -234.441)" fill="url(#linear-gradient-3)"/>
        <path id="Trazado_163856" data-name="Trazado 163856" d="M236.7,339.946c-1.607-2.981-6.05-3.563-9.946-1.307-3.878,2.262-5.728,6.514-4.121,9.5s6.053,3.572,9.94,1.307S238.3,342.939,236.7,339.946Z" transform="translate(-163.732 -220.507)" fill="url(#linear-gradient-3)"/>
        <path id="Trazado_163857" data-name="Trazado 163857" d="M210.761,361.8V340.318l45.737-27.81V258.227l-8.94,9.516-1.417,38.711-42.2,33.105.507,23.5Z" transform="translate(-200.548 -258.227)" fill="#1d272b"/>
      </g>
      <g id="Grupo_127712" data-name="Grupo 127712" transform="translate(0 165.163)">
        <g id="Grupo_127710" data-name="Grupo 127710" transform="translate(0.054)">
          <path id="Trazado_163858" data-name="Trazado 163858" d="M199.491,373.332c-.169.276-4.362.9-4.362.9a93.607,93.607,0,0,1-.8-13.364c.265-5.321.664-6.811,1.9-9.4l.635-.924a11.518,11.518,0,0,1,2.17,3.668c1.683,4.343,1.417,9.7,1.053,13.689S199.491,373.332,199.491,373.332Z" transform="translate(-193.366 -349.577)" fill="#1d272b"/>
          <path id="Trazado_163859" data-name="Trazado 163859" d="M194.595,359.828l4.126-.745s-.078.64-.343.833a7.523,7.523,0,0,1-2.4.678,1.984,1.984,0,0,1-1.2-.254C194.611,360.254,194.595,359.828,194.595,359.828Z" transform="translate(-192.845 -335.224)" fill="#fff"/>
          <path id="Trazado_163860" data-name="Trazado 163860" d="M194.583,367.953c.281-.332.563-1.1.41-2.768s-.351-4.549-.351-4.549a3.036,3.036,0,0,0,1.9.241c1.147-.142,1.83-.263,2.677-2.143a47.386,47.386,0,0,0-.568,8.424,5.42,5.42,0,0,1,.2,1.056Z" transform="translate(-192.866 -335.812)" fill="#1d272b"/>
          <path id="Trazado_163861" data-name="Trazado 163861" d="M195.228,351.2l.747-1.023a21.848,21.848,0,0,1,3.03,11.516,101.267,101.267,0,0,1-.756,12.027c-.08.806-.5,6.771-.5,7.288s.139,1.329.509,1.479a.735.735,0,0,1-.812-.08s-.043-4.273.279-7.293.884-12.652.686-14.937a20.357,20.357,0,0,0-1.913-7.328A10.6,10.6,0,0,0,195.228,351.2Z" transform="translate(-191.782 -350.178)" fill="#cde3e8"/>
          <g id="Grupo_127709" data-name="Grupo 127709" transform="translate(0 31.349)">
            <g id="Grupo_127708" data-name="Grupo 127708">
              <path id="Trazado_163862" data-name="Trazado 163862" d="M194.88,362.981c.113-.166.265-.137.721-.271a1.279,1.279,0,0,0,.782-.737,9,9,0,0,1,1.594-.094,18.773,18.773,0,0,0,2.76,1.018c.33.064.737-.086.79.246a129.378,129.378,0,0,1,.458,14.2c-.271,6.1-.965,23.436-1,27.927s.458,11.979.608,14.083.037,2.385-.579,2.88-6.045.5-6.98-.445c-.22-.228.021-2.5.091-4.384a204.905,204.905,0,0,0,.41-30.032s-.547-2.912-.41-10.894C194.245,369.457,194.88,362.981,194.88,362.981Z" transform="translate(-193.94 -361.878)" fill="#1d272b"/>
              <path id="Trazado_163863" data-name="Trazado 163863" d="M201.482,383.506c-.153,1.519-.351,1.768-.8,2.068-.611.415-5.367.5-6.744-.273a1.481,1.481,0,0,0,.091.718c.935.954,6.331.895,6.977.445s.729-.772.579-2.875Z" transform="translate(-193.942 -325.559)" fill="#cde3e8"/>
            </g>
          </g>
        </g>
        <g id="Grupo_127711" data-name="Grupo 127711" transform="translate(0 1.018)">
          <path id="Trazado_163864" data-name="Trazado 163864" d="M196.212,351.48c-1.241,2.591-1.642,4.086-1.905,9.4a93.789,93.789,0,0,0,.8,13.367,2.94,2.94,0,0,0,1.991.388l-.249-24.079Z" transform="translate(-193.347 -350.558)" fill="#cde3e8"/>
          <path id="Trazado_163865" data-name="Trazado 163865" d="M195.581,362.729c-.455.137-.608.1-.721.268,0,0-.638,6.479-.758,13.5-.137,7.982.41,10.894.41,10.894a204.5,204.5,0,0,1-.41,30.035c-.067,1.884-.311,4.156-.088,4.383.5.5,2.264.729,3.9.766V361.9a8.133,8.133,0,0,0-1.557.091A1.266,1.266,0,0,1,195.581,362.729Z" transform="translate(-193.922 -331.51)" fill="#1d272b"/>
        </g>
      </g>
      <g id="Grupo_127713" data-name="Grupo 127713" transform="translate(74.388 168.043)">
        <path id="Trazado_163866" data-name="Trazado 163866" d="M225.525,389.365c-4.638,0-8.4,4.453-8.4,9.946s3.762,9.948,8.4,9.948,8.4-4.453,8.4-9.948S230.165,389.365,225.525,389.365Zm0,17.276c-3.416,0-6.186-3.279-6.186-7.331s2.77-7.328,6.186-7.328,6.192,3.279,6.192,7.328S228.946,406.641,225.525,406.641Z" transform="translate(-217.125 -322.651)" fill="#1d272b"/>
        <path id="Trazado_163867" data-name="Trazado 163867" d="M228.674,439.138l1.768-33.157s1.862-14.6,2.577-17.464c1.179-4.713,6.152-22.214,5.71-23.321s-1.768-.22-2.433,2.213-6.369,20.96-6.369,20.96l-3.245,14.959-2.653,23.428-3.976,5.747,5.305,2.655Z" transform="translate(-212.205 -364.025)" fill="#1d272b"/>
        <path id="Trazado_163868" data-name="Trazado 163868" d="M233.2,389.117c-4.643,0-8.405,4.453-8.405,9.946s3.762,9.948,8.405,9.948,8.4-4.45,8.4-9.948S237.837,389.117,233.2,389.117Zm0,17.276c-3.419,0-6.192-3.28-6.192-7.331s2.773-7.325,6.192-7.325,6.184,3.28,6.184,7.325S236.618,406.393,233.2,406.393Z" transform="translate(-204.241 -323.068)" fill="#1d272b"/>
        <path id="Trazado_163869" data-name="Trazado 163869" d="M228.883,440.46,225.9,412.834l-3.537-2.213,1.988-23.211s5.485-21.641,6.706-22.616c1.1-.884,2.21-.15,1.179,4.274-.571,2.454-4.123,18.715-4.123,18.715l3.976,41.409,5.2,1.324s-4.094,1.988-5.64,4.424A37.726,37.726,0,0,0,228.883,440.46Z" transform="translate(-208.327 -364.465)" fill="#1d272b"/>
        <path id="Trazado_163870" data-name="Trazado 163870" d="M226.616,381.7a1.768,1.768,0,1,1-1.766-1.768A1.77,1.77,0,0,1,226.616,381.7Z" transform="translate(-207.126 -338.49)" fill="#cde3e8"/>
      </g>
      <g id="Grupo_127714" data-name="Grupo 127714" transform="translate(41.739 165.165)">
        <path id="Trazado_163871" data-name="Trazado 163871" d="M227.644,360.92c0-5.935-4.062-10.741-9.075-10.741s-9.07,4.807-9.07,10.741,4.062,10.739,9.07,10.739S227.644,366.852,227.644,360.92Zm-2.387,0c0,4.37-2.993,7.915-6.688,7.915s-6.68-3.545-6.68-7.915,2.99-7.915,6.68-7.915S225.257,356.548,225.257,360.92Z" transform="translate(-209.5 -350.179)" fill="#1d272b"/>
        <path id="Trazado_163872" data-name="Trazado 163872" d="M221.974,354.81l1.91,35.815s1.246,13.632,1.131,16.815c-.335,9.118-.182,25.111-.442,26.375-.332,1.6-1.1,1.227-1.216-1.495-.166-3.982-1.1-23.444-1.1-23.444l-2.427-15.387-2.862-25.3-4.3-6.211,5.734-2.864Z" transform="translate(-204.188 -342.402)" fill="#1d272b"/>
        <path id="Trazado_163873" data-name="Trazado 163873" d="M235.931,361.189c0-5.935-4.062-10.744-9.075-10.744s-9.07,4.809-9.07,10.744,4.062,10.741,9.07,10.741S235.931,367.118,235.931,361.189Zm-2.39,0c0,4.37-2.99,7.915-6.685,7.915s-6.682-3.545-6.682-7.915,3-7.917,6.682-7.917S233.541,356.816,233.541,361.189Z" transform="translate(-195.583 -349.732)" fill="#1d272b"/>
        <path id="Trazado_163874" data-name="Trazado 163874" d="M222.138,354.362,218.915,384.2l-3.818,2.387,2.149,25.065s.991,20.06,1.082,21.745c.169,3.073.967,3.154,1.575-3.234.257-2.706,1.4-18.908,1.4-18.908l4.295-44.729,5.61-1.425s-4.418-2.149-6.087-4.775A40.859,40.859,0,0,1,222.138,354.362Z" transform="translate(-200.101 -343.154)" fill="#1d272b"/>
        <path id="Trazado_163875" data-name="Trazado 163875" d="M219.749,368.872a1.909,1.909,0,1,0-1.908,1.9A1.908,1.908,0,0,0,219.749,368.872Z" transform="translate(-198.7 -322)" fill="url(#linear-gradient-9)"/>
      </g>
      <g id="Grupo_127725" data-name="Grupo 127725" transform="translate(22.866 160.8)">
        <g id="Grupo_127724" data-name="Grupo 127724">
          <g id="Grupo_127723" data-name="Grupo 127723">
            <path id="Trazado_163876" data-name="Trazado 163876" d="M217.337,384.386c0,.9-3.124,1.476-6.982,1.5s-6.982-.52-6.988-1.423,3.127-1.372,6.985-1.4S217.337,383.489,217.337,384.386Z" transform="translate(-200.926 -290.588)" fill="#fff"/>
            <path id="Trazado_163877" data-name="Trazado 163877" d="M217.369,383.555c-.455.817-3.47,1.372-7.006,1.393-3.858.021-7.02-.466-7.02-1.417,0-.011.029,1.216.029,1.216h0c.032.946,3.156,1.506,6.988,1.487s6.95-.616,6.972-1.562l.005,0v-.011l0,0,0,0A9.811,9.811,0,0,0,217.369,383.555Z" transform="translate(-200.966 -289.805)" fill="#1d272b"/>
            <g id="Grupo_127715" data-name="Grupo 127715" transform="translate(5.568 53.82)">
              <path id="Trazado_163878" data-name="Trazado 163878" d="M208.647,408.838l-2.548.021-.013-7.735a20.577,20.577,0,0,1-1.375-5.45c-.123-2.28-.129-2.28-.177-27.037,0,0,2.066.11,3.885.1C208.465,392.778,208.647,408.838,208.647,408.838Z" transform="translate(-204.534 -368.637)" fill="#1d272b"/>
              <path id="Trazado_163879" data-name="Trazado 163879" d="M205.91,368.9l3.66-.075s.289,26,.2,27.511a32.594,32.594,0,0,1-.884,4.3c0,1.147.083,7.893.083,7.893l-2.805.281Z" transform="translate(-202.223 -368.32)" fill="#1d272b"/>
            </g>
            <path id="Trazado_163880" data-name="Trazado 163880" d="M213.717,368.559l-9.426.051c-.07,0-.134.11-.134.247s.064.244.134.244l.4,0-.019.756-.4,0a.145.145,0,0,0-.131.161c0,.1.064.244.139.244h.4l.013.605h-.4a.169.169,0,0,0-.139.18c.005.1.064.182.139.18l9.426-.051c.07,0,.129-.083.129-.177s-.062-.182-.129-.182h-.407l0-.638.41,0c.07,0,.129-.075.129-.174s-.062-.182-.134-.182l-.4.005,0-.777.4,0c.07,0,.137-.11.137-.244S213.787,368.559,213.717,368.559Z" transform="translate(-199.626 -314.948)" fill="#fff"/>
            <path id="Trazado_163881" data-name="Trazado 163881" d="M203.761,407.305l-.07-46.068a.326.326,0,0,1,.327-.332h0l11.226-.062a.33.33,0,0,1,.233.094h0a.326.326,0,0,1,.094.233h0l.113,45.956a.337.337,0,0,1-.145.268h0a4.8,4.8,0,0,1-2.152.549h0a36.115,36.115,0,0,1-3.641.2h0a27.632,27.632,0,0,1-3.815-.166h0a12.444,12.444,0,0,1-1.937-.357h0a.417.417,0,0,1-.134-.078h0a.328.328,0,0,1-.1-.233Zm.656-.255a14.68,14.68,0,0,0,1.594.271h0a26.308,26.308,0,0,0,3.722.161h0a35.239,35.239,0,0,0,3.58-.19h0a6.663,6.663,0,0,0,1.484-.281h0c.1-.037.169-.059.225-.086h0l-.1-45.428-10.573.064.072,45.489Z" transform="translate(-200.382 -327.906)" fill="#1d272b"/>
            <path id="Trazado_163882" data-name="Trazado 163882" d="M203.715,364.2l-.024-.064.021-.091a.622.622,0,0,1,.155-.284h0a1.792,1.792,0,0,1,.731-.38h0c.8-.206,2.106-.388,2.795-.592h0a1.556,1.556,0,0,0,.3-.1h0c.021-.587.07-3.274.07-3.28h0v-.316l3.92-.024v.33s.011,2.494.035,3.22h0l.011,0h0c.08.032.2.07.343.118h0c.287.083.673.177,1.077.263h0a6.519,6.519,0,0,1,2.3.664h0a.455.455,0,0,1,.155.3h0l.013.118v20.451l-.332,0,.332,0v.33l-11.824.072-.083-20.733Zm.734,20.076,10.516-.07.008-20.076-.008-.021a11.51,11.51,0,0,0-1.95-.466h0a5.632,5.632,0,0,1-1.83-.584h0l-.024-.032h0a.282.282,0,0,1-.088-.2h0c-.029-.289-.035-2.3-.04-3.1h0l-2.623.011c-.016.82-.056,2.931-.059,3.084h0a.43.43,0,0,1-.129.287h0a3.626,3.626,0,0,1-1.554.517h0c-.665.131-1.417.26-1.894.383h0a1.6,1.6,0,0,0-.407.179h0l.083,20.087Z" transform="translate(-200.382 -330.883)" fill="#1d272b"/>
            <path id="Trazado_163883" data-name="Trazado 163883" d="M206.559,368.477l-.727.01-.026-19.938.734,1.784Z" transform="translate(-196.831 -348.55)" fill="#fff"/>
            <path id="Trazado_163884" data-name="Trazado 163884" d="M208.324,356.7s-.131-.533-.161-.616l-.171.029-.217.394.008,3.521a.382.382,0,0,1-.742.005l-.011-3.47-.249-.431s-.155-.059-.177-.04a2.932,2.932,0,0,0-.171.675,1.3,1.3,0,0,0-.322.072,19.81,19.81,0,0,0,.121,2.985c.059.407-.378.847-.568,1.246s-.587,4.544-.587,4.649c0,0,.391.011,2.355.051,1.715-.013,2.248-.07,2.248-.07-.011-.112-.308-4.228-.5-4.635s-.678-.881-.622-1.289a18.865,18.865,0,0,0,.086-3A1.065,1.065,0,0,0,208.324,356.7Z" transform="translate(-198.055 -335.897)" fill="#fff"/>
            <path id="Trazado_163885" data-name="Trazado 163885" d="M205.691,356.4c-.005-.255.295-.477.656-.477s.67.212.67.464c0,0-.34.027-.7.024S205.691,356.4,205.691,356.4Z" transform="translate(-197.023 -336.173)" fill="#fff"/>
            <path id="Trazado_163886" data-name="Trazado 163886" d="M210.381,359.791c0,.1-.1.182-.241.188l-5,.03a.22.22,0,0,1-.241-.19h0c0-.1.11-.188.241-.188l5-.029a.222.222,0,0,1,.241.19Z" transform="translate(-198.358 -329.991)" fill="#fff"/>
            <g id="Grupo_127716" data-name="Grupo 127716" transform="translate(5.407 35.609)">
              <path id="Trazado_163887" data-name="Trazado 163887" d="M204.573,362.02c-.054,0-.1-.03-.1-.072h0c0-.046.046-.075.1-.075h0l5.935-.032c.054,0,.1.032.1.07h0a.091.091,0,0,1-.1.08h0l-5.929.03Z" transform="translate(-204.474 -361.84)" fill="#fff" opacity="0.92"/>
              <path id="Trazado_163888" data-name="Trazado 163888" d="M204.58,364.974c-.056,0-.1-.035-.1-.075h0a.09.09,0,0,1,.1-.078h0l5.935-.032a.084.084,0,0,1,.091.075h0c.005.046-.04.075-.091.075h0l-5.932.035Z" transform="translate(-204.462 -356.888)" fill="#fff" opacity="0.92"/>
              <path id="Trazado_163889" data-name="Trazado 163889" d="M204.583,367.99a.083.083,0,0,1-.1-.072h0a.083.083,0,0,1,.1-.075h0l5.935-.038a.087.087,0,0,1,.091.075h0c0,.046-.04.075-.091.078h0l-5.935.032Z" transform="translate(-204.452 -351.823)" fill="#fff" opacity="0.92"/>
              <path id="Trazado_163890" data-name="Trazado 163890" d="M204.576,362.566a.1.1,0,0,1-.1-.072h0a.1.1,0,0,1,.1-.078h0l2.679-.016a.088.088,0,0,1,.094.075h0a.089.089,0,0,1-.094.075h0l-2.682.016Z" transform="translate(-204.474 -360.9)" fill="#fff" opacity="0.92"/>
              <path id="Trazado_163891" data-name="Trazado 163891" d="M204.573,363.17c-.056,0-.1-.035-.1-.075h0a.088.088,0,0,1,.1-.078h0l2.679-.016c.051.005.1.035.094.081h0c0,.04-.04.069-.094.075h0l-2.679.013Z" transform="translate(-204.469 -359.89)" fill="#fff" opacity="0.92"/>
              <path id="Trazado_163892" data-name="Trazado 163892" d="M204.574,363.772c-.056,0-.094-.035-.094-.072h0c-.005-.046.038-.08.094-.08h0l2.677-.019c.051.005.1.038.1.083h0c0,.04-.046.072-.1.072h0l-2.677.016Z" transform="translate(-204.464 -358.883)" fill="#fff" opacity="0.92"/>
              <path id="Trazado_163893" data-name="Trazado 163893" d="M204.576,364.37c-.059,0-.1-.029-.1-.075h0a.089.089,0,0,1,.1-.075h0l2.679-.016a.089.089,0,0,1,.091.075h0c0,.04-.035.075-.1.078h0l-2.674.013Z" transform="translate(-204.464 -357.87)" fill="#fff" opacity="0.92"/>
              <path id="Trazado_163894" data-name="Trazado 163894" d="M204.579,365.577a.089.089,0,0,1-.1-.08h0c0-.038.043-.072.1-.072h0l2.679-.019a.088.088,0,0,1,.094.078h0a.084.084,0,0,1-.094.075h0l-2.679.019Z" transform="translate(-204.461 -355.852)" fill="#fff" opacity="0.92"/>
              <path id="Trazado_163895" data-name="Trazado 163895" d="M204.579,366.173c-.054,0-.094-.03-.1-.075h0c0-.04.043-.072.1-.072h0l2.677-.016c.056,0,.1.035.094.078h0c.005.037-.035.072-.091.072h0l-2.679.013Z" transform="translate(-204.459 -354.839)" fill="#fff" opacity="0.92"/>
              <path id="Trazado_163896" data-name="Trazado 163896" d="M204.576,366.773c-.051,0-.091-.029-.091-.07h0a.087.087,0,0,1,.091-.083h0l2.685-.011a.082.082,0,0,1,.091.078h0c0,.04-.04.072-.094.072h0l-2.682.013Z" transform="translate(-204.456 -353.83)" fill="#fff" opacity="0.92"/>
              <path id="Trazado_163897" data-name="Trazado 163897" d="M204.581,367.379a.087.087,0,0,1-.1-.075h0a.09.09,0,0,1,.1-.075h0l2.679-.019c.054,0,.1.035.094.078h0a.082.082,0,0,1-.088.075h0l-2.685.016Z" transform="translate(-204.456 -352.822)" fill="#fff" opacity="0.92"/>
            </g>
            <g id="Grupo_127718" data-name="Grupo 127718" transform="translate(12.654 35.14)">
              <g id="Grupo_127717" data-name="Grupo 127717">
                <path id="Trazado_163898" data-name="Trazado 163898" d="M207.5,362.726l0-.766-.177.2-.145-.083.362-.407h.147l.005,1.058Z" transform="translate(-207.179 -361.665)" fill="#fff"/>
              </g>
            </g>
            <g id="Grupo_127720" data-name="Grupo 127720" transform="translate(12.467 43.073)">
              <g id="Grupo_127719" data-name="Grupo 127719">
                <path id="Trazado_163899" data-name="Trazado 163899" d="M207.12,364.972a.425.425,0,0,1,.466-.346c.506-.005.643.429.284.632-.19.126-.241.153-.429.281l.608,0v.145l-.935.005-.005-.112.63-.429v0c.212-.121.158-.367-.153-.367a.248.248,0,0,0-.273.2Z" transform="translate(-207.109 -364.626)" fill="#fff"/>
              </g>
            </g>
            <g id="Grupo_127722" data-name="Grupo 127722" transform="translate(12.486 51.004)">
              <g id="Grupo_127721" data-name="Grupo 127721">
                <path id="Trazado_163900" data-name="Trazado 163900" d="M207.43,368.044l.2,0a.166.166,0,0,0,.185-.158c0-.107-.129-.153-.255-.15a.228.228,0,0,0-.23.129l-.174-.035a.394.394,0,0,1,.4-.241c.214,0,.445.091.447.3a.237.237,0,0,1-.123.22.252.252,0,0,1,.169.246c0,.155-.158.305-.477.308-.287,0-.421-.129-.458-.271l.182-.03c.016.083.1.161.273.158.212,0,.313-.094.3-.185-.008-.059-.064-.145-.238-.145l-.2,0Z" transform="translate(-207.116 -367.586)" fill="#fff"/>
              </g>
            </g>
            <path id="Trazado_163901" data-name="Trazado 163901" d="M202.456,378.835c0,.571,4.174,1.01,9.321.986s9.308-.523,9.308-1.093-4.172-1.015-9.321-.989S202.456,378.259,202.456,378.835Zm4.472-.134c0-.265,2.17-.493,4.844-.5s4.842.188,4.842.45-2.168.49-4.842.506S206.928,378.966,206.928,378.7Z" transform="translate(-202.456 -299.534)" fill="#fff"/>
            <path id="Trazado_163902" data-name="Trazado 163902" d="M211.777,379.188c-5.139.027-9.313-.415-9.319-.989l.005.97h0v.005h0c.04.576,4.193,1.013,9.313.983s9.268-.512,9.308-1.088h0l-.011-.94C220.914,378.693,216.825,379.162,211.777,379.188Zm-9.319-.7,0,.011.008-.011Zm0,.011Z" transform="translate(-202.456 -298.875)" fill="#cde3e8"/>
          </g>
        </g>
        <rect id="Rectángulo_35061" data-name="Rectángulo 35061" width="3.781" height="2.638" transform="translate(5.619 76.73)" fill="#cde3e8"/>
      </g>
      <g id="Grupo_127728" data-name="Grupo 127728" transform="translate(165.174 115.465)">
        <g id="Grupo_91930" data-name="Grupo 91930" transform="translate(0 5.494)">
          <path id="Trazado_151017" data-name="Trazado 151017" d="M1619.133,1573.015c-.991,0-1.254.78-1.254,1.771v2.714c0,.991.263,1.375,1.254,1.375h2.848v-5.86Z" transform="translate(-1617.879 -1573.015)" fill="#008f85"/>
          <path id="Trazado_151018" data-name="Trazado 151018" d="M2051.044,1573.015a1.784,1.784,0,0,1,1.806,1.771v2.714c0,.991-.815,1.375-1.806,1.375h-2.882v-5.86Z" transform="translate(-1978.428 -1573.015)" fill="#008f85"/>
        </g>
        <g id="Grupo_91933" data-name="Grupo 91933" transform="translate(3.516)">
          <g id="Grupo_91931" data-name="Grupo 91931" transform="translate(0.586 0.703)">
            <path id="Trazado_151019" data-name="Trazado 151019" d="M1709.409,1546.532v8.308a9.909,9.909,0,0,1-8.819,9.772l-7.8.876a12.355,12.355,0,0,1-10.655-3.831l-4.357-4.622h-2.8l-4.35,4.622a12.411,12.411,0,0,1-10.648,3.933l-7.92-.927a10,10,0,0,1-8.865-9.822v-8.308a3.3,3.3,0,0,1,3.411-3.075l29.741,1.261,29.724-1.261a3.188,3.188,0,0,1,2.326.847A3.145,3.145,0,0,1,1709.409,1546.532Z" transform="translate(-1643.19 -1543.454)" fill="url(#linear-gradient-3)"/>
            <path id="Trazado_151020" data-name="Trazado 151020" d="M1705.423,1580.359a9.805,9.805,0,0,1-4.861,1.947l-7.79.876a12.339,12.339,0,0,1-10.647-3.831l-4.35-4.622h-2.8l-4.35,4.622a12.412,12.412,0,0,1-10.648,3.933l-7.92-.927a10,10,0,0,1-8.865-9.823v-7.965c2.93,2.088,7.471,3.874,14.371,4.147C1674.492,1569.382,1697.283,1561.67,1705.423,1580.359Z" transform="translate(-1643.19 -1561.148)" fill="#fff" opacity="0.5" style="mix-blend-mode: soft-light;isolation: isolate"/>
          </g>
          <g id="Grupo_91932" data-name="Grupo 91932">
            <path id="Trazado_151021" data-name="Trazado 151021" d="M1688.929,1562.813a12.721,12.721,0,0,1-9.651-4.087l-4.129-4.153h-2.215l-4.235,4.177a12.62,12.62,0,0,1-9.569,3.941,15.678,15.678,0,0,1-1.737-.12l-8.039-.885a10.915,10.915,0,0,1-9.78-10.476V1542.9a4.077,4.077,0,0,1,1.567-2.73,4.647,4.647,0,0,1,3.143-1.048l29.685,1.264,29.732-1.267a3.251,3.251,0,0,1,3.264,3.751v8.342a10.278,10.278,0,0,1-9,10.552l-7.43.961A14.337,14.337,0,0,1,1688.929,1562.813Zm-16.578-9.412h3.389l4.56,4.482a11.342,11.342,0,0,0,8.629,3.631,13.078,13.078,0,0,0,1.434-.131l7.544-.986a9.019,9.019,0,0,0,7.885-9.187V1542.9a2.223,2.223,0,0,0-.5-1.718,2.129,2.129,0,0,0-1.529-.662l-.129,0L1674,1541.785l-29.838-1.266a2.878,2.878,0,0,0-1.871.661c-.878.841-.96,1.4-.96,1.719v8.311a9.324,9.324,0,0,0,8.356,9.073l7.913.874a13.756,13.756,0,0,0,1.556.09,11.116,11.116,0,0,0,8.539-3.344Z" transform="translate(-1639.574 -1539.118)" fill="#008f85"/>
          </g>
        </g>
      </g>
    </g>
    <g id="Grupo_127750" data-name="Grupo 127750" transform="translate(480.508 634.644)">
      <path id="Trazado_163505" data-name="Trazado 163505" d="M417.272,409.054l.009,6.278.008,6.278-16.626.023-.006-4.109a2.476,2.476,0,0,0-2.7-2.166l-16.589.024a2.474,2.474,0,0,0-2.692,2.172l.006,4.11-16.627.023-.009-6.278-.008-6.278Z" transform="translate(-356.66 -328.905)" fill="#38474f"/>
      <path id="Trazado_163506" data-name="Trazado 163506" d="M362.883,412.647a26.056,26.056,0,0,1,5.013-.174l5.272-.046c3.462-.028,6.923-.026,10.385-.027l20.611,0c1.917,0,3.835.012,5.752.022a17.591,17.591,0,0,1,5.694.6.385.385,0,0,1,0,.743,15.554,15.554,0,0,1-4.893.608c-1.757.034-3.516.032-5.272.041-3.462.016-6.924.018-10.386.026-6.87.017-13.741.077-20.611.038l-5.752-.034-2.876-.018a14.842,14.842,0,0,1-2.936-.146A.841.841,0,0,1,362.883,412.647Z" transform="translate(-356.727 -329.94)" fill="#263238"/>
      <path id="Trazado_163507" data-name="Trazado 163507" d="M400.632,366.438l-.008-5.59a14.763,14.763,0,0,0-.326-3.066l-3.35-15.694a5,5,0,0,0-4.9-3.958l-6.142.008-.011-8.208,8.454-.012,5.93-.008a6.149,6.149,0,0,1,5.676,3.762l9.59,22.761a15.318,15.318,0,0,1,1.2,5.928l.018,13.249.009,6.113-16.123.022-37.339.052,0-3.511a2.6,2.6,0,0,1,2.6-2.607l25.542-.035A9.2,9.2,0,0,0,400.632,366.438Z" transform="translate(-357.053 -304.408)" fill="#dbdbdb"/>
      <rect id="Rectángulo_34994" data-name="Rectángulo 34994" width="65.98" height="6.278" rx="3.139" transform="translate(65.988 82.774) rotate(179.921)" fill="#38474f"/>
      <g id="Grupo_127554" data-name="Grupo 127554" transform="translate(12.988 0)">
        <rect id="Rectángulo_34995" data-name="Rectángulo 34995" width="6.313" height="10.75" transform="translate(15.903 10.75) rotate(179.921)" fill="#868695"/>
        <rect id="Rectángulo_34996" data-name="Rectángulo 34996" width="9.05" height="50.636" transform="translate(17.332 54.251) rotate(179.921)" fill="#263238"/>
        <rect id="Rectángulo_34997" data-name="Rectángulo 34997" width="16.74" height="40.361" transform="translate(21.173 51.104) rotate(179.921)" fill="#ebebeb"/>
        <g id="Grupo_127552" data-name="Grupo 127552" transform="translate(6.147 14.297)">
          <rect id="Rectángulo_34998" data-name="Rectángulo 34998" width="3.449" height="4.196" transform="matrix(-1, 0.001, -0.001, -1, 3.491, 30.488)" fill="#fff"/>
          <rect id="Rectángulo_34999" data-name="Rectángulo 34999" width="3.449" height="24.259" transform="translate(3.482 24.259) rotate(179.921)" fill="#fff"/>
        </g>
        <rect id="Rectángulo_35000" data-name="Rectángulo 35000" width="4.823" height="8.279" transform="translate(15.242 71.246) rotate(179.921)" fill="#263238"/>
        <g id="Grupo_127553" data-name="Grupo 127553" transform="translate(13.919 17.346)">
          <path id="Trazado_163508" data-name="Trazado 163508" d="M393.219,325.305a7.2,7.2,0,1,0,7.189-7.209A7.2,7.2,0,0,0,393.219,325.305Z" transform="translate(-393.219 -318.097)" fill="#868695"/>
          <path id="Trazado_163509" data-name="Trazado 163509" d="M397.222,326.54a4.435,4.435,0,1,0,4.429-4.441A4.435,4.435,0,0,0,397.222,326.54Z" transform="translate(-394.458 -319.336)" fill="#868695" stroke="#263238" stroke-miterlimit="10" stroke-width="1"/>
        </g>
        <rect id="Rectángulo_35001" data-name="Rectángulo 35001" width="25.635" height="3.772" rx="1.886" transform="matrix(-1, 0.001, -0.001, -1, 25.641, 65.719)" fill="#38474f"/>
      </g>
    </g>
    <g id="Grupo_127751" data-name="Grupo 127751" transform="translate(343.836 670.545)">
      <path id="Trazado_163547" data-name="Trazado 163547" d="M58.852,391.281l.07,50.4,105.93-.147-.07-50.4Zm74.311,41.154-63.613.088-.044-32.111,63.613-.088Z" transform="translate(-58.852 -375.284)" fill="#dbdbdb"/>
      <rect id="Rectángulo_35002" data-name="Rectángulo 35002" width="15.186" height="32.111" transform="translate(10.654 25.128) rotate(-0.079)" fill="#dbdbdb"/>
      <path id="Trazado_163548" data-name="Trazado 163548" d="M87.47,379.606l-11.039.015a3.167,3.167,0,1,0,.008,6.335h.39l.067,48.488a5.129,5.129,0,1,0,10.258-.015l-.067-48.488h.39a3.167,3.167,0,0,0-.008-6.335Z" transform="translate(-53.519 -379.548)" fill="#fff"/>
      <path id="Trazado_163549" data-name="Trazado 163549" d="M102.764,379.585l-11.039.015a3.167,3.167,0,1,0,.008,6.335h.39l.067,48.488a5.129,5.129,0,1,0,10.258-.015l-.066-48.488h.389a3.167,3.167,0,0,0-.008-6.335Z" transform="translate(-47.861 -379.556)" fill="#fff"/>
      <path id="Trazado_163550" data-name="Trazado 163550" d="M118.058,379.564l-11.039.015a3.167,3.167,0,0,0,.008,6.335h.39l.067,48.487a5.129,5.129,0,1,0,10.258-.015l-.066-48.488h.389a3.167,3.167,0,1,0-.008-6.335Z" transform="translate(-42.203 -379.564)" fill="#fff"/>
      <g id="Grupo_127567" data-name="Grupo 127567" transform="translate(19.749)">
        <g id="Grupo_127564" data-name="Grupo 127564" transform="translate(0 0.058)">
          <path id="Trazado_163551" data-name="Trazado 163551" d="M86.127,387.8l.06,43.6a5.124,5.124,0,1,1-10.249.014l-.06-43.6Z" transform="translate(-72.302 -376.574)" fill="#008f85"/>
          <path id="Trazado_163552" data-name="Trazado 163552" d="M87.47,379.606l-11.039.015a3.167,3.167,0,1,0,.008,6.335h.39l.067,48.488a5.129,5.129,0,1,0,10.258-.015l-.067-48.488h.39a3.167,3.167,0,0,0-.008-6.335Z" transform="translate(-73.268 -379.606)" fill="none" stroke="#ebebeb" stroke-linecap="round" stroke-linejoin="round" stroke-width="1"/>
        </g>
        <g id="Grupo_127565" data-name="Grupo 127565" transform="translate(20.952 0.029)">
          <path id="Trazado_163553" data-name="Trazado 163553" d="M101.447,406.186l.025,18.386a5.124,5.124,0,1,1-10.249.014L91.2,406.2Z" transform="translate(-87.587 -369.744)" fill="#d93328"/>
          <path id="Trazado_163554" data-name="Trazado 163554" d="M102.764,379.585l-11.039.015a3.167,3.167,0,1,0,.008,6.335h.39l.067,48.488a5.129,5.129,0,1,0,10.258-.015l-.066-48.488h.389a3.167,3.167,0,0,0-.008-6.335Z" transform="translate(-88.562 -379.585)" fill="none" stroke="#ebebeb" stroke-linecap="round" stroke-linejoin="round" stroke-width="1"/>
        </g>
        <g id="Grupo_127566" data-name="Grupo 127566" transform="translate(41.904)">
          <path id="Trazado_163555" data-name="Trazado 163555" d="M116.726,395.462l.045,33.048a5.124,5.124,0,1,1-10.249.014l-.045-33.048Z" transform="translate(-102.886 -373.683)" fill="#db8804"/>
          <path id="Trazado_163556" data-name="Trazado 163556" d="M118.058,379.564l-11.039.015a3.167,3.167,0,0,0,.008,6.335h.39l.067,48.487a5.129,5.129,0,1,0,10.258-.015l-.066-48.488h.389a3.167,3.167,0,1,0-.008-6.335Z" transform="translate(-103.856 -379.564)" fill="none" stroke="#ebebeb" stroke-linecap="round" stroke-linejoin="round" stroke-width="1"/>
        </g>
      </g>
      <path id="Trazado_163557" data-name="Trazado 163557" d="M58.852,391.273l.07,50.4,84.9-.116-.07-50.4Zm74.311,41.154-63.613.088L69.506,400.4l63.613-.088Z" transform="translate(-58.852 -375.276)" fill="#ebebeb"/>
    </g>
  </g>
</svg>
