<svg xmlns="http://www.w3.org/2000/svg" xmlns:xlink="http://www.w3.org/1999/xlink" width="1328" height="1370" viewBox="0 0 1328 1370">
  <defs>
    <clipPath id="clip-path">
      <rect id="Rectángulo_35499" data-name="Rectángulo 35499" width="1328" height="1370" transform="translate(116 3314)" fill="#b0c0d2" stroke="#707070" stroke-width="1"/>
    </clipPath>
  </defs>
  <g id="Enmascarar_grupo_185" data-name="Enmascarar grupo 185" transform="translate(-116 -3314)" opacity="0.554" clip-path="url(#clip-path)">
    <path id="Trazado_165368" data-name="Trazado 165368" d="M1877.447,349.371c-41.313,82.769-118.231,137.15-204.268,162.846-102,30.465-200.157,14.216-302.5-1.954-94.363-14.911-199.313-19.064-278.931,44.107C968.164,652.424,956.361,842.389,843.2,952.309c-55.984,54.379-132.214,86.067-209.155,86.937-85.066.966-192.713-37.173-236.217-118.024-42.246-78.507.566-156.682-14.434-237.05C354.059,526.986,143.341,536.328,41.528,458.307-7.118,421.025-39.855,365.4-62.284,307.375c-24.892-64.406-38.449-136.154-21.6-203.266C-55.972-7.064,48.867-48.676,150.967-52.672c75.869-2.969,151.294,17.146,220.968,48.221C433.557,23.032,491.518,59.09,554.542,82.962,710.184,141.91,863.5,66.686,997.791-14.195c172.386-103.829,350.425-203.921,556.532-168.2C1711.815-155.1,1875.26-55.3,1906.17,118.187c13.077,73.391,7.013,151.222-23.042,219.113Q1880.411,343.433,1877.447,349.371Z" transform="translate(-393.611 3534.751)" fill="#b0c0d2" opacity="0.118"/>
  </g>
</svg>
