<svg xmlns="http://www.w3.org/2000/svg" xmlns:xlink="http://www.w3.org/1999/xlink" width="101.975" height="101.975" viewBox="0 0 101.975 101.975">
  <defs>
    <radialGradient id="radial-gradient" cx="0.076" cy="0.019" r="1.465" gradientTransform="translate(0.001)" gradientUnits="objectBoundingBox">
      <stop offset="0" stop-color="#f6f6f7"/>
      <stop offset="0.477" stop-color="#f9f9fa"/>
      <stop offset="0.715" stop-color="#fff"/>
    </radialGradient>
  </defs>
  <g id="Grupo_129337" data-name="Grupo 129337" transform="translate(-247.965 -1668.836)">
    <g id="Grupo_117559" data-name="Grupo 117559" transform="translate(247.965 1668.836)">
      <g id="Grupo_18423" data-name="Grupo 18423" transform="translate(0 0)">
        <g id="Grupo_18421" data-name="Grupo 18421">
          <g id="Grupo_18420" data-name="Grupo 18420">
            <g id="Grupo_18419" data-name="Grupo 18419">
              <path id="Trazado_40936" data-name="Trazado 40936" d="M296.6,2196.707a50.987,50.987,0,1,1-50.987-50.986A50.986,50.986,0,0,1,296.6,2196.707Z" transform="translate(-194.623 -2145.721)" fill="#fff"/>
            </g>
          </g>
        </g>
        <path id="Trazado_40937" data-name="Trazado 40937" d="M296.149,2196.218a50.986,50.986,0,1,0-50.987,50.988A50.787,50.787,0,0,0,296.149,2196.218Z" transform="translate(-194.174 -2145.232)" fill="url(#radial-gradient)"/>
        <path id="Trazado_40938" data-name="Trazado 40938" d="M280.132,2192.289a38.918,38.918,0,1,0-38.918,38.918A38.772,38.772,0,0,0,280.132,2192.289Z" transform="translate(-190.071 -2141.133)" fill="none" stroke="#1d272b" stroke-miterlimit="10" stroke-width="4"/>
        <g id="Grupo_18422" data-name="Grupo 18422" transform="translate(9.033 28.626)">
          <path id="Trazado_40939" data-name="Trazado 40939" d="M288.331,2164.488a50.994,50.994,0,0,1-87.786,50.776,50.832,50.832,0,0,0,87.786-50.776Z" transform="translate(-200.545 -2164.488)" fill="#eceef0"/>
        </g>
      </g>
    </g>
    <path id="Trazado_166442" data-name="Trazado 166442" d="M7.868-17.137h3.083a4.344,4.344,0,0,0,3.263-1.1,4.035,4.035,0,0,0,1.061-2.923A3.568,3.568,0,0,0,14.224-23.9a4.073,4.073,0,0,0-2.893-.981,4.269,4.269,0,0,0-2.783.911A2.913,2.913,0,0,0,7.427-21.6H1.642A7.115,7.115,0,0,1,2.873-25.7a8.2,8.2,0,0,1,3.443-2.833,11.492,11.492,0,0,1,4.875-1.021,10.9,10.9,0,0,1,7.247,2.212,7.548,7.548,0,0,1,2.623,6.1,6.133,6.133,0,0,1-1.221,3.684,7.934,7.934,0,0,1-3.2,2.583,7.242,7.242,0,0,1,3.674,2.643,7.168,7.168,0,0,1,1.211,4.164,7.673,7.673,0,0,1-2.833,6.226A11.39,11.39,0,0,1,11.191.4,10.8,10.8,0,0,1,4.054-1.9,7.519,7.519,0,0,1,1.281-7.988H7.067A3.352,3.352,0,0,0,8.3-5.305a4.537,4.537,0,0,0,3.033,1.041,4.558,4.558,0,0,0,3.233-1.091,3.766,3.766,0,0,0,1.171-2.893q0-4.364-4.8-4.364H7.868Z" transform="translate(287.9 1735.436)" fill="#008f85"/>
  </g>
</svg>
