<svg xmlns="http://www.w3.org/2000/svg" xmlns:xlink="http://www.w3.org/1999/xlink" width="101.975" height="101.975" viewBox="0 0 101.975 101.975">
  <defs>
    <radialGradient id="radial-gradient" cx="0.076" cy="0.019" r="1.465" gradientTransform="translate(0.001)" gradientUnits="objectBoundingBox">
      <stop offset="0" stop-color="#f6f6f7"/>
      <stop offset="0.477" stop-color="#f9f9fa"/>
      <stop offset="0.715" stop-color="#fff"/>
    </radialGradient>
  </defs>
  <g id="Grupo_129340" data-name="Grupo 129340" transform="translate(-1250.061 -2292.94)">
    <g id="Grupo_129305" data-name="Grupo 129305" transform="translate(1250.061 2292.94)">
      <g id="Grupo_18423" data-name="Grupo 18423" transform="translate(0 0)">
        <g id="Grupo_18421" data-name="Grupo 18421">
          <g id="Grupo_18420" data-name="Grupo 18420">
            <g id="Grupo_18419" data-name="Grupo 18419">
              <path id="Trazado_40936" data-name="Trazado 40936" d="M296.6,2196.707a50.987,50.987,0,1,1-50.987-50.986A50.986,50.986,0,0,1,296.6,2196.707Z" transform="translate(-194.623 -2145.721)" fill="#fff"/>
            </g>
          </g>
        </g>
        <path id="Trazado_40937" data-name="Trazado 40937" d="M296.149,2196.218a50.986,50.986,0,1,0-50.987,50.988A50.787,50.787,0,0,0,296.149,2196.218Z" transform="translate(-194.174 -2145.232)" fill="url(#radial-gradient)"/>
        <path id="Trazado_40938" data-name="Trazado 40938" d="M280.132,2192.289a38.918,38.918,0,1,0-38.918,38.918A38.772,38.772,0,0,0,280.132,2192.289Z" transform="translate(-190.071 -2141.133)" fill="none" stroke="#1d272b" stroke-miterlimit="10" stroke-width="4"/>
        <g id="Grupo_18422" data-name="Grupo 18422" transform="translate(9.033 28.626)">
          <path id="Trazado_40939" data-name="Trazado 40939" d="M288.331,2164.488a50.994,50.994,0,0,1-87.786,50.776,50.832,50.832,0,0,0,87.786-50.776Z" transform="translate(-200.545 -2164.488)" fill="#eceef0"/>
        </g>
      </g>
    </g>
    <path id="Trazado_166445" data-name="Trazado 166445" d="M17.677-29.449v4.765h-.561A9.829,9.829,0,0,0,10.8-22.642a8.3,8.3,0,0,0-2.873,5.505A7.88,7.88,0,0,1,13.793-19.5a7.425,7.425,0,0,1,6.046,2.723,10.914,10.914,0,0,1,2.242,7.167A10.736,10.736,0,0,1,20.85-4.464,8.83,8.83,0,0,1,17.367-.881,10.12,10.12,0,0,1,12.272.4,9.452,9.452,0,0,1,4.835-2.8,12.433,12.433,0,0,1,2-11.351v-2.082a18.711,18.711,0,0,1,1.792-8.378,13.138,13.138,0,0,1,5.145-5.625,15.077,15.077,0,0,1,7.778-2.012ZM12.032-14.834a4.623,4.623,0,0,0-2.542.729,4.394,4.394,0,0,0-1.682,1.928v1.758A7.79,7.79,0,0,0,8.949-5.893a3.687,3.687,0,0,0,3.2,1.628,3.647,3.647,0,0,0,3.013-1.469,5.99,5.99,0,0,0,1.151-3.807,5.978,5.978,0,0,0-1.161-3.837A3.784,3.784,0,0,0,12.032-14.834Z" transform="translate(1287.9 2359.563)" fill="#008f85"/>
  </g>
</svg>
