<svg xmlns="http://www.w3.org/2000/svg" width="101.158" height="112.042" viewBox="0 0 101.158 112.042">
  <g id="Grupo_129341" data-name="Grupo 129341" transform="translate(-368.842 -1264)">
    <path id="Trazado_164082" data-name="Trazado 164082" d="M644.054,109.366c.692.191,1.391.358,2.074.577a4.483,4.483,0,0,1,3.327,3.929c.121,1.084.638,1.243,1.491,1.4,3.785.7,7.561,1.457,11.341,2.183a3.235,3.235,0,0,1,2.265,1.679q13.021,21.541,26.1,43.048c1.224,2.017.877,2.954-1.3,3.778-8.364,3.166-13.293,9.247-15.02,17.949a24.789,24.789,0,0,0-.293,4.571c-.038,4.011,0,8.022-.015,12.033-.023,8.452-3.764,14.714-11.187,18.722a18.066,18.066,0,0,1-8.38,2.14c-1.688.027-2.323-.585-2.324-2.273q-.013-19.855-.008-39.709,0-5.032,0-10.064c0-.278-.027-.556-.045-.911-1.438.745-2.8,1.4-4.1,2.168-.257.152-.351.743-.357,1.133q-.168,11.429-.292,22.86c-.018,1.458-.045,2.917-.052,4.375a2.263,2.263,0,0,1-1.446,2.227,11.648,11.648,0,0,1-9.524.274,2.909,2.909,0,0,1-2.072-3.049c-.047-8.277-.224-16.552-.231-24.829,0-1.938-.148-3.452-2.382-3.994a9.449,9.449,0,0,1-2.2-1.293c0,.7,0,1.2,0,1.694,0,16.117-.029,32.234.037,48.35.013,3.213-1.3,3.194-3.352,3.005a20.141,20.141,0,0,1-17.971-15.418,21.938,21.938,0,0,1-.585-4.861c-.079-4.52-.009-9.043-.037-13.564a22.974,22.974,0,0,0-15.316-21.535c-2.192-.778-2.523-1.765-1.3-3.779Q603.87,140.8,616.82,119.411a3.745,3.745,0,0,1,2.649-2.014c3.715-.681,7.415-1.444,11.13-2.121.868-.158,1.373-.333,1.485-1.409.239-2.309,2.056-3.886,4.589-4.283a7.753,7.753,0,0,0,.817-.217Zm-10.21,57.352c1.207-1.254,2.191-1.491,2.96-.6a3.158,3.158,0,0,1,.652,1.872q.273,14.545.429,29.092c.009.935.318,1.4,1.158,1.441,1.187.055,2.382.021,3.57-.037.783-.038,1.028-.49,1.037-1.306.086-7.547.229-15.093.346-22.64.036-2.3.034-4.594.074-6.891a1.881,1.881,0,0,1,1.307-1.939,1.729,1.729,0,0,1,2.012.707,2.408,2.408,0,0,0,.315.27,15.382,15.382,0,0,0,6.676-6.3,19.5,19.5,0,0,0,2.227-6.795c.49-3.037,1-6.071,1.52-9.241l-9.05,1.551c.333.563.637,1.014.877,1.5a1.78,1.78,0,0,1-3.007,1.9c-.853-1.224-1.679-2.471-2.433-3.758a1.756,1.756,0,0,1,1.183-2.708c.352-.089.712-.148,1.07-.209q5.375-.921,10.752-1.833c.6-.1,1.1-.224,1.155-1,.082-1.223.236-2.442.366-3.724H622.489c.115,1,.241,1.932.325,2.865.153,1.7.148,1.671,1.766,1.944,3.728.628,7.455,1.264,11.173,1.952a1.735,1.735,0,0,1,1.271,2.727c-.753,1.287-1.585,2.53-2.438,3.754a1.774,1.774,0,0,1-2.33.533,1.737,1.737,0,0,1-.7-2.354c.242-.519.561-1,.9-1.593l-8.877-1.518a1.557,1.557,0,0,0-.063.39c.515,3.232.985,6.473,1.568,9.693C626.067,159.895,628.8,164.105,633.844,166.718Zm26.784-45.844a1.316,1.316,0,0,0-.318-.174c-3.82-.7-7.64-1.412-11.468-2.069-.222-.038-.666.3-.754.553-.514,1.461-1.017,2.932-1.393,4.432-.281,1.123-.326,2.3-.547,3.444a1.8,1.8,0,0,1-2.172,1.619,1.854,1.854,0,0,1-1.415-2.239c.495-3.6.98-7.2,2.987-10.374,1.216-1.921-.146-2.912-1.749-2.958-2-.058-4.009-.081-6.009,0-2.1.087-2.806,1.223-1.744,3,1.922,3.223,2.469,6.788,2.944,10.393a1.863,1.863,0,0,1-1.482,2.2,1.816,1.816,0,0,1-2.1-1.59c-.155-.709-.224-1.436-.326-2.156a14.961,14.961,0,0,0-1.562-5.739c-.276-.468-.494-.691-1.088-.591-1.828.309-3.678.488-5.5.819-2.021.367-4.021.845-6.035,1.276.4,3.971.774,7.759,1.153,11.563h37.442Zm-60.674,44.908c1.315,1.171,2.52,2.118,3.571,3.214a36.39,36.39,0,0,1,2.905,3.543,1.55,1.55,0,0,0,1.422.733c5.579-.028,11.158-.015,16.737-.015h1.2V165.78c-1.754,0-3.427.017-5.1-.005-1.425-.019-2.243-.714-2.243-1.841s.823-1.806,2.252-1.824c1.042-.013,2.085,0,3.042,0l-2.539-7.423a1.108,1.108,0,0,0-.268-.035c-6.855,0-13.711-.012-20.566.021a1.417,1.417,0,0,0-.995.595c-1.156,1.809-2.251,3.657-3.363,5.494-.247.408-.481.824-.786,1.348,5.723,0,11.228-.005,16.733.008a5.739,5.739,0,0,1,1.612.19,1.725,1.725,0,0,1-.1,3.3,7.318,7.318,0,0,1-1.619.167C607.943,165.788,604.046,165.782,599.953,165.782Zm55.775,29.753c.439,0,.795,0,1.15,0,1.422.006,2.845-.024,4.265.031a1.734,1.734,0,0,1,1.688,2.26,1.778,1.778,0,0,1-1.927,1.284c-1.7-.016-3.4,0-5.213,0,0,2.435-.018,4.723.032,7.009,0,.191.463.53.712.532q6.179.051,12.359,0a1.051,1.051,0,0,0,.816-.49,17.361,17.361,0,0,0,.683-7.072c-.716,0-1.331.03-1.942-.007a1.763,1.763,0,0,1-.012-3.526c.641-.038,1.286-.007,1.974-.007v-7.486H655.728Zm2.109-33.51H686.3c-1.383-2.291-2.718-4.455-4-6.652a1.38,1.38,0,0,0-1.4-.744c-6.6.025-13.2.015-19.8.018-.319,0-.638.035-.752.042Zm-2.088,3.814v7.353c.244.026.42.061.6.061,5.869,0,11.738.015,17.606-.025a1.851,1.851,0,0,0,1.09-.658c1.716-1.825,3.385-3.693,5.1-5.521a15.292,15.292,0,0,1,1.473-1.21Zm23.827-14.92c-1.4-2.311-2.752-4.5-4.056-6.707a1.3,1.3,0,0,0-1.295-.728c-3.86.028-7.721.01-11.581.014-.277,0-.553.052-.82.078-.349,2.482-.687,4.881-1.034,7.344ZM619.71,143.5c-4.333,0-8.587,0-12.841.011a.73.73,0,0,0-.541.261c-1.444,2.337-2.865,4.688-4.359,7.148h18.786Zm-10.494,33.442c.564,2.371,1.082,4.656,1.685,6.918.067.25.626.521.958.524,4.4.033,8.805.021,13.208.014a6.394,6.394,0,0,0,.722-.081v-7.374Zm63.191.024H655.74v7.383H670.4Zm-46.6,11.088H611.271v7.416H625.8Zm-14.6,11.095a17.753,17.753,0,0,0,.674,6.791,1.231,1.231,0,0,0,.86.7c4.12.045,8.241.022,12.361.038.663,0,.772-.325.766-.887-.021-1.859,0-3.719-.011-5.579,0-.348-.042-.7-.065-1.065Zm6.5-73.743-.241-.044-8.723,14.4h10.505Zm44.589,14.36H672.8l-8.728-14.4-.237.053Zm-6.565,77.8c4.461-.056,10.428-4.013,11.691-7.248H655.73Zm-29.924-7.238H613.874a16.677,16.677,0,0,0,11.933,7.336Z" transform="translate(-221.349 1154.634)" fill="#1d272b"/>
  </g>
</svg>
