<svg xmlns="http://www.w3.org/2000/svg" width="100.882" height="100.832" viewBox="0 0 100.882 100.832">
  <g id="Grupo_129346" data-name="Grupo 129346" transform="translate(-1122.682 -2298.731)">
    <path id="Trazado_163321" data-name="Trazado 163321" d="M3626,800.865a2.641,2.641,0,0,1-1.4-2.679c.067-2.789.015-5.581.024-8.371,0-1.619.727-2.332,2.351-2.344.881-.007,1.763,0,2.768,0,0-2.021,0-3.978,0-5.935,0-3.25.272-3.521,3.534-3.52h1.982v-1.107q0-7.633,0-15.266a2,2,0,0,1,1.639-2.23,1.972,1.972,0,0,1,2.293,2.158c.014,4.071.006,8.142.006,12.213v4.174h38.614c-.176-2.765-.351-5.507-.536-8.412h-28.009a6.834,6.834,0,0,1-.787-.016,1.96,1.96,0,0,1,0-3.906,9.036,9.036,0,0,1,.985-.017l26.887-.005h1.064v-5.677c0-1.937-.006-3.874,0-5.811a2.046,2.046,0,0,1,1.7-2.3c3.216-1.009,6.434-2.013,9.727-3.043v-1.089q0-9.258,0-18.516a24.822,24.822,0,0,0-21.182-24.946c-12.987-2.13-25.975,7.217-28.054,20.226a32.731,32.731,0,0,0-.387,4.8c-.051,4.563-.018,9.126-.018,13.69,0,.263.013.527-.011.787a1.927,1.927,0,0,1-1.945,1.833,1.836,1.836,0,0,1-1.955-1.8c.11-6.526-.543-13.081.377-19.573a28.722,28.722,0,0,1,56.613-.6,31.31,31.31,0,0,1,.481,5.578c.06,5.712.021,11.424.021,17.137V747.5c.4-.111.73-.192,1.052-.292,2.253-.7,4.5-1.439,6.764-2.09a3.171,3.171,0,0,1,1.712,0q10.711,3.292,21.387,6.691c.673.216,1.194.909,1.786,1.38v21.275c-.061.281-.143.559-.18.843-1.346,10.382-6.651,18.063-15.911,22.888a56.869,56.869,0,0,1-7.351,2.666Zm55.354-45.628c0,5.689-.014,11.3,0,16.905a25.131,25.131,0,0,0,18.968,24.444,4.736,4.736,0,0,0,2.286-.006,25.141,25.141,0,0,0,18.926-24.383c.019-3.543,0-7.087,0-10.63V755.32a1.264,1.264,0,0,0-.222-.148q-9.7-3.045-19.413-6.072a1.71,1.71,0,0,0-.957.02C3694.438,751.14,3687.937,753.177,3681.35,755.237Zm-52.753,41.6h62.013c-1.732-1.537-3.552-3.086-5.284-4.728a2.236,2.236,0,0,0-1.7-.717q-26.971.027-53.943.014H3628.6Zm53-9.4c-.75-1.586-1.512-3.036-2.118-4.549a1.26,1.26,0,0,0-1.41-.948q-21.649.037-43.3.014h-1.009v5.483Z" transform="translate(-2501.911 1598.698)" fill="#1d272b"/>
    <path id="Trazado_163322" data-name="Trazado 163322" d="M3765.091,811.341c0,.454,0,.806,0,1.158q0,6.745,0,13.489c0,1.93-.688,2.639-2.583,2.643q-3.79.009-7.582-.009c-1.758-.01-2.444-.706-2.446-2.457,0-4.888,0-9.776,0-14.825h-1.075c-2.231,0-4.463.013-6.7,0a2,2,0,0,1-2.254-2.241q-.021-4.086,0-8.172a1.979,1.979,0,0,1,2.2-2.19c2.557-.015,5.115,0,7.821,0v-1.089c0-2.33-.009-4.661,0-6.991a1.929,1.929,0,0,1,2.158-2.207q4.135-.028,8.271,0a1.966,1.966,0,0,1,2.175,2.213c.018,2.652,0,5.3,0,8.073h3.385c1.411,0,2.823-.02,4.233.008a1.928,1.928,0,0,1,2.038,2.046q.035,4.234,0,8.468a1.947,1.947,0,0,1-2.113,2.079c-2.166.023-4.333.007-6.5.007Zm-18.673-3.94c2.549,0,5,0,7.46,0,1.877,0,2.542.669,2.543,2.56q.006,6.8,0,13.591v1.076h4.728v-1.108q0-6.894,0-13.788c0-1.628.713-2.318,2.353-2.332.821-.007,1.641-.006,2.462-.006h4.773v-4.722c-2.409,0-4.739,0-7.068,0-1.875,0-2.518-.657-2.521-2.561q-.006-2.413-.006-4.826c0-.941,0-1.882,0-2.854h-4.674c-.017.365-.044.685-.045,1,0,2.3.012,4.6,0,6.894a2.069,2.069,0,0,1-2.37,2.346c-2.232.008-4.465,0-6.7,0h-.94Z" transform="translate(-2596.505 1527.746)" fill="#1d272b"/>
    <path id="Trazado_163323" data-name="Trazado 163323" d="M3680.543,959.64a1.935,1.935,0,0,1-1.906-1.952,1.966,1.966,0,1,1,3.932.012A1.956,1.956,0,0,1,3680.543,959.64Z" transform="translate(-2545.288 1393.474)" fill="#1d272b"/>
    <path id="Trazado_163324" data-name="Trazado 163324" d="M3932.091,983.028q0-3.3,0-6.594a2.087,2.087,0,0,1,1.707-2.4c4.532-1.416,9.063-2.835,13.609-4.205a3.131,3.131,0,0,1,1.711.008c4.515,1.363,9.015,2.773,13.515,4.183a2.121,2.121,0,0,1,1.772,2.457c0,4.166.028,8.333-.014,12.5a21.229,21.229,0,0,1-14.928,19.956,4.438,4.438,0,0,1-2.464-.021,21.205,21.205,0,0,1-14.9-20.271c-.008-1.87,0-3.74,0-5.61Zm28.545.987-.175-.012c0-1.87-.037-3.742.019-5.61a1.049,1.049,0,0,0-.9-1.226c-3.574-1.078-7.131-2.216-10.7-3.3a2.241,2.241,0,0,0-1.235,0c-3.632,1.11-7.25,2.268-10.883,3.378-.522.159-.74.353-.735.931.035,3.773-.045,7.549.056,11.32a17.23,17.23,0,0,0,11.509,15.447,2.115,2.115,0,0,0,1.308.016c5.976-2.252,9.815-6.489,11.113-12.732A61.068,61.068,0,0,0,3960.635,984.015Z" transform="translate(-2748.715 1382.247)" fill="#1d272b"/>
    <path id="Trazado_163325" data-name="Trazado 163325" d="M3978.512,1044.133c2.135-2.137,4.148-4.152,6.162-6.166a8.605,8.605,0,0,1,.711-.677,1.974,1.974,0,0,1,2.6.1,1.9,1.9,0,0,1,.19,2.588,9.53,9.53,0,0,1-.877.927q-3.544,3.549-7.094,7.091c-1.14,1.133-2.164,1.121-3.315-.018q-2.026-2.006-4.033-4.033c-1.008-1.021-1.076-2.178-.2-3.024a1.983,1.983,0,0,1,2.958.228C3976.564,1042.1,3977.485,1043.075,3978.512,1044.133Z" transform="translate(-2780.786 1328.359)" fill="#1d272b"/>
  </g>
</svg>
