<svg xmlns="http://www.w3.org/2000/svg" xmlns:xlink="http://www.w3.org/1999/xlink" width="79.155" height="79.153" viewBox="0 0 79.155 79.153">
  <defs>
    <radialGradient id="radial-gradient" cx="0.077" cy="0.019" r="1.465" gradientTransform="matrix(1, 0, 0, -1, 0, 9.666)" gradientUnits="objectBoundingBox">
      <stop offset="0" stop-color="#f4f4f5"/>
      <stop offset="0.477" stop-color="#f7f8fa"/>
      <stop offset="0.715" stop-color="#fff"/>
    </radialGradient>
  </defs>
  <g id="Grupo_129364" data-name="Grupo 129364" transform="translate(-412.883 -4590.764)">
    <g id="Group_18420" data-name="Group 18420" transform="translate(412.883 4590.764)">
      <g id="Group_18419" data-name="Group 18419">
        <path id="Path_40936" data-name="Path 40936" d="M201.954,554.407a39.577,39.577,0,1,1-39.578-39.575h0A39.576,39.576,0,0,1,201.954,554.407Z" transform="translate(-122.8 -514.832)" fill="#fff"/>
      </g>
    </g>
    <path id="Path_40937" data-name="Path 40937" d="M201.953,554.407a39.42,39.42,0,1,0,0,.312Z" transform="translate(290.083 4075.932)" fill="url(#radial-gradient)"/>
    <path id="Path_40938" data-name="Path 40938" d="M190.028,551.858a30.209,30.209,0,1,0-30.209,30.209h0a30.1,30.1,0,0,0,30.209-29.984Z" transform="translate(292.761 4078.613)" fill="none" stroke="#1d272b" stroke-miterlimit="10" stroke-width="2"/>
    <path id="Path_40939" data-name="Path 40939" d="M195.973,530.78a39.581,39.581,0,0,1-68.14,39.411,39.456,39.456,0,0,0,68.14-39.411Z" transform="translate(292.062 4082.203)" fill="#e7e9eb"/>
    <path id="Trazado_165162" data-name="Trazado 165162" d="M1084.549,69.323h-1.205V60.4c-.214.171-.353.291-.5.4a7.059,7.059,0,0,1-1.193.825c-.636.28-.709.7-.628,1.318.194,1.491.317,2.992.466,4.489a.672.672,0,0,0,.722.677c.151.005.3,0,.478,0v1.183a1.879,1.879,0,0,1-2.4-1.5c-.113-.82-.166-1.649-.248-2.474-.087-.871-.178-1.741-.267-2.6-.824.249-1.615.477-2.4.736-.088.029-.169.23-.17.352-.011,1.685-.008,3.371-.008,5.056V69.3h-1.212v-2.7c-2.083.652-3.954,1.795-6.127,2.113-.009.193-.018.381-.028.588h-1.2c-.01-.205-.019-.393-.029-.589-2.172-.312-4.042-1.458-6.115-2.119v2.707h-1.223c0-.135,0-.282,0-.428q.084-6.338.163-12.675a1.891,1.891,0,0,0-.134-.659c-.215-.581-.454-1.153-.684-1.729a17.673,17.673,0,0,0-1.505,5.344c-.256,2.5-.542,4.994-.815,7.491-.033.3-.066.609-.09.914a1.811,1.811,0,0,1-1.885,1.767h-.546V68.108c.185,0,.371.009.556,0a.632.632,0,0,0,.648-.623c.208-2.094.4-4.19.625-6.281a24.768,24.768,0,0,1,1.529-7.107,13.578,13.578,0,0,0,.92-4.934.415.415,0,0,0-.259-.445,4.511,4.511,0,0,1-2-1.929c-.4-.766-.884-1.49-1.351-2.267l1.054-.64c.111.179.217.346.319.516.42.7.858,1.39,1.251,2.1a2.512,2.512,0,0,0,1.137.976,14.32,14.32,0,0,1,4.53-8.261l-2.381-.539.268-1.2c.978.216,1.934.415,2.883.642a1.01,1.01,0,0,0,.879-.145,14.05,14.05,0,0,1,21.464,8.515,13.74,13.74,0,0,1-3.079,12.507.973.973,0,0,0-.2.578c-.012,3.09-.009,6.18-.009,9.27Zm-23.286-19.607a12.87,12.87,0,1,0,12.891-12.867A12.905,12.905,0,0,0,1061.263,49.716Zm1.372,8.217c-.034,1.044-.064,2.02-.1,3-.021.649-.152.514.518.669,1.062.246,2.126.483,3.223.732l-.225,1.226-3.566-.821c0,.8-.009,1.562.011,2.324,0,.093.143.224.248.267,1.46.6,2.92,1.2,4.391,1.765a5.469,5.469,0,0,0,4,.063c1.549-.581,3.077-1.216,4.611-1.835.088-.036.208-.14.211-.216.02-.454.01-.91.01-1.369A14.26,14.26,0,0,1,1062.635,57.934Z" transform="translate(-617.09 4578.3)" fill="#1d272b"/>
    <path id="Trazado_165163" data-name="Trazado 165163" d="M1043.067-19.976h1.238c0,.381.005.746,0,1.111a8.659,8.659,0,0,1-.06,1.641,2.963,2.963,0,0,1-2.375,2.283c-1.836.47-3.7.842-5.535,1.309a4.894,4.894,0,0,0-3.667,4.642A24.466,24.466,0,0,0,1032.9-6.4a34.738,34.738,0,0,1,.348,5.454q-.118,2.043-.323,4.081a57.073,57.073,0,0,0-.29,6.189c.026,2.745.006,5.489.006,8.234v.431h-1.223v-.4c0-3.689-.033-7.379.016-11.068.02-1.5.229-3,.329-4.5.1-1.564.264-3.132.243-4.7-.019-1.384-.261-2.765-.391-4.149a9.16,9.16,0,0,1,.007-3.605A6.266,6.266,0,0,1,1036.632-15c1.578-.348,3.158-.694,4.723-1.1a4.267,4.267,0,0,0,1.264-.661,1.153,1.153,0,0,0,.448-1.011C1043.066-18.493,1043.067-19.218,1043.067-19.976Z" transform="translate(-594.602 4629.625)" fill="#1d272b"/>
    <path id="Trazado_165164" data-name="Trazado 165164" d="M1262.338-20h1.282c0,.493,0,.974,0,1.455a3.614,3.614,0,0,0,.029.952c.106.37-.025.5-.338.6-.227.072-.441.185-.709.3A15.06,15.06,0,0,1,1262.338-20Z" transform="translate(-807.807 4629.646)" fill="#1d272b"/>
    <path id="Trazado_165165" data-name="Trazado 165165" d="M1211.59,21.792l.543-1.1a2.775,2.775,0,0,0,.962.412c.308,0,.619-.256.957-.412l.551,1.1c-.46.225-.883.453-1.325.635a.685.685,0,0,1-.476-.041C1212.405,22.214,1212.024,22.008,1211.59,21.792Z" transform="translate(-760.953 4592.075)" fill="#1d272b"/>
    <path id="Trazado_165166" data-name="Trazado 165166" d="M1190.968,108.818a4.916,4.916,0,0,1,.516.4,1.807,1.807,0,0,1-.46,2.912,2.82,2.82,0,0,0-.77.545,2.529,2.529,0,0,1-3.672.417,1.679,1.679,0,0,1-2.434.174,1.056,1.056,0,0,0,.409,1.207c.177.1.366.181.54.286a1.6,1.6,0,0,1,.02,2.762c-.376.234-.748.477-1.118.721a2.108,2.108,0,0,1-2.557-.161,2.867,2.867,0,0,0-.532-.362,1.86,1.86,0,0,1-.882-2.688.861.861,0,0,1-.228-.128,2.08,2.08,0,0,1,.31-3.27.514.514,0,0,0,.276-.52,3.26,3.26,0,0,1,.036-.875,1.831,1.831,0,0,1,3.037-.964c.076.066.148.135.231.212a1.9,1.9,0,0,1,2.482-.4c.427-.691.849-1.368,1.262-2.051a.283.283,0,0,0,.02-.236,3.1,3.1,0,0,1-.178-2.413,2.375,2.375,0,0,1-1.735-.106c-.046-.023-.144.02-.2.059-1.437,1.053-2.22,1.061-3.575.015a2.684,2.684,0,0,1-2.077,1.561,6.281,6.281,0,0,1-.025,1.477,1.861,1.861,0,0,0,.024,1.367,1.373,1.373,0,0,1-.758,1.721c-.114.055-.234.1-.388.158,0,.307,0,.622,0,.938a1.532,1.532,0,0,1-3.063,0c0-.2,0-.409,0-.613a2.6,2.6,0,0,0-.348-1.507,1.983,1.983,0,0,1,.38-2.518c-1.133-1.7-.758-3.216,1-4.062.2-1.978,1.143-2.707,2.984-2.293a2.058,2.058,0,0,1,2.395-.885,5.042,5.042,0,0,1,.97.581.517.517,0,0,0,.341.1,2.241,2.241,0,0,1,2.054.192c.09-.084.191-.174.288-.269a2.121,2.121,0,0,1,3.134,0,.694.694,0,0,0,.836.242,1.62,1.62,0,0,1,1.768.525,1.708,1.708,0,0,1,.378,1.813.43.43,0,0,0,.086.5,3.541,3.541,0,0,1-.107,4.831C1191.466,108.388,1191.265,108.549,1190.968,108.818Zm-4.149,2.479a3.567,3.567,0,0,1,.3.418,1.192,1.192,0,0,0,2.047.29,10.19,10.19,0,0,1,1.262-.964.578.578,0,0,0,.141-.982c-.236-.251-.488-.487-.728-.733a.652.652,0,0,1,.01-1.085c.3-.3.605-.587.89-.9a2.3,2.3,0,0,0,.613-2.042,2.559,2.559,0,0,0-.887-1.477.7.7,0,0,1-.163-.957c.176-.316.368-.655.05-.981s-.656-.13-.98.031a.677.677,0,0,1-.983-.168c-.208-.207-.409-.422-.623-.623a.866.866,0,0,0-1.294-.006c-.242.227-.467.472-.708.7a.622.622,0,0,1-.974,0c-.558-.5-.906-.5-1.488.012a.634.634,0,0,1-1.071-.195c-.037-.067-.069-.136-.1-.206a.891.891,0,0,0-.849-.6.918.918,0,0,0-.823.589c-.359.711-.559.782-1.251.428a.934.934,0,0,0-1.137.048.918.918,0,0,0-.213,1.116.621.621,0,0,1-.389.864c-.2.081-.41.137-.612.215a1.142,1.142,0,0,0-.7.757,1.174,1.174,0,0,0,.718,1.493.665.665,0,0,1,.438.613.654.654,0,0,1-.444.609c-.081.038-.161.077-.239.12a.877.877,0,0,0-.219,1.488,1.187,1.187,0,0,1,.275.665c.04.533-.008,1.073.027,1.606.009.142.188.274.289.41.1-.133.286-.26.3-.4.038-.456.009-.918.016-1.377a.606.606,0,0,1,.663-.666.747.747,0,0,0,.228-.006.58.58,0,0,0,.3-.182c.034-.061-.052-.2-.1-.293a.879.879,0,0,0-.158-.165c-.423-.43-.433-.656-.049-1.114a1.233,1.233,0,0,0,.2-1.421c-.115-.241-.233-.482-.357-.718a.641.641,0,0,1,.825-.938,1.3,1.3,0,0,0,1.736-.672c.156-.292.285-.6.448-.886a.6.6,0,0,1,1-.163c.2.177.381.377.571.565a1.176,1.176,0,0,0,2.055-.3c.292-.532.69-.6,1.139-.182a.876.876,0,0,0,1.375.006c.424-.421.917-.278,1.4-.213.1.014.215.138.282.238a1.693,1.693,0,0,1-.1,1.383,1.573,1.573,0,0,0-.01,2.154.606.606,0,0,1-.015.921,6.129,6.129,0,0,0-1.567,3.051A4.762,4.762,0,0,1,1186.819,111.3Zm-.63-.048c-.159-.275-.318-.544-.47-.816a.6.6,0,0,0-1.032-.17c-.25.237-.493.482-.731.73-.2.212-.467.351-.714.2a1.09,1.09,0,0,1-.4-.581c-.111-.356-.331-.606-.644-.594a.637.637,0,0,0-.591.676,6.954,6.954,0,0,0,0,.918.826.826,0,0,1-.569.923,1.257,1.257,0,0,0-.5.387c-.334.467-.135,1.005.46,1.305.315.159.666.314.59.737a1.42,1.42,0,0,1-.363.6.583.583,0,0,0,.159,1c.3.181.6.382.885.586a.851.851,0,0,0,1,.077c.4-.242.793-.5,1.184-.754.294-.195.284-.476-.019-.67a1.658,1.658,0,0,0-.272-.138,2.162,2.162,0,0,1-1.256-1.579,3.24,3.24,0,0,1,.711-2.642.581.581,0,0,1,.95.061c.087.124.127.283.22.4.148.187.3.456.494.5.3.076.371-.273.5-.487C1185.911,111.688,1186.06,111.458,1186.189,111.25Z" transform="translate(-727.014 4519.231)" fill="#1d272b"/>
  </g>
</svg>
