<svg xmlns="http://www.w3.org/2000/svg" xmlns:xlink="http://www.w3.org/1999/xlink" width="79.155" height="79.153" viewBox="0 0 79.155 79.153">
  <defs>
    <radialGradient id="radial-gradient" cx="0.077" cy="0.019" r="1.465" gradientTransform="matrix(1, 0, 0, -1, 0, 9.666)" gradientUnits="objectBoundingBox">
      <stop offset="0" stop-color="#f4f4f5"/>
      <stop offset="0.477" stop-color="#f7f8fa"/>
      <stop offset="0.715" stop-color="#fff"/>
    </radialGradient>
  </defs>
  <g id="Grupo_129365" data-name="Grupo 129365" transform="translate(-412.883 -4708.589)">
    <g id="Group_18420" data-name="Group 18420" transform="translate(412.883 4708.589)">
      <g id="Group_18419" data-name="Group 18419">
        <path id="Path_40936" data-name="Path 40936" d="M201.954,554.407a39.577,39.577,0,1,1-39.578-39.575h0A39.576,39.576,0,0,1,201.954,554.407Z" transform="translate(-122.8 -514.832)" fill="#fff"/>
      </g>
    </g>
    <path id="Path_40937" data-name="Path 40937" d="M201.953,554.407a39.42,39.42,0,1,0,0,.312Z" transform="translate(290.083 4193.757)" fill="url(#radial-gradient)"/>
    <path id="Path_40938" data-name="Path 40938" d="M190.028,551.858a30.209,30.209,0,1,0-30.209,30.209h0a30.1,30.1,0,0,0,30.209-29.984Z" transform="translate(292.761 4196.438)" fill="none" stroke="#1d272b" stroke-miterlimit="10" stroke-width="2"/>
    <path id="Path_40939" data-name="Path 40939" d="M195.973,530.78a39.581,39.581,0,0,1-68.14,39.411,39.456,39.456,0,0,0,68.14-39.411Z" transform="translate(292.062 4200.029)" fill="#e7e9eb"/>
    <path id="Trazado_165151" data-name="Trazado 165151" d="M482.08,30.347a.943.943,0,0,1-.411-.9q.024-2.677,0-5.355a1.147,1.147,0,0,1,.372-.892q3.969-3.949,7.925-7.911a2.679,2.679,0,0,1,.363-.26l-.064-.109c-.1-.028-.194-.06-.292-.083A3.416,3.416,0,0,1,488.2,9.278c.08-.091.167-.177.253-.263l4.629-4.632.9.941c-.077.083-.17.19-.271.29-1.472,1.473-2.956,2.935-4.414,4.422a2.1,2.1,0,1,0,3.049,2.876Q495.5,9.76,498.653,6.6q2.539-2.539,5.08-5.076a3.186,3.186,0,0,1,.354-.268l-.058-.1a2.783,2.783,0,0,0-.3-.026c-1.3.02-2.6-.008-3.89.08a5.206,5.206,0,0,0-3.269,1.542c-.468.447-.9.928-1.37,1.409l-.9-.947c1.7-2.033,3.71-3.477,6.544-3.389,1.392.043,2.786,0,4.179.014a.846.846,0,0,0,.672-.273c1.321-1.336,2.654-2.661,4-4l.9.982-9.137,9.132h.457c1.623,0,3.246.007,4.869-.009a.838.838,0,0,0,.527-.21q4.677-4.53,9.334-9.081a2.1,2.1,0,0,0-.627-3.547,1.917,1.917,0,0,0-1.918.287,15.937,15.937,0,0,0-1.521,1.448c-.3.306-.572.644-.9,1.017l-.936-1.118a32.1,32.1,0,0,1,2.65-2.441,3.32,3.32,0,0,1,4.5.568,3.428,3.428,0,0,1-.167,4.553c-.727.763-1.5,1.479-2.261,2.214-.135.131-.28.253-.511.461h5.657V1.135h-.424c-2.069,0-4.139,0-6.208.007a.79.79,0,0,0-.5.169C512.027,2.7,510.6,4.1,509.165,5.495c-.037.036-.068.079-.14.163H514.1v1.32h-.462q-5.843,0-11.686,0a2.6,2.6,0,1,0-.034,5.191q3.672.021,7.344-.007a1.266,1.266,0,0,1,1.076.5,15.878,15.878,0,0,0,3.765,3.481A12.667,12.667,0,0,0,520.234,18c.094,0,.189.007.283.015a.37.37,0,0,1,.09.039v1.3c-.782-.08-1.561-.111-2.322-.247a13.421,13.421,0,0,1-8.191-4.766,2.213,2.213,0,0,0-1.982-.9c-2.121.07-4.247.058-6.369,0a1.606,1.606,0,0,0-1.319.539c-1.259,1.265-2.525,2.526-3.837,3.735a2.075,2.075,0,0,0,2.9,2.968c.944-.911,1.861-1.85,2.788-2.777.974-.975,1.947-1.951,2.937-2.943l.864.983c-.029.031-.123.138-.224.239-1.778,1.779-3.563,3.551-5.334,5.338a2.1,2.1,0,1,0,3,2.922q2.644-2.634,5.277-5.28a1.9,1.9,0,0,0,.232-.367l1.086,1.046a2.484,2.484,0,0,0-.389.261q-2.674,2.662-5.337,5.335a2.093,2.093,0,0,0,.383,3.309,1.977,1.977,0,0,0,2.542-.4c.654-.7,1.286-1.423,1.965-2.177l.979.88c-.739.811-1.447,1.61-2.181,2.385a3.8,3.8,0,0,1-1.736.905h-1.136a.574.574,0,0,0-.132-.077,3.344,3.344,0,0,1-2.587-2.8,6.961,6.961,0,0,1-.056-1,3.55,3.55,0,0,1-3.9-3.922,3.619,3.619,0,0,1-2.515-.671,3.546,3.546,0,0,1-1.346-2.232,1.233,1.233,0,0,0-.68,1.253,15.887,15.887,0,0,1,0,2.146,1.184,1.184,0,0,1-.28.712q-1.62,1.675-3.291,3.3a11.162,11.162,0,0,1-5.079,2.885c-.622.161-1.257.268-1.886.4ZM497.9,9.227c-.125.114-.186.165-.242.221q-7.241,7.239-14.475,14.485a.824.824,0,0,0-.208.523c-.017,1.392-.01,2.784-.008,4.176,0,.118.012.237.02.382a10.065,10.065,0,0,0,6.416-2.8c1.058-1.005,2.077-2.052,3.1-3.094a.785.785,0,0,0,.2-.488c.02-.8.027-1.6,0-2.392a1.179,1.179,0,0,1,.4-.96c2.1-2.028,4.187-4.069,6.283-6.1a2.226,2.226,0,0,1,.4-.244A4.064,4.064,0,0,1,497.9,9.227Z" transform="translate(-49.385 4734.7)" fill="#1d272b"/>
    <path id="Trazado_165153" data-name="Trazado 165153" d="M831.786,351.892l-.973-.877c.788-.874,1.546-1.735,2.334-2.567a.908.908,0,0,1,.588-.187c.959-.025,1.923.029,2.878-.04a5.806,5.806,0,0,0,4.26-2.312l1.042.782a7.25,7.25,0,0,1-3.839,2.612,9.5,9.5,0,0,1-3.218.228,1.7,1.7,0,0,0-1.613.721C832.807,350.83,832.282,351.341,831.786,351.892Z" transform="translate(-370.145 4409.006)" fill="#1d272b"/>
    <path id="Trazado_165154" data-name="Trazado 165154" d="M860.053,43.391l.84-.809,1.268,1.271-.835.8Z" transform="translate(-397.008 4687.673)" fill="#1d272b"/>
    <path id="Trazado_165155" data-name="Trazado 165155" d="M838.176,67.709l-.839.815-1.275-1.272.842-.819Z" transform="translate(-374.967 4665.761)" fill="#1d272b"/>
    <path id="Trazado_165156" data-name="Trazado 165156" d="M814.488,92.1l-.788.792L812.414,91.6l.823-.764Z" transform="translate(-353.242 4643.341)" fill="#1d272b"/>
    <path id="Trazado_165157" data-name="Trazado 165157" d="M789.263,117.094l-1.161-1.166.879-.779L790.1,116.3Z" transform="translate(-330.906 4621.006)" fill="#1d272b"/>
    <path id="Trazado_165158" data-name="Trazado 165158" d="M764.414,138.88l.814-.873,1.281,1.283-.83.848Z" transform="translate(-309.144 4600.006)" fill="#1d272b"/>
    <path id="Trazado_165159" data-name="Trazado 165159" d="M511.765,358.961l-.389-1.169c.036-.047.048-.08.068-.086a14.141,14.141,0,0,0,4.818-3.285c.657-.583,1.322-1.158,2.016-1.764l.843.961a2.284,2.284,0,0,1-.187.209c-1.211,1.059-2.416,2.125-3.64,3.169A10.29,10.29,0,0,1,511.765,358.961Z" transform="translate(-76.678 4402.808)" fill="#1d272b"/>
    <path id="Trazado_165160" data-name="Trazado 165160" d="M661.494,244.374l-1.247-1.243.855-.812,1.266,1.265Z" transform="translate(-213.446 4504.175)" fill="#1d272b"/>
    <path id="Trazado_165161" data-name="Trazado 165161" d="M638.574,267.083l-.808.866-1.284-1.277.832-.853Z" transform="translate(-191.614 4482.585)" fill="#1d272b"/>
  </g>
</svg>
