<svg xmlns="http://www.w3.org/2000/svg" xmlns:xlink="http://www.w3.org/1999/xlink" width="260.926" height="316.587" viewBox="0 0 260.926 316.587">
  <defs>
    <linearGradient id="linear-gradient" x1="0.5" x2="0.5" y2="1" gradientUnits="objectBoundingBox">
      <stop offset="0" stop-color="#fff"/>
      <stop offset="1" stop-color="#f8f8f8"/>
    </linearGradient>
    <radialGradient id="radial-gradient" cx="0.076" cy="0.019" r="1.465" gradientTransform="translate(0.001)" gradientUnits="objectBoundingBox">
      <stop offset="0" stop-color="#f6f6f7"/>
      <stop offset="0.477" stop-color="#f9f9fa"/>
      <stop offset="0.715" stop-color="#fff"/>
    </radialGradient>
  </defs>
  <g id="Grupo_129366" data-name="Grupo 129366" transform="translate(-417.359 -5009.276)">
    <g id="Grupo_91572" data-name="Grupo 91572" transform="translate(417.359 5009.276)">
      <g id="Grupo_57070" data-name="Grupo 57070" transform="translate(0 0)">
        <g id="Grupo_57069" data-name="Grupo 57069" opacity="0.7" style="mix-blend-mode: multiply;isolation: isolate">
          <rect id="Rectángulo_29501" data-name="Rectángulo 29501" width="260.926" height="316.587" rx="9.04" fill="#fff" opacity="0"/>
          <rect id="Rectángulo_29502" data-name="Rectángulo 29502" width="258.714" height="314.666" rx="9.04" transform="translate(1.106 0.961)" fill="#f3f3f3" opacity="0.048"/>
          <rect id="Rectángulo_29503" data-name="Rectángulo 29503" width="256.502" height="312.745" rx="9.04" transform="translate(2.212 1.921)" fill="#e7e7e7" opacity="0.095"/>
          <rect id="Rectángulo_29504" data-name="Rectángulo 29504" width="254.289" height="310.824" rx="9.04" transform="translate(3.318 2.882)" fill="#dbdbdb" opacity="0.143"/>
          <rect id="Rectángulo_29505" data-name="Rectángulo 29505" width="252.077" height="308.903" rx="9.04" transform="translate(4.425 3.842)" fill="#cecece" opacity="0.19"/>
          <rect id="Rectángulo_29506" data-name="Rectángulo 29506" width="249.865" height="306.982" rx="9.04" transform="translate(5.531 4.803)" fill="#c2c2c2" opacity="0.238"/>
          <rect id="Rectángulo_29507" data-name="Rectángulo 29507" width="247.653" height="305.061" rx="9.04" transform="translate(6.637 5.763)" fill="#b6b6b6" opacity="0.286"/>
          <rect id="Rectángulo_29508" data-name="Rectángulo 29508" width="245.44" height="303.139" rx="9.04" transform="translate(7.743 6.724)" fill="#aaa" opacity="0.333"/>
          <rect id="Rectángulo_29509" data-name="Rectángulo 29509" width="243.228" height="301.218" rx="9.04" transform="translate(8.849 7.684)" fill="#9e9e9e" opacity="0.381"/>
          <rect id="Rectángulo_29510" data-name="Rectángulo 29510" width="241.016" height="299.297" rx="9.04" transform="translate(9.955 8.645)" fill="#929292" opacity="0.429"/>
          <rect id="Rectángulo_29511" data-name="Rectángulo 29511" width="238.804" height="297.376" rx="9.04" transform="translate(11.061 9.605)" fill="#868686" opacity="0.476"/>
          <rect id="Rectángulo_29512" data-name="Rectángulo 29512" width="236.591" height="295.455" rx="9.04" transform="translate(12.167 10.566)" fill="#797979" opacity="0.524"/>
          <rect id="Rectángulo_29513" data-name="Rectángulo 29513" width="234.379" height="293.534" rx="9.04" transform="translate(13.274 11.526)" fill="#6d6d6d" opacity="0.571"/>
          <rect id="Rectángulo_29514" data-name="Rectángulo 29514" width="232.167" height="291.613" rx="9.04" transform="translate(14.38 12.487)" fill="#616161" opacity="0.619"/>
          <rect id="Rectángulo_29515" data-name="Rectángulo 29515" width="229.955" height="289.692" rx="9.04" transform="translate(15.486 13.447)" fill="#555" opacity="0.667"/>
          <rect id="Rectángulo_29516" data-name="Rectángulo 29516" width="227.742" height="287.771" rx="9.04" transform="translate(16.592 14.408)" fill="#494949" opacity="0.714"/>
          <rect id="Rectángulo_29517" data-name="Rectángulo 29517" width="225.53" height="285.85" rx="9.04" transform="translate(17.698 15.368)" fill="#3d3d3d" opacity="0.762"/>
          <rect id="Rectángulo_29518" data-name="Rectángulo 29518" width="223.318" height="283.929" rx="9.04" transform="translate(18.804 16.329)" fill="#313131" opacity="0.81"/>
          <rect id="Rectángulo_29519" data-name="Rectángulo 29519" width="221.105" height="282.008" rx="9.04" transform="translate(19.91 17.29)" fill="#242424" opacity="0.857"/>
          <rect id="Rectángulo_29520" data-name="Rectángulo 29520" width="218.893" height="280.087" rx="9.04" transform="translate(21.017 18.25)" fill="#181818" opacity="0.905"/>
          <rect id="Rectángulo_29521" data-name="Rectángulo 29521" width="216.681" height="278.166" rx="9.04" transform="translate(22.123 19.211)" fill="#0c0c0c" opacity="0.952"/>
          <rect id="Rectángulo_29522" data-name="Rectángulo 29522" width="214.469" height="276.245" rx="9.04" transform="translate(23.229 20.171)"/>
        </g>
        <rect id="Rectángulo_29523" data-name="Rectángulo 29523" width="243.055" height="301.068" rx="10" transform="translate(7.865 8.005)" fill="url(#linear-gradient)"/>
        <path id="Trazado_123976" data-name="Trazado 123976" d="M185.015,982.253H428.071v9.987H320.214l-14.156,9.57-15.228-9.778-105.815.208Z" transform="translate(-177.15 -974.247)" fill="#db8804"/>
        <path id="Trazado_123977" data-name="Trazado 123977" d="M273.916,988.734l-8.135,7.631a2.051,2.051,0,0,1-2.874.021l-8.6-7.868" transform="translate(-135.603 -975.647)" fill="none" stroke="#12263f" stroke-linecap="round" stroke-miterlimit="10" stroke-width="0.806"/>
        <text id="Decoloraciones_superficiales_remover_con_el_lavado_del_cuerpo_porque_son_producto_de_productos_desinfectantes._" data-name="Decoloraciones superficiales, remover con el lavado del cuerpo porque son producto de productos desinfectantes. 
" transform="translate(22.399 139.791)" fill="#12263f" font-size="14" font-family="Roboto-Bold, Roboto" font-weight="700"><tspan x="16.105" y="15">Decoloraciones superficiales</tspan><tspan y="15" font-family="Roboto-Regular, Roboto" font-weight="400">, </tspan><tspan x="5.872" y="39" font-family="Roboto-Regular, Roboto" font-weight="400">remover con el lavado del cuerpo </tspan><tspan x="1.203" y="63" font-family="Roboto-Regular, Roboto" font-weight="400">porque son producto de productos </tspan><tspan x="60.467" y="87" font-family="Roboto-Regular, Roboto" font-weight="400">desinfectantes. </tspan></text>
      </g>
      <line id="Línea_1692" data-name="Línea 1692" x2="41.303" transform="translate(108.554 291.026)" fill="none" stroke="#12263f" stroke-linecap="round" stroke-miterlimit="10" stroke-width="0.806"/>
    </g>
    <g id="Grupo_128766" data-name="Grupo 128766" transform="translate(270.024 4289.796)">
      <g id="Grupo_42274" data-name="Grupo 42274" transform="translate(233.65 755.984)">
        <g id="Grupo_18423" data-name="Grupo 18423" transform="translate(0 0)">
          <g id="Grupo_18421" data-name="Grupo 18421">
            <g id="Grupo_18420" data-name="Grupo 18420">
              <g id="Grupo_18419" data-name="Grupo 18419">
                <path id="Trazado_40936" data-name="Trazado 40936" d="M280.92,2188.868a43.148,43.148,0,1,1-43.148-43.147A43.148,43.148,0,0,1,280.92,2188.868Z" transform="translate(-194.623 -2145.721)" fill="#fff"/>
              </g>
            </g>
          </g>
          <path id="Trazado_40937" data-name="Trazado 40937" d="M280.672,2188.6a43.147,43.147,0,1,0-43.148,43.15A42.978,42.978,0,0,0,280.672,2188.6Z" transform="translate(-194.375 -2145.45)" fill="url(#radial-gradient)"/>
          <path id="Trazado_40938" data-name="Trazado 40938" d="M268.318,2186.472a32.935,32.935,0,1,0-32.935,32.935A32.813,32.813,0,0,0,268.318,2186.472Z" transform="translate(-192.103 -2143.181)" fill="none" stroke="#1d272b" stroke-miterlimit="10" stroke-width="2"/>
          <g id="Grupo_18422" data-name="Grupo 18422" transform="translate(7.644 24.225)">
            <path id="Trazado_40939" data-name="Trazado 40939" d="M274.835,2164.488a43.154,43.154,0,0,1-74.29,42.97,43.017,43.017,0,0,0,74.29-42.97Z" transform="translate(-200.545 -2164.488)" fill="#eceef0"/>
          </g>
        </g>
      </g>
      <g id="_2Nuoyi.tif" data-name="2Nuoyi.tif" transform="translate(-3674.745 160.013)">
        <g id="Grupo_129315" data-name="Grupo 129315" transform="translate(3934.971 614.751)">
          <path id="Trazado_166426" data-name="Trazado 166426" d="M3934.974,813.721a8.384,8.384,0,0,1,3.423-6.83.752.752,0,0,0,.358-.69c-.012-3.406.019-6.813-.017-10.219a13.972,13.972,0,0,1,3.276-9.579c3.642-4.247,8.31-5.989,13.79-4.852,5.553,1.153,9.136,4.663,10.82,10.08a13.426,13.426,0,0,1,.514,4.047c-.009,3.563,0,7.127-.01,10.69a.861.861,0,0,0,.352.75,8.331,8.331,0,0,1,3.148,6.324,2.116,2.116,0,0,1-.024.279h-2.733a2.211,2.211,0,0,1-.046-.276,5.765,5.765,0,0,0-5.967-5.425c-3,.073-6,.015-9,.016-3.141,0-6.281-.015-9.421.01a5.538,5.538,0,0,0-5,2.974,6.588,6.588,0,0,0-.728,2.7Zm29.35-8.367v-.328c0-3.062.013-6.125-.014-9.187a15.643,15.643,0,0,0-.22-2.667,11.372,11.372,0,0,0-22.52,2.421q-.007,4.664,0,9.328v.354h4.574a1.108,1.108,0,0,0-.263-.489,8.24,8.24,0,0,1-2.089-4.405c-.183-1.631-.129-3.288-.156-4.934,0-.095.195-.254.32-.279.522-.105,1.058-.146,1.579-.255a19.789,19.789,0,0,0,9.688-5.318c.508-.484,1.018-.966,1.55-1.469.178.58.369,1.173.542,1.772a9.2,9.2,0,0,0,4.642,5.721.568.568,0,0,1,.344.587c-.018.848.005,1.7-.012,2.544a9.29,9.29,0,0,1-2.312,6.072c-.093.108-.177.224-.272.343Zm-17.9-7.737c0,.19,0,.33,0,.471.009.377,0,.755.034,1.129a6.264,6.264,0,0,0,3.66,5.33,6.175,6.175,0,0,0,6.523-.5,6.514,6.514,0,0,0,2.851-5.6,1.75,1.75,0,0,0-.78-1.63,11.375,11.375,0,0,1-3.16-3.744A22.65,22.65,0,0,1,3946.424,797.617Z" transform="translate(-3934.971 -765.495)" fill="#1d272b"/>
          <path id="Trazado_166427" data-name="Trazado 166427" d="M4068.447,620.168v-5.417h2.785v2.607h5.157v-2.6h2.8v5.413Z" transform="translate(-4055.845 -614.751)" fill="#1d272b"/>
          <path id="Trazado_166428" data-name="Trazado 166428" d="M4041.791,698.6c-1.021,1.982-1.986,3.862-2.964,5.735a.488.488,0,0,1-.347.23c-.937.019-1.875.01-2.873.01a3.633,3.633,0,0,1,.137-.379c.9-1.755,1.809-3.506,2.7-5.265a.518.518,0,0,1,.539-.338C4039.889,698.606,4040.793,698.6,4041.791,698.6Z" transform="translate(-4026.105 -690.674)" fill="#1d272b"/>
          <path id="Trazado_166429" data-name="Trazado 166429" d="M4149.7,698.689c1.077,0,2.043-.006,3.009.01a.41.41,0,0,1,.267.215q1.446,2.794,2.873,5.6c.013.024,0,.059.009.147-.981,0-1.96,0-2.939-.008a.357.357,0,0,1-.238-.184C4151.7,702.579,4150.731,700.687,4149.7,698.689Z" transform="translate(-4129.431 -690.764)" fill="#1d272b"/>
          <path id="Trazado_166430" data-name="Trazado 166430" d="M4110.779,704.186V699.4h2.767v4.789Z" transform="translate(-4094.181 -691.406)" fill="#1d272b"/>
        </g>
      </g>
    </g>
  </g>
</svg>
