<svg xmlns="http://www.w3.org/2000/svg" xmlns:xlink="http://www.w3.org/1999/xlink" width="260.926" height="312.228" viewBox="0 0 260.926 312.228">
  <defs>
    <linearGradient id="linear-gradient" x1="0.5" x2="0.5" y2="1" gradientUnits="objectBoundingBox">
      <stop offset="0" stop-color="#fff"/>
      <stop offset="1" stop-color="#f8f8f8"/>
    </linearGradient>
    <radialGradient id="radial-gradient" cx="0.076" cy="0.019" r="1.465" gradientTransform="translate(0.001)" gradientUnits="objectBoundingBox">
      <stop offset="0" stop-color="#f6f6f7"/>
      <stop offset="0.477" stop-color="#f9f9fa"/>
      <stop offset="0.715" stop-color="#fff"/>
    </radialGradient>
  </defs>
  <g id="Grupo_129368" data-name="Grupo 129368" transform="translate(-969.359 -5009.276)">
    <g id="Grupo_129311" data-name="Grupo 129311" transform="translate(969.359 5009.276)">
      <g id="Grupo_57070" data-name="Grupo 57070" transform="translate(0 0)">
        <g id="Grupo_57069" data-name="Grupo 57069" opacity="0.7" style="mix-blend-mode: multiply;isolation: isolate">
          <rect id="Rectángulo_29501" data-name="Rectángulo 29501" width="260.926" height="312.228" rx="9.04" fill="#fff" opacity="0"/>
          <rect id="Rectángulo_29502" data-name="Rectángulo 29502" width="258.714" height="310.307" rx="9.04" transform="translate(1.106 0.961)" fill="#f3f3f3" opacity="0.048"/>
          <rect id="Rectángulo_29503" data-name="Rectángulo 29503" width="256.502" height="308.385" rx="9.04" transform="translate(2.212 1.921)" fill="#e7e7e7" opacity="0.095"/>
          <rect id="Rectángulo_29504" data-name="Rectángulo 29504" width="254.289" height="306.464" rx="9.04" transform="translate(3.318 2.882)" fill="#dbdbdb" opacity="0.143"/>
          <rect id="Rectángulo_29505" data-name="Rectángulo 29505" width="252.077" height="304.543" rx="9.04" transform="translate(4.425 3.842)" fill="#cecece" opacity="0.19"/>
          <rect id="Rectángulo_29506" data-name="Rectángulo 29506" width="249.865" height="302.622" rx="9.04" transform="translate(5.531 4.803)" fill="#c2c2c2" opacity="0.238"/>
          <rect id="Rectángulo_29507" data-name="Rectángulo 29507" width="247.653" height="300.701" rx="9.04" transform="translate(6.637 5.763)" fill="#b6b6b6" opacity="0.286"/>
          <rect id="Rectángulo_29508" data-name="Rectángulo 29508" width="245.44" height="298.78" rx="9.04" transform="translate(7.743 6.724)" fill="#aaa" opacity="0.333"/>
          <rect id="Rectángulo_29509" data-name="Rectángulo 29509" width="243.228" height="296.859" rx="9.04" transform="translate(8.849 7.684)" fill="#9e9e9e" opacity="0.381"/>
          <rect id="Rectángulo_29510" data-name="Rectángulo 29510" width="241.016" height="294.938" rx="9.04" transform="translate(9.955 8.645)" fill="#929292" opacity="0.429"/>
          <rect id="Rectángulo_29511" data-name="Rectángulo 29511" width="238.804" height="293.017" rx="9.04" transform="translate(11.061 9.605)" fill="#868686" opacity="0.476"/>
          <rect id="Rectángulo_29512" data-name="Rectángulo 29512" width="236.591" height="291.096" rx="9.04" transform="translate(12.167 10.566)" fill="#797979" opacity="0.524"/>
          <rect id="Rectángulo_29513" data-name="Rectángulo 29513" width="234.379" height="289.175" rx="9.04" transform="translate(13.274 11.526)" fill="#6d6d6d" opacity="0.571"/>
          <rect id="Rectángulo_29514" data-name="Rectángulo 29514" width="232.167" height="287.254" rx="9.04" transform="translate(14.38 12.487)" fill="#616161" opacity="0.619"/>
          <rect id="Rectángulo_29515" data-name="Rectángulo 29515" width="229.955" height="285.333" rx="9.04" transform="translate(15.486 13.447)" fill="#555" opacity="0.667"/>
          <rect id="Rectángulo_29516" data-name="Rectángulo 29516" width="227.742" height="283.412" rx="9.04" transform="translate(16.592 14.408)" fill="#494949" opacity="0.714"/>
          <rect id="Rectángulo_29517" data-name="Rectángulo 29517" width="225.53" height="281.491" rx="9.04" transform="translate(17.698 15.368)" fill="#3d3d3d" opacity="0.762"/>
          <rect id="Rectángulo_29518" data-name="Rectángulo 29518" width="223.318" height="279.569" rx="9.04" transform="translate(18.804 16.329)" fill="#313131" opacity="0.81"/>
          <rect id="Rectángulo_29519" data-name="Rectángulo 29519" width="221.105" height="277.648" rx="9.04" transform="translate(19.91 17.29)" fill="#242424" opacity="0.857"/>
          <rect id="Rectángulo_29520" data-name="Rectángulo 29520" width="218.893" height="275.727" rx="9.04" transform="translate(21.017 18.25)" fill="#181818" opacity="0.905"/>
          <rect id="Rectángulo_29521" data-name="Rectángulo 29521" width="216.681" height="273.806" rx="9.04" transform="translate(22.123 19.211)" fill="#0c0c0c" opacity="0.952"/>
          <rect id="Rectángulo_29522" data-name="Rectángulo 29522" width="214.469" height="271.885" rx="9.04" transform="translate(23.229 20.171)"/>
        </g>
        <rect id="Rectángulo_29523" data-name="Rectángulo 29523" width="243.055" height="296.709" rx="10" transform="translate(7.865 8.005)" fill="url(#linear-gradient)"/>
        <path id="Trazado_123976" data-name="Trazado 123976" d="M185.015,982.253H428.071v9.987H320.214l-14.156,9.57-15.228-9.778-105.815.208Z" transform="translate(-177.15 -974.247)" fill="#1d272b"/>
        <path id="Trazado_123977" data-name="Trazado 123977" d="M273.916,988.734l-8.135,7.631a2.051,2.051,0,0,1-2.874.021l-8.6-7.868" transform="translate(-135.603 -975.647)" fill="none" stroke="#12263f" stroke-linecap="round" stroke-miterlimit="10" stroke-width="0.806"/>
        <text id="Decoloraciones_por_lesiones_aplicar_las_ceras_para_elevar_la_piel_y_luego_los_productos_cosméticos._" data-name="Decoloraciones por lesiones, aplicar las ceras para elevar la piel  y luego los productos cosméticos. 
" transform="translate(20.006 139.791)" fill="#12263f" font-size="14" font-family="Roboto-Bold, Roboto" font-weight="700"><tspan x="18.105" y="15">Decoloraciones por lesiones</tspan><tspan y="15" font-family="Roboto-Regular, Roboto" font-weight="400">, </tspan><tspan x="2.092" y="39" xml:space="preserve" font-family="Roboto-Regular, Roboto" font-weight="400">aplicar las ceras para elevar la piel  </tspan><tspan x="2.058" y="63" font-family="Roboto-Regular, Roboto" font-weight="400">y luego los productos cosméticos. </tspan><tspan font-family="Roboto-Regular, Roboto" font-weight="400"><tspan x="108.5" y="87"></tspan></tspan></text>
      </g>
      <line id="Línea_1692" data-name="Línea 1692" x2="41.303" transform="translate(108.554 290.026)" fill="none" stroke="#12263f" stroke-linecap="round" stroke-miterlimit="10" stroke-width="0.806"/>
    </g>
    <g id="Grupo_129312" data-name="Grupo 129312" transform="translate(822.024 4289.796)">
      <g id="Grupo_42274" data-name="Grupo 42274" transform="translate(233.65 755.984)">
        <g id="Grupo_18423" data-name="Grupo 18423" transform="translate(0 0)">
          <g id="Grupo_18421" data-name="Grupo 18421">
            <g id="Grupo_18420" data-name="Grupo 18420">
              <g id="Grupo_18419" data-name="Grupo 18419">
                <path id="Trazado_40936" data-name="Trazado 40936" d="M280.92,2188.868a43.148,43.148,0,1,1-43.148-43.147A43.148,43.148,0,0,1,280.92,2188.868Z" transform="translate(-194.623 -2145.721)" fill="#fff"/>
              </g>
            </g>
          </g>
          <path id="Trazado_40937" data-name="Trazado 40937" d="M280.672,2188.6a43.147,43.147,0,1,0-43.148,43.15A42.978,42.978,0,0,0,280.672,2188.6Z" transform="translate(-194.375 -2145.45)" fill="url(#radial-gradient)"/>
          <path id="Trazado_40938" data-name="Trazado 40938" d="M268.318,2186.472a32.935,32.935,0,1,0-32.935,32.935A32.813,32.813,0,0,0,268.318,2186.472Z" transform="translate(-192.103 -2143.181)" fill="none" stroke="#1d272b" stroke-miterlimit="10" stroke-width="2"/>
          <g id="Grupo_18422" data-name="Grupo 18422" transform="translate(7.644 24.225)">
            <path id="Trazado_40939" data-name="Trazado 40939" d="M274.835,2164.488a43.154,43.154,0,0,1-74.29,42.97,43.017,43.017,0,0,0,74.29-42.97Z" transform="translate(-200.545 -2164.488)" fill="#eceef0"/>
          </g>
        </g>
      </g>
      <g id="Grupo_128181" data-name="Grupo 128181" transform="translate(-6031.851 1848.431)">
        <path id="Trazado_165242" data-name="Trazado 165242" d="M6301.034-1040.351a5.178,5.178,0,0,0-.284.822c-.661,3.911-2.344,7.442-4.009,10.987a1.965,1.965,0,0,1-2.059,1.32c-4.475-.014-4.375.118-2.611-3.872a34.737,34.737,0,0,0,2.661-9.657c.389-2.964,1.141-5.88,1.744-8.814a5.69,5.69,0,0,1,4.634-4.915,22.093,22.093,0,0,0,4.1-1.443c.906-.4,1.254-1.034.447-2.011-.837-1.013-1.246-2.3-2.523-3.066-.5-.3-.557-1.573-.552-2.4,0-.86.487-1.721.481-2.579-.03-4.225,4.419-6.356,8.187-4.573a3.44,3.44,0,0,0,1.4.325,2.98,2.98,0,0,1,3.305,3.089,40.414,40.414,0,0,1,.453,4.133,4.759,4.759,0,0,1-.945,2.349c-.76,1.125-1.762,2.088-2.493,3.228-.163.255.242,1.216.615,1.409a12.966,12.966,0,0,0,3.493,1.319c3.406.636,5.026,2.748,5.565,6.03.5,3.05,1.434,6.051,1.686,9.114.3,3.622,1.881,6.732,3.151,9.986.781,2,.591,2.122-1.445,2.372-2.506.306-3.861-.571-4.652-2.968-1.123-3.4-2.51-6.713-3.9-10.364.205,3.184.376,6.143.6,9.1.071.949.278,1.886.415,2.83.126.867-.2,1.353-1.131,1.352q-7.915-.006-15.829,0c-1.245,0-1.164-.838-1.072-1.679.243-2.247.554-4.489.717-6.741.112-1.547.021-3.109.021-4.665Zm16.222,12.137c-.167-4.635-.353-9.093-.457-13.553-.012-.5.426-1.018.657-1.528.349.466.889.885,1.018,1.406.938,3.8,1.776,7.6,3.629,11.116,1.462,2.776,1.336,2.844,4.466,2.6a2.414,2.414,0,0,0,.423-.144c-.258-.645-.5-1.289-.771-1.922a33.064,33.064,0,0,1-2.857-9.6,92.1,92.1,0,0,0-1.83-9.544,16.915,16.915,0,0,0-.94-2.476,3.784,3.784,0,0,0-.772.291,3.829,3.829,0,0,1-4.99.048,2.587,2.587,0,0,0-3.218.175,3.484,3.484,0,0,1-4.337-.02,2.741,2.741,0,0,0-3.482.011,3.417,3.417,0,0,1-3.418.5,22.82,22.82,0,0,1-2.08-1.1,23.949,23.949,0,0,0-1.023,2.861c-.61,2.777-1.194,5.563-1.662,8.367-.494,2.962-.732,5.964-2.178,8.7-.62,1.171-1.028,2.456-1.582,3.81a14.3,14.3,0,0,1,1.434.091c1.69.3,2.491-.45,3.257-1.992a55.276,55.276,0,0,0,3.929-11.969c.106-.446.577-.806.878-1.205.233.434.671.869.668,1.3q-.026,4.814-.218,9.627c-.057,1.369-.307,2.73-.476,4.153Zm2.454-24.613c-.854-.285-1.51-.49-2.157-.724-1.5-.543-3.031-1.024-4.484-1.676-.933-.419-1.682-1.42-1.072-2.318.9-1.318,1.114-3.165,2.879-3.9a1.683,1.683,0,0,0,.605-1.362c-.065-1.435-.307-2.86-.45-4.293-.158-1.569-.859-2.17-2.453-2.2a3.74,3.74,0,0,1-1.678-.39c-2.541-1.385-6.8-.282-6.9,3.551-.027,1.016-.436,2.017-.551,3.039-.055.487.035,1.354.292,1.454,1.6.627,1.9,2.25,2.808,3.391a1.733,1.733,0,0,1-.454,2.822,13.692,13.692,0,0,1-2.853,1.294c-1.279.465-2.6.83-4.026,1.28,1.734,1.559,2.5,1.667,4.193.6a3.491,3.491,0,0,1,4.21.013,2.815,2.815,0,0,0,3.6.023,3.506,3.506,0,0,1,4.213-.062C6317.191-1051.2,6317.832-1051.278,6319.71-1052.826Z" fill="#1d272b"/>
        <path id="Trazado_165243" data-name="Trazado 165243" d="M6344.2-985.154a3.249,3.249,0,0,1-2.828-4.831,30.452,30.452,0,0,1,2.044-2.962c.539-.736,1.147-.761,1.7-.008a31.959,31.959,0,0,1,1.974,2.828A3.261,3.261,0,0,1,6344.2-985.154Zm.072-7.455c-.788,1.137-1.506,2.039-2.072,3.028a2.169,2.169,0,0,0,.545,2.966,2.235,2.235,0,0,0,3.028.024,2.142,2.142,0,0,0,.586-2.953C6345.772-990.524,6345.077-991.439,6344.274-992.609Z" transform="translate(-34.827 -54.09)" fill="#1d272b"/>
      </g>
    </g>
  </g>
</svg>
