<?xml version="1.0" encoding="utf-8"?>
<!-- Generator: Adobe Illustrator 25.4.2, SVG Export Plug-In . SVG Version: 6.00 Build 0)  -->
<svg version="1.1" id="Capa_1" xmlns="http://www.w3.org/2000/svg" xmlns:xlink="http://www.w3.org/1999/xlink" x="0px" y="0px"
	 viewBox="0 0 419 489.7" style="enable-background:new 0 0 419 489.7;" xml:space="preserve">
<style type="text/css">
	.st0{opacity:0.354;fill:#A4A4B4;enable-background:new    ;}
	.st1{opacity:0.31;fill:#A4A4B4;enable-background:new    ;}
	.st2{fill:#A4A4B4;}
	.st3{fill:#12263F;}
	.st4{fill:#F4B1A4;}
	.st5{fill:url(#Trazado_165852_00000088837232641792152450000001879211584551575996_);}
	.st6{fill:#F7B242;}
	.st7{fill:#D1D1D1;}
	.st8{fill:#1D272B;}
	.st9{fill:url(#Trazado_165857_00000050656894322382063060000015823362366082770601_);}
	.st10{fill:#FFC3B5;}
	.st11{fill:#FC8899;}
	.st12{fill:#FCFCFC;}
	.st13{fill:url(#Trazado_165866_00000101062458846981923060000007897887947667876787_);}
	.st14{fill:#D93328;}
	.st15{fill:#466EB6;}
	.st16{fill:url(#Trazado_165874_00000179624456727398590990000003988972523728677007_);}
	.st17{fill:#F7CC7F;}
	.st18{fill:#293241;}
	.st19{fill:url(#Trazado_165879_00000105408717845860582380000017552769508835525792_);}
	.st20{fill:url(#Trazado_165880_00000162329403017517261950000012209342693173990832_);}
	.st21{fill:#F47458;}
	.st22{fill:#FFFFFF;}
	.st23{fill:#FF6677;}
	.st24{fill:url(#Trazado_165901_00000164495236036527443290000004439649849706170548_);}
	.st25{fill:#F48C7F;}
	.st26{fill:#F79C8D;}
	.st27{fill:url(#Trazado_165911_00000028293284237571904810000012160191005899924910_);}
	.st28{fill:url(#Elipse_4453_00000158023068057094349120000011903435399273412756_);}
	.st29{fill:url(#Elipse_4454_00000129202021181155253540000018358351228222741175_);}
	.st30{fill:url(#Trazado_165918_00000091705846874031420830000013859726927012418191_);}
	.st31{fill:#F7A491;}
	.st32{fill:#008F85;}
	.st33{fill:#EDBE8C;}
	.st34{opacity:0.5;}
	.st35{fill:#3E2B9E;}
	.st36{opacity:0.5;fill:#3E2B9E;enable-background:new    ;}
	.st37{fill:url(#Trazado_165256_00000181774707909334895320000014425646553002994581_);}
	.st38{fill:url(#Trazado_165257_00000092447268846359913840000005231050209853525376_);}
	.st39{fill-rule:evenodd;clip-rule:evenodd;fill:#1D272B;}
	.st40{fill-rule:evenodd;clip-rule:evenodd;fill:#D8DCE8;}
	.st41{fill-rule:evenodd;clip-rule:evenodd;fill:#BDC8D3;}
	.st42{fill-rule:evenodd;clip-rule:evenodd;fill:#008F85;}
	.st43{fill-rule:evenodd;clip-rule:evenodd;fill:#04776F;}
	.st44{fill-rule:evenodd;clip-rule:evenodd;fill:#01655E;}
	.st45{fill-rule:evenodd;clip-rule:evenodd;fill:#F7F7FB;}
	.st46{fill:#AAB7C4;}
	.st47{fill:#D8DCE8;}
	.st48{fill-rule:evenodd;clip-rule:evenodd;fill:#F4F5FA;}
	.st49{fill-rule:evenodd;clip-rule:evenodd;fill:url(#Trazado_165970_00000016055566581428945980000000135117401435715003_);}
	.st50{fill-rule:evenodd;clip-rule:evenodd;fill:url(#Trazado_165971_00000009561495346009213140000017609425415085543041_);}
	.st51{fill-rule:evenodd;clip-rule:evenodd;fill:url(#Trazado_165972_00000136394232592810809430000004037254559867995059_);}
	.st52{fill-rule:evenodd;clip-rule:evenodd;fill:url(#Trazado_165973_00000101061062478058438840000016310657330315584390_);}
	.st53{fill:url(#Rectángulo_35704_00000054956351224090659170000000930253517478331302_);}
	.st54{fill:url(#Rectángulo_35705_00000139272957742641807890000005931063479257612182_);}
	.st55{fill:url(#Rectángulo_35476_00000044180275751926897940000011821917980517187730_);}
	.st56{fill:#868695;}
	.st57{fill:#EFEBE9;}
	.st58{fill:#97E8CE;}
	.st59{fill:#B2F2EF;}
	.st60{fill:#00A79E;}
	.st61{fill:#9DE2F5;}
	.st62{fill:#CFD8DC;}
	.st63{fill:#37474F;}
	.st64{fill:#2A383E;}
	.st65{fill:#BDBDBD;}
	.st66{fill:#EBFDFF;}
	.st67{fill:#0090B8;}
	.st68{fill:#B42218;}
	.st69{fill:#F8F8F8;}
</style>
<g id="Grupo_129350" transform="translate(-215.85 -1442)">
	<path id="Trazado_165948" class="st0" d="M574.4,1910.2c14.4-30.7,18.5-70.5,10.9-105.6c-4.8-22.2-14.1-42.9-15.3-66
		c-2.4-46.3,27.5-83.8,33.7-129.4c2.7-20.1-0.2-43.4-11.9-55.6c-11.5-12-28-9.6-41-1.1s-24.1,21.9-36.6,31.8
		c-12.5,9.9-27.9,16-41.2,8.1c-13.4-7.9-21-28-25.3-47.5c-4.3-19.5-6.3-40.3-13.6-58c-12-29.2-37.5-45.1-61.3-40.9
		c-23.8,4.1-45,26.7-56.4,56.3c-11.4,29.6-13.4,65.4-7.7,98.1c2.9,16.6,7.6,32.5,10.2,49.2c2.6,16.7,2.8,34.9-3,50
		c-12.1,31.4-43.9,35.8-60.6,62.8c-13.8,22.2-14.2,56.2-6.4,83.5s22.5,49.5,37.1,70.7c68.3,3.2,137.8,3.4,206,6.7
		C518.6,1924.1,547.9,1912.4,574.4,1910.2z"/>
	<path id="Trazado_165949" class="st1" d="M553.9,1568.4c-0.2,18,17,33.7,14,51.5c-1.6,9.5-8.8,19.2-4.6,27.8
		c3.7,7.7,14.4,9,22.6,6.5c19.1-5.8,30.7-25.4,36.3-44.6c5.2-18.1,6.5-38.2-1.8-55.1c-6.7-13.6-22.3-25.5-38.1-24.4
		C567.7,1531.2,554.1,1554.8,553.9,1568.4z"/>
	<path id="Trazado_165950" class="st1" d="M290.4,1483.9c-11.9,20.4-12.4,45.6-1.4,66.4c3.5,6.4,8.2,12.4,14.6,16
		c6.4,3.6,14.6,4.4,21,0.7c9.6-5.5,11.8-18.5,11-29.6s-3.3-22.7,1-33c2.8-6.7,8.1-11.9,12.9-17.4c4.7-5.5,9.2-11.9,9.4-19.1
		c0.6-18.8-19.3-17.4-31.3-13.5C312.2,1459.7,299,1470.1,290.4,1483.9z"/>
	<g id="Grupo_128901" transform="translate(248.588 1442)">
		<path id="Trazado_151849" class="st2" d="M323.3,478.1l-1.5-1.9c4.1-6.2,10.6-20.4,8.4-45.9c-1-11.4-3.4-22.6-5.8-33.5
			c-1.1-4.9-2.1-9.9-3.1-14.9c-10.1-53.2-5.7-111.8,12.2-160.9c1.6-4.4,3.3-8.7,5-13c4.9-12.5,10-25.5,12.2-39.5
			c3.8-24.6-3.8-43-12.4-49.7c-8.3-6.4-20.1-5.5-32.2,2.7c-4.5,3.2-8.8,6.5-13,10.2c-5.5,4.7-11.2,9.5-17.4,12.9
			c-24.1,13.4-54.3,2-70.2-26.6c-7.6-13.7-11.9-30.3-16.1-46.4c-1.6-6.2-3.3-12.7-5.1-18.8C178.5,33.8,168.1,9.8,150.7,4
			c-15.3-5.1-30.7,6-41,16.2C90,39.8,76.2,66.2,70.7,94.7c-3.7,19.2-3.9,40.1-4,60.3c-0.2,30.1-0.4,61.2-12.7,86.3
			c-5.6,11.4-13.2,20.5-20.7,29.3c-6.9,8.2-14.1,16.8-19.5,27.1c-12.1,23.4-15.1,56.5-8.2,90.9c6.2,30.9,19,58.3,31.3,84.8l-1.7,1.5
			c-12.4-26.7-25.2-54.2-31.5-85.5c-7.1-35.2-4-69.2,8.5-93.3c5.5-10.6,12.8-19.2,19.8-27.6c7.3-8.7,14.9-17.7,20.3-28.7
			C64.2,215.4,64.4,186,64.7,155c0.1-20.4,0.3-41.5,4.1-61c5.6-29.1,19.8-56.1,39.8-76c10.6-10.5,26.6-22,42.6-16.7
			c18.2,6,29,30.8,34.9,50.5c1.9,6.2,3.5,12.7,5.2,18.9c4.1,15.8,8.4,32.2,15.8,45.6c15.4,27.6,44.5,38.7,67.9,25.7
			c6-3.3,11.6-8.1,17.1-12.7c4.2-3.7,8.6-7.1,13.1-10.3c12.8-8.6,25.2-9.5,34.1-2.6c9.3,7.2,17.5,26.8,13.4,52.7
			c-2.3,14.4-7.4,27.5-12.4,40.2c-1.7,4.2-3.4,8.6-4.9,12.9c-17.6,48.5-22,106.4-12,158.9c0.9,4.9,2,9.9,3.1,14.8
			c2.4,11,4.8,22.3,5.9,33.9C334.6,456.6,327.7,471.5,323.3,478.1z"/>
	</g>
	<g id="Grupo_128905" transform="translate(215.85 1494.744)">
		<path id="Trazado_165850" class="st3" d="M276.3,65.9c0.5-11.6-1.2-23-6.4-33.7c-4.4-9.3-15.4-14.5-25.5-14.5
			c-31.9,0-35.9,42.1-56.2,58.3c-6.2,5-13.1,9-19,14.4c-21.7,19.8-11.9,56.3,8,73.7c13.8,12,35.5,18.8,52.5,9.5
			c8.9-4.9,15.6-13.1,20.4-22c6.8-12.7,11.2-27.3,16.1-40.8C271.3,96.3,275.6,81.3,276.3,65.9z"/>
		<g id="Grupo_128895" transform="translate(34.733 0)">
			<g id="Grupo_128884" transform="translate(161.319 25.472)">
				<path id="Trazado_165851" class="st4" d="M40.9,89l15.4-16.2c0,0,16.5,9,35.6,17.7c5.3-9.2,13.9-39.4,14.3-40.8
					s-10.1-19.6-7.7-20s5.4,9.7,7.9,8.7s8.9-24.6,10.4-23.3c2.8,2.4-3.4,14.6-1.9,15.5s5.2-13.6,8.1-12.9s-4.8,13.2-4,14.4
					s8.9-10.6,10.5-7.8c0.9,1.5-7.4,10.2-5.7,11.2s9.2-4.5,10.1-2.8s-7,3.7-9.2,8.2s-6.2,6.3-7.5,14.8s-4.9,54.3-14.2,57.9
					C94.9,116.7,40.9,89,40.9,89z"/>
				
					<linearGradient id="Trazado_165852_00000048483838633768989720000009815537140534818708_" gradientUnits="userSpaceOnUse" x1="-927.4827" y1="700.9238" x2="-927.4827" y2="699.9238" gradientTransform="matrix(43.88 0 0 -42.856 40766.9336 30106.5312)">
					<stop  offset="0" style="stop-color:#F5F5F5"/>
					<stop  offset="0.25" style="stop-color:#F5F5F5"/>
					<stop  offset="1" style="stop-color:#A7B3CF"/>
				</linearGradient>
				<path id="Trazado_165852" style="fill:url(#Trazado_165852_00000048483838633768989720000009815537140534818708_);" d="
					M58.3,67.8c1.6,0.5,3.2,1,4.7,1.6c7.5,3.8,27.9,19.1,27.9,19.1s-4.5,16-9.4,22.1L47,96.5L58.3,67.8z"/>
				<path id="Trazado_165853" class="st6" d="M125.2,33.6c-1.9-1.1,7.3-10.2,6.3-11.8c-1.8-3-10.6,9.9-11.6,8.6s7.5-15.1,4.4-15.8
					s-7.3,15.2-8.9,14.2s5.2-14.4,2.1-17c-1.6-1.4-8.4,22.7-11.1,23.8s-6.4-8.3-9-7.8s9,20.4,8.5,22c-0.1,0.3-0.4,1.4-0.9,3.1
					c4.1,0.4,9.6,1.1,13.2,2.5c1.6-8.6,5.7-10.6,8.1-15.4c2.4-5,11.1-7,10.1-9S127.1,34.7,125.2,33.6z"/>
				<path id="Trazado_165854" class="st7" d="M106.6,50.4c0,0,6.6-2.1,10.2,1.9C116.7,52.3,114,50.1,106.6,50.4z"/>
				<g id="Grupo_128882">
					<g id="Grupo_128881">
						<path id="Trazado_165855" class="st8" d="M77.9,246.8c0.6-5.4,1.2-9.4,1.5-11.4c3.3-18.7-1.7-47.1-1.7-47.1L66,183.9
							l-18.2,62.9L77.9,246.8z"/>
						<path id="Trazado_165856" class="st8" d="M59.4,246.8l7.9-22.9l8.2-48.1L26,182.3c0,0-13.8,20.8-17.1,38
							c-1.1,5.7-1.2,15.3-1.1,26.5H59.4z"/>
						
							<linearGradient id="Trazado_165857_00000024704313973201277660000010620683217058003642_" gradientUnits="userSpaceOnUse" x1="-933.5457" y1="705.485" x2="-933.5457" y2="704.485" gradientTransform="matrix(68.0516 0 0 -127.887 63573.582 90286.1953)">
							<stop  offset="0" style="stop-color:#F5F5F5"/>
							<stop  offset="0.25" style="stop-color:#F5F5F5"/>
							<stop  offset="1" style="stop-color:#A7B3CF"/>
						</linearGradient>
						<path id="Trazado_165857" style="fill:url(#Trazado_165857_00000024704313973201277660000010620683217058003642_);" d="
							M37.2,63.9c0,0-18.3-1.2-25.6,6.7s16.1,70.3,17.4,80.4s-6.7,36.7-6.7,36.7s43.1,8.7,55.4,0.5c0,0,1.3-72.2,0-79.4
							S65.4,72.5,62.8,69.6S37.2,63.9,37.2,63.9z"/>
						<path id="Trazado_165858" class="st10" d="M43.3,39.5c0,0-0.1,0.5-0.3,1.5c-0.8,4.4-4,19-6.1,23c-2.6,4.8,8.8,20.3,19.7,18.4
							c3.3-0.6-2.8-14.2-2.5-15.7c0.6-2.8,1.3-6.5,2.1-10.4c0.4-2.2,0.9-4.4,1.3-6.5c1.2-5.9,2.1-10.8,2.1-10.8L43.3,39.5z"/>
						<path id="Trazado_165859" class="st11" d="M43.1,40.9c0.2-0.9,0.3-1.5,0.3-1.5l16.4-0.4c0,0-1,4.8-2.1,10.8
							c-0.4,2.1-0.8,4.3-1.3,6.4c-2.9-0.5-5.7-1.9-7.8-3.9c-2.7-2.4-4.8-5.4-5.9-8.8C42.8,42.5,42.9,41.6,43.1,40.9z"/>
						<path id="Trazado_165860" class="st10" d="M54.4,2.3c0,0-7.7-0.9-12.6,5.4s-10.1,25.6,2,36.1s23.9-1.4,25.7-14
							S71.9,1.8,54.4,2.3z"/>
						<path id="Trazado_165861" class="st10" d="M73,29.5c-1.4,2.8-3.8,4.3-5.4,3.4s-1.6-3.9-0.2-6.6s3.8-4.3,5.4-3.4
							S74.5,26.8,73,29.5z"/>
						<path id="Trazado_165862" class="st3" d="M55.2,0.2c0,0-10.3,18.4-17.7,19.2s-8.4,10.6-8.4,10.6s2.6-22.5,10-26.9
							S55.2,0.2,55.2,0.2z"/>
						<g id="Grupo_128879" transform="translate(33.993 18.83)">
							<path id="Trazado_165863" class="st12" d="M6,18.9C5.4,18.1,0.3,11,0.1,8.8c0-0.1-0.6-6.2,1.6-8.2c0.5-0.5,1.3-0.7,2-0.5
								C7,0.8,9.9,5.9,10,6.1l-1,0.6c0,0-2.7-4.9-5.5-5.5c-0.4-0.1-0.7,0-1,0.3C1.1,2.6,1,6.8,1.2,8.6c0.1,1.5,3.5,6.5,5.7,9.6
								L6,18.9z"/>
						</g>
						<path id="Trazado_165864" class="st10" d="M39.5,24.1c0.6,3.3-0.6,6.4-2.7,6.8s-4.3-2-4.9-5.3s0.6-6.3,2.7-6.7
							S38.9,20.8,39.5,24.1z"/>
						<g id="Grupo_128880" transform="translate(0 70.211)">
							<path id="Trazado_165865" class="st10" d="M108.2,20.7c-7.9,6.4-20.7,20.4-30.9,27.2c-11.5-7.3-30.9-26-30.9-26L30.8,41.1
								C30.4,41.2,74.2,71.5,81,70c8-1.8,25.3-26.5,34.5-43.3L108.2,20.7z"/>
							
								<linearGradient id="Trazado_165866_00000157989752250504377290000011479355205686925244_" gradientUnits="userSpaceOnUse" x1="-932.2627" y1="632.3588" x2="-932.2627" y2="631.3588" gradientTransform="matrix(60.9473 0 0 -56.3844 56849.3359 35655.168)">
								<stop  offset="0" style="stop-color:#F5F5F5"/>
								<stop  offset="0.25" style="stop-color:#F5F5F5"/>
								<stop  offset="1" style="stop-color:#A7B3CF"/>
							</linearGradient>
							<path id="Trazado_165866" style="fill:url(#Trazado_165866_00000157989752250504377290000011479355205686925244_);" d="
								M60.9,32.3c0,0-27.6-27.5-38.8-31.3S0.7,5.3,0,15.8s43.4,40.6,43.4,40.6L60.9,32.3z"/>
						</g>
						<path id="Trazado_165867" class="st12" d="M70.4,22.3c0.1,0.4,0.2,0.7,0.3,1.1l-1.6,3.4l-0.8,0l1.9-4.6
							C70.3,22.3,70.3,22.3,70.4,22.3z"/>
						<path id="Trazado_165868" class="st12" d="M69.5,25.9c-4.1-0.3-8.1-0.9-12.1-1.8c-6.8-1.6-15.7-0.5-15.7-0.5l-5,9.9
							c0,0,1.6,13.3,16.4,17.1c0,0,4.8,1,10.8-4.4S69.5,25.9,69.5,25.9z"/>
					</g>
				</g>
				<g id="Grupo_128883" transform="translate(110.05 67.016)">
					<path id="Trazado_165869" class="st14" d="M10.8,3.3C9.3,3.3,6,3.7,5.3,5.1c0,0-1.2,2.9-1.4,17.5L0,22.3
						C1.2,5.6,2.8,3.7,2.7,3.9c1.2-2.4,5.1-3,7.8-3l0.5,0L10.8,3.3z"/>
					<rect id="Rectángulo_35677" x="39.8" y="1.4" class="st14" width="3.3" height="4"/>
					<path id="Trazado_165870" class="st8" d="M25.1,40.7c0-5.9-1.4-11.7-4-17l-0.5-1L7.7,22.6l-1.2,2.8c-2,4.7-3.1,9.8-3.1,15
						l0.1,38l0,0l0,0c0,1.3,4.8,2.4,10.7,2.4s10.7-1.1,10.7-2.4L25.1,40.7z"/>
					<rect id="Rectángulo_35678" x="8.7" y="16" class="st15" width="11.9" height="9.7"/>
					<path id="Trazado_165871" class="st7" d="M10,0h31.2v5.8c0,2.5-2,4.5-4.5,4.5c0,0,0,0,0,0h-10c-1.8,0-5,1.6-5,3.4L21,19
						L12.2,19v-8.7H10V0z"/>
				</g>
				<path id="Trazado_165872" class="st6" d="M101.3,94.2c0,0,6.9-11.9,8.6-14.2s1.7-9.8,2.3-11.6s5.1,0.6,3.7,4s-0.1,4.2,1.1,4.8
					s12.3-1,14.5,0.6s1.2,4.5,0,4.9c0,0,1.7,1.7,1.1,3.6s-1.4,2.2-1.4,2.2s0.7,0.3,0.4,2.3c-0.1,1.1-0.8,2-1.8,2.3
					c-0.4,0.6-0.6,1.4-0.5,2.2c0.1,1.4-1.8,1.2-6.3,1.7s-5.7-0.4-7.3,0.8s-2.9,5.4-2.9,5.4L101.3,94.2z"/>
			</g>
			<g id="Grupo_128894" transform="translate(0 0)">
				<g id="Grupo_128887">
					<path id="Trazado_165873" class="st4" d="M62.2,144.6c0,0-20.6,8.8-23.8,8.2c-1.5-0.6-3.1-1.2-4.8-1.6
						c-3.2-0.8-11.4-1.2-15.9,0.6s-8.5,1.7-8.5,3.2s0.7,1.9,2.7,1.8s7.3-1.4,7.4-1.4c0.3,0.8,0.5,0.2-0.9,0.7
						c-1.2,0.5-12.9,5.8-16.6,7.5c-0.6,0.3-0.9,1-0.6,1.6l0,0c0.3,0.6,1,0.9,1.6,0.7l12.2-4.8c0.1,0,0.1,0,0.2,0l0,0
						c0,0.1,0,0.1,0,0.2c0,0,0,0,0,0l-14.1,6.2c-0.7,0.3-1,1.1-0.8,1.8l0,0c0.2,0.8,1.1,1.3,1.9,1c0,0,0.1,0,0.1-0.1l14.6-6
						c0.1,0,0.1,0,0.2,0.1c0,0,0,0,0,0l0,0c0,0.1,0,0.1-0.1,0.2l-14,6.1c-0.7,0.3-1,1-0.8,1.7l0,0c0.2,0.8,1,1.2,1.8,0.9
						c0,0,0.1,0,0.1,0l13.5-5.4c0.1,0,0.1,0,0.2,0.1c0,0,0,0,0,0l0,0c0,0.1,0,0.1-0.1,0.1l-11.2,4.9c-0.7,0.3-1.1,1.1-0.8,1.9l0,0
						c0.2,0.6,0.8,1.1,1.5,1.1c2.7,0,10.1-2.7,17-4.6c8.8-2.4,43.7-12.1,43.7-12.1s0.4-7.3-2.7-10.1S62.2,147.1,62.2,144.6z"/>
					
						<linearGradient id="Trazado_165874_00000018233778603553089270000005077622126394730921_" gradientUnits="userSpaceOnUse" x1="-767.0674" y1="729.5931" x2="-767.0674" y2="728.5931" gradientTransform="matrix(46.333 0 0 -80.264 35613.3633 58642.7344)">
						<stop  offset="0" style="stop-color:#F5F5F5"/>
						<stop  offset="0.25" style="stop-color:#F5F5F5"/>
						<stop  offset="1" style="stop-color:#A7B3CF"/>
					</linearGradient>
					<path id="Trazado_165874" style="fill:url(#Trazado_165874_00000018233778603553089270000005077622126394730921_);" d="
						M89.2,82.6l-11.9,53.7l-27.6,10.1l7.5,16.4l38.9-8.2l-5.7-28.5L89.2,82.6z"/>
					<g id="Grupo_128885" transform="translate(92.772 192.436)">
						<path id="Trazado_165875" class="st17" d="M39.2,35.5C39.2,35.5,39.2,35.5,39.2,35.5L39.2,35.5z"/>
						<path id="Trazado_165876" class="st18" d="M37.9,68.7c1.1-13.1,1.1-34,1.3-33.3L30.3,0C20,0,10.1,0.1,1.3,0.1
							C1,2,0.7,4.1,0.4,6.3C-1.4,21,3.1,46.5,7.3,68.7L37.9,68.7z"/>
					</g>
					<path id="Trazado_165877" d="M131.9,261.2H164c-1.6-15.2,12.2-50.4,10.5-63.7c-14.7-0.2-34.5-5.1-51.5-5l-5.1,17
						c3,13.6,3.4,50.1,4.3,51.7L131.9,261.2z"/>
					<path id="Trazado_165878" class="st8" d="M91.6,82.5l10.9-3.7c0,0,19.6-5.6,23.3-6.3c0.3-0.1,11.5,33.9,20.7,59.5
						s19.9,79.9,19.9,79.9c-10.3,5.1-21.3,8.5-32.7,10c-19,2.4-45.1,1.7-45.1,1.7s5.9-70.8,5.6-87.2S91.6,82.5,91.6,82.5z"/>
					
						<linearGradient id="Trazado_165879_00000107551403388964817270000013505303932213270958_" gradientUnits="userSpaceOnUse" x1="-752.0255" y1="731.4095" x2="-752.0255" y2="730.4095" gradientTransform="matrix(24.0007 0 0 -159.2231 18140.4941 116533.0938)">
						<stop  offset="0" style="stop-color:#F5F5F5"/>
						<stop  offset="0.25" style="stop-color:#F5F5F5"/>
						<stop  offset="1" style="stop-color:#A7B3CF"/>
					</linearGradient>
					<path id="Trazado_165879" style="fill:url(#Trazado_165879_00000107551403388964817270000013505303932213270958_);" d="
						M81.1,142.1l8.1-59.5l14.2-6.9c0,0-5.7,27.3-5.6,50s-2.2,108-2.2,108s-10.2,3.8-14.3-1.9S81.1,142.1,81.1,142.1z"/>
					
						<linearGradient id="Trazado_165880_00000117642684184608630860000016636693049148370849_" gradientUnits="userSpaceOnUse" x1="-772.2989" y1="731.3882" x2="-772.2989" y2="730.3882" gradientTransform="matrix(68.5012 0 0 -157.406 53051.7422 115197.4297)">
						<stop  offset="0" style="stop-color:#F5F5F5"/>
						<stop  offset="0.25" style="stop-color:#F5F5F5"/>
						<stop  offset="1" style="stop-color:#A7B3CF"/>
					</linearGradient>
					<path id="Trazado_165880" style="fill:url(#Trazado_165880_00000117642684184608630860000016636693049148370849_);" d="
						M167.5,154.2c2.7-63.8-11.7-78.9-11.7-78.9l-30.2-2.8c0,0-16.2,37.9-10.2,89.5c3.2,27.4,9.8,52.2,21.2,64.6
						c8.3,9.1,40.2-2,45.9-13.7C183.6,211.3,166.2,185.9,167.5,154.2z"/>
					<path id="Trazado_165881" class="st4" d="M122.5,51.5l3.2,21.1c0,0-4.6,20.5-13.1,19.5c-7.1-0.9-9.8-12.8-9.8-12.8
						s0-4.7-0.1-10.1c-0.1-3.8-0.4-7.8-1.4-10.6C99,51.9,122.5,51.5,122.5,51.5z"/>
					<path id="Trazado_165882" class="st11" d="M101.3,58.5C99,51.9,118.7,53,118.7,53l3.6-0.4c-0.6,2.5-1.6,4.8-3,6.9
						c-3.8,5-10.9,8.4-16.6,9.6C102.7,65.5,102.3,62,101.3,58.5z"/>
					<g id="Grupo_128886" transform="translate(81.628)">
						<path id="Trazado_165883" class="st3" d="M2.7,17.8c0,0-1.8,14,2.1,23.1c2.1,5.2,5.1,10,8.7,14.2l9.2-37.8L2.7,17.8z"/>
						<path id="Trazado_165884" class="st10" d="M32,17.9c0.5-0.4,12.9,25.3,8.4,35.1S23.5,69.8,16.7,65.6c-7.5-4.7-17-33.8-8.7-45
							S32,17.9,32,17.9z"/>
						<path id="Trazado_165885" class="st21" d="M40.4,53c1-2.3,1.2-5.4,0.7-8.9l-0.3,0.1l-1.5,10.9C39.7,54.5,40.1,53.8,40.4,53z"
							/>
						<path id="Trazado_165886" class="st3" d="M26,1c8.2,2.2,12.7,4.5,21,11.4c10.1,8.6,6.3,24.5,0.7,32.9s-3.4,14.9-3.4,14.9
							L42,57.5c-1.8-2.4-1.9-15.2-1.7-16.9c0.5-4.5,0.6-5.5-2.1-8.2c-2.1-2.1-3.8-8.1-7.2-11.6l-11.8,3c0,0-7.4,1.7-12.7-0.5
							C-8.6,16.8,4.4-5,26,1z"/>
						<path id="Trazado_165887" class="st12" d="M5.9,45.2c0,0,1.9,17.2,9.9,21.5c5,2.7,17.8-1.4,23.7-11.7c0,0-5.9-9.1-6.2-13.3
							c0,0-10.5,1.1-18.5,2.2C9.3,44.7,5.9,45.2,5.9,45.2z"/>
						<path id="Trazado_165888" class="st12" d="M37.4,31.3l-6.2,12.1l1.4,0.1l5.7-11.8L37.4,31.3z"/>
						<path id="Trazado_165889" class="st12" d="M40.2,42.4l-2.1,12.4l1.3,0.2l2-12.8L40.2,42.4z"/>
						<path id="Trazado_165890" class="st10" d="M37.1,36.4c0.1,3.5,1.8,6.2,3.8,6.2s3.6-2.9,3.5-6.4S42.6,30,40.6,30
							S37,32.9,37.1,36.4z"/>
					</g>
					<path id="Trazado_165891" class="st22" d="M18.5,172.4c-0.3-2.1,0.8-4.2,2.8-5.2c-0.9-2.2,0.1-4.7,2.3-5.7
						c2.2-0.9,4.7,0.1,5.7,2.3c0.1,0.3,0.2,0.7,0.3,1.1l1.7,11.1c0.3,2-1.1,3.9-3.1,4.2c-2,0.3-3.9-1.1-4.2-3.1c0,0,0,0,0,0
						c0-0.2,0-0.3,0-0.5C21.2,176.7,18.9,174.9,18.5,172.4z"/>
					<path id="Trazado_165892" class="st22" d="M31.4,152.8c1.4,1.5,1.6,3.7,0.5,5.5c0.3,0.2,0.6,0.4,0.8,0.6
						c1.5,1.9,1.2,4.6-0.6,6.1c-1.6,1.3-3.8,1.3-5.4,0l-7.1-7.1c-1.3-1.6-1.1-4,0.5-5.3c1.4-1.1,3.3-1.1,4.7,0
						c0.1,0.1,0.2,0.2,0.3,0.3C26.8,151.3,29.6,151.2,31.4,152.8z"/>
					<path id="Trazado_165893" class="st22" d="M29,158.6c0.1,1.1-0.7,2-1.8,2.1c-1.1,0.1-2-0.7-2.1-1.8c-0.1-1,0.7-1.9,1.7-2
						C27.9,156.8,28.9,157.5,29,158.6z"/>
					<path id="Trazado_165894" class="st23" d="M31.9,174L31.9,174c-2.8,2.6-7.2,2.3-9.8-0.5c0,0,0,0,0,0l-5.5-6
						c-2.6-2.8-2.3-7.2,0.5-9.8c0,0,0,0,0,0l0,0c2.8-2.6,7.2-2.3,9.8,0.5c0,0,0,0,0,0l5.5,6C35,167.1,34.8,171.5,31.9,174
						C31.9,174,31.9,174,31.9,174z"/>
					<path id="Trazado_165895" class="st10" d="M65.7,160.3c-5.6,1.8-16.2,2.8-18.5,2c0,0-1.1-0.4-4.3-1.8s-11-1.9-16-0.9
						s-9.1,0.3-9.4,1.7s0.3,2.1,2.4,2.3s7.9-0.2,7.9-0.1c0,0.3-0.7,0.5-1.1,0.6c-1.3,0.3-14.4,3.7-18.5,4.8
						c-0.7,0.2-1.1,0.9-0.9,1.6c0.2,0.6,0.8,1,1.5,0.9l13.5-2.8c0.1,0,0.1,0,0.2,0.1c0,0.1,0,0.1-0.1,0.2l-15.7,3.9
						c-0.8,0.2-1.4,1-1.2,1.9s1,1.4,1.9,1.2l0,0l16.2-3.6c0.1,0,0.1,0,0.2,0.1c0,0.1,0,0.1-0.1,0.2l-15.5,3.8
						c-0.8,0.2-1.3,1-1.1,1.8s1,1.3,1.8,1.1l15-2.9c0.1,0,0.1,0.1,0.1,0.2c0,0.1,0.1,0.5,0,0.5l-12.7,2.3c-0.8,0.2-1.3,1-1.2,1.8
						l0,0c0.1,0.7,0.6,1.2,1.3,1.4c2.8,0.5,9.4-1,16.9-1.7c3.2-0.3,11-2.8,18-4c7.1-1.2,14.5-0.6,21.3,1.8c0.6-2.1,2.7-7.5,1.9-9.7
						C68.6,165.8,66.9,163.2,65.7,160.3z"/>
					<path id="Trazado_165896" class="st22" d="M29.8,171.8c0.1,1.4-0.9,2.6-2.3,2.7c-1.4,0.1-2.6-0.9-2.7-2.3
						c-0.1-1.3,0.8-2.5,2.2-2.7C28.4,169.4,29.7,170.4,29.8,171.8z"/>
					<path id="Trazado_165897" class="st22" d="M27.3,172.9c0.1,1.4-0.9,2.6-2.3,2.7c-1.4,0.1-2.6-0.9-2.7-2.3
						c-0.1-1.3,0.8-2.5,2.2-2.7C25.9,170.5,27.2,171.5,27.3,172.9z"/>
					<path id="Trazado_165898" class="st22" d="M24.7,175.7c0.1,0.9-0.5,1.8-1.4,1.9c-0.9,0.1-1.8-0.5-1.9-1.4
						c-0.1-0.9,0.5-1.8,1.4-1.9c0,0,0,0,0,0C23.7,174.2,24.6,174.8,24.7,175.7z"/>
					<path id="Trazado_165899" class="st22" d="M27.9,178.8c0.4,1.1-0.2,2.2-1.3,2.6s-2.2-0.2-2.6-1.3c-0.4-1.1,0.2-2.2,1.3-2.6
						c0.1,0,0.2-0.1,0.4-0.1C26.7,177.2,27.7,177.8,27.9,178.8z"/>
					<path id="Trazado_165900" class="st22" d="M28.2,175.8c0.4,1.1-0.2,2.2-1.3,2.6c-1.1,0.4-2.2-0.2-2.6-1.3
						c-0.4-1.1,0.2-2.2,1.3-2.6c0.1,0,0.2-0.1,0.4-0.1C27,174.2,27.9,174.8,28.2,175.8z"/>
					
						<linearGradient id="Trazado_165901_00000172418020396680574710000004842032165399880374_" gradientUnits="userSpaceOnUse" x1="-776.0309" y1="730.4478" x2="-776.0309" y2="729.4478" gradientTransform="matrix(103.9975 0 0 -104.694 80815.9062 76548.3203)">
						<stop  offset="0" style="stop-color:#F5F5F5"/>
						<stop  offset="0.25" style="stop-color:#F5F5F5"/>
						<stop  offset="1" style="stop-color:#A7B3CF"/>
					</linearGradient>
					<path id="Trazado_165901" style="fill:url(#Trazado_165901_00000172418020396680574710000004842032165399880374_);" d="
						M58.6,158.9l2.1,20.6c0,0,71.6-2.1,76.2-4s24.5-61.5,24.5-61.5s5.3-35.7-5.6-38.7s-18.1,8.1-22.7,24.6s-13.8,48.5-13.8,48.5
						L58.6,158.9z"/>
				</g>
				<g id="Grupo_128893" transform="translate(63.797 135.656)">
					<path id="Trazado_165902" class="st3" d="M160.1,78c3.9-12.5,1.5-36-4.6-47.2c-12-22.2-47-41.6-66.1-23.8
						C69.8,11.3,54.6,31.1,54,51c-21.1,11.7-34.4,38.5-15,59.7c-6,18.4,8.7,44.8,22.8,57.6c3.4,3.1-2.1,24.6,18.4,34.2
						C94.7,209.3,210.5,203.1,160.1,78z"/>
					<g id="Grupo_128892" transform="translate(0 13.171)">
						<path id="Trazado_165903" class="st10" d="M104.9,2.7c5.4,1.6,10,5,13,9.7c5,7.8,8.9,32.1-7.2,42.5S81.5,48.7,81.1,34
							S83.6-0.1,104.9,2.7z"/>
						<path id="Trazado_165904" class="st10" d="M77.6,30.9c0.3,3.5,2.2,6.1,4.3,5.9s3.4-3.2,3.1-6.6s-2.2-6.1-4.3-5.9
							S77.3,27.4,77.6,30.9z"/>
						<path id="Trazado_165905" class="st3" d="M98.7,0c0,0,12.5,27.5,20.9,29.4s8.3,12.7,8.3,12.7s-2.1-29.1-10-34.8S98.7,0,98.7,0
							z"/>
						<path id="Trazado_165906" class="st10" d="M116,34.4c-1.1,3.5-0.1,6.9,2.3,7.6s5.1-1.5,6.2-4.9s0.1-6.9-2.3-7.6
							S117.1,31,116,34.4z"/>
						<g id="Grupo_128888" transform="translate(0 19.526)">
							<path id="Trazado_165907" class="st10" d="M0.6,54.9c-4.5-7.7,16.1-21.9,31.3-34c3.4-3,7-5.7,10.8-8
								C46.9,9.2,54.6,3,61.9,0.1c1.2-0.5,11.8,0.3,12.7,0.3c1,0,7.2,1.9,5.7,4.2c-0.4,0.5-4.5-0.1-7.3-0.5c3.1,0.7,8.7,2.5,9.2,3.5
								c1.1,2.3-9.4,1.1-12.4,0.4c-2.4-0.6-6.4,3.8-7.9,5.6l0,0c-0.5,0.7-0.4,1.6,0.2,2.2c0.2,0.1,0.4,0.3,0.6,0.3
								c0.7,0.2,1.5,0.2,2.3,0c0.3-0.1,1.6-2.6,2.8-3.2c1.8-1,3.3,0.1,1.7,2.8c-1,1.6-2.1,3.2-3.3,4.7c-2,2.5-11.1,3.7-13.2,3.4
								c-1.1,0-4.1,0.9-4.7,0.9c0,0-13.1,11.3-22.4,23.7C38.4,51.9,59.7,59,59.7,59s1.4,27,0.1,26.2S5.9,64,0.6,54.9z"/>
						</g>
						<g id="Grupo_128889" transform="translate(130.68 18.922)">
							<path id="Trazado_165908" class="st25" d="M13.7,0c0,0-6.5,0.4-6.5,0.4c-3,0.9-6.7,2.7-7.1,3.7c-0.9,2.4,7.7-0.4,10.7-1.3
								c2-0.6,8.8,1.9,11.4,3.4L13.7,0z"/>
							<path id="Trazado_165909" class="st26" d="M22.2,6.2l1.3,0.9C23.1,6.8,22.6,6.5,22.2,6.2z"/>
						</g>
						<path id="Trazado_165910" class="st8" d="M165.6,262.6c0-46.3-18.1-59.7-20.9-57.9l-67.7,7l-14,50.8L165.6,262.6z"/>
						
							<linearGradient id="Trazado_165911_00000082353336184498318440000001078112523355951507_" gradientUnits="userSpaceOnUse" x1="-842.2584" y1="582.5831" x2="-842.2584" y2="581.5831" gradientTransform="matrix(156.971 0 0 -159.2732 132318.7188 92855.9922)">
							<stop  offset="0" style="stop-color:#FFFFFF"/>
							<stop  offset="1" style="stop-color:#D2E6EE"/>
						</linearGradient>
						<path id="Trazado_165911" style="fill:url(#Trazado_165911_00000082353336184498318440000001078112523355951507_);" d="
							M30.1,95.8l6.5-25.4l55.7,6.9c0,0,15.6-1,24.1-0.7c6,0.2,40-4.9,62.6-10.5c0.1,0.3,4.1,20.8,8.1,28.3
							c-17,8.5-25.5,9.4-37.2,19.4c0,0-1.2,50.2-2.4,79.7c2.5,7.3,8.9,22.2,8.9,22.2s-20.8,11.9-52.5,9.2c-11.1-0.9-22.1-2.9-32.7-6
							c0,0,5.8-21.1,7.4-33.5c-6.8-30.3-17.1-73.3-17.1-73.3L30.1,95.8z"/>
						<path id="Trazado_165912" class="st10" d="M111.6,49.8c0,0,1.8,20.6,4.1,26.3s2,26.3-10.5,30S92.9,83.5,92.4,77.4
							s-1.1-26.1-1.1-26.1L111.6,49.8z"/>
						<path id="Trazado_165913" class="st11" d="M112.2,56.1c-1.3,1.4-2.8,2.7-4.5,3.7c-6,3.8-11.5,3.8-16,1.5
							c-0.2-5.4-0.3-10-0.3-10l20.2-1.4C111.6,49.8,111.8,52.5,112.2,56.1z"/>
						<path id="Trazado_165914" class="st12" d="M82.8,28.6l-3.9,19.7c0,0,7.9,10.2,15.8,11.1s6.3,0.6,10.6-0.2s13.6-7.2,13.6-7.2
							s-1.1-16.5-0.2-19.4C118.7,32.5,98.5,37.1,82.8,28.6z"/>
						<g id="Grupo_128890" transform="translate(114.221 23.963)">
							<path id="Trazado_165915" class="st12" d="M1,30.4l-0.8-1.3c0,0,4.4-2.8,8.9-5.9c7.8-5.4,9.6-7.5,9.9-8.2
								c1.5-2.9,1-11-0.7-13.1c-0.4-0.5-0.7-0.4-0.9-0.4C14.8,2.2,6.4,8.9,3.4,11.4l0,0c-0.4,0.3-2.3,1.8-2.5,2L0,12.1
								c0.2-0.1,1.5-1.2,2.4-1.9C3,9.8,13.5,1,17.1,0.1C18-0.1,18.9,0.2,19.5,1c2.3,2.8,2.5,11.5,0.9,14.7C20,16.2,19.2,18,9.9,24.5
								C5.4,27.6,1,30.4,1,30.4z"/>
						</g>
						<g id="Grupo_128891" transform="translate(66.89 22.659)">
							<path id="Trazado_165916" class="st12" d="M15.5,27.4c0,0-3.5-1.8-7.1-4c-1.8-1.1-3.5-2.2-5.2-3.5c-1.7-1.4-2.7-2.6-3-3.5
								c-0.7-2.1,0.7-6,1.2-7.6c0.9-2.8,2.4-5.3,4.3-7.5c1.1-1.1,2.2-1.5,3.1-1.2c3.5,1.1,9.7,8.5,10,8.8l-1.1,0.9
								C16,7.8,11,2.3,8.4,1.5c-0.4-0.1-1,0.2-1.7,0.9c-1.8,2.1-3.1,4.4-4,7c-1.1,2.9-1.6,5.5-1.2,6.6c0.7,2.4,9.3,7.5,14.5,10.1
								L15.5,27.4z"/>
						</g>
						
							<linearGradient id="Elipse_4453_00000028307005227721195520000018162872980658499200_" gradientUnits="userSpaceOnUse" x1="-824.8519" y1="577.4645" x2="-824.8519" y2="576.4645" gradientTransform="matrix(33.772 0 0 -42.214 27934.834 24475.5938)">
							<stop  offset="0" style="stop-color:#FFFFFF"/>
							<stop  offset="1" style="stop-color:#D2E6EE"/>
						</linearGradient>
						
							<ellipse id="Elipse_4453" style="fill:url(#Elipse_4453_00000028307005227721195520000018162872980658499200_);" cx="77.9" cy="119.6" rx="16.9" ry="21.1"/>
						
							<linearGradient id="Elipse_4454_00000107574982596401286490000000152493490498584476_" gradientUnits="userSpaceOnUse" x1="-824.8519" y1="577.4645" x2="-824.8519" y2="576.4645" gradientTransform="matrix(33.772 0 0 -42.214 27991.8223 24474.3281)">
							<stop  offset="0" style="stop-color:#FFFFFF"/>
							<stop  offset="1" style="stop-color:#D2E6EE"/>
						</linearGradient>
						
							<ellipse id="Elipse_4454" style="fill:url(#Elipse_4454_00000107574982596401286490000000152493490498584476_);" cx="134.9" cy="118.3" rx="16.9" ry="21.1"/>
						<path id="Trazado_165917" class="st10" d="M141.1,26.8c-4.3,0.3-6.2-1.1-7.7-0.2s3.6,3.5,5.6,4.4s11.8,3,13.9,2
							c2.1-1,7.6,2.5,12.8,7.5S189,63.3,189,63.3l-11.8,6.1l6.9,20.7c0,0,31.3-14.1,34-20.7c0.8-1.8-9-14.4-21.1-23.9
							s-34-20.4-35.8-22.3S149,16,148.2,15.5c-0.8-0.6-10.6,0.2-10.6,0.2s-9.7,5-9.1,6.5c0.8,2.4,9.2-2.3,9.6-2.3
							c0.2,0,2.8,1,5.9,2.3c2.4,1,1.7,3,0.6,3.6C143.5,26.4,142.3,26.7,141.1,26.8z"/>
						
							<linearGradient id="Trazado_165918_00000066486252483778177410000001447861443263172515_" gradientUnits="userSpaceOnUse" x1="-817.4182" y1="576.0911" x2="-817.4182" y2="575.0911" gradientTransform="matrix(25.2939 0 0 -35.261 20850.1328 20379.6602)">
							<stop  offset="0" style="stop-color:#FFFFFF"/>
							<stop  offset="1" style="stop-color:#D2E6EE"/>
						</linearGradient>
						<path id="Trazado_165918" style="fill:url(#Trazado_165918_00000066486252483778177410000001447861443263172515_);" d="
							M179,66.1c-5.3,1.3-11.2,2.6-17.2,3.8l9.9,31.5c4.3-2.2,9.4-3.9,15.4-6.9C183.1,86.9,179.1,66.4,179,66.1z"/>
						<path id="Trazado_165919" class="st31" d="M67.7,32.5c-1.1,0.6-2.4,3.1-2.8,3.2l1.1,4.3c1.2-1.5,2.3-3,3.3-4.7
							C71,32.6,69.5,31.5,67.7,32.5z"/>
					</g>
				</g>
			</g>
		</g>
		<g id="Grupo_128899" transform="translate(0 91.143)">
			<g id="Grupo_128898" transform="translate(2.678)">
				<path id="Trazado_165942" class="st8" d="M56.8,17.3h-9.2l-0.8-8.4h10.8L56.8,17.3z"/>
				<path id="Trazado_165943" class="st7" d="M52,0H28.5C12.7,0,0,12.8,0,28.5l0,0l0,56.9h9.4l0.1-56.9C9.5,18,18,9.5,28.5,9.5l0,0
					h30V6.5C58.4,2.9,55.5,0,52,0z"/>
			</g>
			<path id="Trazado_165944" class="st8" d="M27,63.3L14.4,73.5C9.5,71.1,3.6,73,1.1,77.9c-2.5,4.9-0.5,10.9,4.4,13.4
				c4.9,2.5,10.9,0.5,13.4-4.4c0.8-1.6,1.2-3.4,1-5.3l13.3-10.8c2.1-1.7,2.4-4.8,0.6-6.8C32.1,62,29.1,61.7,27,63.3L27,63.3z"/>
			<path id="Trazado_165945" class="st12" d="M60.8,58.2c0,1.4-1.1,2.5-2.5,2.5c-1.4,0-2.5-1.1-2.5-2.5c0-1.4,2.5-16,2.5-16
				S60.8,56.9,60.8,58.2z"/>
			<path id="Trazado_165946" class="st12" d="M57.1,37.1c0,1.4-1.1,2.5-2.5,2.5c-1.4,0-2.5-1.1-2.5-2.5c0-1.4,2.5-18.4,2.5-18.4
				S57.1,35.7,57.1,37.1z"/>
			<path id="Trazado_165947" class="st12" d="M52.4,49.5c0,1.4-1.1,2.5-2.5,2.5c-1.4,0-2.5-1.1-2.5-2.5c0-1.4,2.5-16.7,2.5-16.7
				S52.4,48.1,52.4,49.5z"/>
		</g>
	</g>
	<path id="Trazado_166446" class="st32" d="M417.7,1480.7h-7.2l-1.4,4.1h-4.4l7.4-19.9h3.8l7.4,19.9h-4.4L417.7,1480.7z
		 M411.6,1477.3h5l-2.5-7.5L411.6,1477.3z M425.3,1484.8v-19.9h6.1c1.6,0,3.3,0.4,4.7,1.2c1.4,0.8,2.5,2,3.2,3.4
		c0.8,1.5,1.2,3.2,1.2,5v0.9c0,1.7-0.4,3.4-1.1,4.9c-0.7,1.4-1.8,2.6-3.2,3.3c-1.4,0.8-3,1.2-4.7,1.2H425.3z M429.4,1468.2v13.3h2
		c1.4,0.1,2.8-0.5,3.7-1.6c0.9-1.3,1.4-2.9,1.3-4.5v-1.1c0.1-1.6-0.3-3.3-1.3-4.6c-0.9-1.1-2.3-1.7-3.7-1.6L429.4,1468.2z
		 M455.5,1476.1h-7.9v5.3h9.2v3.3h-13.3v-19.9h13.3v3.3h-9.2v4.7h7.9V1476.1z M474.9,1478.1c-0.1,1.9-0.9,3.8-2.4,5.1
		c-1.6,1.3-3.6,1.9-5.6,1.8c-2.3,0.1-4.5-0.8-6-2.6c-1.6-2-2.3-4.5-2.2-7.1v-1.2c0-1.7,0.3-3.5,1-5.1c0.6-1.4,1.6-2.6,2.9-3.4
		c1.3-0.8,2.8-1.2,4.4-1.2c2-0.1,4,0.6,5.6,1.8c1.5,1.3,2.3,3.2,2.4,5.2h-4.1c0-1-0.4-2-1.1-2.8c-0.8-0.6-1.8-0.9-2.8-0.9
		c-1.2-0.1-2.4,0.5-3.1,1.5c-0.8,1.4-1.1,3-1,4.6v1.5c-0.1,1.6,0.2,3.3,1,4.7c0.7,1,1.9,1.6,3.1,1.5c1,0.1,2-0.2,2.8-0.9
		c0.7-0.7,1.1-1.7,1.1-2.7L474.9,1478.1z M492.7,1464.9v13.1c0.1,1.9-0.6,3.8-2,5.2c-1.5,1.3-3.5,2-5.6,1.9c-2,0.1-4-0.6-5.5-1.8
		c-1.4-1.3-2.2-3.2-2.1-5.1v-13.3h4.1v13.1c-0.1,1,0.2,2.1,0.9,2.9c0.7,0.6,1.6,1,2.6,0.9c2.3,0,3.5-1.2,3.5-3.6v-13.3L492.7,1464.9
		z M507,1480.7h-7.2l-1.4,4.1H494l7.4-19.9h3.8l7.5,19.9h-4.4L507,1480.7z M500.9,1477.3h5l-2.5-7.5L500.9,1477.3z M530.2,1478.1
		c-0.1,1.9-0.9,3.8-2.4,5.1c-1.6,1.3-3.6,1.9-5.6,1.8c-2.3,0.1-4.5-0.8-6-2.6c-1.6-2-2.3-4.5-2.2-7.1v-1.2c0-1.7,0.3-3.5,1-5.1
		c0.6-1.4,1.6-2.6,2.9-3.4c1.3-0.8,2.8-1.2,4.4-1.2c2-0.1,4,0.6,5.6,1.8c1.5,1.3,2.3,3.2,2.4,5.2h-4.1c0-1-0.4-2-1.1-2.8
		c-0.8-0.6-1.8-0.9-2.8-0.9c-1.2-0.1-2.4,0.5-3.1,1.5c-0.8,1.4-1.1,3-1,4.6v1.5c-0.1,1.6,0.2,3.3,1,4.7c0.7,1,1.9,1.6,3.1,1.5
		c1,0.1,2-0.2,2.8-0.9c0.7-0.7,1.1-1.7,1.1-2.7L530.2,1478.1z M537.2,1484.8h-4.1v-19.9h4.1V1484.8z M557.4,1475.3
		c0,1.8-0.3,3.5-1,5.2c-0.6,1.4-1.7,2.6-3,3.4c-1.3,0.8-2.9,1.2-4.4,1.2c-1.6,0-3.1-0.4-4.4-1.2c-1.3-0.8-2.4-2-3-3.4
		c-0.7-1.6-1.1-3.3-1.1-5.1v-1c0-1.8,0.3-3.6,1.1-5.2c0.6-1.4,1.7-2.6,3-3.4c1.3-0.8,2.9-1.2,4.4-1.2c1.6,0,3.1,0.4,4.4,1.2
		c1.3,0.8,2.4,2,3,3.4c0.7,1.6,1.1,3.4,1.1,5.2L557.4,1475.3z M553.2,1474.4c0.1-1.7-0.3-3.3-1.1-4.8c-0.7-1.1-1.9-1.7-3.2-1.6
		c-1.3-0.1-2.5,0.6-3.2,1.6c-0.8,1.4-1.2,3.1-1.1,4.7v1c-0.1,1.7,0.3,3.3,1.1,4.7c0.7,1.1,1.9,1.7,3.2,1.7c1.3,0.1,2.5-0.6,3.2-1.6
		c0.8-1.4,1.2-3.1,1.1-4.7L553.2,1474.4z M549.7,1459.5h4.3l-3.8,4.2H547L549.7,1459.5z M576.6,1484.8h-4.1l-8-13.1v13.1h-4.1v-19.9
		h4.1l8,13.1v-13.1h4.1L576.6,1484.8z M587.1,1484.8v-19.9h6.1c1.6,0,3.3,0.4,4.7,1.2c1.4,0.8,2.5,2,3.2,3.4c0.8,1.5,1.2,3.2,1.2,5
		v0.9c0,1.7-0.4,3.4-1.1,4.9c-0.7,1.4-1.8,2.6-3.2,3.3c-1.4,0.8-3,1.2-4.7,1.2H587.1z M591.2,1468.2v13.3h2c1.4,0.1,2.8-0.5,3.7-1.6
		c0.9-1.3,1.4-2.9,1.3-4.5v-1.1c0.1-1.6-0.3-3.3-1.3-4.6c-0.9-1.1-2.3-1.7-3.7-1.6L591.2,1468.2z M617.3,1476.1h-7.9v5.3h9.2v3.3
		h-13.3v-19.9h13.3v3.3h-9.2v4.7h7.9L617.3,1476.1z"/>
	<path id="Trazado_166447" class="st8" d="M409.1,1500.9h5.6v2.1h-8.2v-12.8h2.6V1500.9z M423.6,1500.4h-4.6l-0.9,2.6h-2.8l4.8-12.8
		h2.4l4.8,12.8h-2.8L423.6,1500.4z M419.7,1498.2h3.2l-1.6-4.8L419.7,1498.2z M435.6,1498.5v4.5h-2.6v-12.8h5c0.9,0,1.7,0.2,2.5,0.5
		c0.7,0.3,1.3,0.8,1.7,1.5c0.4,0.7,0.6,1.4,0.6,2.2c0.1,1.1-0.4,2.2-1.3,3c-1,0.8-2.3,1.2-3.6,1.1L435.6,1498.5z M435.6,1496.4h2.4
		c0.6,0,1.1-0.1,1.6-0.5c0.4-0.4,0.6-0.9,0.5-1.4c0-0.6-0.2-1.1-0.6-1.5c-0.4-0.4-1-0.6-1.5-0.6h-2.4V1496.4z M455.1,1496.9
		c0,1.1-0.2,2.3-0.7,3.3c-0.4,0.9-1.1,1.7-1.9,2.2c-0.9,0.5-1.8,0.8-2.9,0.8c-1,0-2-0.2-2.8-0.8c-0.8-0.5-1.5-1.3-1.9-2.2
		c-0.5-1-0.7-2.1-0.7-3.3v-0.6c0-1.1,0.2-2.3,0.7-3.3c0.4-0.9,1.1-1.7,1.9-2.2c0.9-0.5,1.8-0.8,2.8-0.8c1,0,2,0.2,2.8,0.8
		c0.8,0.5,1.5,1.3,1.9,2.2c0.5,1,0.7,2.2,0.7,3.3V1496.9z M452.4,1496.3c0.1-1.1-0.2-2.1-0.7-3.1c-0.5-0.7-1.2-1.1-2.1-1
		c-0.8,0-1.6,0.4-2,1c-0.5,0.9-0.8,2-0.7,3v0.6c-0.1,1.1,0.2,2.1,0.7,3c0.4,0.7,1.2,1.1,2.1,1.1c0.8,0,1.6-0.4,2-1
		c0.5-0.9,0.8-2,0.7-3V1496.3z M463.6,1499.7c0-0.4-0.2-0.9-0.5-1.1c-0.6-0.4-1.2-0.7-1.9-0.8c-0.7-0.2-1.5-0.5-2.2-0.9
		c-1.3-0.5-2.1-1.8-2.2-3.2c0-0.7,0.2-1.3,0.6-1.8c0.4-0.6,1-1,1.7-1.3c0.8-0.3,1.6-0.5,2.5-0.5c0.8,0,1.7,0.2,2.4,0.5
		c0.7,0.3,1.3,0.8,1.7,1.4c0.4,0.6,0.6,1.3,0.6,2.1h-2.6c0-0.5-0.2-1-0.6-1.4c-0.4-0.3-1-0.5-1.6-0.5c-0.5,0-1.1,0.1-1.5,0.4
		c-0.3,0.2-0.5,0.7-0.5,1.1c0,0.4,0.2,0.8,0.6,1c0.6,0.4,1.2,0.6,1.9,0.8c1.2,0.3,2.3,0.9,3.3,1.7c0.7,0.7,1.1,1.6,1,2.5
		c0,1-0.4,2-1.3,2.6c-1,0.7-2.2,1-3.4,0.9c-0.9,0-1.8-0.2-2.7-0.5c-0.7-0.3-1.4-0.8-1.8-1.5c-0.4-0.6-0.7-1.4-0.6-2.2h2.6
		c0,1.4,0.8,2.1,2.5,2.1c0.5,0,1-0.1,1.5-0.4C463.4,1500.5,463.6,1500.1,463.6,1499.7z M470.8,1503h-2.6v-12.8h2.6V1503z
		 M483.3,1498.8c0,1.2-0.6,2.4-1.5,3.3c-1,0.8-2.3,1.2-3.6,1.2c-1.5,0.1-2.9-0.5-3.9-1.7c-1-1.3-1.5-2.9-1.4-4.5v-0.8
		c0-1.1,0.2-2.2,0.6-3.3c0.4-0.9,1-1.6,1.9-2.2c0.8-0.5,1.8-0.8,2.8-0.8c1.3-0.1,2.6,0.4,3.6,1.2c0.9,0.9,1.5,2.1,1.6,3.3h-2.6
		c0-0.7-0.2-1.3-0.7-1.8c-0.5-0.4-1.2-0.6-1.8-0.6c-0.8,0-1.5,0.3-2,0.9c-0.5,0.9-0.7,1.9-0.7,2.9v1c-0.1,1,0.1,2.1,0.6,3
		c0.4,0.7,1.2,1,2,1c0.7,0.1,1.3-0.1,1.8-0.6c0.4-0.5,0.7-1.1,0.7-1.7L483.3,1498.8z M487.9,1503h-2.6v-12.8h2.6V1503z
		 M500.8,1496.9c0,1.1-0.2,2.3-0.7,3.3c-0.4,0.9-1.1,1.7-1.9,2.2c-0.9,0.5-1.8,0.8-2.9,0.8c-1,0-2-0.2-2.8-0.8
		c-0.8-0.5-1.5-1.3-1.9-2.2c-0.5-1-0.7-2.1-0.7-3.3v-0.6c0-1.1,0.2-2.3,0.7-3.3c0.4-0.9,1.1-1.7,1.9-2.2c0.9-0.5,1.8-0.8,2.8-0.8
		c1,0,2,0.2,2.8,0.8c0.8,0.5,1.5,1.3,1.9,2.2c0.5,1,0.7,2.2,0.7,3.3V1496.9z M498.1,1496.3c0.1-1.1-0.2-2.1-0.7-3.1
		c-0.5-0.7-1.2-1.1-2.1-1c-0.8,0-1.6,0.4-2,1c-0.5,0.9-0.8,2-0.7,3v0.6c-0.1,1.1,0.2,2.1,0.7,3c0.4,0.7,1.2,1.1,2.1,1.1
		c0.8,0,1.6-0.4,2-1c0.5-0.9,0.8-2,0.7-3L498.1,1496.3z M495.9,1486.8h2.8l-2.4,2.7h-2.1L495.9,1486.8z M596.6,1486.8h2.8l-2.4,2.7
		h-2.1L596.6,1486.8z M513.1,1503h-2.6l-5.1-8.4v8.4h-2.6v-12.8h2.6l5.1,8.4v-8.4h2.6L513.1,1503z M519.9,1503v-12.8h3.9
		c1.1,0,2.1,0.2,3,0.8c0.9,0.5,1.6,1.3,2.1,2.2c0.5,1,0.8,2.1,0.7,3.2v0.6c0,1.1-0.2,2.2-0.7,3.2c-0.5,0.9-1.2,1.7-2.1,2.2
		c-0.9,0.5-2,0.8-3,0.8H519.9z M522.6,1492.4v8.5h1.3c0.9,0.1,1.8-0.3,2.4-1c0.6-0.8,0.9-1.9,0.8-2.9v-0.7c0.1-1-0.2-2.1-0.8-3
		c-0.6-0.7-1.5-1.1-2.4-1L522.6,1492.4z M539.3,1497.5h-5.1v3.4h5.9v2.1h-8.6v-12.8h8.6v2.1h-5.9v3h5.1L539.3,1497.5z M544.4,1500.9
		h5.6v2.1h-8.2v-12.8h2.6V1500.9z M566,1498.8c0,1.2-0.6,2.4-1.5,3.3c-1,0.8-2.3,1.2-3.6,1.2c-1.5,0.1-2.9-0.5-3.9-1.7
		c-1-1.3-1.5-2.9-1.4-4.5v-0.8c0-1.1,0.2-2.2,0.6-3.3c0.4-0.9,1-1.6,1.9-2.2c0.8-0.5,1.8-0.8,2.8-0.8c1.3-0.1,2.6,0.4,3.6,1.2
		c0.9,0.9,1.5,2.1,1.6,3.3h-2.6c0-0.7-0.2-1.3-0.7-1.8c-0.5-0.4-1.2-0.6-1.8-0.6c-0.8,0-1.5,0.3-2,0.9c-0.5,0.9-0.7,1.9-0.7,2.9v1
		c-0.1,1,0.1,2.1,0.6,3c0.4,0.7,1.2,1,2,1c0.7,0.1,1.3-0.1,1.8-0.6c0.4-0.5,0.7-1.1,0.7-1.7L566,1498.8z M575,1500.4h-4.6l-0.9,2.6
		h-2.8l4.8-12.8h2.4l4.8,12.8h-2.8L575,1500.4z M571.1,1498.2h3.2l-1.6-4.8L571.1,1498.2z M579.9,1503v-12.8h3.9
		c1.1,0,2.1,0.2,3,0.8c0.9,0.5,1.6,1.3,2.1,2.2c0.5,1,0.8,2.1,0.7,3.2v0.6c0,1.1-0.2,2.2-0.7,3.2c-0.5,0.9-1.2,1.7-2.1,2.2
		c-0.9,0.5-2,0.8-3,0.8H579.9z M582.5,1492.4v8.5h1.3c0.9,0.1,1.8-0.3,2.4-1c0.6-0.8,0.9-1.9,0.8-2.9v-0.7c0.1-1-0.2-2.1-0.8-3
		c-0.6-0.7-1.5-1.1-2.4-1L582.5,1492.4z M598.8,1500.4h-4.6l-0.9,2.6h-2.8l4.8-12.8h2.4l4.8,12.8h-2.8L598.8,1500.4z M594.9,1498.2
		h3.2l-1.6-4.8L594.9,1498.2z M607.7,1499.8l2.9-9.6h2.9l-4.5,12.8h-2.8l-4.4-12.8h2.9L607.7,1499.8z M622.5,1497.5h-5.1v3.4h5.9
		v2.1h-8.6v-12.8h8.6v2.1h-5.9v3h5.1L622.5,1497.5z M629.6,1498.3h-2.1v4.7h-2.6v-12.8h4.8c1.2-0.1,2.5,0.3,3.5,1
		c0.8,0.7,1.3,1.8,1.2,2.9c0,0.8-0.2,1.5-0.6,2.2c-0.4,0.6-1,1.1-1.7,1.4l2.8,5.2v0.1H632L629.6,1498.3z M627.5,1496.2h2.1
		c0.6,0,1.1-0.1,1.5-0.5c0.4-0.4,0.6-0.9,0.5-1.4c0-0.5-0.2-1-0.5-1.4c-0.4-0.4-1-0.6-1.6-0.5h-2.1V1496.2z"/>
	<rect id="Rectángulo_34968" x="396" y="1455.3" class="st14" width="4.7" height="55.9"/>
	<g id="Grupo_129291" transform="translate(267.009 1771.784)">
		<g id="Grupo_128221" transform="translate(43.432 3.936)">
			<path id="Trazado_165244" class="st33" d="M36.3,23.2c0,0-16.3-0.1-20.2-3.1c-3.1-2.3-2.3-4.6-7.3-13.4C8.3,5.1,8.1,3.4,8.3,1.8
				C8.7-0.8,4-1.2,4.4,5c-2,2.7-2.8,6.1-2.4,9.5c1,5.9,3.2,6.7,3.6,10.6c0.3,2.7,0,7.5,5.2,8.1c4.9,0.5,8.5-0.7,16.9-0.3
				s10.3-0.4,10.3-0.4L36.3,23.2z"/>
			<path id="Trazado_165245" class="st33" d="M3.8,12.3c0,0-1.4-2.4-2.7-2.5s-1.3,1.8-0.8,2.3s1.6,1.8,1.9,2.2S4.5,13.3,3.8,12.3z"
				/>
			<path id="Trazado_165246" class="st33" d="M5.5,6.1C5.2,5.2,4.9,4.2,4.9,3.2c0.1-0.6-0.4-1.2-1-1.3c-0.5,0-1,0.2-1.2,0.7
				C1.9,4.1,2.9,7,3.8,7.2S5.9,7.4,5.5,6.1z"/>
			<path id="Trazado_165247" class="st33" d="M4.7,7.4c-0.6-0.8-1-1.7-1.2-2.7c-0.1-0.6-0.7-1.1-1.3-1c-0.5,0.1-0.9,0.5-1,1
				C0.7,6.3,2.3,8.9,3.2,8.9S5.4,8.7,4.7,7.4z"/>
			<path id="Trazado_165248" class="st33" d="M4.1,10c-0.6-0.8-1-1.7-1.3-2.7c-0.1-0.6-0.7-1.1-1.3-1c-0.5,0.1-0.9,0.5-1,1
				C0.1,9,1.7,11.5,2.7,11.5S4.8,11.2,4.1,10z"/>
		</g>
		<g id="Grupo_128223" transform="translate(42.231 36.742)">
			<g id="Grupo_128222">
				<path id="Trazado_165249" class="st8" d="M221.6,112.8c-0.7,0-1.4-0.2-2.1-0.5L2.8,9.2c-2.4-1.2-3.5-4-2.3-6.5
					c1.2-2.4,4-3.5,6.5-2.3l216.8,103.1c2.4,1.2,3.4,4.1,2.3,6.5C225.2,111.7,223.5,112.8,221.6,112.8L221.6,112.8z"/>
			</g>
		</g>
		<g id="Grupo_128225" transform="translate(66.511 36.742)">
			<g id="Grupo_128224">
				<path id="Trazado_165250" class="st8" d="M4.9,112.8c-2.7,0-4.9-2.2-4.9-4.9c0-1.9,1.1-3.6,2.8-4.4L219.5,0.5
					c2.4-1.2,5.3-0.1,6.5,2.3c1.2,2.4,0.1,5.3-2.3,6.5l0,0L6.9,112.3C6.3,112.6,5.6,112.8,4.9,112.8z"/>
			</g>
		</g>
		<g id="Grupo_128226" transform="translate(184.115 81.44)" class="st34">
			<path id="Trazado_165251" class="st35" d="M8.9,0L0,4.2l2.7,9.5L14.4,8L8.9,0z"/>
		</g>
		<g id="Grupo_128228" transform="translate(186.711 13.306)">
			<g id="Grupo_128227">
				<ellipse id="Elipse_4387" class="st35" cx="18.1" cy="12.7" rx="18.1" ry="12.7"/>
			</g>
		</g>
		<g id="Grupo_128230" transform="translate(14.568 49.591)">
			<g id="Grupo_128229">
				<path id="Trazado_165252" class="st8" d="M329.4,9.7H4.9C2.2,9.7,0,7.5,0,4.9C0,2.2,2.2,0,4.9,0h324.5c2.7,0,4.9,2.2,4.9,4.9
					C334.3,7.5,332.1,9.7,329.4,9.7z"/>
			</g>
		</g>
		<g id="Grupo_128231" transform="translate(130.38 83.329)" class="st34">
			<path id="Trazado_165253" class="st35" d="M0,3.3l11.5,5.5l15-3.6L16.1,0L0,3.3z"/>
		</g>
		<g id="Grupo_128233" transform="translate(0 36.237)">
			<g id="Grupo_128232">
				<path id="Rectángulo_35475" class="st8" d="M6.9,0h345.6c3.8,0,6.9,3.1,6.9,6.9v0c0,3.8-3.1,6.9-6.9,6.9H6.9
					C3.1,13.8,0,10.7,0,6.9v0C0,3.1,3.1,0,6.9,0z"/>
			</g>
		</g>
		<path id="Trazado_165254" class="st36" d="M76.9,59.3l-12.4,0c0,0-0.3-15.2-3.2-17.4s-9-2.6-13-5.7c0,0,28-0.3,28.6,0.1
			S80.3,56,76.9,59.3z"/>
		<g id="Grupo_128234" transform="translate(333.596 36.387)" class="st34">
			<path id="Trazado_165255" class="st35" d="M3.5,0h2.4c0,0-2.3,9.5-2.4,13.2l8.7,0.3c0,0,2.4,1,2.8,2.8c0,0-9.5,0.1-11.4,6.6
				l-3.1-0.3C0.4,22.7-1.5,0.2,3.5,0z"/>
		</g>
		<g id="Grupo_128236" transform="translate(71.267)">
			<g id="Grupo_128235">
				
					<linearGradient id="Trazado_165256_00000113332644757100337150000014220292097256452508_" gradientUnits="userSpaceOnUse" x1="-868.1107" y1="452.1184" x2="-868.1107" y2="451.1184" gradientTransform="matrix(266.0503 0 0 -71.7507 231094.1406 32439.8281)">
					<stop  offset="0" style="stop-color:#F5F5F5"/>
					<stop  offset="0.25" style="stop-color:#F5F5F5"/>
					<stop  offset="1" style="stop-color:#EEEEF2"/>
				</linearGradient>
				<path id="Trazado_165256" style="fill:url(#Trazado_165256_00000113332644757100337150000014220292097256452508_);" d="
					M1.6,60.4c0.5-8.9,0.3-17.7-0.5-26.6c-1-8.8-2.9-10.3,3.1-10.5c34.3-1.6,51-9.6,64.3-12c11.1-2,40.1-9,58.5-7.5
					C146,5.5,173.2,0,189.3,0c18.3,0,22.5,11.9,31.2,9.9c3-0.7-0.2-5.4,6.8-5.4c4.8,0,7-3.4,8.9-1.9c3.1,2.4,6.7,4,10.6,4.7
					c5.6,1.2,11.8,10.8,10.4,19.1c-1.3,7.3,9.2,6.1,8.9,9.4c-0.4,4.8-2.4,7.4-2,18.7c0.2,6.7-32.7,3.9-51.9-1.1s-32.3-3.2-45.1-1.3
					s-34.9-8-45.1-9.1s-44,7.5-56.3,5.6c-12.2-2-24.6-1.7-36.7,0.8C17.4,52.1-2,90.2,1.6,60.4z"/>
			</g>
		</g>
		<g id="Grupo_128238" transform="translate(70.983 26.254)">
			<g id="Grupo_128237">
				
					<linearGradient id="Trazado_165257_00000173864729885605262730000012895577307590410125_" gradientUnits="userSpaceOnUse" x1="-867.8149" y1="426.3048" x2="-867.8149" y2="425.3048" gradientTransform="matrix(264.9313 0 0 -80.39 230043.7656 34270.6484)">
					<stop  offset="0" style="stop-color:#F5F5F5"/>
					<stop  offset="0.25" style="stop-color:#F5F5F5"/>
					<stop  offset="1" style="stop-color:#EEEEF2"/>
				</linearGradient>
				<path id="Trazado_165257" style="fill:url(#Trazado_165257_00000173864729885605262730000012895577307590410125_);" d="
					M227.6,7.1c-0.8-0.6-83-1.7-102.7-5.7S43.7,3.6,42.8,3.6S8,0.1,5.4,1.9c-5.9,4.3-2.6,8.6-3.3,27C1.9,35.4-2.1,56,1.5,62.1
					c5,8.7,7.6,1.2,57.9-1.7c35.9-2.1,45-13.7,53-10.5s7.8,19.8,32.5,28.7s36.2-17.2,45.7-18.2s24.4,12,51.7,17.7
					s20.4-45.6,22.6-59.6S228.4,7.7,227.6,7.1z"/>
			</g>
		</g>
		<g id="Grupo_128240" transform="translate(156.895 33.866)">
			<g id="Grupo_128239" class="st34">
				<path id="Trazado_165258" class="st35" d="M171.2,3.2H1.6C0.7,3.2,0,2.5,0,1.6C0.1,0.7,0.8,0,1.6,0h169.6c0.9,0,1.6,0.8,1.6,1.7
					C172.8,2.5,172.1,3.2,171.2,3.2z"/>
			</g>
		</g>
		<g id="Grupo_128242" transform="translate(85.403 33.866)">
			<g id="Grupo_128241" class="st34">
				<path id="Trazado_165259" class="st35" d="M59.5,3.2H1.6C0.7,3.2,0,2.5,0,1.6C0.1,0.7,0.8,0,1.6,0h57.9c0.9,0,1.6,0.8,1.6,1.7
					C61.1,2.5,60.4,3.2,59.5,3.2z"/>
			</g>
		</g>
		<g id="Grupo_128243" transform="translate(146.757 98.917)" class="st34">
			<path id="Trazado_165260" class="st35" d="M9.5,0l11.3,5.4l-19,9L0,4.5L9.5,0z"/>
		</g>
	</g>
	<g id="Grupo_129293" transform="translate(320.83 1912.021)">
		<path id="Rectángulo_35479" class="st32" d="M7.5,0h22.3c4.1,0,7.5,3.4,7.5,7.5v0c0,4.1-3.4,7.5-7.5,7.5H7.5C3.4,15,0,11.6,0,7.5
			v0C0,3.4,3.4,0,7.5,0z"/>
	</g>
	<g id="Grupo_129294" transform="translate(515.071 1912.021)">
		<path id="Rectángulo_35480" class="st32" d="M7.5,0h22.3c4.1,0,7.5,3.4,7.5,7.5v0c0,4.1-3.4,7.5-7.5,7.5H7.5C3.4,15,0,11.6,0,7.5
			v0C0,3.4,3.4,0,7.5,0z"/>
	</g>
	<g id="Grupo_128922" transform="translate(422.844 1809.097)">
		<path id="Trazado_165959" class="st39" d="M56.5,5.9L53.1,6c0,0.1,0.1,0.2,0.1,0.4l0.1,4.8c0,0.1,0,0.2,0,0.2l3.3-0.1
			c0.6,0,1-0.5,1-1.1l-0.1-3.3C57.5,6.3,57,5.9,56.5,5.9z"/>
		<g id="Grupo_128916" transform="translate(0 29.805)">
			<path id="Trazado_165960" class="st40" d="M22.7,1.8c0.3-0.6,0.7-1.1,1.1-1.5l6.2-0.2l0,0L35.8,0c5.7,1.6,6.2,8.7,8.4,10.1
				c2.8,1.7,3.4,4.2,2.5,7.2c-0.8,2.6-0.6,6.8,1.9,8.3c4.5,2.6,3.4,5.8,1.5,9.1C49.9,35,52.4,67.2,52.4,72
				c-0.1,6.2-2.5,14.1-9.3,15.4H14.6C-15.1,77.8,7.3,19.7,22.7,1.8z"/>
			<path id="Trazado_165961" class="st41" d="M35.8,0c5.7,1.6,6.2,8.7,8.4,10.1c2.8,1.7,3.4,4.2,2.5,7.2c-0.8,2.6-0.6,6.8,1.9,8.3
				c4.5,2.6,3.4,5.8,1.5,9.1C49.9,35,52.4,67.2,52.4,72c-0.1,6.2-2.5,14.1-9.3,15.4C6.7,83.6,10.8,22.8,23.2,1.8
				c0.1-0.6,0.3-1.1,0.7-1.5l6.2-0.2l0,0L35.8,0z"/>
		</g>
		<g id="Grupo_128917" transform="translate(19.807 11.35)">
			<path id="Trazado_165962" class="st42" d="M0,5.1c2.7,2.1,4.7,5.1,5.5,8.4h0.1l10.1-0.3c0.5-4.1,2.6-7.8,5.8-10.4L0,5.1z"/>
			<path id="Trazado_165963" class="st42" d="M23.4,0l5.7,18.1c1.2,3.8,6.3,0.9,4.8-1.2c-3.3-4.6-4.5-10.4-3.5-16L23.4,0z"/>
		</g>
		<path id="Trazado_165964" class="st43" d="M51.7,4.1L16,5.1c-1,0-1.8,0.9-1.8,1.9l0.2,8.1c0,1,0.8,1.8,1.8,1.8c0,0,0,0,0.1,0
			L52,13.5c1-0.1,1.8-0.9,1.8-1.9l-0.2-5.8C53.6,4.9,52.7,4.1,51.7,4.1z"/>
		<path id="Trazado_165965" class="st43" d="M50.4,4.1L21.2,0c-0.8-0.1-1.5,0.6-1.5,1.6L19.8,5L50.4,4.1z"/>
		<path id="Trazado_165966" class="st44" d="M20.8,5l22.8-0.6l-21.4-3c-0.8-0.1-1.5,0.6-1.5,1.6L20.8,5z"/>
		<g id="Grupo_128920" transform="translate(22.402 58.728)">
			<path id="Rectángulo_35693" class="st32" d="M5.8,0h11.1c3.2,0,5.8,2.6,5.8,5.8v22.3c0,3.2-2.6,5.8-5.8,5.8H5.8
				c-3.2,0-5.8-2.6-5.8-5.8V5.8C0,2.6,2.6,0,5.8,0z"/>
			<g id="Grupo_128919" transform="translate(4.119 9.132)">
				<rect id="Rectángulo_35694" x="1.4" y="9.4" class="st22" width="11.6" height="0.7"/>
				<rect id="Rectángulo_35695" x="1.4" y="10.8" class="st22" width="11.6" height="0.7"/>
				<rect id="Rectángulo_35696" x="1.4" y="12.2" class="st22" width="11.6" height="0.7"/>
				<rect id="Rectángulo_35697" x="1.4" y="13.7" class="st22" width="11.6" height="0.7"/>
				<rect id="Rectángulo_35698" x="1.4" y="15.1" class="st22" width="11.6" height="0.7"/>
				<rect id="Rectángulo_35699" x="1.4" y="16.5" class="st22" width="11.6" height="0.7"/>
				<rect id="Rectángulo_35700" x="1.4" y="20.3" class="st22" width="11.6" height="0.7"/>
				<g id="Grupo_128918">
					<rect id="Rectángulo_35701" x="0" y="3.6" class="st22" width="14.4" height="2.7"/>
					<rect id="Rectángulo_35702" x="0.9" y="0" class="st22" width="12.6" height="2.7"/>
				</g>
			</g>
			<path id="Trazado_165967" class="st45" d="M10.5,1.6h1.7v2.2h2.2v1.7h-2.2v2.2h-1.7V5.5H8.3V3.8h2.2V1.6z"/>
		</g>
		<g id="Grupo_128921" transform="translate(22.687 24.547)">
			<path id="Trazado_165968" class="st39" d="M12.8,0L2.7,0.3C1.7,0.3,0.9,1,0.8,2L0,7.1l15.8-0.4l-1.1-5.1C14.5,0.7,13.7,0,12.8,0z
				"/>
		</g>
	</g>
	<g id="Grupo_128915" transform="translate(403.61 1830.854)">
		<path id="Trazado_165951" class="st41" d="M32.9,95.5H3.8c-2.1,0-3.8-1.7-3.8-3.8V31.7h36.8v59.9C36.8,93.8,35,95.5,32.9,95.5z"/>
		<g id="Grupo_128906" transform="translate(14.644 3.787)">
			<rect id="Rectángulo_35679" x="0" y="0" class="st46" width="7.5" height="15.2"/>
			<rect id="Rectángulo_35680" x="1" y="0" class="st47" width="3.7" height="15.2"/>
		</g>
		<g id="Grupo_128909" transform="translate(6.569 12.627)">
			<g id="Grupo_128908" transform="translate(1.141)">
				<g id="Grupo_128907">
					<path id="Trazado_165952" class="st39" d="M0,8.3V1.7C0,0.8,0.8,0,1.7,0h18c0.9,0,1.7,0.8,1.7,1.7v6.6H0z"/>
				</g>
				<path id="Rectángulo_35681" class="st22" d="M14.7,1.1L14.7,1.1c0.4,0,0.8,0.4,0.8,0.8v3c0,0.4-0.4,0.8-0.8,0.8l0,0
					c-0.4,0-0.8-0.4-0.8-0.8v-3C13.9,1.4,14.3,1.1,14.7,1.1z"/>
			</g>
			<path id="Rectángulo_35682" class="st8" d="M1,8.3h21.7c0.5,0,1,0.4,1,1l0,0c0,0.5-0.4,1-1,1H1c-0.5,0-1-0.4-1-1l0,0
				C0,8.7,0.4,8.3,1,8.3z"/>
		</g>
		<g id="Grupo_128910" transform="translate(0 22.865)">
			<path id="Trazado_165954" class="st40" d="M29.2,0H7.5L0,8.9h36.8L29.2,0z"/>
			<path id="Trazado_165955" class="st48" d="M23.9,0H12.9L9.1,8.9h18.5L23.9,0z"/>
		</g>
		<g id="Grupo_128911" transform="translate(5.354 0)">
			<path id="Trazado_165956" class="st42" d="M33.1,8.5C20.2,7.6,17.2-5.7,0,2.9v7.7c16.8-9.9,20,0,33.1,0.7V8.5z"/>
			<path id="Trazado_165957" class="st42" d="M0,4.5v6c16.8-9.9,20,0,33.1,0.7v-1.2C20.2,9.2,17.2-4.1,0,4.5z"/>
		</g>
		<g id="Grupo_128914" transform="translate(4.008 38.517)">
			<path id="Rectángulo_35683" class="st32" d="M7.3,0h14.1c4,0,7.3,3.3,7.3,7.3v28.3c0,4-3.3,7.3-7.3,7.3H7.3
				c-4,0-7.3-3.3-7.3-7.3V7.3C0,3.3,3.3,0,7.3,0z"/>
			<g id="Grupo_128913" transform="translate(5.224 11.582)">
				<rect id="Rectángulo_35684" x="1.8" y="11.9" class="st22" width="14.7" height="0.9"/>
				<rect id="Rectángulo_35685" x="1.8" y="13.7" class="st22" width="14.7" height="0.9"/>
				<rect id="Rectángulo_35686" x="1.8" y="15.5" class="st22" width="14.7" height="0.9"/>
				<rect id="Rectángulo_35687" x="1.8" y="17.3" class="st22" width="14.7" height="0.9"/>
				<rect id="Rectángulo_35688" x="1.8" y="19.1" class="st22" width="14.7" height="0.9"/>
				<rect id="Rectángulo_35689" x="1.8" y="20.9" class="st22" width="14.7" height="0.9"/>
				<rect id="Rectángulo_35690" x="1.8" y="25.8" class="st22" width="14.7" height="0.9"/>
				<g id="Grupo_128912">
					<rect id="Rectángulo_35691" x="0" y="4.6" class="st22" width="18.3" height="3.4"/>
					<rect id="Rectángulo_35692" x="1.2" y="0" class="st22" width="15.9" height="3.4"/>
				</g>
			</g>
			<path id="Trazado_165958" class="st45" d="M15.5,2h-2.2v2.8h-2.8V7h2.8v2.8h2.2V7h2.8V4.8h-2.8V2z"/>
		</g>
	</g>
	<g id="Grupo_128929" transform="translate(336.904 1859.27)">
		<g id="Grupo_128925" transform="translate(20.323)">
			<g id="Grupo_128923" transform="translate(21.502)">
				
					<linearGradient id="Trazado_165970_00000138543497818897340680000008863285002700070301_" gradientUnits="userSpaceOnUse" x1="-894.4006" y1="361.6793" x2="-894.4006" y2="360.6793" gradientTransform="matrix(44.115 0 0 -41.698 39478.5312 15081.3018)">
					<stop  offset="0" style="stop-color:#FFFFFF"/>
					<stop  offset="1" style="stop-color:#F8F8F8"/>
				</linearGradient>
				
					<path id="Trazado_165970" style="fill-rule:evenodd;clip-rule:evenodd;fill:url(#Trazado_165970_00000138543497818897340680000008863285002700070301_);" d="
					M44.1,11.8C27.6,8.5,15.7,4.1,16,0C0.8,8.4,12.2,21.3,0,37.2l9.4,4.5C28,33,28.1,19.7,44.1,11.8z"/>
				
					<linearGradient id="Trazado_165971_00000138563427364204598200000006677862214806810520_" gradientUnits="userSpaceOnUse" x1="-888.1945" y1="360.6102" x2="-888.1945" y2="359.6102" gradientTransform="matrix(32.306 0 0 -36.208 28712.6289 13061.6035)">
					<stop  offset="0" style="stop-color:#F5F5F5"/>
					<stop  offset="0.25" style="stop-color:#F5F5F5"/>
					<stop  offset="1" style="stop-color:#EEEEF2"/>
				</linearGradient>
				
					<path id="Trazado_165971" style="fill-rule:evenodd;clip-rule:evenodd;fill:url(#Trazado_165971_00000138563427364204598200000006677862214806810520_);" d="
					M20.3,4.6C12.1,14,12.9,23.5,2.4,38.3l5.2,2.5c12.2-10.5,17-21.5,27.1-31.2C29.8,8.5,24.9,6.8,20.3,4.6z"/>
			</g>
			<g id="Grupo_128924" transform="translate(0 17.59)">
				
					<linearGradient id="Trazado_165972_00000021832680177659387530000016253740251803147906_" gradientUnits="userSpaceOnUse" x1="-864.8991" y1="342.0558" x2="-864.8991" y2="341.0558" gradientTransform="matrix(29.9866 0 0 -32.364 25950.3555 11070.2988)">
					<stop  offset="0" style="stop-color:#F5F5F5"/>
					<stop  offset="0.25" style="stop-color:#F5F5F5"/>
					<stop  offset="1" style="stop-color:#EEEEF2"/>
				</linearGradient>
				
					<path id="Trazado_165972" style="fill-rule:evenodd;clip-rule:evenodd;fill:url(#Trazado_165972_00000021832680177659387530000016253740251803147906_);" d="
					M24.1,0C12.9,2.7,3.2,3.1,0.1,0c-1.4,10.7,14.8,16.7,20.9,31.9l8.5,0.4C32.4,20.4,22,10.6,24.1,0z"/>
				
					<linearGradient id="Trazado_165973_00000101817504334932928560000000504443300703241106_" gradientUnits="userSpaceOnUse" x1="-855.5491" y1="341.6423" x2="-855.5491" y2="340.6423" gradientTransform="matrix(21.819 0 0 -30.955 18684.1172 10576.8584)">
					<stop  offset="0" style="stop-color:#F5F5F5"/>
					<stop  offset="0.25" style="stop-color:#F5F5F5"/>
					<stop  offset="1" style="stop-color:#EEEEF2"/>
				</linearGradient>
				
					<path id="Trazado_165973" style="fill-rule:evenodd;clip-rule:evenodd;fill:url(#Trazado_165973_00000101817504334932928560000000504443300703241106_);" d="
					M6,2.1c3.1,9.4,11,16,17.1,30l4.7,0.2c-1.8-11.3-8-20.9-10.3-31C13.8,2,9.9,2.3,6,2.1z"/>
			</g>
		</g>
		<g id="Grupo_128928" transform="translate(0 36.289)">
			<rect id="Rectángulo_35703" x="15.6" y="0" class="st8" width="69.6" height="30.8"/>
			
				<linearGradient id="Rectángulo_35704_00000057107114436581856710000015768877303304216724_" gradientUnits="userSpaceOnUse" x1="-821.4734" y1="322.8927" x2="-821.4734" y2="321.8927" gradientTransform="matrix(15.578 0 0 -30.791 12804.7012 9942.1904)">
				<stop  offset="0" style="stop-color:#F5F5F5"/>
				<stop  offset="0.25" style="stop-color:#F5F5F5"/>
				<stop  offset="1" style="stop-color:#A7B3CF"/>
			</linearGradient>
			
				<rect id="Rectángulo_35704" x="0" y="0" style="fill:url(#Rectángulo_35704_00000057107114436581856710000015768877303304216724_);" width="15.6" height="30.8"/>
			
				<linearGradient id="Rectángulo_35705_00000043439155782294187910000013672776043849177534_" gradientUnits="userSpaceOnUse" x1="-858.3232" y1="322.8927" x2="-858.3232" y2="321.8927" gradientTransform="matrix(66.692 0 0 -30.791 57293.6797 9942.1904)">
				<stop  offset="0" style="stop-color:#F5F5F5"/>
				<stop  offset="0.25" style="stop-color:#F5F5F5"/>
				<stop  offset="1" style="stop-color:#A7B3CF"/>
			</linearGradient>
			
				<rect id="Rectángulo_35705" x="17" y="0" style="fill:url(#Rectángulo_35705_00000043439155782294187910000013672776043849177534_);" width="66.7" height="30.8"/>
			<path id="Rectángulo_35706" class="st8" d="M43.4,2.6h13.9c3.6,0,6.5,2.9,6.5,6.5v12.6c0,3.6-2.9,6.5-6.5,6.5H43.4
				c-3.6,0-6.5-2.9-6.5-6.5V9.1C36.9,5.5,39.8,2.6,43.4,2.6z"/>
			<g id="Grupo_128927" transform="translate(43.486 4.788)">
				<g id="Grupo_128926" transform="translate(0 10.337)">
					<rect id="Rectángulo_35707" x="0" y="3.3" class="st22" width="13.8" height="0.8"/>
					<rect id="Rectángulo_35708" x="0" y="5" class="st22" width="13.8" height="0.8"/>
					<rect id="Rectángulo_35709" x="0" y="6.7" class="st22" width="13.8" height="0.8"/>
					<rect id="Rectángulo_35710" x="0" y="8.4" class="st22" width="13.8" height="0.8"/>
					<rect id="Rectángulo_35711" x="0" y="10.1" class="st22" width="13.8" height="0.8"/>
					<rect id="Rectángulo_35712" x="1.6" y="0" class="st22" width="10.6" height="2.2"/>
				</g>
				<path id="Trazado_165974" class="st45" d="M5.6,0h2.5v3.2h3.2v2.5H8.2V9H5.6V5.8H2.4V3.2h3.2V0z"/>
			</g>
		</g>
	</g>
	<g id="Grupo_128245" transform="translate(250.144 1819.984)">
		
			<linearGradient id="Rectángulo_35476_00000097480257264667945260000017660671512590140322_" gradientUnits="userSpaceOnUse" x1="-771.0102" y1="384.6177" x2="-771.0102" y2="383.6177" gradientTransform="matrix(63.562 0 0 -12.565 49038.7344 4832.7207)">
			<stop  offset="0" style="stop-color:#F5F5F5"/>
			<stop  offset="0.25" style="stop-color:#F5F5F5"/>
			<stop  offset="1" style="stop-color:#A7B3CF"/>
		</linearGradient>
		<path id="Rectángulo_35476" style="fill:url(#Rectángulo_35476_00000097480257264667945260000017660671512590140322_);" d="
			M6.3,0h51c3.5,0,6.3,2.8,6.3,6.3v0c0,3.5-2.8,6.3-6.3,6.3h-51C2.8,12.6,0,9.8,0,6.3v0C0,2.8,2.8,0,6.3,0z"/>
	</g>
	<g id="Grupo_128246" transform="translate(254.948 1831.44)">
		<path id="Trazado_165261" class="st8" d="M48.8,8.9H4.4C2,8.9,0,6.9-0.1,4.5C-0.1,2.1,1.9,0,4.3,0c0,0,0.1,0,0.1,0h44.3
			c2.4,0,4.5,1.9,4.5,4.4s-1.9,4.5-4.4,4.5C48.9,8.9,48.8,8.9,48.8,8.9z"/>
	</g>
	<g id="Grupo_128247" transform="translate(259.752 1832.18)">
		<path id="Trazado_165262" class="st8" d="M4.4,95C2,95,0,93,0,90.6l0,0V4.4C0,2,2.1,0,4.5,0.1c2.4,0,4.3,2,4.4,4.4v86.1
			C8.9,93,6.9,95,4.4,95z"/>
	</g>
	<g id="Grupo_128248" transform="translate(294.49 1832.18)">
		<path id="Trazado_165263" class="st8" d="M4.4,95C2,95,0,93,0,90.6V4.4C0,2,2.1,0,4.5,0.1c2.4,0,4.3,2,4.4,4.4v86.1
			C8.9,93,6.9,95,4.4,95L4.4,95z"/>
	</g>
	<g id="Grupo_128249" transform="translate(259.383 1779.703)">
		<path id="Rectángulo_35477" class="st56" d="M5,0h10.7c2.8,0,5,2.2,5,5v30.8c0,2.8-2.2,5-5,5H5c-2.8,0-5-2.2-5-5V5
			C0,2.2,2.2,0,5,0z"/>
	</g>
	<g id="Grupo_128250" transform="translate(264.187 1772.313)">
		<path id="Rectángulo_35478" class="st8" d="M5,0h1.5c2.8,0,5,2.2,5,5v2.2c0,2.8-2.2,5-5,5H5c-2.8,0-5-2.2-5-5V5C0,2.2,2.2,0,5,0z
			"/>
	</g>
	<g id="Grupo_128251" transform="translate(284.512 1811.854)">
		<path id="Trazado_165264" class="st32" d="M29.2,4.1c0,2.2-2.3,4.1-5.2,4.1H5.2C2.3,8.1,0,6.3,0,4.1S2.3,0,5.2,0H24
			C26.9,0,29.2,1.8,29.2,4.1z"/>
	</g>
	<g id="Grupo_90783" transform="translate(468.668 1857.9)">
		<g id="Grupo_90780" transform="translate(27.121 3.541)">
			<path id="Trazado_149804" class="st57" d="M5.8,6.9C5.6,6.8,5.4,6.7,5.3,6.6C3.3,5.6,1.6,4.5,1.6,4.5c-0.1,0-0.1-0.1-0.1-0.2
				s0.1-0.1,0.2-0.1c0,0,1.8,1.1,3.7,2.1c0.5,0.3,0.8,0.3,1,0.1C7,6.1,7,4.4,6.6,2.9C6.2,1.1,3.5,0.2,2.5,0.3
				C1.7,0.4,0.9,0.5,0.2,0.7C0.1,0.8,0,0.7,0,0.7c0-0.1,0-0.2,0.1-0.2C0.9,0.2,1.6,0.1,2.4,0c1.3-0.1,4,1,4.5,2.9
				C7.2,4,7.5,6.1,6.6,6.7C6.4,6.9,6.1,7,5.8,6.9z"/>
		</g>
		<g id="Grupo_90781" transform="translate(0 4.251)">
			<path id="Trazado_149805" class="st58" d="M4.1,5.8c-0.3-0.1-0.7-0.2-1-0.3C1.8,5,0.8,4,0.3,2.7c-0.4-1.1-0.3-1.9,0.1-2.3
				c0.9-0.9,3.2-0.1,4.8,0.5C5.4,1,5.6,1,5.8,1.1c1,0.4,2.1,0.5,3.2,0.3c0.1,0,0.2,0,0.2,0.1c0,0.1,0,0.2-0.1,0.2c0,0,0,0,0,0
				C8,1.9,6.8,1.8,5.8,1.4C5.6,1.3,5.3,1.2,5.1,1.2C3.6,0.6,1.3-0.1,0.6,0.6c-0.3,0.3-0.4,1,0,2C1,3.8,2,4.8,3.3,5.2
				c3,1.1,6.4,1,9.4-0.2c0.1,0,0.2,0,0.2,0.1c0,0.1,0,0.2-0.1,0.2C10,6.4,7,6.5,4.1,5.8z"/>
		</g>
		<path id="Trazado_149806" class="st59" d="M29.3,8.1L27.5,4c0-0.1-0.1-0.1-0.2-0.2c-0.9-0.3-1.6-0.8-4.6-3
			c-3.1-2.3-6.5,0.7-8.3,1.7C13.1,3.4,9.9,5,8.9,5.5C8.7,5.6,8.7,5.8,8.7,5.9c0,0,0,0.1,0.1,0.1l3.5,3.7c0.1,0.1,0.2,0.1,0.2,0.1
			c2.4-0.2,2.6,0.5,5.9,0.9c3.4,0.5,5.5-0.3,7.2-1.5c1-0.7,2.2-0.9,3.3-0.6c0.2,0,0.3-0.1,0.4-0.2C29.4,8.2,29.4,8.2,29.3,8.1z"/>
		<path id="Trazado_149807" class="st60" d="M10.4,6.3c-0.2-0.2-0.2-0.4,0-0.6c0,0,0.1-0.1,0.1-0.1c1.4-0.7,3.4-1.7,4.4-2.3
			c0.3-0.2,0.6-0.4,1-0.6c1.4-0.9,3.4-2.2,5.2-1.7c0.4,0.1,0.8,0.3,1.1,0.6L22.8,2c1.2,1,2.5,1.8,3.9,2.6c0.1,0,0.2,0.1,0.2,0.2
			l1,2.2c0.1,0.2,0,0.5-0.2,0.5c0,0-0.1,0-0.1,0c-0.9,0.1-1.7,0.4-2.4,0.9c-1.9,1.3-4.3,1.8-6.6,1.4c-0.9-0.1-1.8-0.3-2.6-0.5
			l-0.3-0.1c-0.8-0.3-1.7-0.4-2.6-0.3c-0.1,0-0.2,0-0.3-0.1L10.4,6.3z"/>
		<g id="Grupo_90782" transform="translate(10.523 1.622)">
			<path id="Trazado_149808" class="st32" d="M4.3,2.8c0.3-0.2,0.7-0.4,1-0.7c1.5-1,3.6-2.3,5.5-1.8c0.4,0.1,0.8,0.3,1.2,0.6
				l0.6,0.5c1.3,1,2.6,2,4.1,2.7c0,0,0,0,0.1,0l-0.1-0.2c-1.4-0.8-2.7-1.6-3.9-2.6l-0.6-0.5c-0.4-0.3-0.8-0.5-1.2-0.6
				C8.9-0.4,6.8,1,5.3,2c-0.4,0.2-0.7,0.5-1,0.6C3.3,3.2,1.5,4.1,0,4.9L0.1,5C1.6,4.3,3.4,3.3,4.3,2.8z"/>
			<path id="Trazado_149809" class="st32" d="M17.2,5.3c-1.4-0.8-2.8-1.7-4.1-2.7l-0.6-0.5c-0.4-0.3-0.8-0.5-1.2-0.6
				C9.3,1,7.2,2.4,5.7,3.4C5.3,3.6,5,3.9,4.7,4C3.8,4.5,2.4,5.3,1.1,6l0.1,0.1c1.3-0.7,2.7-1.4,3.6-1.9c0.3-0.2,0.7-0.4,1-0.7
				c1.5-1,3.6-2.3,5.5-1.8c0.4,0.1,0.8,0.3,1.2,0.6L13,2.8c1.3,1,2.6,2,4.1,2.7c0.1,0,0.1,0,0.1-0.1C17.3,5.4,17.3,5.3,17.2,5.3
				C17.2,5.3,17.2,5.3,17.2,5.3z"/>
			<path id="Trazado_149810" class="st32" d="M13,3.6c-0.4-0.3-0.8-0.5-1.2-0.6c-2-0.6-4.1,0.8-5.6,1.8c-0.4,0.2-0.7,0.5-1,0.6
				c-0.7,0.4-1.8,1-3,1.6l0,0c0.1,0.1,0.1,0.1,0.2,0.1C3.4,6.6,4.5,6,5.2,5.6c0.3-0.2,0.7-0.4,1-0.7c1.5-1,3.6-2.3,5.5-1.8
				c0.4,0.1,0.8,0.3,1.2,0.6l0.6,0.5c1.2,0.9,2,1.5,2.7,1.9c0.1,0,0.2,0,0.3-0.1c-0.6-0.4-1.5-1-2.8-2L13,3.6z"/>
			<path id="Trazado_149811" class="st32" d="M13.4,5c-0.4-0.3-0.8-0.5-1.2-0.6c-2-0.6-4.1,0.8-5.6,1.8c-0.4,0.2-0.7,0.5-1,0.6
				C5.3,7,4.9,7.2,4.6,7.4c0.1,0,0.2,0,0.3,0.1c0.3-0.2,0.5-0.3,0.8-0.4c0.3-0.2,0.7-0.4,1-0.7c1.5-1,3.6-2.3,5.5-1.8
				c0.4,0.1,0.8,0.3,1.2,0.6l0.6,0.5c0.5,0.3,0.9,0.6,1.2,0.9c0.1,0,0.1-0.1,0.2-0.1c-0.4-0.3-0.8-0.6-1.3-0.9L13.4,5z"/>
			<path id="Trazado_149812" class="st32" d="M13.8,6.4c-0.4-0.3-0.8-0.5-1.2-0.6c-2-0.6-4.1,0.8-5.6,1.8L6.6,7.9L6.9,8l0.2-0.2
				c1.5-1,3.6-2.3,5.5-1.8c0.4,0.1,0.8,0.3,1.2,0.6L14.3,7c0.1,0,0.1-0.1,0.2-0.1l0,0L13.8,6.4z"/>
		</g>
	</g>
	<g id="Grupo_90787" transform="translate(477.475 1862.395)">
		<g id="Grupo_90784" transform="translate(27.121 3.541)">
			<path id="Trazado_149813" class="st57" d="M5.8,6.9C5.6,6.8,5.4,6.7,5.3,6.6C3.3,5.6,1.6,4.5,1.6,4.5c-0.1,0-0.1-0.1-0.1-0.2
				s0.1-0.1,0.2-0.1c0,0,1.8,1.1,3.7,2.1c0.5,0.3,0.8,0.3,1,0.1C7,6.1,7,4.4,6.6,2.9C6.2,1.1,3.5,0.2,2.5,0.3
				C1.7,0.4,0.9,0.5,0.2,0.8C0.1,0.8,0,0.7,0,0.7c0-0.1,0-0.2,0.1-0.2l0,0C0.9,0.2,1.6,0.1,2.4,0c1.3-0.1,4,1,4.5,2.9
				C7.2,4,7.5,6.1,6.7,6.7C6.4,6.9,6.1,7,5.8,6.9z"/>
		</g>
		<g id="Grupo_90785" transform="translate(0 4.251)">
			<path id="Trazado_149814" class="st61" d="M4.1,5.8c-0.3-0.1-0.7-0.2-1-0.3C1.8,5,0.8,4,0.3,2.7c-0.4-1.1-0.4-1.9,0.1-2.3
				c0.9-0.9,3.2-0.1,4.8,0.5C5.4,1,5.6,1,5.8,1.1c1,0.4,2.1,0.5,3.2,0.3c0.1,0,0.2,0,0.2,0.1c0,0.1,0,0.1-0.1,0.2
				C8,1.9,6.8,1.8,5.8,1.4C5.6,1.3,5.3,1.2,5.1,1.2C3.6,0.6,1.3-0.1,0.6,0.6c-0.3,0.3-0.4,1,0,2C1,3.8,2,4.8,3.3,5.2
				c3,1.1,6.4,1,9.4-0.2c0.1,0,0.2,0,0.2,0.1s0,0.2-0.1,0.2C10,6.4,7,6.5,4.1,5.8z"/>
		</g>
		<path id="Trazado_149815" class="st59" d="M29.3,8.1L27.5,4c0-0.1-0.1-0.1-0.2-0.2c-0.9-0.3-1.6-0.8-4.6-3
			c-3.1-2.3-6.5,0.7-8.3,1.7C13.1,3.4,9.9,5,8.9,5.5C8.7,5.6,8.7,5.8,8.7,5.9c0,0,0,0.1,0.1,0.1l3.5,3.7c0.1,0.1,0.2,0.1,0.2,0.1
			c2.4-0.2,2.6,0.5,5.9,0.9c3.4,0.5,5.5-0.3,7.2-1.5c1-0.7,2.2-0.9,3.3-0.6c0.2,0,0.3-0.1,0.4-0.2C29.4,8.2,29.4,8.2,29.3,8.1z"/>
		<path id="Trazado_149816" class="st60" d="M10.4,6.3c-0.2-0.2-0.2-0.4,0-0.6c0,0,0.1-0.1,0.1-0.1c1.4-0.7,3.4-1.7,4.4-2.3
			c0.3-0.2,0.6-0.4,1-0.6c1.4-0.9,3.4-2.2,5.2-1.7c0.4,0.1,0.8,0.3,1.1,0.6L22.8,2c1.2,1,2.5,1.8,3.9,2.6c0.1,0,0.2,0.1,0.2,0.2
			l1,2.2c0.1,0.2,0,0.5-0.2,0.5c0,0-0.1,0-0.1,0c-0.9,0.1-1.7,0.4-2.4,0.9c-1.9,1.3-4.3,1.8-6.6,1.4c-0.9-0.1-1.8-0.3-2.6-0.5
			l-0.3-0.1c-0.8-0.3-1.7-0.4-2.6-0.3c-0.1,0-0.2,0-0.3-0.1L10.4,6.3z"/>
		<g id="Grupo_90786" transform="translate(10.523 1.622)">
			<path id="Trazado_149817" class="st32" d="M4.3,2.8c0.3-0.2,0.7-0.4,1-0.7c1.5-1,3.6-2.3,5.5-1.8c0.4,0.1,0.8,0.3,1.2,0.6
				l0.6,0.5c1.3,1,2.6,2,4.1,2.7c0,0,0,0,0.1,0l-0.1-0.2c-1.4-0.8-2.7-1.6-3.9-2.6l-0.6-0.5c-0.4-0.3-0.8-0.5-1.2-0.6
				C8.9-0.4,6.8,1,5.3,2c-0.4,0.2-0.7,0.5-1,0.6C3.3,3.2,1.5,4.1,0,4.9L0.1,5C1.6,4.3,3.4,3.3,4.3,2.8z"/>
			<path id="Trazado_149818" class="st32" d="M17.2,5.3c-1.4-0.8-2.8-1.7-4.1-2.7l-0.6-0.5c-0.4-0.3-0.8-0.5-1.2-0.6
				C9.3,1,7.2,2.4,5.7,3.4C5.3,3.6,5,3.9,4.7,4C3.8,4.5,2.4,5.3,1.1,6l0.1,0.1c1.3-0.7,2.7-1.4,3.6-1.9c0.3-0.2,0.7-0.4,1-0.7
				c1.5-1,3.6-2.3,5.5-1.8c0.4,0.1,0.8,0.3,1.2,0.6L13,2.8c1.3,1,2.6,2,4.1,2.7c0.1,0,0.1,0,0.1-0.1C17.3,5.4,17.3,5.3,17.2,5.3
				C17.2,5.3,17.2,5.3,17.2,5.3z"/>
			<path id="Trazado_149819" class="st32" d="M13,3.6c-0.4-0.3-0.8-0.5-1.2-0.6c-2-0.6-4.1,0.8-5.6,1.8c-0.4,0.2-0.7,0.5-1,0.6
				c-0.7,0.4-1.8,1-3,1.6l0,0c0.1,0.1,0.1,0.1,0.2,0.1C3.4,6.6,4.5,6,5.2,5.6c0.3-0.2,0.7-0.4,1-0.7c1.5-1,3.6-2.3,5.5-1.8
				c0.4,0.1,0.8,0.3,1.2,0.6l0.6,0.5c1.2,0.9,2,1.5,2.7,1.9c0.1,0,0.2,0,0.3-0.1c-0.6-0.4-1.5-1-2.8-2L13,3.6z"/>
			<path id="Trazado_149820" class="st32" d="M13.4,5c-0.4-0.3-0.8-0.5-1.2-0.6c-2-0.6-4.1,0.8-5.6,1.8c-0.4,0.2-0.7,0.5-1,0.7
				C5.3,7,4.9,7.2,4.6,7.4c0.1,0,0.2,0,0.3,0.1c0.3-0.2,0.5-0.3,0.8-0.4c0.3-0.2,0.7-0.4,1-0.7c1.5-1,3.6-2.3,5.5-1.8
				c0.4,0.1,0.8,0.3,1.2,0.6l0.6,0.5c0.5,0.3,0.9,0.6,1.2,0.9c0.1,0,0.1-0.1,0.2-0.1c-0.4-0.3-0.8-0.6-1.3-0.9L13.4,5z"/>
			<path id="Trazado_149821" class="st32" d="M13.8,6.4c-0.4-0.3-0.8-0.5-1.2-0.6c-2-0.6-4.1,0.8-5.6,1.8L6.6,7.9
				c0.1,0,0.2,0,0.3,0.1l0.2-0.2c1.5-1,3.6-2.3,5.5-1.8c0.4,0.1,0.8,0.3,1.2,0.6L14.3,7c0.1,0,0.1-0.1,0.2-0.1l0,0L13.8,6.4z"/>
		</g>
	</g>
	<g id="Grupo_90795" transform="translate(460.941 1851.148)">
		<g id="Grupo_90788" transform="translate(8.631 3.462)">
			
				<rect id="Rectángulo_33170" x="0.4" y="0.4" transform="matrix(0.9504 -0.311 0.311 0.9504 -0.5639 0.7779)" class="st62" width="3.4" height="3.4"/>
			
				<rect id="Rectángulo_33171" x="1" y="0.4" transform="matrix(0.9504 -0.3111 0.3111 0.9504 -0.5645 0.7786)" class="st63" width="2.3" height="3.4"/>
			
				<rect id="Rectángulo_33172" x="1.7" y="0.4" transform="matrix(0.9504 -0.311 0.311 0.9504 -0.5641 0.778)" class="st22" width="0.9" height="3.4"/>
		</g>
		<path id="Trazado_149822" class="st22" d="M12.6,0.7l0.9,2.8c0.2,0.5-0.1,1.1-0.6,1.2L8.4,6.2C7.9,6.3,7.3,6,7.1,5.5c0,0,0,0,0,0
			L6.9,4.8C6.7,4.3,6.2,4,5.7,4.2c0,0,0,0,0,0L0.3,5.9L0,5L11.4,0C11.9-0.1,12.5,0.2,12.6,0.7C12.6,0.7,12.6,0.7,12.6,0.7z"/>
		<g id="Grupo_90790" transform="translate(8.185 5.824)">
			<path id="Rectángulo_33173" class="st63" d="M1.1,1.6l3.7-1.2c0.6-0.2,1.3,0.1,1.5,0.8l0,0c0.2,0.6-0.1,1.3-0.8,1.5L1.9,3.9
				C1.3,4.1,0.6,3.7,0.4,3.1l0,0C0.2,2.5,0.5,1.8,1.1,1.6z"/>
			<g id="Grupo_90789" transform="translate(0.656 0.542)">
				<path id="Trazado_149823" class="st64" d="M4.7,0C4.9,0,5,0,5.1,0.2l0.4,1.1c0,0.1,0,0.3-0.2,0.3c-0.1,0-0.3,0-0.3-0.2L4.6,0.3
					C4.5,0.2,4.6,0.1,4.7,0z"/>
				<path id="Trazado_149824" class="st64" d="M3.8,0.3c0.1,0,0.3,0,0.3,0.2l0.4,1.1c0,0.1,0,0.3-0.2,0.3S4.1,1.9,4,1.8c0,0,0,0,0,0
					L3.7,0.6C3.6,0.5,3.7,0.4,3.8,0.3z"/>
				<path id="Trazado_149825" class="st64" d="M2.9,0.6c0.1,0,0.3,0,0.3,0.2l0.4,1.1c0,0.1,0,0.3-0.2,0.3c-0.1,0-0.3,0-0.3-0.2
					L2.7,0.9C2.7,0.8,2.8,0.7,2.9,0.6z"/>
				<path id="Trazado_149826" class="st64" d="M2,0.9c0.1,0,0.3,0,0.3,0.2l0.4,1.1c0,0.1,0,0.3-0.2,0.3s-0.3,0-0.3-0.2c0,0,0,0,0,0
					L1.8,1.2C1.8,1.1,1.9,1,2,0.9z"/>
				<path id="Trazado_149827" class="st64" d="M1.1,1.2c0.1,0,0.3,0,0.3,0.2l0.4,1.1c0,0.1,0,0.3-0.2,0.3s-0.3,0-0.3-0.2
					c0,0,0,0,0,0L0.9,1.5C0.9,1.4,1,1.2,1.1,1.2C1.1,1.2,1.1,1.2,1.1,1.2z"/>
				<path id="Trazado_149828" class="st64" d="M0.2,1.5c0.1,0,0.3,0,0.3,0.2l0.4,1.1c0,0.1,0,0.3-0.2,0.3c-0.1,0-0.3,0-0.3-0.2
					L0,1.8C0,1.7,0,1.5,0.2,1.5z"/>
			</g>
		</g>
		<path id="Trazado_149829" class="st62" d="M2.6,4.3c1.3-0.5,2.7-0.8,4.1-0.9c0.2,0,0.5,0,0.7,0.2C7.6,3.8,7.7,4,7.9,4.2
			c0.3,0.3,0.8,0.5,1.3,0.5c0.5-0.1,0.9-0.2,1.4-0.4c0.6-0.2,1.1-0.5,1.5-1c0.6-1,0.1-2.3-0.7-3.2L11.4,0c0.5-0.2,1.1,0.1,1.2,0.6
			l0.9,2.8c0.2,0.5-0.1,1.1-0.6,1.2L8.4,6.2C7.9,6.3,7.3,6,7.1,5.5c0,0,0,0,0,0L6.9,4.8C6.7,4.3,6.2,4,5.7,4.2c0,0,0,0,0,0L0.3,5.9
			L0,5l0.7-0.3C1.3,4.6,2,4.5,2.6,4.3z"/>
		<g id="Grupo_90792" transform="translate(6.096 8.343)">
			<g id="Grupo_90791">
				<path id="Trazado_149830" class="st62" d="M0.1,9.8c-0.9-4,3.4-8.3,3.4-8.3l1.2-0.4l2.2-0.7L8.1,0c0,0,6,0.9,7.6,4.7
					s4,14.9,3.2,16.3c-1.2,1.2-2.7,2.2-4.3,2.8l-0.3,0.1c-0.5,0.2-1.1,0.4-1.7,0.5l-0.3,0.1c-1.7,0.5-3.4,0.6-5.1,0.3
					C5.7,24.2,1.1,13.7,0.1,9.8z"/>
				<path id="Trazado_149831" class="st22" d="M13.2,23.5c0.3-0.1,0.5-0.2,0.8-0.3l0.3-0.1c1.5-0.6,2.8-1.4,4-2.5
					c0.2-0.4,0.1-2.5-0.8-6.9c-0.6-3-1.4-5.9-2.4-8.7c-1.3-3-6-4.1-6.9-4.2L3.9,2.1C3.2,2.8,0.1,6.4,0.8,9.6
					c0.8,2.9,1.9,5.8,3.2,8.5c1.8,4,3.1,5.8,3.4,6c1.6,0.2,3.2,0.1,4.7-0.3l0.3-0.1C12.7,23.7,13,23.6,13.2,23.5z"/>
			</g>
			<path id="Trazado_149832" class="st65" d="M9.5,20.1c-1.5-4.1-3-8.4-3.6-10.6C5.1,7,4.9,4.3,5.3,1.7l1.5-0.5
				c1.8,1.9,3.2,4.2,4.1,6.7c0.8,2.2,2.1,6.5,3.3,10.7c0.6,2,1,3.5,1.3,4.8c-0.3,0.2-0.7,0.3-1,0.5l-0.3,0.1
				c-0.5,0.2-1.1,0.4-1.7,0.5l-0.3,0.1c-0.4,0.1-0.7,0.2-1.1,0.2C10.8,23.5,10.2,22,9.5,20.1z"/>
		</g>
		<g id="Grupo_90794" transform="translate(7.534 15.904)">
			<path id="Trazado_149833" class="st66" d="M2.6,11.7c5-0.6,9.7-2.2,14.1-4.6l-2-7.1C10.2,2.6,5.2,4.2,0,4.8L2.6,11.7z"/>
			<g id="Grupo_90793" transform="translate(6.22 4.068)">
				<path id="Trazado_149834" class="st67" d="M0,2.3C0.4,2.2,0.9,2.1,1.3,2L0.9,0.6C1.5,0.4,2.1,0.2,2.7,0l0.4,1.4
					C3.6,1.2,4,1,4.4,0.9L5,2.7C4.6,2.9,4.2,3,3.7,3.2l0.4,1.3C3.6,4.7,3,4.9,2.4,5.1L1.9,3.8C1.5,3.9,1.1,4,0.6,4.2L0,2.3z"/>
			</g>
		</g>
	</g>
	<g id="Grupo_90798" transform="translate(462.543 1867.804)">
		<path id="Trazado_149835" class="st14" d="M3.3,8.4L7.9,61c0.1,1.6,1.5,2.9,3.2,2.9h29.5c1.6,0,3-1.3,3.2-2.9l4.6-52.7L3.3,8.4z"
			/>
		<path id="Trazado_149836" class="st68" d="M37.6,12.4H10.3c-2.3,0-4.2,1.9-4.2,4.2c0,0.1,0,0.2,0,0.4l3.8,40.9
			c0.1,1.1,1,1.9,2.1,1.9h27.2c1.1,0,2.1-0.9,2.1-2.1l0,0l-1.6-43.2C39.6,13.4,38.7,12.4,37.6,12.4z"/>
		<path id="Trazado_149837" class="st14" d="M17.1,37.7h-5.5c-0.8,0-1.4,0.6-1.4,1.4c0,0,0,0.1,0,0.1l1.5,17
			c0.1,0.7,0.7,1.3,1.5,1.2c0.2,0,0.3-0.1,0.4-0.1c1.3-0.6,2.7-1.2,4.2-1.7c0.8-0.3,1.3-1.1,1.4-1.9V39.8
			C19.2,38.6,18.2,37.7,17.1,37.7C17.1,37.7,17.1,37.7,17.1,37.7z"/>
		<path id="Trazado_149838" class="st68" d="M50.4,0H1.2C0.5,0.1-0.1,0.7,0,1.4L0.1,7c0,0.7,0.5,1.3,1.2,1.3h49.1
			C51,8.3,51.5,7.7,51.5,7l0.1-5.6C51.6,0.7,51.1,0.1,50.4,0C50.4,0,50.4,0,50.4,0z"/>
		<g id="Grupo_90796" transform="translate(2.203 2.186)">
			<path id="Trazado_149839" class="st14" d="M17.4,0H0.7C0.3,0,0,0.3,0,0.7c0,0,0,0,0,0l0,2.5C0,3.7,0.4,4,0.8,4h4.7
				c0.1,0,0.2,0,0.3-0.1c1.2-1.3,5.6-2.4,11.7-3.1c0.2,0,0.3-0.2,0.3-0.4l0,0C17.8,0.2,17.6,0,17.4,0z"/>
		</g>
		<g id="Grupo_90797" transform="translate(12.538 15.93)">
			<path id="Trazado_149840" class="st69" d="M14.7,14.1c-0.3-0.2-0.6-0.3-0.8-0.5c-0.1-0.1-0.1-0.2-0.1-0.3
				c0.2-0.8-0.3-1.6-1.1-1.8c-0.1,0-0.2-0.1-0.2-0.2c0-0.3,0-0.6,0-0.9c2.9-0.2,5.1-2.6,4.9-5.5c-0.1-2.3-1.7-4.2-4-4.8
				c1.4-0.1,3.8,1.6,4.8,3.4c1,1.8,1.2,4,0.4,5.9c3.8,0.6,6.4,4.1,5.8,7.9c-0.1,0.4-0.1,0.7-0.2,1c0.3-3.1-0.8-5.4-3.8-6.2
				C18.1,11.3,16.2,12.2,14.7,14.1z"/>
			<path id="Trazado_149841" class="st69" d="M22.8,20.7c-2.5,2.9-6.8,3.2-9.7,0.7c-0.3-0.3-0.6-0.6-0.9-0.9c-1.5,1.9-4,2.8-6.4,2.5
				c-1.5-0.2-2.9-0.9-3.9-2c2.3,1.6,4.7,1.9,6.9,0c2-1.7,2.3-3.9,1.3-6.3c0.3-0.2,0.5-0.3,0.8-0.5c0.1,0,0.2,0,0.3,0.1
				c0.6,0.5,1.5,0.5,2.1,0c0.1-0.1,0.2-0.1,0.3,0c0.3,0.1,0.5,0.3,0.8,0.5c-1.1,2.7-0.6,5.1,1.9,6.8C18.6,22.8,20.8,22.4,22.8,20.7z
				"/>
			<path id="Trazado_149842" class="st69" d="M9.9,14c-1.4-2.1-4-2.9-6.4-2c-1.2,0.5-2.1,1.4-2.7,2.5c-0.6,1.1-0.7,2.4-0.4,3.6
				c-1.2-3.6,0.7-7.5,4.3-8.7c0.4-0.1,0.7-0.2,1.1-0.3c-1.4-3.5,0.4-7.5,4-8.9C10.2,0.2,10.6,0.1,11,0C9.9,0.3,8.8,1,8.1,2
				C7.3,3,7,4.2,7.1,5.4c0.2,2.6,2.3,4.7,4.9,4.9c0,0.3,0,0.6,0,0.9c0,0.1-0.1,0.2-0.2,0.2c-0.7,0.3-1.2,1-1,1.8
				c0,0.1,0,0.2-0.1,0.3C10.4,13.8,10.2,13.9,9.9,14z"/>
			<path id="Trazado_149843" class="st69" d="M9.7,18.9c-2.6-1.1-4.2-3.7-4-6.5c0-0.2,0.1-0.3,0.3-0.3c0.4,0.1,0.8,0.2,1.1,0.3
				c0.1,0.1,0.2,0.2,0.2,0.3c0,1.8,0.9,3.4,2.5,4.3c0.1,0.1,0.2,0.2,0.2,0.3C10,18,9.9,18.4,9.7,18.9z"/>
			<path id="Trazado_149844" class="st69" d="M18.7,12.2c0.4,2.9-1.2,5.7-3.9,6.8c-0.1-0.5-0.3-1-0.4-1.5c0-0.1,0.1-0.2,0.2-0.3
				c1.2-0.7,2.1-1.9,2.4-3.3c0.1-0.3,0.1-0.6,0.1-1c0-0.2,0-0.3,0.2-0.4L18.7,12.2z"/>
			<path id="Trazado_149845" class="st69" d="M16.2,7.8c-0.4,0.4-0.7,0.7-1.1,1c-0.1,0-0.2,0-0.3,0c-1.6-0.9-3.5-0.9-5,0
				c-0.1,0-0.2,0-0.3,0c-0.4-0.3-0.7-0.7-1-1C10.7,6,13.9,6,16.2,7.8z"/>
		</g>
	</g>
</g>
</svg>
