<svg xmlns="http://www.w3.org/2000/svg" width="113.577" height="113.104" viewBox="0 0 113.577 113.104">
  <g id="Grupo_129342" data-name="Grupo 129342" transform="translate(-1126.863 -1469)">
    <path id="Trazado_165199" data-name="Trazado 165199" d="M3697.422-602.759h-29.494v59.833h-54.634V-602.7h-29.448v-33.909h29.438V-656.03H3667.9v19.348c.432.025.688.053.945.053q13.854,0,27.707,0a8.459,8.459,0,0,0,.874-.089Zm-80.809-3.317v59.813H3626v-4.422h3.33v4.5h4.125c1.842,0,2.707-.882,2.708-2.757V-550.7h3.353v4.45h2.351v-4.445h3.342c0,.869-.014,1.672,0,2.475.016.726,1.064,1.991,1.758,2.01,1.651.047,3.3.015,5.118.015v-4.5h3.369v4.435h9.04v-10.609h-4.53v-3.373h4.667v-45.88h29.4v-27.14h-29.492v-19.328h-14.779c.251.279.389.444.539.6a12.264,12.264,0,0,1,3.818,7.682c.233,2.866-.02,5.776.269,8.633a6.969,6.969,0,0,1-2.908,6.967,18.319,18.319,0,0,0-2.051,2.031l.147.271h17.11v3.242h-51.994v-3.355h17.441c-1.631-1.613-3.075-2.988-4.445-4.432a2.318,2.318,0,0,1-.623-1.413c-.051-3.365-.038-6.732-.018-10.1a13.262,13.262,0,0,1,3.937-9.466c.186-.191.338-.414.542-.668h-14.975v19.428h-22.731v3.275h-3.376v-3.277h-3.285v27.094Zm34.151-32.012.343.1c-.1-2.064-.2-4.128-.307-6.192a3.238,3.238,0,0,0-.129-.534,10.33,10.33,0,0,0-11.189-7.817c-4.342.465-8.551,4.224-8.882,8.544-.269,3.492-.186,7.012-.209,10.519a1.7,1.7,0,0,0,.535,1.009c1.2,1.253,2.568,2.371,3.645,3.72,1.47,1.841,3.23,2.267,5.539,2.373a9.062,9.062,0,0,0,7.5-3.084C3650.073-631.941,3652-634.282,3650.765-638.089Z" transform="translate(-2456.982 2125.03)" fill="#1d272b"/>
    <path id="Trazado_165200" data-name="Trazado 165200" d="M3801.47-472.167h16.7v25.857h-16.7Zm13.408,8.6h-3.011v-3.361h3v-1.864h-10.1v1.92h2.758v3.336h-2.758v2.473h2.765v3.376h-2.762v8.036h3.386v-3.638h3.39v3.66h3.319v-8.112h-2.979v-3.4h3Z" transform="translate(-2626.212 1982.054)" fill="#1d272b"/>
    <path id="Trazado_165201" data-name="Trazado 165201" d="M3894.3-473.611v46.472h-3.254v-49.77h14.519v3.3Z" transform="translate(-2695.865 1985.741)" fill="#1d272b"/>
    <path id="Trazado_165202" data-name="Trazado 165202" d="M3733.864-473.532h-11.3v-3.327h14.491v49.733h-3.2Z" transform="translate(-2564.855 1985.703)" fill="#1d272b"/>
    <path id="Trazado_165203" data-name="Trazado 165203" d="M3674.608-516.553H3664.58v-19.372h10.028Zm-6.7-16.08v12.716h3.353v-12.716Z" transform="translate(-2519.764 2031.634)" fill="#1d272b"/>
    <path id="Trazado_165204" data-name="Trazado 165204" d="M3969.105-516.615V-536h10.052v19.389Zm6.716-3.342v-12.712h-3.383v12.712Z" transform="translate(-2756.569 2031.695)" fill="#1d272b"/>
    <path id="Trazado_165205" data-name="Trazado 165205" d="M3825.049-317.055v-14.952h-2.3v14.979h-3.268v-18.284h8.895v18.257Z" transform="translate(-2640.221 1875.633)" fill="#1d272b"/>
    <path id="Trazado_165206" data-name="Trazado 165206" d="M3858.4-240.339v10.011h-13.462v-10.011Zm-3.311,6.752c0-1.025.029-1.943-.022-2.856-.011-.2-.3-.559-.474-.563-2.09-.039-4.181-.026-6.271-.026v3.445Z" transform="translate(-2660.017 1801.779)" fill="#1d272b"/>
    <path id="Trazado_165207" data-name="Trazado 165207" d="M3786.871-230.241h-13.421v-10.046h13.421Zm-10.088-6.691v3.343h6.731v-3.343Z" transform="translate(-2604.423 1801.739)" fill="#1d272b"/>
    <path id="Trazado_165208" data-name="Trazado 165208" d="M3918.534-402.494h3.223v18.507h-3.223Z" transform="translate(-2717.244 1927.875)" fill="#1d272b"/>
    <path id="Trazado_165209" data-name="Trazado 165209" d="M4027.056-519.905v-3.175c1.526-.165,2.884-.288,3.995,1.139.992,1.274,2.7,2.158,3.265,3.549.582,1.432.167,3.271.179,4.931.008,1.248,0,2.495,0,3.82h-7.429V-512.9h3.89C4031.831-516.948,4030.293-519.118,4027.056-519.905Z" transform="translate(-2801.633 2021.72)" fill="#1d272b"/>
    <path id="Trazado_165210" data-name="Trazado 165210" d="M3618.44-509.662c0-2.894-.015-5.727.023-8.559,0-.269.295-.57.514-.8a34.047,34.047,0,0,0,2.862-2.924c1.085-1.431,2.451-1.353,4.005-1.167v3.09c-3.647,1.421-4.543,2.644-3.991,7.018h3.98v3.337Z" transform="translate(-2483.881 2021.744)" fill="#1d272b"/>
    <path id="Trazado_165211" data-name="Trazado 165211" d="M3918.631-581.085h3.225v8.77h-3.225Z" transform="translate(-2717.319 2066.751)" fill="#1d272b"/>
    <path id="Trazado_165212" data-name="Trazado 165212" d="M3918.447-630.864h3.264v3.23h-3.264Z" transform="translate(-2717.176 2105.46)" fill="#1d272b"/>
    <path id="Trazado_165213" data-name="Trazado 165213" d="M3834.98-493.836h-3.247v-3.221h3.247Z" transform="translate(-2649.746 2001.409)" fill="#1d272b"/>
    <path id="Trazado_165214" data-name="Trazado 165214" d="M3918.448-602.67v-3.183h3.28v3.183Z" transform="translate(-2717.177 2086.012)" fill="#1d272b"/>
    <path id="Trazado_165215" data-name="Trazado 165215" d="M3743.671-278.449h3.193v3.189h-3.193Z" transform="translate(-2581.266 1831.414)" fill="#1d272b"/>
    <path id="Trazado_165216" data-name="Trazado 165216" d="M3743.732-253.575h3.208v3.182h-3.208Z" transform="translate(-2581.313 1812.072)" fill="#1d272b"/>
    <path id="Trazado_165217" data-name="Trazado 165217" d="M3810.174-493.768h-3.223v-3.182h3.223Z" transform="translate(-2630.475 2001.326)" fill="#1d272b"/>
    <path id="Trazado_165218" data-name="Trazado 165218" d="M3743.684-228.719h3.191v3.2h-3.191Z" transform="translate(-2581.276 1792.743)" fill="#1d272b"/>
    <path id="Trazado_165219" data-name="Trazado 165219" d="M3746.938-200.609h-3.2v-3.224h3.2Z" transform="translate(-2581.318 1773.392)" fill="#1d272b"/>
    <path id="Trazado_165220" data-name="Trazado 165220" d="M3859.825-497.032v3.168h-3.26v-3.168Z" transform="translate(-2669.055 2001.39)" fill="#1d272b"/>
    <path id="Trazado_165221" data-name="Trazado 165221" d="M3861.273-590.676h3.182v7.856h-3.182Z" transform="translate(-2672.717 2074.209)" fill="#1d272b"/>
    <path id="Trazado_165222" data-name="Trazado 165222" d="M3839.209-628.2v-3.413l4.021.984L3841.6-627.6Z" transform="translate(-2655.559 2106.045)" fill="#1d272b"/>
    <path id="Trazado_165223" data-name="Trazado 165223" d="M3856.868-614.749l-1.132-2.206,2.517-2.3,1.98,3.751Z" transform="translate(-2668.411 2096.432)" fill="#1d272b"/>
  </g>
</svg>
