<svg xmlns="http://www.w3.org/2000/svg" xmlns:xlink="http://www.w3.org/1999/xlink" width="402.849" height="275.453" viewBox="0 0 402.849 275.453">
  <defs>
    <radialGradient id="radial-gradient" cx="0.5" cy="0.5" r="0.5" gradientUnits="objectBoundingBox">
      <stop offset="0" stop-color="#f6f6f7"/>
      <stop offset="0.477" stop-color="#f9f9fa"/>
      <stop offset="0.715" stop-color="#fff"/>
    </radialGradient>
  </defs>
  <g id="Grupo_129374" data-name="Grupo 129374" transform="translate(-1002.132 -2415.831)">
    <path id="Trazado_163418" data-name="Trazado 163418" d="M433.288,357.469c15.361-16.827,19.731-38.666,11.6-57.951-5.143-12.192-15.011-23.519-16.273-36.234-2.524-25.42,29.287-45.971,35.886-71.007,2.9-11-.264-23.821-12.7-30.5-12.281-6.6-29.808-5.254-43.711-.63s-25.667,12.024-39.016,17.434-29.785,8.755-43.881,4.449c-14.278-4.362-22.378-15.356-26.915-26.071s-6.764-22.128-14.506-31.835c-12.761-16-39.969-24.723-65.324-22.465s-48.009,14.623-60.16,30.868-14.275,35.894-8.226,53.837c3.068,9.1,8.123,17.815,10.879,26.968s3.009,19.17-3.145,27.414c-12.868,17.239-46.814,19.643-64.59,34.427C78.535,288.37,78.074,306.99,86.4,322s23.974,27.18,39.576,38.763c72.771,1.768,146.845,1.886,219.616,3.654C373.875,365.1,405.039,358.671,433.288,357.469Z" transform="translate(921.17 2316.173)" fill="#a4a4b4" opacity="0.354" style="mix-blend-mode: multiply;isolation: isolate"/>
    <path id="Trazado_163419" data-name="Trazado 163419" d="M359.21,164.314c-.1,11.1,10.449,20.763,8.613,31.711-.982,5.858-5.446,11.8-2.851,17.14,2.295,4.728,8.868,5.548,13.894,4.011,11.765-3.6,18.915-15.625,22.335-27.443,3.217-11.116,4.015-23.533-1.136-33.9-4.151-8.349-13.728-15.72-23.454-15.038C367.7,141.423,359.287,155.953,359.21,164.314Z" transform="translate(1001.209 2335.229)" fill="#a4a4b4" opacity="0.31" style="mix-blend-mode: multiply;isolation: isolate"/>
    <path id="Trazado_163420" data-name="Trazado 163420" d="M114.413,139.355a57.529,57.529,0,0,0-1.148,55.979c2.953,5.419,6.942,10.468,12.327,13.481s12.333,3.685,17.693.628c8.129-4.637,9.927-15.575,9.28-24.911s-2.762-19.125.833-27.765c2.344-5.632,6.845-10.023,10.837-14.636s7.719-10,7.925-16.093c.535-15.805-16.245-14.624-26.358-11.342A57.472,57.472,0,0,0,114.413,139.355Z" transform="translate(927.003 2311.816)" fill="#a4a4b4" opacity="0.31" style="mix-blend-mode: multiply;isolation: isolate"/>
    <path id="Trazado_151849" data-name="Trazado 151849" d="M433.981,360.092l-1.59-1.032c4.376-3.4,11.36-11.2,9-25.213-1.052-6.239-3.661-12.4-6.184-18.363-1.126-2.663-2.292-5.416-3.309-8.151-10.851-29.174-6.1-61.356,13.022-88.295,1.7-2.39,3.537-4.789,5.315-7.109,5.271-6.876,10.722-13.988,13.066-21.669,4.111-13.479-4.015-23.583-13.3-27.265-8.912-3.535-21.493-2.994-34.513,1.483-4.763,1.637-9.393,3.64-13.87,5.577a151.341,151.341,0,0,1-18.6,7.081c-25.844,7.373-58.157,1.107-75.159-14.574-8.171-7.535-12.786-16.643-17.247-25.451-1.729-3.413-3.517-6.942-5.483-10.32-6.115-10.5-17.307-23.679-35.9-26.831-16.336-2.771-32.881,3.319-43.882,8.916-21.048,10.709-35.884,25.212-41.778,40.837-3.974,10.537-4.133,22-4.288,33.1-.23,16.516-.469,33.6-13.585,47.349-5.967,6.257-14.174,11.249-22.109,16.078-7.433,4.521-15.119,9.2-20.848,14.865C89.745,273.943,86.563,292.124,94,310.982c6.68,16.944,20.3,31.978,33.466,46.518l-1.81.828C112.4,343.694,98.692,328.561,91.925,311.4c-7.612-19.309-4.311-37.966,9.055-51.187,5.881-5.818,13.667-10.554,21.2-15.134C130,240.311,138.1,235.386,143.9,229.3c12.752-13.373,12.976-29.466,13.214-46.505.156-11.187.317-22.753,4.364-33.478,6.022-15.966,21.153-30.769,42.6-41.685,11.365-5.782,28.507-12.065,45.635-9.16,19.475,3.3,31.081,16.9,37.387,27.734,1.986,3.41,3.783,6.957,5.52,10.387,4.405,8.7,8.96,17.689,16.926,25.034,16.436,15.158,47.671,21.215,72.654,14.088a149.621,149.621,0,0,0,18.286-6.967c4.52-1.956,9.194-3.979,14.05-5.648,13.66-4.7,26.963-5.224,36.5-1.442,9.961,3.95,18.7,14.687,14.36,28.927-2.41,7.9-7.935,15.106-13.281,22.078-1.77,2.309-3.6,4.7-5.283,7.065-18.892,26.609-23.58,58.4-12.862,87.213,1.007,2.709,2.168,5.45,3.289,8.1,2.549,6.023,5.186,12.25,6.262,18.622C445.991,348.287,438.6,356.5,433.981,360.092Z" transform="translate(918.25 2318.092)" fill="#a4a4b4"/>
    <path id="Trazado_163694" data-name="Trazado 163694" d="M476.624,366.95c-.1,1.448-.17,2.725-.234,3.79-.149,2.565-2.81,4.588-5.429,4.694a5.056,5.056,0,0,1-5.248-4.854c-.043-1.1-.1-2.31-.17-3.63-1.011-19.044-4.694-59.772-5.493-65.584-1.171,6.972-8.729,58.75-10.326,71.237-.1.671-.16,1.224-.213,1.65-.287,2.5-3.13,4.365-5.716,4.375a5.056,5.056,0,0,1-5.078-5.046c0-.266,0-.6-.011-.979-.138-12.05-2.023-80.977-2.076-83.361-.128-6.132,17.064-33.585,17.064-33.585l17.6-3.066S482.755,277.8,482.925,281.6C483.064,284.717,478.028,345.394,476.624,366.95Z" transform="translate(838.205 2293.762)" fill="#1d272b"/>
    <path id="Trazado_163695" data-name="Trazado 163695" d="M439.1,244.442l-1.865-29.278a9.689,9.689,0,0,0-.261-1.66,9.069,9.069,0,0,0-17.577,4.473l5.952,23.388L411.1,246.158a3.189,3.189,0,0,0,1.123,6.21l21.767-.733c.046,0,.115,0,.161-.008A5.4,5.4,0,0,0,439.2,245.9Z" transform="translate(836.418 2290.799)" fill="url(#radial-gradient)"/>
    <path id="Trazado_163696" data-name="Trazado 163696" d="M483.869,288.127a179.5,179.5,0,0,1-46.271,5.55c.583-7.687.919-14.154,1.124-18.959.678-15.956.189-20.29-.307-23.3a65.065,65.065,0,0,0-4.968-16.334c-.136-.092-.345-.234-.592-.417a16.744,16.744,0,0,1-3.534-3.545,11.465,11.465,0,0,1-1.349-2.287,42.143,42.143,0,0,1-2.378-8.11c-1.546-6.043-4.485-6.189-3.937-8.914.591-2.974,4.072-2.661,8.926-7.809,2.443-2.581,3.85-4.076,4.388-6.309.035-.146.07-.292.095-.444.211-1.152-.22-3.79-.77-6.321a36,36,0,0,0-.176-4.436c-.044-.49-.093-1.007-.163-1.538,1.8.525,12.759-.453,14.1-1.094-.028.865-.016,1.657.028,2.378a.4.4,0,0,0,0,.1,18.472,18.472,0,0,0,.741,5.4c.073.271.158.5.163.53a19.648,19.648,0,0,0,.862,2.163c.03.059.049.111.081.169a9.423,9.423,0,0,0,2.348,3.118c3.072,2.539,7.919.193,12.067,2.845,4.127,2.64,4.691,8.993,5.034,12.933.58,6.643-1.276,8.816-1.306,16.71a49.853,49.853,0,0,0,1.2,11.064,66.3,66.3,0,0,1,14.587,46.856Z" transform="translate(837.234 2289.328)" fill="url(#radial-gradient)"/>
    <path id="Trazado_163697" data-name="Trazado 163697" d="M437.226,244.831a.4.4,0,0,1-.394-.333,37.54,37.54,0,0,0-2.646-8.9c-.4-.909-.842-1.82-1.322-2.706-.136-.093-.317-.218-.525-.372a17.052,17.052,0,0,1-3.618-3.63,12.02,12.02,0,0,1-1.395-2.364c-.2-.455-.346-.8-.5-1.219-.333-.869-.63-1.783-.886-2.718a.4.4,0,0,1,.28-.49.391.391,0,0,1,.49.279c.249.91.539,1.8.862,2.644.154.406.3.743.492,1.186a11.032,11.032,0,0,0,1.3,2.208,16.232,16.232,0,0,0,3.449,3.461c.242.179.444.317.577.406a.4.4,0,0,1,.13.143c.507.933.977,1.892,1.4,2.853a38.378,38.378,0,0,1,2.7,9.09.4.4,0,0,1-.329.459A.441.441,0,0,1,437.226,244.831Z" transform="translate(837.514 2291.794)" fill="#a4a4b4"/>
    <path id="Trazado_163698" data-name="Trazado 163698" d="M449.1,194.431c.029.059.049.111.08.169a40.859,40.859,0,0,1-11.752,2.92c-1.116.105-2.184.164-3.209.168.035-.146.07-.292.095-.444.211-1.152-.22-3.79-.77-6.321a35.986,35.986,0,0,0-.176-4.436c-.044-.49-.093-1.007-.163-1.538,1.8.525,12.759-.453,14.1-1.094-.028.865-.016,1.657.028,2.378a.41.41,0,0,0,0,.1,18.408,18.408,0,0,0,.742,5.4c.072.273.156.5.162.531A19.664,19.664,0,0,0,449.1,194.431Z" transform="translate(837.984 2289.328)" fill="#f8d1b9"/>
    <path id="Trazado_163699" data-name="Trazado 163699" d="M445.538,178.34c3.68,4.32,4,6.358,3.459,7.408a2.53,2.53,0,0,0-.547,1.7c.216,1.08,1.585,1.234,1.658,2.158.067.828-1,1.041-1,1.961,0,.947,1.146,1.216,1.367,2.364a2.65,2.65,0,0,1-.444,1.85l-1.244-.088a34.942,34.942,0,0,1-1.733-4.454A35.7,35.7,0,0,1,445.538,178.34Z" transform="translate(838.774 2288.972)" fill="#64546f"/>
    <path id="Trazado_163700" data-name="Trazado 163700" d="M448.248,180.994c0,7.663-4.832,13.954-10.831,14.107-6.139.155-11.354-6.168-11.554-14.008s4.688-14.421,10.826-14.577,11.353,6.168,11.553,14.008Z" transform="translate(837.509 2288.208)" fill="#f8d1b9"/>
    <path id="Trazado_163701" data-name="Trazado 163701" d="M434.991,181.474a.711.711,0,1,0,.955-.314A.71.71,0,0,0,434.991,181.474Z" transform="translate(838.094 2289.149)" fill="#64546f"/>
    <path id="Trazado_163702" data-name="Trazado 163702" d="M428,182.267a.71.71,0,1,0,.954-.314A.71.71,0,0,0,428,182.267Z" transform="translate(837.643 2289.201)" fill="#64546f"/>
    <g id="Grupo_127621" data-name="Grupo 127621" transform="translate(1272.493 2467.674)">
      <path id="Trazado_163703" data-name="Trazado 163703" d="M437.629,179.649a.257.257,0,0,1-.125-.031,3.478,3.478,0,0,0-1.748-.4,3.353,3.353,0,0,0-.971.188.266.266,0,1,1-.177-.5,3.893,3.893,0,0,1,1.124-.219,4,4,0,0,1,2.019.465.266.266,0,0,1-.123.5Z" transform="translate(-434.431 -178.679)" fill="#64546f"/>
    </g>
    <g id="Grupo_127622" data-name="Grupo 127622" transform="translate(1263.678 2468.701)">
      <path id="Trazado_163704" data-name="Trazado 163704" d="M426.416,180.765a.266.266,0,0,1-.145-.489,3.833,3.833,0,0,1,1.041-.479,3.945,3.945,0,0,1,2.07-.028.266.266,0,0,1-.129.516,3.427,3.427,0,0,0-1.794.022,3.37,3.37,0,0,0-.9.413A.263.263,0,0,1,426.416,180.765Z" transform="translate(-426.15 -179.645)" fill="#64546f"/>
    </g>
    <path id="Trazado_163705" data-name="Trazado 163705" d="M426.962,186.19a7.052,7.052,0,0,0,5.063-2.719,1.046,1.046,0,0,1,.638-.627,1.025,1.025,0,0,1,1.11.413,7.434,7.434,0,0,0,3.343.879c4.8.067,7.706-4.923,7.877-5.228a6.178,6.178,0,0,0-.3,2.85c.309,2.176,1.708,2.706,2.057,4.219.6,2.6-2.375,6.022-5.474,7.463a10.493,10.493,0,0,1-8.4-.015A11.023,11.023,0,0,1,426.962,186.19Z" transform="translate(837.581 2289.01)" fill="#1d272b"/>
    <path id="Trazado_163706" data-name="Trazado 163706" d="M425.933,179.372a15.835,15.835,0,0,1,6.818-2.86,17.1,17.1,0,0,1,9.414,1.4,21.154,21.154,0,0,1,5.858,3.585,21.3,21.3,0,0,0-3.083-15.111,13.906,13.906,0,0,0-19.4,3.909Q425.739,174.836,425.933,179.372Z" transform="translate(837.489 2288.049)" fill="url(#radial-gradient)"/>
    <path id="Trazado_163707" data-name="Trazado 163707" d="M443.41,180.418c-.131,2.048,1,3.789,2.539,3.887s2.88-1.483,3.011-3.532-1-3.789-2.538-3.887S443.541,178.369,443.41,180.418Z" transform="translate(838.641 2288.878)" fill="#f8d1b9"/>
    <path id="Trazado_163708" data-name="Trazado 163708" d="M472.589,243.666l-.136-1.1-1.076-8.668-1.158-8.633q-1.194-8.632-2.577-17.273a9.881,9.881,0,0,0-.335-1.388,9.058,9.058,0,1,0-17.217,5.633q2.651,8.107,5.146,16.316l2.459,8.215.84,2.913q-.136.041-.271.086c-2.24.7-4.483,1.4-6.73,2.059-4.49,1.324-9.008,2.592-13.483,3.575l-.061.012a3.172,3.172,0,0,0,.664,6.27c4.92.03,9.729-.225,14.534-.535,2.4-.156,4.8-.342,7.192-.54s4.77-.411,7.209-.662c.03,0,.088-.009.118-.013A5.619,5.619,0,0,0,472.589,243.666Z" transform="translate(838.132 2290.393)" fill="url(#radial-gradient)"/>
    <path id="Trazado_163709" data-name="Trazado 163709" d="M438.2,233.379a.4.4,0,0,1-.183-.754,22.737,22.737,0,0,1,14.21-2.221.4.4,0,0,1-.133.788,21.948,21.948,0,0,0-13.711,2.142A.4.4,0,0,1,438.2,233.379Z" transform="translate(838.28 2292.31)" fill="#a4a4b4"/>
    <path id="Trazado_163710" data-name="Trazado 163710" d="M438.649,251.343a.4.4,0,0,1-.052-.8l8.163-1.077c8.43-1.116,15.71-2.078,18.118-2.343a9.182,9.182,0,0,0,6.685-3.772.4.4,0,1,1,.64.478,9.975,9.975,0,0,1-7.214,4.085c-2.422.267-9.7,1.228-18.124,2.343l-8.163,1.078A.443.443,0,0,1,438.649,251.343Z" transform="translate(838.309 2293.156)" fill="#a4a4b4"/>
    <path id="Trazado_163711" data-name="Trazado 163711" d="M437.24,244.823a.4.4,0,0,1-.129-.777l22.445-7.668-5.262-15.342a.4.4,0,1,1,.755-.26l5.392,15.72a.4.4,0,0,1-.249.508l-22.823,7.8A.391.391,0,0,1,437.24,244.823Z" transform="translate(838.218 2291.691)" fill="#a4a4b4"/>
    <path id="Trazado_163712" data-name="Trazado 163712" d="M449.6,365.33c-.1.671-.16,1.224-.213,1.65-.287,2.5-3.13,4.365-5.716,4.375a5.056,5.056,0,0,1-5.078-5.046c0-.266,0-.6-.011-.979Z" transform="translate(838.33 2301.033)" fill="#f9afb6"/>
    <path id="Trazado_163713" data-name="Trazado 163713" d="M474.872,360.02c-.1,1.448-.17,2.725-.234,3.79-.149,2.565-2.81,4.588-5.429,4.694a5.056,5.056,0,0,1-5.248-4.854c-.043-1.1-.1-2.31-.17-3.63Z" transform="translate(839.957 2300.691)" fill="#f9afb6"/>
    <path id="Trazado_163714" data-name="Trazado 163714" d="M453.1,377.732a1.65,1.65,0,0,1-.561,1.425H422.951a2.337,2.337,0,0,1-.508-1.192c-.081-.551,0-3.063.5-3.566.571-.573,1.82-.786,3.161-1.27a58.934,58.934,0,0,0,9.3-4.933c1.2-1.581,2.563-4.488,3.94-5.826a1.306,1.306,0,0,1,1-.465c.616.087.951.94,1,1.076a3.492,3.492,0,0,1-.507,2.907,9.48,9.48,0,0,0,3.876,2.229,5.049,5.049,0,0,0,3.006.224c1.975-.6,2.363-2.627,3.224-2.453.651.136,1.023,1.444,1.574,5.369C452.779,373.11,452.961,376.4,453.1,377.732Z" transform="translate(837.288 2300.813)" fill="#db8804"/>
    <path id="Trazado_163715" data-name="Trazado 163715" d="M475.095,361.493a21.26,21.26,0,0,1-11.087,1.06,14.5,14.5,0,0,1-.813,3.267c-.984,2.606-2.086,3.283-3.028,6.086-.7,2.092-1.673,4.99-.07,6.446.837.759,1.96.745,6.759.776,3.454.02,6.081.047,7.251.059a16.25,16.25,0,0,0,2.252-7.637C476.418,369.255,475.9,367.786,475.095,361.493Z" transform="translate(839.662 2300.786)" fill="#db8804"/>
    <path id="Trazado_163716" data-name="Trazado 163716" d="M472.462,363.062c0-1.423-1.954-2.577-4.366-2.577s-4.378.71-4.378,2.133,1.966,3.021,4.378,3.021S472.462,364.485,472.462,363.062Z" transform="translate(839.952 2300.721)" fill="#db8804"/>
    <path id="Trazado_163717" data-name="Trazado 163717" d="M386.047,361.109l.631,5.282h12.494l2.369-12.766Z" transform="translate(834.337 2299.632)" fill="#f9afb6"/>
    <path id="Trazado_163718" data-name="Trazado 163718" d="M344,363c.046-.227,1.027-5.045,1.027-5.045l15.551,2.085-3.669,11.143L344,368.277Z" transform="translate(830.514 2300.025)" fill="#f9afb6"/>
    <path id="Trazado_163719" data-name="Trazado 163719" d="M360.579,367.547c-.808-.818.532,1.07-5.466.669-2.855-.191-6.107-1.86-6.339-2.6.247-1.808.454-3.206-.863-4.452-.906-.855-3.354-1.409-4.066-.827-.847.695-.61,1.417-.818,2.366-.34,1.562-2.77,3.527-3.907,4.3-.811.549-7.621,4.874-9.362,5.072-1.007.116-4.077.386-4.77,1.359a5.917,5.917,0,0,0-.848,1.85l0,.016a2.926,2.926,0,0,0,1.1,3.1,6.625,6.625,0,0,0,4,.787c1.172-.036,7.558.11,23.788-.289,2.986-.073,4.29-.2,9.2-.435a5.4,5.4,0,0,0,.182-3.861C361.916,373.2,360.829,367.8,360.579,367.547Z" transform="translate(828.7 2300.221)" fill="#64546f"/>
    <path id="Trazado_163720" data-name="Trazado 163720" d="M406.573,250.226l6.491,32.333-8.422,87.4-14.859.99L384,302.154l-21.669,68.364-17.39-2.331,9.73-84.164,6.378-32.293,24.051-6.264Z" transform="translate(830.6 2289.797)" fill="#1d272b"/>
    <path id="Trazado_163721" data-name="Trazado 163721" d="M394.736,188.737c3.065,10.176,9.524,21.422,11.58,34.653,2,12.841,6.249,54.055,6.363,64.326l-8.712,1.645a131.4,131.4,0,0,1-49.682-.181c.337-6.309,6.714-38.779,5.013-46.573-1.192-5.468-2.795-6.8-6.374-14.913-2.377-5.391-3.487-25.516-3.751-26.44l22.8-11.045Z" transform="translate(830.985 2284.639)" fill="url(#radial-gradient)"/>
    <path id="Trazado_163722" data-name="Trazado 163722" d="M362.161,201.725a11.7,11.7,0,0,0-16.273,2.975L323.5,237.108l-1.065,1.541a7.9,7.9,0,0,0,8.168,12.2l27.207-5.811a4.579,4.579,0,0,0-.637-9.045l-8.647-.6,15.392-15.9a12.684,12.684,0,0,0,1.22-1.487A11.7,11.7,0,0,0,362.161,201.725Z" transform="translate(828.427 2285.632)" fill="url(#radial-gradient)"/>
    <path id="Trazado_163723" data-name="Trazado 163723" d="M358.945,176.9a64.663,64.663,0,0,1,5.219,15.454,62.146,62.146,0,0,1,1.063,7.4c0,.047.011.093.011.14.009.009.009.019,0,.037.546,6.438,6.564,11.2,12.85,9.7.355-.075.719-.189,1.093-.3l.167-.057a10.657,10.657,0,0,0,4.168-17.473c-.394-.411-.788-.84-1.18-1.306a23.525,23.525,0,0,1-3.207-5.077c-.141-.316-.281-.625-.394-.943a23.25,23.25,0,0,1-1.747-8.041,21.2,21.2,0,0,1,.023-2.355l-1.2.18Z" transform="translate(831.873 2283.307)" fill="#f8d1b9"/>
    <path id="Trazado_163724" data-name="Trazado 163724" d="M364.7,198.388c0,.047.011.093.011.14.009.009.009.019,0,.037.545,6.438,6.564,11.2,12.85,9.7.355-.075.719-.189,1.093-.3l.167-.057a10.657,10.657,0,0,0,4.168-17.473c-.394-.411-.788-.84-1.18-1.306a19.026,19.026,0,0,1-5.631,5.992A19.58,19.58,0,0,1,364.7,198.388Z" transform="translate(832.397 2284.675)" fill="url(#radial-gradient)"/>
    <path id="Trazado_163725" data-name="Trazado 163725" d="M355.7,182.843c.253,7.755,6.661,16.115,13.139,15.431,6.314-.667,10.676-9.715,9.776-17.064-.8-6.558-6.1-14.27-12.5-13.818C359.737,167.843,355.486,176.184,355.7,182.843Z" transform="translate(831.578 2282.697)" fill="#f8d1b9"/>
    <path id="Trazado_163726" data-name="Trazado 163726" d="M368.9,183.845a.729.729,0,1,0,.928-.447A.727.727,0,0,0,368.9,183.845Z" transform="translate(832.775 2284.15)" fill="#64546f"/>
    <path id="Trazado_163727" data-name="Trazado 163727" d="M362.579,185.18a.729.729,0,1,0,.926-.451A.73.73,0,0,0,362.579,185.18Z" transform="translate(832.2 2284.271)" fill="#64546f"/>
    <g id="Grupo_127629" data-name="Grupo 127629" transform="translate(1200.719 2465.236)">
      <path id="Trazado_163728" data-name="Trazado 163728" d="M368.293,182.225a.273.273,0,0,1-.123-.516,4,4,0,0,1,3.232-.172.273.273,0,1,1-.19.512,3.535,3.535,0,0,0-1.832-.176,3.47,3.47,0,0,0-.963.323A.278.278,0,0,1,368.293,182.225Z" transform="translate(-368.021 -181.275)" fill="#64546f"/>
    </g>
    <g id="Grupo_127630" data-name="Grupo 127630" transform="translate(1192.411 2466.551)">
      <path id="Trazado_163729" data-name="Trazado 163729" d="M360.677,184.2a.273.273,0,0,1-.2-.459,3.979,3.979,0,0,1,.92-.731,4.088,4.088,0,0,1,2.032-.531.283.283,0,0,1,.3.274.273.273,0,0,1-.273.272h-.026a3.553,3.553,0,0,0-1.761.458,3.42,3.42,0,0,0-.793.632A.276.276,0,0,1,360.677,184.2Z" transform="translate(-360.405 -182.48)" fill="#64546f"/>
    </g>
    <path id="Trazado_163730" data-name="Trazado 163730" d="M379.447,179.94c.333,2.2-.48,4.152-1.814,4.354s-2.684-1.423-3.016-3.626.481-4.152,1.814-4.353S379.114,177.736,379.447,179.94Z" transform="translate(833.292 2283.508)" fill="#f8d1b9"/>
    <path id="Trazado_163731" data-name="Trazado 163731" d="M360.279,185.038c.71,2.112.248,4.173-1.031,4.6s-2.891-.935-3.6-3.047-.248-4.173,1.031-4.6S359.57,182.924,360.279,185.038Z" transform="translate(831.543 2284.019)" fill="#f8d1b9"/>
    <path id="Trazado_163732" data-name="Trazado 163732" d="M378.044,177.386a107.619,107.619,0,0,1-12.062,3.88c-4.064,1.044-10.315,2.386-10.315,2.386h0a20.751,20.751,0,0,1-.721-10.928,19.508,19.508,0,0,1,1.237-3.818l11.749-4a12.449,12.449,0,0,1,10.112,12.476Z" transform="translate(831.471 2282.473)" fill="url(#radial-gradient)"/>
    <path id="Trazado_163733" data-name="Trazado 163733" d="M375.747,177.84c.3.055-.5,2.851.916,5.05a5.113,5.113,0,0,0,1.491,1.486,12.058,12.058,0,0,1-1.783,8.462c-.505.759-2.868,4.3-6.92,4.765s-8.371-2.342-10.411-7.024a9.676,9.676,0,0,0-.123-3.076c-.479-2.324-1.713-3.907-1.565-4.007.191-.13,1.637,3.039,4.751,4.236.83.32,2.642,1.016,3.931.233a4.207,4.207,0,0,1,1.617-.868,4.472,4.472,0,0,1,1.548.084,4.546,4.546,0,0,0,2.947-.989c.528-.385,1.107-1.018,2.719-6.159C375.2,178.977,375.546,177.8,375.747,177.84Z" transform="translate(831.727 2283.648)" fill="#1d272b"/>
    <path id="Trazado_163734" data-name="Trazado 163734" d="M425.962,231.4l-1.392-2.2-22.178-35.072a12.578,12.578,0,0,0-1.093-1.462,11.693,11.693,0,1,0-17.58,15.424l21.76,24.8-3.4,2.363a4.68,4.68,0,0,0,3.157,8.5l15.525-1.621a7.146,7.146,0,0,0,3.022-1.048A7.02,7.02,0,0,0,425.962,231.4Z" transform="translate(833.861 2284.634)" fill="url(#radial-gradient)"/>
    <path id="Trazado_163735" data-name="Trazado 163735" d="M386.1,363.29c-1.477,1.136.421,3.438.548,7.128.148,4.316-2.293,5.623-.938,7.387,1.163,1.515,3.819,1.663,7.748,1.879,3.319.183,7.043.388,8.532-1.426.755-.921.638-2,.469-3.563-.279-2.588-1.322-2.746-1.8-5.12-.634-3.146.731-5.187-.783-6.154-.518-.333-.692-.1-1.487-.519-1.648-.868-1.346-2.1-2.661-2.851a4.624,4.624,0,0,0-3.444-.26c-1.664.538-1.472,1.786-3.444,2.722C387.378,363.205,386.818,362.736,386.1,363.29Z" transform="translate(834.269 2300.173)" fill="#db8804"/>
    <path id="Trazado_163736" data-name="Trazado 163736" d="M403.335,229.212a.407.407,0,0,1-.367-.228l-10.106-20.4a.409.409,0,1,1,.733-.362l10.106,20.4a.409.409,0,0,1-.185.548A.394.394,0,0,1,403.335,229.212Z" transform="translate(834.953 2286.391)" fill="#a4a4b4"/>
    <path id="Trazado_163737" data-name="Trazado 163737" d="M332.221,235.609a.41.41,0,0,1-.14-.794,45.538,45.538,0,0,1,14.929-2.751.4.4,0,0,1,.416.4.409.409,0,0,1-.4.416,44.745,44.745,0,0,0-14.662,2.7A.4.4,0,0,1,332.221,235.609Z" transform="translate(829.406 2288.578)" fill="#a4a4b4"/>
    <path id="Trazado_163738" data-name="Trazado 163738" d="M301.874,326.081,230.05,297.856H320.89Z" transform="translate(841.92 2294.561)" fill="#af9caa"/>
    <path id="Trazado_166518" data-name="Trazado 166518" d="M0,0H39.9V49.827H0Z" transform="translate(1162.627 2617.681)" fill="#1d272b"/>
    <path id="Trazado_166519" data-name="Trazado 166519" d="M0,0H27.075V12.368H0Z" transform="translate(1113.723 2667.508)" fill="#1d272b"/>
    <path id="Trazado_166520" data-name="Trazado 166520" d="M0,0H39.9V49.827H0Z" transform="translate(1180.279 2617.681)" fill="#a4a4b4"/>
    <path id="Trazado_163739" data-name="Trazado 163739" d="M295.888,326.081l120.639-2.7,91.427-25.526H314.9Z" transform="translate(826.14 2294.561)" fill="#868695"/>
    <path id="Trazado_163740" data-name="Trazado 163740" d="M232.864,299.689,199.109,288.7V277.71L232.864,288.7Z" transform="translate(839.107 2292.729)" fill="#868695"/>
    <path id="Trazado_166521" data-name="Trazado 166521" d="M0,0H262.123V10.99H0Z" transform="translate(1071.971 2581.428)" fill="#1d272b"/>
    <path id="Trazado_163741" data-name="Trazado 163741" d="M494.987,288.7H230.551L199.109,277.71H473.751Z" transform="translate(839.107 2292.729)" fill="#1d272b"/>
    <path id="Trazado_163742" data-name="Trazado 163742" d="M374.3,280.971c-5.139.175-10.072-.062-15.012-.319q-7.393-.46-14.688-1.224c-4.876-.461-9.728-1.117-14.577-1.725-4.856-.643-9.666-1.364-14.541-2.145l2.266-.019-15.32,1.153c-5.115.307-10.222.689-15.346.915-5.118.281-10.245.477-15.374.656-5.134.132-10.268.276-15.42.23-2.551-.023-4.6-2.413-4.583-5.338a5.225,5.225,0,0,1,3.444-5.083c4.984-1.5,9.99-2.816,14.994-4.14,5.008-1.279,10.019-2.541,15.039-3.717,5.014-1.231,10.045-2.3,15.069-3.456l15.094-3.217a4.949,4.949,0,0,1,1.443-.094l.824.075,14.371,1.283,14.369,1.345,14.29,1.358c4.728.472,9.469.892,14.018,1.293l.094.009c5.328.469,9.315,5.8,8.907,11.914C383.278,276.424,379.165,280.785,374.3,280.971Z" transform="translate(822.123 2290.521)" fill="#f8d1b9"/>
    <path id="Trazado_163743" data-name="Trazado 163743" d="M247.332,277.747c-1.939-2.313-3.244-2.5-5.372-4.184a21.661,21.661,0,0,1-5.618-7.155c-1.236-2.33-1.766-4.294-2.828-8.22-1-3.695-1.531-5.731-.824-6.357,1.02-.9,3.979,1.69,4.743,2.379a60.491,60.491,0,0,0,7.224,5.448c3.817,2.451,7.681,4.932,13.064,5.9a26.139,26.139,0,0,0,9.127,0q.736,6.353,1.474,12.7a61.08,61.08,0,0,0-10.744,2.1c-3.22.94-5.841,2.005-7.937.444C248.636,280.061,248.778,279.47,247.332,277.747Z" transform="translate(820.364 2290.358)" fill="#f8d1b9"/>
    <path id="Trazado_163744" data-name="Trazado 163744" d="M380.054,285.138c-4.226.192-8.448.192-12.671.205-4.223-.035-8.445-.086-12.666-.224-4.221-.082-8.439-.322-12.659-.483-4.219-.2-8.437-.455-12.655-.724l1.42-.084-15.32,1.153c-5.115.306-10.222.688-15.346.915-5.119.281-10.246.476-15.374.656-5.134.132-10.268.276-15.421.229-2.551-.022-4.6-2.412-4.582-5.337a5.223,5.223,0,0,1,3.444-5.082c4.984-1.5,9.99-2.817,14.993-4.141,5.01-1.279,10.02-2.54,15.041-3.716,5.014-1.231,10.045-2.306,15.069-3.456l15.094-3.218a3.269,3.269,0,0,1,.6-.072l.817-.012c4.218-.065,8.435-.119,12.651-.111,4.214.042,8.432.007,12.645.128,4.215.068,8.428.22,12.642.389,4.212.218,8.424.421,12.634.818l.05.005c5.328.5,9.292,5.865,8.854,11.977C388.911,280.608,384.875,284.923,380.054,285.138Z" transform="translate(823.312 2291.268)" fill="#f8d1b9"/>
    <path id="Trazado_163745" data-name="Trazado 163745" d="M433.446,262.22c-1.118-.848-34.053-7.507-43.558-7.492-9.426.014-9-.449-67.049,7.608,6.608-.917-.953,22.174-.953,22.174,8.108.951,14.7,2.1,19.278,2.987,12.914,2.5,19.316,4.766,27.739,1.879,3.343-1.147,13.67,3.928,25.847,5.076a50.871,50.871,0,0,0,11.866-.445c5.82-.754,10.459-1.356,15.4-4.171,2.732-1.556,8.086-5.229,12.631-13.405q-.38-4.368-.747-8.756Q433.671,264.943,433.446,262.22Z" transform="translate(828.504 2290.639)" fill="#f8d1b9"/>
    <path id="Trazado_163746" data-name="Trazado 163746" d="M443.567,280.9c-.556-1-1.078-2.089-1.582-3.22-2.076-4.635-3.867-10.11-6.129-14.229a20.59,20.59,0,0,1-4.819.685c-.209.01-.417.009-.624.008-1.443-.021-3.226-1.42-5.9-2.511-2.929-1.2-4.978.559-4.213,2.913.92,2.824,2.23,4.632,3.015,7.524.667,2.455.622,8.937-.4,13.174a26.367,26.367,0,0,1,3.253-3.481c2.995-2.836,7.128-2.511,8.867-2.3C437.907,279.8,439.115,279.547,443.567,280.9Z" transform="translate(837.438 2291.231)" fill="#f8d1b9"/>
    <path id="Trazado_163747" data-name="Trazado 163747" d="M441.076,277.491c-2.076-4.635-3.867-10.11-6.129-14.229a20.593,20.593,0,0,1-4.819.685,17.8,17.8,0,0,0,5.226,10.418A14.147,14.147,0,0,0,441.076,277.491Z" transform="translate(838.346 2291.415)" fill="#f8d1b9"/>
    <path id="Trazado_163748" data-name="Trazado 163748" d="M449.638,261.718c-4.978-4.032-13.25-3.971-15.89,1.054-2.575,4.9,1.025,12.949,6.057,16.3,4.488,2.986,11.829,3.373,14.578-1.472C457.122,272.767,453.912,265.181,449.638,261.718Z" transform="translate(838.597 2291.013)" fill="#f8d1b9"/>
    <g id="Grupo_127643" data-name="Grupo 127643" transform="translate(1274.945 2550.16)">
      <g id="Grupo_127637" data-name="Grupo 127637" transform="translate(5.717 6.02)">
        <path id="Trazado_163749" data-name="Trazado 163749" d="M441.538,267.468a.231.231,0,0,1-.2-.121.3.3,0,0,1,.065-.379,3.069,3.069,0,0,0,.949-1.233,3.471,3.471,0,0,0,.235-.865.243.243,0,0,1,.272-.227.269.269,0,0,1,.2.312,3.983,3.983,0,0,1-.278,1.017,3.581,3.581,0,0,1-1.112,1.45A.212.212,0,0,1,441.538,267.468Z" transform="translate(-441.3 -264.64)" fill="#64546f"/>
      </g>
      <g id="Grupo_127638" data-name="Grupo 127638" transform="translate(8.365 0.001)">
        <path id="Trazado_163750" data-name="Trazado 163750" d="M443.966,262.238a.223.223,0,0,1-.162-.072.3.3,0,0,1-.014-.385,3.361,3.361,0,0,0,.665-1.456,3.528,3.528,0,0,0,.05-.905.264.264,0,0,1,.217-.295.247.247,0,0,1,.256.25,4.175,4.175,0,0,1-.059,1.065,3.939,3.939,0,0,1-.779,1.711A.231.231,0,0,1,443.966,262.238Z" transform="translate(-443.728 -259.123)" fill="#64546f"/>
      </g>
      <g id="Grupo_127639" data-name="Grupo 127639" transform="translate(2.549 1.263)">
        <path id="Trazado_163751" data-name="Trazado 163751" d="M442.467,262.741h-.02a3.108,3.108,0,0,1-1.473-.512,11.455,11.455,0,0,1-1.175-.973l-.109-.1c-.253-.239-.369-.328-.477-.328-.121.016-.254.157-.374.4a.221.221,0,0,1-.324.1.293.293,0,0,1-.088-.371c.252-.507.538-.644.733-.669.309-.036.53.165.831.447l.108.1a11.511,11.511,0,0,0,1.116.929,2.7,2.7,0,0,0,1.271.436.264.264,0,0,1,.217.295A.253.253,0,0,1,442.467,262.741Z" transform="translate(-438.396 -260.279)" fill="#64546f"/>
      </g>
      <g id="Grupo_127640" data-name="Grupo 127640" transform="translate(0 1.463)">
        <path id="Trazado_163752" data-name="Trazado 163752" d="M436.542,264.653a.24.24,0,0,1-.219-.169,4.419,4.419,0,0,1-.248-1.872,4.2,4.2,0,0,1,.729-2.048.219.219,0,0,1,.335-.043.3.3,0,0,1,.037.383,3.609,3.609,0,0,0-.627,1.76,3.818,3.818,0,0,0,.213,1.611.286.286,0,0,1-.128.356A.2.2,0,0,1,436.542,264.653Z" transform="translate(-436.06 -260.462)" fill="#64546f"/>
      </g>
      <g id="Grupo_127641" data-name="Grupo 127641" transform="translate(6.105)">
        <path id="Trazado_163753" data-name="Trazado 163753" d="M441.893,261.129a.207.207,0,0,1-.116-.035.3.3,0,0,1-.092-.371l.713-1.461a.22.22,0,0,1,.324-.1.3.3,0,0,1,.091.371l-.714,1.461A.234.234,0,0,1,441.893,261.129Z" transform="translate(-441.656 -259.122)" fill="#64546f"/>
      </g>
      <g id="Grupo_127642" data-name="Grupo 127642" transform="translate(3.83 4.893)">
        <path id="Trazado_163754" data-name="Trazado 163754" d="M439.809,265.555a.213.213,0,0,1-.148-.061.3.3,0,0,1-.037-.383l.984-1.4a.217.217,0,0,1,.334-.041.3.3,0,0,1,.036.383l-.984,1.4A.225.225,0,0,1,439.809,265.555Z" transform="translate(-439.571 -263.607)" fill="#64546f"/>
      </g>
    </g>
    <path id="Trazado_163755" data-name="Trazado 163755" d="M449.768,262.239c-1.452-.087-1.864,3.724-1.733,5.937a9.3,9.3,0,0,1,.008.969,3.748,3.748,0,0,1-3.76,3.808c-1.539-.1-3.126-.122-3.091.443.08,1.344,2.512,1.525,2.626,3.169a2.86,2.86,0,0,1-.36,1.855c-.588.825-1.5.3-3.065,1.03-.814.38-1.736,1.06-1.65,1.467.062.3.609.228,1.384.585a5.809,5.809,0,0,1,1.766,1.486c1.177,1.119,2.687,1.143,4.594,1.173a10.913,10.913,0,0,0,3.929-.708,11.945,11.945,0,0,0,1.336-.64c1.884-1.079,4.25-3.812,4.493-10.274C456.4,268.49,452.438,262.4,449.768,262.239Z" transform="translate(839.129 2291.322)" fill="#12263f"/>
    <path id="Trazado_163756" data-name="Trazado 163756" d="M441.616,272.656c-1.151-1.326-2.706-1.691-3.469-.816s-.452,2.656.7,3.982,2.7,1.691,3.469.816S442.768,273.981,441.616,272.656Z" transform="translate(839.037 2292.152)" fill="#f8d1b9"/>
    <path id="Trazado_163757" data-name="Trazado 163757" d="M260.408,286.028c-1.94-2.315-3.246-2.5-5.372-4.184a21.665,21.665,0,0,1-5.618-7.158c-1.236-2.329-1.766-4.292-2.829-8.22-1-3.695-1.529-5.729-.823-6.356,1.02-.9,3.979,1.691,4.742,2.378a60.614,60.614,0,0,0,7.225,5.45c3.817,2.451,7.68,4.931,13.064,5.9a26.161,26.161,0,0,0,9.127,0q.738,6.352,1.474,12.7a61.336,61.336,0,0,0-10.746,2.1c-3.22.94-5.84,2.007-7.935.445C261.712,288.342,261.854,287.751,260.408,286.028Z" transform="translate(821.553 2291.111)" fill="#f8d1b9"/>
    <path id="Trazado_163758" data-name="Trazado 163758" d="M345.234,256.6c1.815.046,15.888-2.019,19.384-1.208,4.1.952,9.091,5.088,19.242,5.088,7.76,0,9.288.429,21.041-3.978-.955,2.847-1.444,9.371-2.24,14.865a75.431,75.431,0,0,0-.74,12.717c.168,9.217.116,25.161,0,46.413l-58.945,1.908c.554-15.683,1.472-23.725,2.026-39.409,1-2.962,1.719-14.8,2.039-19.933A48.546,48.546,0,0,0,345.234,256.6Z" transform="translate(830.421 2290.683)" fill="url(#radial-gradient)"/>
    <path id="Trazado_163759" data-name="Trazado 163759" d="M327.446,307.056l-14.127-4.6v-4.6l14.127,4.6Z" transform="translate(827.725 2294.561)" fill="#af9caa"/>
    <path id="Trazado_166522" data-name="Trazado 166522" d="M0,0H118.813V4.6H0Z" transform="translate(1155.17 2597.016)" fill="#1d272b"/>
    <path id="Trazado_163760" data-name="Trazado 163760" d="M446.258,302.456H327.446l-14.127-4.6h123.4Z" transform="translate(827.725 2294.561)" fill="#1d272b"/>
    <path id="Trazado_163761" data-name="Trazado 163761" d="M427.118,290.17l-29.874,7.573-1.3.365L375.093,299.8q-10.427.817-20.87,1.513c-2.317.155-4.307-1.874-4.442-4.532a4.789,4.789,0,0,1,3.169-4.957q10.144-2.934,20.3-5.757l20.325-5.58-1.3.365c4.717-2.455,9.406-4.907,14.144-7.293l7.128-3.546,7.228-3.433c5.515-2.619,11.839.385,14.123,6.71s-.336,13.579-5.851,16.2a9.954,9.954,0,0,1-1.744.638Z" transform="translate(831.04 2291.63)" fill="#f8d1b9"/>
    <path id="Trazado_163762" data-name="Trazado 163762" d="M360.906,288.871c.108.806.777,6.343-2.383,9.9-3.037,3.421-7.8,2.985-8.135,2.949-2.116-.228-3.272-1.156-5.728-.715-1.4.252-1.954.911-3.373,1.359a22.693,22.693,0,0,1-11.216.5,1.572,1.572,0,0,1-.441-2.8,30.578,30.578,0,0,0,6.4-5.214,13.932,13.932,0,0,1,5.212-4.088c.418-.166,1.259-.506,5.036-.831,4.269-.369,6.084-.2,9.8-.5C358.156,289.272,359.839,289.037,360.906,288.871Z" transform="translate(829.146 2293.743)" fill="#f8d1b9"/>
    <g id="Grupo_127646" data-name="Grupo 127646" transform="translate(1160.409 2589.097)">
      <path id="Trazado_163763" data-name="Trazado 163763" d="M331.227,301.439a.158.158,0,0,1-.143-.1.193.193,0,0,1,.077-.24,21.5,21.5,0,0,0,3.6-2.392,23.416,23.416,0,0,0,3.7-3.828.144.144,0,0,1,.221-.016.2.2,0,0,1,.014.255A23.782,23.782,0,0,1,334.94,299a21.777,21.777,0,0,1-3.646,2.427A.146.146,0,0,1,331.227,301.439Z" transform="translate(-331.07 -294.813)" fill="#e59ca9"/>
    </g>
    <g id="Grupo_127647" data-name="Grupo 127647" transform="translate(1163.896 2589.515)">
      <path id="Trazado_163764" data-name="Trazado 163764" d="M334.423,301.822a.159.159,0,0,1-.143-.1.194.194,0,0,1,.077-.24,21.627,21.627,0,0,0,3.6-2.392,23.422,23.422,0,0,0,3.7-3.828.144.144,0,0,1,.221-.016.2.2,0,0,1,.014.255,23.829,23.829,0,0,1-3.755,3.883,21.977,21.977,0,0,1-3.647,2.427A.145.145,0,0,1,334.423,301.822Z" transform="translate(-334.266 -295.196)" fill="#e59ca9"/>
    </g>
    <g id="Grupo_127648" data-name="Grupo 127648" transform="translate(1168.968 2591.065)">
      <path id="Trazado_163765" data-name="Trazado 163765" d="M339.072,301.678a.154.154,0,0,1-.132-.084.2.2,0,0,1,.049-.249,22.843,22.843,0,0,0,3.3-2.906c.524-.56,1.027-1.152,1.495-1.76a.144.144,0,0,1,.223-.016.2.2,0,0,1,.014.255c-.476.616-.985,1.217-1.518,1.785a23.111,23.111,0,0,1-3.345,2.947A.137.137,0,0,1,339.072,301.678Z" transform="translate(-338.915 -296.618)" fill="#e59ca9"/>
    </g>
    <path id="Trazado_166523" data-name="Trazado 166523" d="M0,0H119.222V12.368H0Z" transform="translate(1140.798 2667.508)" fill="#a4a4b4"/>
    <path id="Trazado_163766" data-name="Trazado 163766" d="M337.232,249.406l-24.079-6.243-.567-21.325a12.73,12.73,0,0,0-.458-3,12.133,12.133,0,0,0-23.338,6.643l7.321,25.721.594,2.09a7.2,7.2,0,0,0,6.876,5.214l32.442.185a4.717,4.717,0,0,0,1.21-9.284Z" transform="translate(825.452 2286.574)" fill="url(#radial-gradient)"/>
    <path id="Trazado_163767" data-name="Trazado 163767" d="M285.888,275.25c-.327,4.8-.862,9.567-1.375,14.335-.567,4.767-1.156,9.524-1.844,14.269-.633,4.756-1.375,9.5-2.116,14.237s-1.56,9.469-2.389,14.2l-.175,1.015c-.022.065-.033.142-.055.207l-4.3,12.917c-1.516,4.287-2.945,8.586-4.549,12.851-1.538,4.276-3.175,8.531-4.822,12.786-1.167,2.924-2.607,7.538-4,11.5-.622,1.789-1.244,3.447-1.833,4.757a5.836,5.836,0,0,1-11.149-2.706c.033-.687.076-1.375.12-2.051.24-3.895.611-7.756.971-11.629.469-4.538,1.516-12.644,2.106-17.16.524-4.516,1.211-9,1.822-13.506l2.084-13.451-.229,1.222c.458-4.778.938-9.557,1.473-14.324s1.091-9.535,1.745-14.291c.611-4.756,1.309-9.5,2.018-14.247.775-4.735,1.527-9.469,2.487-14.182a12.143,12.143,0,0,1,24.011,3.251Z" transform="translate(821.719 2291.327)" fill="#1d272b"/>
    <path id="Trazado_163768" data-name="Trazado 163768" d="M313.709,329.759l-9.24,52.375-1.124,6.338a5.774,5.774,0,0,1-11.455-.774l-.218-5.564-2.018-51-14.586-51.328a12.112,12.112,0,0,1,23.3-6.622l14.9,52.441.273.96A7.31,7.31,0,0,1,313.709,329.759Z" transform="translate(824.204 2291.517)" fill="#1d272b"/>
    <path id="Trazado_163769" data-name="Trazado 163769" d="M305.169,290.579c-2.842-11.877-4.262-17.815-4.02-24.6.192-5.384,2.284-11.566,6.47-23.931,5.044-14.905,7.264-17.414,6.42-23.62-.142-1.044-2.083-14.139-10.222-16.474-1.276-.367-4.794-1.067-13.291,4.069A65.669,65.669,0,0,0,271.9,223.056s-.23.316-.485.677c-2.607,3.685-7.463,12.155-16.077,34.238a115.943,115.943,0,0,0-7.871,39.279l-.079,3.2a258.585,258.585,0,0,0,61.8,4.766C308.11,301.742,306.637,296.716,305.169,290.579Z" transform="translate(821.729 2285.817)" fill="url(#radial-gradient)"/>
    <path id="Trazado_163770" data-name="Trazado 163770" d="M300.055,225.876c1.8,2.643,4.586,5.184,5.612,4.619,1.122-.626-.84-4.508.484-10.6.172-.784.361-1.4.48-1.8q2.713-2.931,5.427-5.863,2.54-2.741,5.079-5.485-2.667-5.541-5.358-11.067c-.865-1.8-1.744-3.621-2.623-5.424a27.195,27.195,0,0,1-11.989,13.235,10.916,10.916,0,0,0-2.775,1.745c-.413.383-2.628,2.387-2.726,4.725C291.572,212.336,297.391,221.992,300.055,225.876Z" transform="translate(825.756 2284.776)" fill="#f8d1b9"/>
    <path id="Trazado_163771" data-name="Trazado 163771" d="M327.914,193.889a15.262,15.262,0,0,1,.654,1.747c2.074,6.822-.152,15.566-5.7,17.557-5.883,2.111-13.622-4.042-15.97-10.944-2.095-6.156-.7-15.261,5.167-17.6C317.919,182.318,325.256,187.893,327.914,193.889Z" transform="translate(827.058 2284.218)" fill="#f8d1b9"/>
    <path id="Trazado_163772" data-name="Trazado 163772" d="M320.662,201.188a.718.718,0,1,1-1.015-.022A.717.717,0,0,1,320.662,201.188Z" transform="translate(828.28 2285.751)" fill="#64546f"/>
    <path id="Trazado_163773" data-name="Trazado 163773" d="M326.574,200.1a.718.718,0,1,1-1.015-.021A.717.717,0,0,1,326.574,200.1Z" transform="translate(828.817 2285.652)" fill="#64546f"/>
    <g id="Grupo_127652" data-name="Grupo 127652" transform="translate(1146.458 2484.465)">
      <path id="Trazado_163774" data-name="Trazado 163774" d="M318.555,200.542a.274.274,0,0,1-.193-.467,4.041,4.041,0,0,1,1.815-1.046,3.894,3.894,0,0,1,1.153-.123.273.273,0,0,1-.012.545h-.011a3.387,3.387,0,0,0-2.559,1.011A.276.276,0,0,1,318.555,200.542Z" transform="translate(-318.282 -198.902)" fill="#64546f"/>
    </g>
    <g id="Grupo_127653" data-name="Grupo 127653" transform="translate(1153.253 2482.988)">
      <path id="Trazado_163775" data-name="Trazado 163775" d="M324.784,198.642a.273.273,0,0,1-.141-.506,4.018,4.018,0,0,1,2.012-.588,3.952,3.952,0,0,1,1.148.155.274.274,0,0,1,.187.338.27.27,0,0,1-.337.187,3,3,0,0,0-.99-.134,3.484,3.484,0,0,0-1.738.509A.274.274,0,0,1,324.784,198.642Z" transform="translate(-324.511 -197.548)" fill="#64546f"/>
    </g>
    <path id="Trazado_163776" data-name="Trazado 163776" d="M315.237,200.628a6.727,6.727,0,0,1-5.487,4.341,11.263,11.263,0,0,0,6.573,6.814c.813.289,5.047,1.8,8.744-.843,4.017-2.872,3.668-7.98,3.646-8.245-.933,1.061-1.569,1.2-1.978,1.13-.765-.134-1-1.045-1.789-1.085-.55-.029-.9.392-1.327.723a6.052,6.052,0,0,1-4.4.884C316.63,203.843,315.386,200.984,315.237,200.628Z" transform="translate(827.4 2285.721)" fill="#1d272b"/>
    <g id="Grupo_127654" data-name="Grupo 127654" transform="translate(1134.356 2481.724)">
      <path id="Trazado_163777" data-name="Trazado 163777" d="M310.826,206.6a.236.236,0,0,1-.19-.094,16.5,16.5,0,0,1-1.754-2.815,16.752,16.752,0,0,1-1.693-7.056.241.241,0,1,1,.482-.011,16.29,16.29,0,0,0,1.644,6.854,16.043,16.043,0,0,0,1.7,2.734.241.241,0,0,1-.191.387Z" transform="translate(-307.189 -196.389)" fill="#1d272b"/>
    </g>
    <g id="Grupo_127655" data-name="Grupo 127655" transform="translate(1138.145 2481.224)">
      <path id="Trazado_163778" data-name="Trazado 163778" d="M315.334,202.653a.24.24,0,0,1-.24-.22,7.32,7.32,0,0,0-.961-3.066,7.478,7.478,0,0,0-3.331-2.977.241.241,0,0,1,.2-.439,7.952,7.952,0,0,1,3.545,3.172,7.819,7.819,0,0,1,1.027,3.267.243.243,0,0,1-.22.262Z" transform="translate(-310.662 -195.93)" fill="#1d272b"/>
    </g>
    <path id="Trazado_163779" data-name="Trazado 163779" d="M327.734,194.658c-.976.716-2.176.8-4.1,1.013-3.892.424-6.021-.649-8.3-1.639a5.53,5.53,0,0,0-.615,2.975c.121,1.28.689,1.776.736,2.855.033.764-.709,3.43-1.538,3.377-.85-.1.01-1.081-.04-2.213a4.453,4.453,0,0,0-3.051-3.73,2.9,2.9,0,0,0-2.077.045c-1.09.535-.78,1.58-1.863,2.411-.787.605-1.071.146-3.51.809-1.355.368-2.127.743-2.358.448-.133-.17.013-.443.277-1.121.275-.709.467-1.45.768-2.148a31.332,31.332,0,0,0,1.281-5.356,16.942,16.942,0,0,1,2.743-6.181c3.419-4.377,12.415-5.323,18.007-1.419C327.562,187.2,329.781,193.158,327.734,194.658Z" transform="translate(826.602 2284.056)" fill="#64546f"/>
    <path id="Trazado_163780" data-name="Trazado 163780" d="M312.561,197.651c.805,1.88.447,3.836-.8,4.368s-2.9-.561-3.709-2.441-.446-3.836.8-4.367S311.757,195.77,312.561,197.651Z" transform="translate(827.207 2285.215)" fill="#f8d1b9"/>
    <path id="Trazado_163781" data-name="Trazado 163781" d="M303.034,193.15a51.142,51.142,0,0,0,8.593,3.033c4.292,1.1,8.926,2.2,14.291.784a20.835,20.835,0,0,0,2.917-1.007,25.649,25.649,0,0,0-4.727-14.25,42.4,42.4,0,0,0-16.461-.663,28.07,28.07,0,0,0-4.613,12.1Z" transform="translate(826.789 2283.894)" fill="url(#radial-gradient)"/>
    <path id="Trazado_163782" data-name="Trazado 163782" d="M287.419,300.023c.06-.443.964-27.759.964-27.759l8.563,27.256Z" transform="translate(825.37 2292.233)" fill="url(#radial-gradient)"/>
    <path id="Trazado_163783" data-name="Trazado 163783" d="M329.964,269.238,304.732,262.6l-6.277-39.973a13.122,13.122,0,0,0-.4-1.729,12.07,12.07,0,0,0-23.039,7.2l13.561,43.372.493,1.581a7.227,7.227,0,0,0,6.8,5.058l32.836.4a4.716,4.716,0,0,0,1.258-9.277Z" transform="translate(824.191 2286.793)" fill="url(#radial-gradient)"/>
    <path id="Trazado_163784" data-name="Trazado 163784" d="M290.848,277.8a7.651,7.651,0,0,1-6.595-5.391c-1.738-5.712-3.729-13.3-5.655-20.628s-3.915-14.9-5.648-20.6a13.548,13.548,0,0,1,1.54-9.671.409.409,0,1,1,.707.411,12.744,12.744,0,0,0-1.455,9.057c1.728,5.676,3.72,13.259,5.647,20.592s3.914,14.9,5.648,20.6a6.823,6.823,0,0,0,5.851,4.814l8.257-.036h0a.409.409,0,0,1,0,.818Z" transform="translate(824.026 2287.6)" fill="#a4a4b4"/>
    <path id="Trazado_163785" data-name="Trazado 163785" d="M302.3,260.569a.394.394,0,0,1-.086-.01l-2.462-.53a.409.409,0,0,1-.313-.305l-5.255-22.288a.409.409,0,1,1,.8-.188l5.2,22.037,2.21.475a.409.409,0,0,1-.086.809Z" transform="translate(825.984 2289.021)" fill="#a4a4b4"/>
    <path id="Trazado_163786" data-name="Trazado 163786" d="M340.037,265.966c0,.032-.009.062-.012.094C340.029,266.028,340.034,266,340.037,265.966Z" transform="translate(830.153 2291.661)" fill="#fff"/>
    <path id="Trazado_163787" data-name="Trazado 163787" d="M326.162,244.548c.189.04.478.1.83.169,0,0,1.807.351,3.422.517,1.781.184,3.482-.752,8.29-2.4,3.656-1.25,4.757-1.421,5.93-.958a6.853,6.853,0,0,1,2.444,1.9,10.483,10.483,0,0,1,2.182,3.657,38.8,38.8,0,0,1-22.62,5.543Q326.4,248.762,326.162,244.548Z" transform="translate(828.892 2289.449)" fill="#db8804"/>
    <path id="Trazado_163788" data-name="Trazado 163788" d="M353.47,249.517h0a2.6,2.6,0,0,1-3.383,1.436l-9.324-3.771a2.6,2.6,0,0,1-1.436-3.384h0a2.6,2.6,0,0,1,3.384-1.436l9.324,3.771A2.6,2.6,0,0,1,353.47,249.517Z" transform="translate(830.072 2289.498)" fill="#c0aeba"/>
    <path id="Trazado_163789" data-name="Trazado 163789" d="M372.341,257.123s-4.575-.015-5.506-.392l-.76-.329a1.819,1.819,0,0,1-1-2.367h0a1.817,1.817,0,0,1,2.367-1l.76.328C369.129,253.736,372.341,257.123,372.341,257.123Z" transform="translate(832.418 2290.473)" fill="#c0aeba"/>
    <path id="Trazado_166524" data-name="Trazado 166524" d="M0,0H.874V19.941H0Z" transform="matrix(0.365, -0.931, 0.931, 0.365, 1181.494, 2538.744)" fill="#c0aeba"/>
    <path id="Trazado_163790" data-name="Trazado 163790" d="M341.493,253.457a25.343,25.343,0,0,0,4.263-1.021,6.268,6.268,0,0,0,.734-.337,11.432,11.432,0,0,0,4.134-3.849,1.577,1.577,0,0,0-2.559-1.752,11.332,11.332,0,0,1-2.768,1.538c-1.384.531-3.238,1.241-4.9.579-1.984-.793-1.862-2.825-3.239-2.933-1.321-.1-2.059,1.779-3.94,3.572a13.663,13.663,0,0,1-6.614,3.355l-.083,2.872a20.789,20.789,0,0,1,3.126,0c1.99.148,2.628.483,4.315.466a12.629,12.629,0,0,0,3.174-.437C339.624,254.817,339.31,253.988,341.493,253.457Z" transform="translate(828.925 2289.816)" fill="#db8804"/>
    <path id="Trazado_163791" data-name="Trazado 163791" d="M346.335,266.941c-.69-.595-2.159-.715-2.667-.12-.215.252-.168.528-.139.907a1.837,1.837,0,0,1,.025.425l0,.036c0,.057-.017.11-.026.167,0,.032,0,.06-.007.093s-.014.051-.019.077-.014.061-.022.091a4.172,4.172,0,0,1-2.365,2.748,5.28,5.28,0,0,1-4.577-.591,5.726,5.726,0,0,1-1.107-.841c.165.026.32.048.478.073l-4.427-5.821c-.157-.019-.32-.034-.486-.04-.072,0-.272-.012-.519-.005-.671.016-3.565.193-4.969.135a10.865,10.865,0,0,1-3.337-.683l-.684,10.311c7.29,1.307,11,2.9,13.054,4.224a4.669,4.669,0,0,0,2.777.944c1.559-.067,2.451-1.142,5.414-3.379,1.133-.856,2.089-1.519,2.723-1.947C347.075,270.639,347.462,267.914,346.335,266.941Z" transform="translate(828.467 2291.445)" fill="#db8804"/>
    <path id="Trazado_163792" data-name="Trazado 163792" d="M329.126,272.491a.438.438,0,0,1-.107-.862l27.923-7.044a.437.437,0,1,1,.213.848l-27.923,7.044A.392.392,0,0,1,329.126,272.491Z" transform="translate(829.122 2291.535)" fill="#c0aeba"/>
    <path id="Trazado_163793" data-name="Trazado 163793" d="M338.1,270.382c2.026.261,2.554.278,3.146-.039a2.859,2.859,0,0,0,1.4-1.775c.007-.029.016-.059.022-.091.012-.055.018-.113.025-.17a3.293,3.293,0,0,0,0-.628,2.047,2.047,0,0,0-1.984-1.644,24.95,24.95,0,0,1-6.24-.876,26.264,26.264,0,0,0-3.826-1.023l4.427,5.821C336.226,270.132,337.249,270.274,338.1,270.382Z" transform="translate(829.3 2291.495)" fill="#db8804"/>
    <path id="Trazado_166525" data-name="Trazado 166525" d="M1.494,0H3.9A1.494,1.494,0,0,1,5.393,1.494V3.9A1.494,1.494,0,0,1,3.9,5.393H1.493A1.493,1.493,0,0,1,0,3.9V1.494A1.494,1.494,0,0,1,1.494,0Z" transform="translate(1184.103 2552.328)" fill="#fff"/>
    <path id="Trazado_163794" data-name="Trazado 163794" d="M342.3,269.02a.438.438,0,0,1-.166-.843l12.918-5.268a.437.437,0,1,1,.331.81l-12.918,5.269A.443.443,0,0,1,342.3,269.02Z" transform="translate(830.32 2291.38)" fill="#c0aeba"/>
    <path id="Trazado_163795" data-name="Trazado 163795" d="M303.047,372.32l-1.124,6.338a5.774,5.774,0,0,1-11.455-.775l-.218-5.564Z" transform="translate(825.627 2301.331)" fill="#f9afb6"/>
    <path id="Trazado_163796" data-name="Trazado 163796" d="M260.263,373.46c-.622,1.789-1.244,3.447-1.833,4.756a5.836,5.836,0,0,1-11.149-2.706c.033-.687.076-1.375.12-2.051Z" transform="translate(821.719 2301.435)" fill="#f9afb6"/>
    <path id="Trazado_163797" data-name="Trazado 163797" d="M247.648,373.685c.457-.038.881.36,1.289.744.977.917,1,1.8,1.529,2.444.964,1.167,3.169.717,4.158.531a9.872,9.872,0,0,0,5.885-3.946,26.266,26.266,0,0,0,7.544,5.54s4.4,3.043,8.446,2.031h0c1.264-.062,2.773-.315,3.776.745a4.313,4.313,0,0,1,.884,3,5.765,5.765,0,0,1-2.21,4.159c-1.243.928-2.385.837-5.161.8-5.763-.086-4.236.256-7.6.052-5.961-.361-5.04-1.092-8.315-.956-1.6.065-6.055.416-8.889.265a7.332,7.332,0,0,1-2.007-.372,7.96,7.96,0,0,1-2.484-1.381,37.134,37.134,0,0,1,.908-8.979C246.422,373.916,247.4,373.706,247.648,373.685Z" transform="translate(821.466 2301.435)" fill="#db8804"/>
    <path id="Trazado_163798" data-name="Trazado 163798" d="M290.46,372.543c.458-.038.883.36,1.291.744.976.917.995,1.8,1.528,2.444.964,1.169,3.17.717,4.159.532a9.869,9.869,0,0,0,5.884-3.947,26.294,26.294,0,0,0,7.544,5.541s4.4,3.043,8.446,2.031h0c1.265-.063,2.773-.315,3.776.745a4.311,4.311,0,0,1,.885,3,5.763,5.763,0,0,1-2.21,4.158c-1.244.929-2.386.839-5.162.8-5.762-.085-4.235.259-7.6.053-5.961-.361-5.04-1.092-8.315-.956-1.6.067-6.055.416-8.889.265a7.369,7.369,0,0,1-2.007-.371,7.95,7.95,0,0,1-2.484-1.382,37.17,37.17,0,0,1,.908-8.978C289.234,372.774,290.211,372.564,290.46,372.543Z" transform="translate(825.359 2301.331)" fill="#db8804"/>
    <path id="Trazado_163799" data-name="Trazado 163799" d="M390.087,257.028a.424.424,0,0,1-.159-.817l17.1-6.9a.424.424,0,1,1,.317.785l-17.1,6.9A.406.406,0,0,1,390.087,257.028Z" transform="translate(834.666 2290.145)" fill="#c0aeba"/>
    <path id="Trazado_166526" data-name="Trazado 166526" d="M.781,0h2.5a.78.78,0,0,1,.78.78V2.839a.781.781,0,0,1-.781.781H.78A.78.78,0,0,1,0,2.84V.781A.781.781,0,0,1,.781,0Z" transform="translate(1221.06 2545.364)" fill="#fff"/>
    <path id="Trazado_163800" data-name="Trazado 163800" d="M389.047,257.314a.424.424,0,0,1-.068-.842l41.536-6.614a.416.416,0,0,1,.487.352.425.425,0,0,1-.352.485l-41.536,6.614C389.091,257.312,389.068,257.314,389.047,257.314Z" transform="translate(834.571 2290.196)" fill="#c0aeba"/>
    <path id="Trazado_163801" data-name="Trazado 163801" d="M416.81,250.137c-1.431.3-3.063.011-4.634.8-1.875.94-1.887,2.252-3.694,2.971-1.978.787-2.38-.62-5.011.04a49.531,49.531,0,0,1-4.893,1.288,1.315,1.315,0,0,1-1.135-.179c-.454-.466-.047-1.489.016-1.646-.395.868-1.093,1.39-1.7,1.3-.584-.084-.919-.706-1.151-1.139a4.5,4.5,0,0,1-.43-2.323,7.923,7.923,0,0,1,.358-2.27c1.127-1.321,3.031-3.85,4.071-5.247a1.883,1.883,0,0,1,1.918-.712,28.96,28.96,0,0,0,4.922.74,57.643,57.643,0,0,0,8.661-.485,6.758,6.758,0,0,1,2.054,3A7.283,7.283,0,0,1,416.81,250.137Z" transform="translate(835.077 2289.57)" fill="#db8804"/>
    <path id="Trazado_163802" data-name="Trazado 163802" d="M397.187,252.911a8.655,8.655,0,0,1,6.865-3.387,3.321,3.321,0,0,0-2.019-1.049C400.173,248.282,398.063,250.026,397.187,252.911Z" transform="translate(835.35 2290.069)" fill="#b4c7ff"/>
    <path id="Trazado_163803" data-name="Trazado 163803" d="M438.637,242.568a26.942,26.942,0,0,0-8.732,1.482c-2.582.9-4.127,1.437-5.493,2.99-1.967,2.239-2.012,4.785-2.087,9.1-.025,1.513.091,2.847.884,3.277.623.337,1.069-.205,2.555.05,1,.17,1.493.533,1.919.232.247-.172.312-.467.435-1.051a7.243,7.243,0,0,0,.139-1.958c.6.331,1.221.805,1.261,1.418.046.7-.683,1.148-.5,1.473s1.063.252,1.711-.075a3.122,3.122,0,0,0,1.444-1.866c.394-1.277-.263-1.689.214-2.544.385-.695.932-.628,1.671-1.6.527-.7.336-.861.658-1.184,1.07-1.073,3.212.537,4.989-.287a3.757,3.757,0,0,0,1.857-2.591,4.831,4.831,0,0,0,.509-3.261A5.327,5.327,0,0,0,438.637,242.568Z" transform="translate(837.636 2289.533)" fill="#db8804"/>
    <path id="Trazado_163804" data-name="Trazado 163804" d="M382.084,259.171a1.535,1.535,0,0,1-.43-.06,1.546,1.546,0,0,1-1.023-2.014l8.224-22.564.8.29-8.226,22.562a.7.7,0,1,0,1.316.471l.239-.679.8.281-.24.68A1.546,1.546,0,0,1,382.084,259.171Z" transform="translate(833.836 2288.803)" fill="#c0aeba"/>
    <path id="Trazado_163805" data-name="Trazado 163805" d="M371.836,249.512h0a.665.665,0,0,1-.914-.219l-9.552-15.57a.665.665,0,0,1,.219-.914h0a.664.664,0,0,1,.914.218l9.552,15.571A.665.665,0,0,1,371.836,249.512Z" transform="translate(832.084 2288.638)" fill="#c0aeba"/>
    <path id="Trazado_163806" data-name="Trazado 163806" d="M378.541,258.769l-.241.149a2,2,0,0,1-2.752-.659l-4.964-8.092a2,2,0,0,1,.659-2.752l.243-.147Z" transform="translate(832.904 2289.961)" fill="#c0aeba"/>
    <path id="Trazado_163807" data-name="Trazado 163807" d="M353.064,233.589a13.819,13.819,0,0,1,5.263-2.287c1.355-.272,4.614-.945,7.379.759a8.852,8.852,0,0,1,3.066,3.471c1.622,2.844,3.838,6.9,6.376,12.087a1.576,1.576,0,0,1-.437,1.811,1.615,1.615,0,0,1-1.517-.13c-.724-.432-.744-1.12-1.478-2.326a8.785,8.785,0,0,0-1.069-1.418,2.747,2.747,0,0,1-.442,1.68,2.832,2.832,0,0,1-1.885,1.183,3.561,3.561,0,0,0-1.45-.758c-1.04-.255-1.683.137-2.747-.214a3.463,3.463,0,0,1-1-.53,2.519,2.519,0,0,1-1.808-.308,3.254,3.254,0,0,1-1.024-1.837,9.683,9.683,0,0,0-1.964-3.256l-3.852.825a5.905,5.905,0,0,1-2.731-3.715A6.024,6.024,0,0,1,353.064,233.589Z" transform="translate(831.206 2288.477)" fill="#db8804"/>
    <path id="Trazado_163808" data-name="Trazado 163808" d="M407.609,236.633c.215-3.83-2.84-6.408-3.262-6.754q-2.442,1.175-4.883,2.35a9.3,9.3,0,0,0-3.776-4.02,9.154,9.154,0,0,0-4.021-1.141,11.7,11.7,0,0,0-6.562,13.094,1.129,1.129,0,0,0,1.822,1.1l.8,1.653c.3,1.275.687,1.649,1.022,1.719.411.085.755-.284,1.19-.074.295.142.284.384.615.614a1.789,1.789,0,0,0,.976.23c.787-.01,2.96-2.686,5.38-6.687a7.028,7.028,0,0,0,3.538,2.35,7.511,7.511,0,0,0,6.22-1.274A7.289,7.289,0,0,0,407.609,236.633Z" transform="translate(834.229 2288.124)" fill="#db8804"/>
    <path id="Trazado_163809" data-name="Trazado 163809" d="M286.136,240.3H267.049l5.253,27.927h8.582Z" transform="translate(843.736 2291.879)" fill="#868695"/>
    <path id="Trazado_166527" data-name="Trazado 166527" d="M1.111,0H8.944a1.111,1.111,0,0,1,1.111,1.111v4.4A1.111,1.111,0,0,1,8.944,6.62H1.111A1.111,1.111,0,0,1,0,5.509v-4.4A1.111,1.111,0,0,1,1.111,0Z" transform="translate(1115.313 2560.111)" fill="#1d272b"/>
    <path id="Trazado_166528" data-name="Trazado 166528" d="M4.786,0h8.769a4.786,4.786,0,0,1,4.786,4.786V19.7a4.786,4.786,0,0,1-4.786,4.786H4.786A4.786,4.786,0,0,1,0,19.7V4.786A4.786,4.786,0,0,1,4.786,0Z" transform="translate(1097.568 2542.241)" fill="#1d272b"/>
    <path id="Trazado_166529" data-name="Trazado 166529" d="M0,0H4.763V7.029H0Z" transform="translate(1104.357 2536.17)" fill="#868695"/>
    <path id="Trazado_166530" data-name="Trazado 166530" d="M1.306,0H6.958A1.306,1.306,0,0,1,8.264,1.306V3.834A1.306,1.306,0,0,1,6.958,5.139H1.306A1.306,1.306,0,0,1,0,3.834V1.306A1.306,1.306,0,0,1,1.306,0Z" transform="translate(1102.606 2535.59)" fill="#868695"/>
    <path id="Trazado_163810" data-name="Trazado 163810" d="M292.181,386.2H290.7V274.94H222.279V386.2H220.8V273.456h71.386Z" transform="translate(841.78 2293.281)" fill="#868695"/>
    <path id="Trazado_166531" data-name="Trazado 166531" d="M0,0H2.206V13.624H0Z" transform="translate(1053.299 2691.283) rotate(180)" fill="#64546f"/>
    <path id="Trazado_163811" data-name="Trazado 163811" d="M206.262,386.689c0,3.763,1.642,6.811,3.667,6.811s3.667-3.049,3.667-6.811-1.642-6.812-3.667-6.812S206.262,382.928,206.262,386.689Z" transform="translate(841.165 2297.782)" fill="#1d272b"/>
    <path id="Trazado_163812" data-name="Trazado 163812" d="M208.429,386.689c0,3.763,1.642,6.811,3.668,6.811s3.666-3.049,3.666-6.811-1.642-6.812-3.666-6.812S208.429,382.928,208.429,386.689Z" transform="translate(841.257 2297.782)" fill="#868695"/>
    <path id="Trazado_166532" data-name="Trazado 166532" d="M0,0H2.2V13.624H0Z" transform="translate(1064.392 2691.283) rotate(180)" fill="#64546f"/>
    <path id="Trazado_163813" data-name="Trazado 163813" d="M216.906,386.689c0,3.763,1.642,6.811,3.666,6.811s3.667-3.049,3.667-6.811-1.642-6.812-3.667-6.812S216.906,382.928,216.906,386.689Z" transform="translate(841.615 2297.782)" fill="#1d272b"/>
    <path id="Trazado_163814" data-name="Trazado 163814" d="M219.073,386.689c0,3.763,1.642,6.811,3.666,6.811s3.668-3.049,3.668-6.811-1.643-6.812-3.668-6.812S219.073,382.928,219.073,386.689Z" transform="translate(841.707 2297.782)" fill="#868695"/>
    <path id="Trazado_166533" data-name="Trazado 166533" d="M0,0H2.206V13.624H0Z" transform="translate(1123.288 2691.283) rotate(180)" fill="#64546f"/>
    <path id="Trazado_163815" data-name="Trazado 163815" d="M273.411,386.689c0,3.763,1.643,6.811,3.667,6.811s3.668-3.049,3.668-6.811-1.643-6.812-3.668-6.812S273.411,382.928,273.411,386.689Z" transform="translate(844.005 2297.782)" fill="#1d272b"/>
    <path id="Trazado_163816" data-name="Trazado 163816" d="M275.579,386.689c0,3.763,1.642,6.811,3.667,6.811s3.667-3.049,3.667-6.811-1.643-6.812-3.667-6.812S275.579,382.928,275.579,386.689Z" transform="translate(844.096 2297.782)" fill="#868695"/>
    <path id="Trazado_166534" data-name="Trazado 166534" d="M0,0H2.206V13.624H0Z" transform="translate(1134.382 2691.283) rotate(180)" fill="#64546f"/>
    <path id="Trazado_163817" data-name="Trazado 163817" d="M284.055,386.689c0,3.763,1.642,6.811,3.667,6.811s3.666-3.049,3.666-6.811-1.641-6.812-3.666-6.812S284.055,382.928,284.055,386.689Z" transform="translate(844.455 2297.782)" fill="#1d272b"/>
    <path id="Trazado_163818" data-name="Trazado 163818" d="M286.222,386.689c0,3.763,1.642,6.811,3.667,6.811s3.667-3.049,3.667-6.811-1.642-6.812-3.667-6.812S286.222,382.928,286.222,386.689Z" transform="translate(844.546 2297.782)" fill="#868695"/>
    <path id="Trazado_166535" data-name="Trazado 166535" d="M0,0H69.9V18.852H0Z" transform="translate(1122.125 2670.697) rotate(180)" fill="#1d272b"/>
    <path id="Trazado_166536" data-name="Trazado 166536" d="M0,0H11.269V18.852H0Z" transform="translate(1133.394 2670.697) rotate(180)" fill="#a4a4b4"/>
    <path id="Trazado_163819" data-name="Trazado 163819" d="M236.85,366.513h15.345a3.7,3.7,0,0,0,3.7-3.7H233.156A3.694,3.694,0,0,0,236.85,366.513Z" transform="translate(842.302 2297.061)" fill="#a4a4b4"/>
    <path id="Trazado_166537" data-name="Trazado 166537" d="M0,0H69.9V18.852H0Z" transform="translate(1122.125 2649.605) rotate(180)" fill="#1d272b"/>
    <path id="Trazado_166538" data-name="Trazado 166538" d="M0,0H11.269V18.852H0Z" transform="translate(1133.394 2649.605) rotate(180)" fill="#a4a4b4"/>
    <path id="Trazado_163820" data-name="Trazado 163820" d="M236.85,346.278h15.345a3.7,3.7,0,0,0,3.7-3.7H233.156A3.7,3.7,0,0,0,236.85,346.278Z" transform="translate(842.302 2296.205)" fill="#a4a4b4"/>
    <path id="Trazado_166539" data-name="Trazado 166539" d="M0,0H69.9V18.852H0Z" transform="translate(1122.125 2628.514) rotate(180)" fill="#1d272b"/>
    <path id="Trazado_166540" data-name="Trazado 166540" d="M0,0H11.269V18.852H0Z" transform="translate(1133.394 2628.514) rotate(180)" fill="#a4a4b4"/>
    <path id="Trazado_163821" data-name="Trazado 163821" d="M236.85,326.042h15.345a3.7,3.7,0,0,0,3.7-3.7H233.156A3.694,3.694,0,0,0,236.85,326.042Z" transform="translate(842.302 2295.349)" fill="#a4a4b4"/>
    <path id="Trazado_166541" data-name="Trazado 166541" d="M0,0H69.9V18.852H0Z" transform="translate(1122.125 2607.422) rotate(180)" fill="#1d272b"/>
    <path id="Trazado_166542" data-name="Trazado 166542" d="M0,0H11.269V18.852H0Z" transform="translate(1133.394 2607.422) rotate(180)" fill="#a4a4b4"/>
    <path id="Trazado_163822" data-name="Trazado 163822" d="M236.85,305.806h15.345a3.7,3.7,0,0,0,3.7-3.7H233.156A3.694,3.694,0,0,0,236.85,305.806Z" transform="translate(842.302 2294.493)" fill="#a4a4b4"/>
    <path id="Trazado_166543" data-name="Trazado 166543" d="M0,0H69.9V18.852H0Z" transform="translate(1122.125 2586.331) rotate(180)" fill="#1d272b"/>
    <path id="Trazado_166544" data-name="Trazado 166544" d="M0,0H11.269V18.852H0Z" transform="translate(1133.394 2586.331) rotate(180)" fill="#a4a4b4"/>
    <path id="Trazado_163823" data-name="Trazado 163823" d="M236.85,285.571h15.345a3.7,3.7,0,0,0,3.7-3.7H233.156A3.7,3.7,0,0,0,236.85,285.571Z" transform="translate(842.302 2293.637)" fill="#a4a4b4"/>
    <path id="Trazado_163824" data-name="Trazado 163824" d="M281.537,386.2h-1.484V274.94H211.636V386.2h-1.484V273.456h71.386Z" transform="translate(841.329 2293.281)" fill="#868695"/>
    <path id="Trazado_163825" data-name="Trazado 163825" d="M275.259,273.632H217.61a2.248,2.248,0,0,1-2.248-2.248h0a2.248,2.248,0,0,1,2.248-2.248h57.649a2.249,2.249,0,0,1,2.249,2.248h0A2.249,2.249,0,0,1,275.259,273.632Z" transform="translate(841.55 2293.099)" fill="#a4a4b4"/>
    <path id="Trazado_163826" data-name="Trazado 163826" d="M277.05,272.272H215.6v-.589a9.623,9.623,0,0,1,9.612-9.612h42.226a9.623,9.623,0,0,1,9.612,9.612ZM216.8,271.1h59.056a8.444,8.444,0,0,0-8.414-7.847H225.212A8.445,8.445,0,0,0,216.8,271.1Z" transform="translate(841.56 2292.8)" fill="#a4a4b4"/>
    <path id="Trazado_166545" data-name="Trazado 166545" d="M8.7-3.315A3.522,3.522,0,0,1,7.516-.786,4.165,4.165,0,0,1,4.7.137,3.745,3.745,0,0,1,1.685-1.152a5.284,5.284,0,0,1-1.1-3.538V-5.3a5.966,5.966,0,0,1,.506-2.529A3.791,3.791,0,0,1,2.54-9.505a4.05,4.05,0,0,1,2.184-.584A4.058,4.058,0,0,1,7.5-9.167,3.785,3.785,0,0,1,8.716-6.576H6.665a2.079,2.079,0,0,0-.537-1.4,1.987,1.987,0,0,0-1.4-.434,1.742,1.742,0,0,0-1.535.735,4.118,4.118,0,0,0-.523,2.28v.752a4.408,4.408,0,0,0,.489,2.358A1.71,1.71,0,0,0,4.7-1.538a2.025,2.025,0,0,0,1.418-.434,1.961,1.961,0,0,0,.537-1.343Zm6.966,1.265h-3.6L11.389,0H9.208l3.705-9.953h1.9L18.539,0H16.358ZM12.626-3.712h2.488L13.863-7.437Zm10.527.068H21.52V0H19.469V-9.953h3.7a4.181,4.181,0,0,1,2.721.786,2.713,2.713,0,0,1,.957,2.222,3.062,3.062,0,0,1-.441,1.7,3.007,3.007,0,0,1-1.336,1.083L27.221-.1V0h-2.2ZM21.52-5.3h1.654a1.694,1.694,0,0,0,1.2-.393,1.4,1.4,0,0,0,.424-1.083,1.5,1.5,0,0,0-.4-1.107,1.662,1.662,0,0,0-1.227-.4H21.52Zm12.5,3.254h-3.6L29.743,0H27.563l3.705-9.953h1.9L36.894,0H34.713ZM30.98-3.712h2.488L32.218-7.437Zm14.656.4A3.522,3.522,0,0,1,44.451-.786a4.165,4.165,0,0,1-2.82.923A3.745,3.745,0,0,1,38.62-1.152a5.284,5.284,0,0,1-1.1-3.538V-5.3a5.966,5.966,0,0,1,.506-2.529,3.791,3.791,0,0,1,1.446-1.678,4.05,4.05,0,0,1,2.184-.584,4.058,4.058,0,0,1,2.775.923A3.785,3.785,0,0,1,45.65-6.576H43.6a2.079,2.079,0,0,0-.537-1.4,1.987,1.987,0,0,0-1.4-.434,1.742,1.742,0,0,0-1.535.735,4.118,4.118,0,0,0-.523,2.28v.752a4.408,4.408,0,0,0,.489,2.358,1.71,1.71,0,0,0,1.542.745,2.025,2.025,0,0,0,1.418-.434,1.961,1.961,0,0,0,.537-1.343Zm8.641-4.977H51.229V0H49.178V-8.292H46.17V-9.953h8.107Zm7.157,3.979H57.5v2.666h4.621V0H55.446V-9.953H62.1v1.661H57.5V-5.92h3.938Zm5.571.67H65.372V0H63.321V-9.953h3.7a4.181,4.181,0,0,1,2.721.786A2.713,2.713,0,0,1,70.7-6.945a3.062,3.062,0,0,1-.441,1.7A3.007,3.007,0,0,1,68.92-4.163L71.073-.1V0h-2.2ZM65.372-5.3h1.654a1.694,1.694,0,0,0,1.2-.393,1.4,1.4,0,0,0,.424-1.083,1.5,1.5,0,0,0-.4-1.107,1.662,1.662,0,0,0-1.227-.4H65.372ZM74.437,0H72.386V-9.953h2.051ZM73.8-12.64h2.153l-1.894,2.119H72.454ZM81.5-2.611a1.052,1.052,0,0,0-.41-.892,5.38,5.38,0,0,0-1.477-.656,10.467,10.467,0,0,1-1.688-.68,2.759,2.759,0,0,1-1.7-2.468,2.4,2.4,0,0,1,.455-1.439,2.965,2.965,0,0,1,1.306-.988A4.914,4.914,0,0,1,79.9-10.09a4.473,4.473,0,0,1,1.9.386,3.026,3.026,0,0,1,1.3,1.09,2.853,2.853,0,0,1,.461,1.6H81.5a1.342,1.342,0,0,0-.431-1.063,1.77,1.77,0,0,0-1.21-.379,1.891,1.891,0,0,0-1.169.318,1,1,0,0,0-.417.837.96.96,0,0,0,.489.813,5.522,5.522,0,0,0,1.439.615,6.217,6.217,0,0,1,2.55,1.306,2.6,2.6,0,0,1,.8,1.941A2.4,2.4,0,0,1,82.578-.6a4.279,4.279,0,0,1-2.632.735,5.082,5.082,0,0,1-2.092-.42,3.31,3.31,0,0,1-1.439-1.152,2.95,2.95,0,0,1-.5-1.7h2.058q0,1.647,1.969,1.647a1.915,1.915,0,0,0,1.142-.3A.967.967,0,0,0,81.5-2.611ZM92.436-8.292H89.387V0H87.336V-8.292H84.328V-9.953h8.107ZM95.785,0H93.734V-9.953h2.051ZM105.5-3.315a3.522,3.522,0,0,1-1.186,2.529,4.165,4.165,0,0,1-2.82.923,3.745,3.745,0,0,1-3.011-1.289,5.284,5.284,0,0,1-1.1-3.538V-5.3a5.966,5.966,0,0,1,.506-2.529,3.791,3.791,0,0,1,1.446-1.678,4.05,4.05,0,0,1,2.184-.584,4.058,4.058,0,0,1,2.775.923,3.785,3.785,0,0,1,1.217,2.591h-2.051a2.079,2.079,0,0,0-.537-1.4,1.987,1.987,0,0,0-1.4-.434,1.742,1.742,0,0,0-1.535.735,4.118,4.118,0,0,0-.523,2.28v.752a4.408,4.408,0,0,0,.489,2.358,1.71,1.71,0,0,0,1.542.745,2.025,2.025,0,0,0,1.418-.434,1.961,1.961,0,0,0,.537-1.343Zm6.966,1.265h-3.6L108.186,0H106l3.705-9.953h1.9L115.336,0h-2.181Zm-3.042-1.661h2.488L110.66-7.437Zm12,1.1a1.052,1.052,0,0,0-.41-.892,5.38,5.38,0,0,0-1.477-.656,10.467,10.467,0,0,1-1.688-.68,2.759,2.759,0,0,1-1.7-2.468,2.4,2.4,0,0,1,.455-1.439,2.965,2.965,0,0,1,1.306-.988,4.914,4.914,0,0,1,1.911-.355,4.473,4.473,0,0,1,1.9.386,3.026,3.026,0,0,1,1.3,1.09,2.853,2.853,0,0,1,.461,1.6h-2.051A1.342,1.342,0,0,0,121-8.077a1.77,1.77,0,0,0-1.21-.379,1.891,1.891,0,0,0-1.169.318,1,1,0,0,0-.417.837.96.96,0,0,0,.489.813,5.522,5.522,0,0,0,1.439.615,6.217,6.217,0,0,1,2.55,1.306,2.6,2.6,0,0,1,.8,1.941A2.4,2.4,0,0,1,122.507-.6a4.279,4.279,0,0,1-2.632.735,5.082,5.082,0,0,1-2.092-.42,3.31,3.31,0,0,1-1.439-1.152,2.95,2.95,0,0,1-.5-1.7h2.058q0,1.647,1.969,1.647a1.915,1.915,0,0,0,1.142-.3A.967.967,0,0,0,121.427-2.611Z" transform="translate(1229.872 2432.986)" fill="#008f85"/>
    <path id="Trazado_166546" data-name="Trazado 166546" d="M4.843-13.508l3.47,9.8,3.451-9.8h3.655V0H12.626V-3.692l.278-6.374L9.259,0H7.348L3.711-10.057l.278,6.364V0H1.206V-13.508Zm24.1,7.06a8.154,8.154,0,0,1-.705,3.5A5.31,5.31,0,0,1,26.222-.631a5.582,5.582,0,0,1-3.01.816,5.62,5.62,0,0,1-3-.807,5.362,5.362,0,0,1-2.041-2.305,7.921,7.921,0,0,1-.733-3.447v-.668a8.111,8.111,0,0,1,.719-3.511,5.353,5.353,0,0,1,2.032-2.329,5.589,5.589,0,0,1,3-.812,5.589,5.589,0,0,1,3,.812,5.353,5.353,0,0,1,2.032,2.329,8.088,8.088,0,0,1,.719,3.5Zm-2.82-.612a5.684,5.684,0,0,0-.761-3.229,2.479,2.479,0,0,0-2.171-1.1,2.48,2.48,0,0,0-2.162,1.09,5.619,5.619,0,0,0-.77,3.2v.659a5.755,5.755,0,0,0,.761,3.21A2.473,2.473,0,0,0,23.212-2.1a2.45,2.45,0,0,0,2.152-1.1A5.722,5.722,0,0,0,26.125-6.4Zm9.843,2.115H33.751V0H30.968V-13.508h5.019a5.674,5.674,0,0,1,3.692,1.067,3.682,3.682,0,0,1,1.3,3.015,4.156,4.156,0,0,1-.6,2.305,4.081,4.081,0,0,1-1.814,1.47L41.488-.13V0H38.5ZM33.751-7.2H36a2.3,2.3,0,0,0,1.624-.533,1.907,1.907,0,0,0,.575-1.47,2.041,2.041,0,0,0-.543-1.5,2.255,2.255,0,0,0-1.665-.547H33.751ZM51.22-5.52H45.876V0H43.093V-13.508h8.795v2.254H45.876v3.488H51.22ZM64.6-6.448a8.154,8.154,0,0,1-.705,3.5A5.31,5.31,0,0,1,61.875-.631a5.582,5.582,0,0,1-3.01.816,5.62,5.62,0,0,1-3-.807,5.362,5.362,0,0,1-2.041-2.305,7.921,7.921,0,0,1-.733-3.447v-.668a8.111,8.111,0,0,1,.719-3.511,5.353,5.353,0,0,1,2.032-2.329,5.589,5.589,0,0,1,3-.812,5.589,5.589,0,0,1,3,.812,5.353,5.353,0,0,1,2.032,2.329,8.088,8.088,0,0,1,.719,3.5Zm-2.82-.612a5.684,5.684,0,0,0-.761-3.229,2.479,2.479,0,0,0-2.171-1.1,2.48,2.48,0,0,0-2.162,1.09,5.619,5.619,0,0,0-.77,3.2v.659a5.755,5.755,0,0,0,.761,3.21A2.473,2.473,0,0,0,58.865-2.1a2.45,2.45,0,0,0,2.152-1.1A5.722,5.722,0,0,0,61.778-6.4ZM69.4-2.236h5.91V0H66.621V-13.508H69.4ZM88-6.448a8.154,8.154,0,0,1-.705,3.5A5.31,5.31,0,0,1,85.282-.631a5.582,5.582,0,0,1-3.01.816,5.62,5.62,0,0,1-3-.807,5.362,5.362,0,0,1-2.041-2.305A7.921,7.921,0,0,1,76.5-6.374v-.668a8.111,8.111,0,0,1,.719-3.511,5.353,5.353,0,0,1,2.032-2.329,5.589,5.589,0,0,1,3-.812,5.589,5.589,0,0,1,3,.812,5.353,5.353,0,0,1,2.032,2.329A8.088,8.088,0,0,1,88-7.051Zm-2.82-.612a5.684,5.684,0,0,0-.761-3.229,2.479,2.479,0,0,0-2.171-1.1,2.48,2.48,0,0,0-2.162,1.09,5.619,5.619,0,0,0-.77,3.2v.659a5.755,5.755,0,0,0,.761,3.21A2.473,2.473,0,0,0,82.271-2.1a2.45,2.45,0,0,0,2.152-1.1A5.722,5.722,0,0,0,85.185-6.4ZM82.791-17.126h2.922l-2.57,2.876h-2.18ZM100.715-1.707a4.831,4.831,0,0,1-2.125,1.4,8.9,8.9,0,0,1-3.043.5A6.028,6.028,0,0,1,92.472-.58,5.1,5.1,0,0,1,90.431-2.8a7.82,7.82,0,0,1-.738-3.423v-.918a8.305,8.305,0,0,1,.682-3.5,5.044,5.044,0,0,1,1.967-2.264,5.665,5.665,0,0,1,3.01-.784,5.642,5.642,0,0,1,3.757,1.146,4.9,4.9,0,0,1,1.6,3.335H98.006a2.693,2.693,0,0,0-.821-1.7,2.622,2.622,0,0,0-1.749-.538,2.468,2.468,0,0,0-2.162,1.067,5.61,5.61,0,0,0-.751,3.173v.863a5.341,5.341,0,0,0,.807,3.21A2.764,2.764,0,0,0,95.7-2.05a3.087,3.087,0,0,0,2.236-.668V-5.047H95.4V-7.1h5.316ZM105.929,0h-2.783V-13.508h2.783Zm13.183-4.5a4.78,4.78,0,0,1-1.61,3.433A5.653,5.653,0,0,1,113.675.186a5.083,5.083,0,0,1-4.087-1.749,7.171,7.171,0,0,1-1.489-4.8V-7.19a8.1,8.1,0,0,1,.687-3.433,5.145,5.145,0,0,1,1.962-2.278,5.5,5.5,0,0,1,2.964-.793,5.507,5.507,0,0,1,3.767,1.252,5.137,5.137,0,0,1,1.651,3.516h-2.783a2.821,2.821,0,0,0-.728-1.9,2.7,2.7,0,0,0-1.906-.589,2.365,2.365,0,0,0-2.083,1,5.589,5.589,0,0,0-.71,3.094V-6.3a5.982,5.982,0,0,0,.663,3.2,2.321,2.321,0,0,0,2.092,1.011,2.748,2.748,0,0,0,1.925-.589,2.661,2.661,0,0,0,.728-1.823Zm9.454,1.716h-4.88L122.758,0H119.8l5.028-13.508h2.579L132.462,0H129.5Zm-4.128-2.254h3.377l-1.7-5.056Zm16.291,1.494a1.428,1.428,0,0,0-.557-1.211,7.3,7.3,0,0,0-2-.891,14.205,14.205,0,0,1-2.292-.923,3.744,3.744,0,0,1-2.3-3.349,3.262,3.262,0,0,1,.617-1.953,4.024,4.024,0,0,1,1.772-1.341,6.669,6.669,0,0,1,2.593-.482,6.071,6.071,0,0,1,2.579.524,4.107,4.107,0,0,1,1.758,1.48,3.872,3.872,0,0,1,.626,2.171h-2.783a1.821,1.821,0,0,0-.584-1.443,2.4,2.4,0,0,0-1.642-.515,2.567,2.567,0,0,0-1.586.431,1.361,1.361,0,0,0-.566,1.136,1.3,1.3,0,0,0,.663,1.1,7.494,7.494,0,0,0,1.953.835,8.438,8.438,0,0,1,3.46,1.772,3.529,3.529,0,0,1,1.085,2.635,3.251,3.251,0,0,1-1.327,2.751,5.808,5.808,0,0,1-3.572,1,6.9,6.9,0,0,1-2.839-.571,4.492,4.492,0,0,1-1.953-1.563,4,4,0,0,1-.673-2.3h2.792q0,2.236,2.672,2.236a2.6,2.6,0,0,0,1.549-.4A1.313,1.313,0,0,0,140.728-3.544Z" transform="translate(1229.872 2451.86)" fill="#1d272b"/>
    <path id="Trazado_166547" data-name="Trazado 166547" d="M0,0H3.468V38.412H0Z" transform="translate(1222.358 2418.83)" fill="#d93328"/>
  </g>
</svg>
