<svg xmlns="http://www.w3.org/2000/svg" width="123.021" height="111.747" viewBox="0 0 123.021 111.747">
  <g id="Grupo_129343" data-name="Grupo 129343" transform="translate(-353.91 -1667.676)">
    <path id="Trazado_166394" data-name="Trazado 166394" d="M4501.071,170.876c-.4-1.5-.8-2.943-1.181-4.391a1.9,1.9,0,1,1,3.665-.943q4.271,16.056,8.544,32.112,2.788,10.486,5.569,20.973,2.637,9.886,5.306,19.763a2.055,2.055,0,0,1-.444,2.213,1.779,1.779,0,0,1-1.909.407,2.033,2.033,0,0,1-1.288-1.557c-.763-2.9-1.547-5.8-2.318-8.7q-4.268-16.053-8.535-32.106a3.38,3.38,0,0,0-.167-.4,22.754,22.754,0,0,1-9.218,3.29c-2.983.373-6,.518-9,.665-3.1.151-6.219.087-9.317.289-4.274.279-8.414,1.141-12.013,3.667a31.97,31.97,0,0,0-2.5,2.02,1.875,1.875,0,0,1-3.229-.963q-3.217-11.391-6.469-22.772a2.124,2.124,0,0,1,.6-2.346,23.139,23.139,0,0,1,11.264-5.842,56.952,56.952,0,0,1,10.6-.976c4.015-.118,8.039-.209,12.035-.581A19.231,19.231,0,0,0,4501.071,170.876Zm1.049,3.931c-.16.082-.261.125-.354.183-4.312,2.67-9.113,3.6-14.075,3.846-3.216.16-6.44.156-9.661.219a41.145,41.145,0,0,0-9.943,1.171,18.354,18.354,0,0,0-7.2,3.648c-.178.15-.394.461-.35.635.272,1.068.613,2.119.944,3.222.2-.139.35-.237.493-.347a19.613,19.613,0,0,1,8.757-3.948c2.736-.454,5.524-.594,8.293-.823a1.964,1.964,0,0,1,1.133.373,1.812,1.812,0,0,1,.694,2.118,2.034,2.034,0,0,1-1.9,1.307c-2.227.163-4.468.248-6.674.564a17.125,17.125,0,0,0-9.271,4.473.8.8,0,0,0-.268.608c.251.983.563,1.951.868,2.968.115-.071.192-.11.259-.16a22.761,22.761,0,0,1,6.733-3.4,43.659,43.659,0,0,1,12.5-1.6,95.318,95.318,0,0,0,12.442-.582,21.312,21.312,0,0,0,8.9-3.254.757.757,0,0,0,.4-.989C4503.918,181.664,4503.039,178.276,4502.121,174.807Zm-36.143,28.6a2.442,2.442,0,0,0,.26-.133,24.4,24.4,0,0,1,12.15-4.336c3.449-.327,6.928-.371,10.4-.45a61.3,61.3,0,0,0,10.7-.842,19.859,19.859,0,0,0,7.357-2.957c.188-.128.434-.435.4-.6-.365-1.518-.786-3.022-1.191-4.529a.956.956,0,0,0-.195.052,27.365,27.365,0,0,1-12.925,3.748c-3.143.206-6.3.236-9.451.281a46.238,46.238,0,0,0-10.26,1,18.572,18.572,0,0,0-8.1,4.065.768.768,0,0,0-.277.582C4465.187,200.659,4465.583,202.009,4465.978,203.41Z" transform="translate(-4102.533 1503.77)" fill="#1d272b"/>
    <path id="Trazado_166395" data-name="Trazado 166395" d="M4961.4,184.273a21.409,21.409,0,0,1,11.576,1.887c3.268,1.491,6.425,3.229,9.593,4.929a49.547,49.547,0,0,0,9.933,4.51,17,17,0,0,0,7.314.5,2.052,2.052,0,0,1,2.163.68,1.907,1.907,0,0,1,.222,1.882c-.283.79-.61,1.567-.842,2.372q-2.427,8.422-4.819,16.853c-.349,1.223-.7,2.445-1.043,3.67a1.852,1.852,0,0,1-1.776,1.425,24.647,24.647,0,0,1-12.562-2.978c-3.52-1.772-6.936-3.75-10.417-5.6a27.419,27.419,0,0,0-8.8-3.27,40.163,40.163,0,0,0-4.57-.208c-.392-.013-.559.176-.632.615-.971,5.794-1.983,11.581-2.969,17.372q-1.472,8.654-2.918,17.312-.267,1.584-.546,3.165a1.878,1.878,0,0,1-2.134,1.575,1.782,1.782,0,0,1-1.588-1.967c.195-1.6.493-3.194.763-4.788.524-3.1,1.063-6.2,1.59-9.295q.854-5.018,1.7-10.038.929-5.455,1.864-10.909,1.215-7.1,2.43-14.208,1.2-7.04,2.379-14.082.679-4.008,1.375-8.013a1.926,1.926,0,0,1,1.962-1.575,1.828,1.828,0,0,1,1.731,1.991c-.185,1.6-.5,3.192-.755,4.787C4961.558,183.312,4961.487,183.756,4961.4,184.273Zm35.741,17.6a23.454,23.454,0,0,1-8.605,1.833c-2.918.046-5.842-.148-8.824-.239,3.521,5.566,7.017,11.121,12.748,15.013Zm-24.22-2.184c-3.518-4.552-6.863-9.059-12.169-11.683-.948,5.578-1.88,11.056-2.834,16.665A37.924,37.924,0,0,1,4972.926,199.687Zm-11.642,7.274.067.2c.905.176,1.818.321,2.714.535a45.479,45.479,0,0,1,10.832,4.634c3.39,1.817,6.825,3.549,10.243,5.314a1.927,1.927,0,0,0,.385.107c-1.273-1.526-2.63-2.933-3.73-4.517-2.183-3.143-4.22-6.387-6.336-9.577a.9.9,0,0,0-.649-.4,35.445,35.445,0,0,0-7.954,1.559C4964.977,205.466,4963.14,206.242,4961.284,206.96Zm30.794-7.34v-.192a1.748,1.748,0,0,0-.238-.1,41.912,41.912,0,0,1-9.392-4.009c-2.758-1.506-5.5-3.042-8.28-4.506a27,27,0,0,0-5.874-2.283c1.125,1.178,2.271,2.235,3.247,3.432,1.856,2.278,3.61,4.638,5.419,6.954a1.078,1.078,0,0,0,.607.446c3.07.23,6.14.507,9.216.6C4988.544,200.01,4990.313,199.744,4992.079,199.621Z" transform="translate(-4525.422 1493.264)" fill="#1d272b"/>
    <path id="Trazado_166396" data-name="Trazado 166396" d="M4986.655,687.047a12.429,12.429,0,0,1,3.029,6.486,12.164,12.164,0,0,1-3.72,10.965,12.469,12.469,0,0,1-17.482-.014,11.817,11.817,0,0,1-3.156-4.971.981.981,0,0,0-.721-.7q-7.315-2.335-14.619-4.7a15.21,15.21,0,0,1-1.8-.855c-.921.975-1.864,2-2.838,3a1.892,1.892,0,0,1-3.242-1.035,1.9,1.9,0,0,1,.6-1.67c1.2-1.254,2.4-2.508,3.578-3.788a2.7,2.7,0,0,0,.423-.892c.245-.659.451-1.333.7-1.99.822-2.168,1.732-4.305,2.466-6.5a7.371,7.371,0,0,1,5.817-5.162c10.116-2.3,20.219-4.646,30.328-6.973,4.321-.995,8.649-1.959,12.964-2.979a6.493,6.493,0,0,1,7.871,7.468,7.727,7.727,0,0,1-4.369,5.882c-5.219,2.669-10.357,5.5-15.528,8.258C4986.861,686.919,4986.767,686.98,4986.655,687.047Zm-22.085,7.785c.169-.921.261-1.786.49-2.614a12.589,12.589,0,0,1,18.026-7.96.92.92,0,0,0,.73-.012c5.755-3.053,11.49-6.146,17.258-9.176a3.7,3.7,0,0,0,2.044-2.939,2.675,2.675,0,0,0-3.418-3.147q-7.212,1.657-14.421,3.329-14.6,3.361-29.2,6.709a3.24,3.24,0,0,0-2.484,2.186c-.972,2.6-1.977,5.185-2.979,7.772-.371.958-.229,1.285.778,1.613q3.73,1.214,7.464,2.418C4960.763,693.623,4962.668,694.226,4964.57,694.832Zm14.011-9.166v6.987l4.889-4.879A9.274,9.274,0,0,0,4978.582,685.666Zm-2.752,6.872v-6.893a9.937,9.937,0,0,0-4.808,2.1Zm9.59-2.609-4.718,4.69h6.315A8.311,8.311,0,0,0,4985.419,689.929Zm-11.721,4.594-4.613-4.684a9.362,9.362,0,0,0-1.671,4.684Zm11.206,7.164a9.631,9.631,0,0,0,2.018-4.317h-6.335Zm-17.38-4.4a9.551,9.551,0,0,0,2.029,4.342l4.259-4.342Zm8.222,7.916v-5.785l-4.176,4.124A9.638,9.638,0,0,0,4975.745,705.2Zm2.834-5.832v5.868a9.322,9.322,0,0,0,4.208-1.647Zm-2.929-3.622a1.585,1.585,0,0,0,3.169.015,1.585,1.585,0,1,0-3.169-.015Z" transform="translate(-4556.676 1071.356)" fill="#1d272b"/>
    <path id="Trazado_166398" data-name="Trazado 166398" d="M4652.317,284.144c.594-1.885-.972-1.747-1.89-2.373,1.226-.173,2.6.254,3-1.363a8.005,8.005,0,0,0,1.824,1.117c.648.185,1.392.041,2.155.184l-1.338.924c.243.39.489.782.86,1.373A4.892,4.892,0,0,0,4652.317,284.144Z" transform="translate(-4269.903 1403.253)" fill="#1d272b"/>
    <path id="Trazado_166399" data-name="Trazado 166399" d="M4723.648,277.124l-1.273,1.139.789,1.252a9.622,9.622,0,0,0-2.226-.243,8.265,8.265,0,0,0-1.947.748c-.335-.434.292-1.144-.445-1.426-.5-.193-1.014-.369-1.707-.62.769-.147,1.343-.3,1.927-.359.819-.083.669-.959,1.229-1.354C4720.948,277.5,4722.284,277.278,4723.648,277.124Z" transform="translate(-4327.203 1406.83)" fill="#1d272b"/>
    <path id="Trazado_166400" data-name="Trazado 166400" d="M4730.329,307.258c1.861,1.126,1.861,1.126,3.952.769L4732.9,309.3l.828,1.287a4.863,4.863,0,0,0-4.4.663c.56-1.91-.91-1.752-1.886-2.264C4728.656,308.674,4730.147,309,4730.329,307.258Z" transform="translate(-4336.35 1380.086)" fill="#1d272b"/>
    <path id="Trazado_166401" data-name="Trazado 166401" d="M4671,313.407a3.935,3.935,0,0,0-3.777.138c.454-1.557-.738-1.467-1.475-1.915a3.478,3.478,0,0,1,.73-.141c.79.027,1.444-.139,1.652-1.23a3.737,3.737,0,0,0,3.19,1.317l-1.034.688C4670.489,312.59,4670.687,312.906,4671,313.407Z" transform="translate(-4283.12 1377.496)" fill="#1d272b"/>
  </g>
</svg>
