<svg xmlns="http://www.w3.org/2000/svg" width="107.709" height="144.656" viewBox="0 0 107.709 144.656">
  <g id="Grupo_129344" data-name="Grupo 129344" transform="translate(-1127.863 -1873.178)">
    <path id="Trazado_165193" data-name="Trazado 165193" d="M2544.839-292.939c.031-.467.087-.934.088-1.4q.007-23.229,0-46.458c0-.446-.042-.891-.08-1.638l-1.737,2.142-18.266-12.188c.467-.775.871-1.451,1.281-2.123,2.446-4.013,4.929-8,7.334-12.043,4.282-7.188,10.729-10.53,18.935-10.714,3.761-.085,7.526-.006,11.29-.018,2.08-.007,2.9-.831,2.935-2.885a1.357,1.357,0,0,1,0-.141,15.647,15.647,0,0,0-2.808-11.008,104.752,104.752,0,0,1-5.667-9.906,9.547,9.547,0,0,1-1.1-4.129,116.585,116.585,0,0,1,.275-13.391,21.462,21.462,0,0,1,17.36-18.408,21.662,21.662,0,0,1,24.53,14.336,39.872,39.872,0,0,1,1.187,6.063,7.243,7.243,0,0,1,.037,1.269c0,3.248.542,6.624-.172,9.707s-2.679,5.855-4.108,8.759a50.388,50.388,0,0,1-2.867,5.647c-2.332,3.529-2.779,7.371-2.479,11.435.132,1.786.913,2.622,2.747,2.652,4.795.08,9.615-.14,14.378.289a19.865,19.865,0,0,1,15.646,9.8c2.783,4.468,5.479,8.99,8.212,13.489.24.395.457.8.763,1.341l-18.332,12.233-1.5-2.078a3.634,3.634,0,0,0-.218.807q-.012,24.007,0,48.014a3.193,3.193,0,0,0,.1.551h-5.082c.016-.564.045-1.127.045-1.691q0-29.581,0-59.162v-1.76h5.061c-.913,3.532.919,6.019,3,8.536l10.382-6.935c-2.27-3.734-4.436-7.309-6.619-10.873a13.311,13.311,0,0,0-1.29-1.842,16.831,16.831,0,0,0-13.374-5.808c-4.137.012-8.279.047-12.408-.157a6.7,6.7,0,0,1-6.242-6.2c-.159-1.844-.029-3.712-.029-5.558h-4.757v16.976c1.623.215,3.172.311,4.67.636,10.1,2.19,16.786,10.627,16.867,21.431.077,10.164.1,20.33-.009,30.493-.1,9.653-4.621,16.536-13.511,20.391a42.118,42.118,0,0,1-5.221,1.527h-11.011a1.962,1.962,0,0,0-.481-.252c-9.134-1.883-15-7.246-17.4-16.319a1.932,1.932,0,0,0-.542-1.074c-1.428-.954-2.911-1.823-4.527-2.816a26.94,26.94,0,0,0,8.553,16.232L2555.2-293.6l-5.283-6.169v6.828Zm53.1-32.542c-.734.286-1.343.5-1.934.757-4.032,1.75-8.121,3.192-12.63,2.986-1.294-.059-1.98.806-2.152,2.134-.649,5.032-3.359,7.455-8.369,7.394a5.221,5.221,0,0,0-4.428,1.595,2.348,2.348,0,0,1-3.414.11,2.46,2.46,0,0,1,.029-3.542,7.783,7.783,0,0,1,5.558-2.966,15.282,15.282,0,0,0,3.5-.218,3.327,3.327,0,0,0,1.974-1.643,8.536,8.536,0,0,0,.079-2.984,32.344,32.344,0,0,1-4.912-.048c-2.135-.34-3.981-.283-5.272,1.733a.78.78,0,0,1-.225.168,2.261,2.261,0,0,1-3.088-.129,2.207,2.207,0,0,1-.391-3.054c.188-.3.371-.6.6-.958-.982-.389-1.851-.737-2.722-1.077-.167-.065-.346-.1-.743-.2.635,6.739-1.384,13.669,2.666,19.969,1.164-.567,2.238-1.127,3.343-1.619a2.44,2.44,0,0,1,3.392.994c.642,1.246.2,2.491-1.2,3.318-.663.392-1.355.734-2.082,1.125,4.475,3.908,17.07,5.424,21.469,2.621-.36-.544-.764-1.066-1.073-1.638a3.421,3.421,0,0,0-3.585-1.93c-1.733.117-3.479.031-5.22.024-2.054-.008-3.158-.838-3.188-2.382-.03-1.589,1.019-2.442,3.078-2.461,1.929-.017,3.859.03,5.786-.011a7.63,7.63,0,0,1,6.969,3.754c.526.812,1.1,1.595,1.64,2.384,4.27-2.774,7.343-9.651,6.325-14.1l-4.7,2.3a15.908,15.908,0,0,1,1.732,1.418,2.394,2.394,0,0,1,.114,3.532,2.379,2.379,0,0,1-3.531-.112c-1.008-.918-1.968-1.893-2.9-2.888a2.9,2.9,0,0,0-2.289-1.1,2.416,2.416,0,0,1-2.606-2.4,2.311,2.311,0,0,1,2.563-2.411c4.2.244,7.611-1.779,11.108-3.589a1.49,1.49,0,0,0,.7-1.025C2598-322.863,2597.944-324.087,2597.944-325.481ZM2581.27-432.452v33.434h4.606v4.923h-4.589v4.692c1.557,0,3.011-.049,4.459.019a1.51,1.51,0,0,0,1.617-1.008c2.572-5.223,5.19-10.424,7.771-15.643a3.436,3.436,0,0,0,.413-1.462c-.018-3.482.063-6.975-.178-10.444C2594.876-425.068,2588.337-431.746,2581.27-432.452Zm-22.041,98.509c1.7,0,2.919.052,4.131-.013a5.09,5.09,0,0,0,3.775-1.925c2.818-3.4,5.671-6.773,8.454-10.2a3.056,3.056,0,0,0,.585-1.768c.065-4.088.058-8.178.073-12.268,0-.736,0-1.473,0-2.189-6.986-.683-14.882,5.012-16.084,12.226C2559.292-344.855,2559.508-339.447,2559.229-333.943Zm16.924-65.206v-33.339a7.242,7.242,0,0,0-.779.079,16.618,16.618,0,0,0-13.385,15.564c-.214,3.489-.036,7-.036,10.614,1.784,0,3.329-.033,4.873.008a4.644,4.644,0,0,1,4.588,4.139c.132.958.158,1.931.236,2.934Zm5.132,43.317c.11.085.143.133.183.138a4.47,4.47,0,0,0,.561.043,8.173,8.173,0,0,1,7.964,4.99c.7,1.433,1.521,2.813,2.153,4.274a12.241,12.241,0,0,1,.939,3.208,8.137,8.137,0,0,1-3.134,7.715c2.429,2.175,5.209,1.4,7.994,1.526,0-4.044.005-7.936,0-11.828a16.074,16.074,0,0,0-5.019-11.994,16.386,16.386,0,0,0-11.639-4.665Zm-18.154-10.9c-.324.151-.537.242-.742.347a6.286,6.286,0,0,0-.614.345,26.693,26.693,0,0,0-11.626,17.28c-1.07,4.884,1.575,8.007,4.283,11.3.165-2.562.175-5.09.163-7.617a21.039,21.039,0,0,1,4.619-14.017,72.169,72.169,0,0,1,5.448-5.345Zm12.822,27.878c-.727.872-2.115,2.454-3.409,4.108-2.189,2.8-4.568,5.278-8.584,5.613,2.35,1.372,4.5,2.219,6.925.892a11.468,11.468,0,0,1,1.726-.59,17.743,17.743,0,0,0,7.995-5.385Zm5.237-11.872v7.365a4.21,4.21,0,0,0,3.209,4.338,2.713,2.713,0,0,0,3.587-1.764,6.91,6.91,0,0,0-.271-3.495,42.5,42.5,0,0,0-2.047-4.154C2584.823-350.257,2583.425-350.981,2581.19-350.725Zm-34.371-4.61-11.644,3.88,6.823,4.568C2543.861-349.6,2546.415-351.806,2546.82-355.335Zm38.856,22.6L2580.5-326.8c4.016.078,8.562.384,12.744-2.271C2590.274-329.213,2587.963-330.561,2585.676-332.736ZM2547.387-371.7c-2.558.555-2.565.554-2.957,2.892a19.105,19.105,0,0,0-.354,2.647c-.053,2.076-.017,4.155-.017,6.5a22.527,22.527,0,0,0,2.617-1.31,1.711,1.711,0,0,0,.681-1.185C2547.413-365.3,2547.387-368.447,2547.387-371.7Zm24.178-12.739c1,4.4,2.216,8.486,4.6,12.136v-12.136Zm-6.109,12.117c1.112,1.76,2.191,3.51,3.323,5.225.207.313.657.728.934.687,1.166-.176,2.309-.507,3.418-.772l-3.763-7.173Zm-32.516,15.89.218.3c1.167-.308,2.339-.6,3.5-.927,2.694-.747,2.655-.751,2.557-3.479-.067-1.855-.013-3.714-.013-5.571l-.311-.089Q2535.919-361.316,2532.941-356.434Zm19.339-8.113c2.676-2.32,4.942-4.566,6.161-7.815h-6.161Zm23.851-24.937v-4.527h-4.5v4.527ZM2554.7-326.147c-.133-1.513.183-3.152-.471-4.166-1.053-1.634-2.745-2.855-4.18-4.263C2549.455-331.617,2551.5-327.758,2554.7-326.147Zm-.11,9.9c0-1.39.039-2.368-.022-3.339a1.35,1.35,0,0,0-.472-.921c-1.337-.932-2.717-1.8-4.369-2.877C2550.346-320.29,2552.143-318.327,2554.592-316.25Zm11.956-85.067h-2.86l2.652,4.6.208-.134Z" transform="translate(-1396.982 2310.773)" fill="#1d272b"/>
    <path id="Trazado_165194" data-name="Trazado 165194" d="M2679.745-365.965a3.79,3.79,0,0,0-3.624-3.608,3.889,3.889,0,0,0-3.645,3.621,3.826,3.826,0,0,0,3.729,3.661A3.734,3.734,0,0,0,2679.745-365.965Z" transform="translate(-1502.823 2262.006)" fill="#1d272b"/>
    <path id="Trazado_165195" data-name="Trazado 165195" d="M2735.749-362.292a3.723,3.723,0,0,1-3.58-3.632,3.784,3.784,0,0,1,3.58-3.65,3.874,3.874,0,0,1,3.689,3.721A3.834,3.834,0,0,1,2735.749-362.292Zm.015-1.955c.567-.8,1.152-1.266,1.107-1.661-.047-.423-.685-.781-1.066-1.167-.379.378-1,.721-1.064,1.145C2734.687-365.539,2735.237-365.062,2735.764-364.247Z" transform="translate(-1545.618 2262.008)" fill="#1d272b"/>
    <path id="Trazado_165196" data-name="Trazado 165196" d="M2679.745-365.965a3.734,3.734,0,0,1-3.54,3.675,3.826,3.826,0,0,1-3.729-3.661,3.889,3.889,0,0,1,3.645-3.621A3.79,3.79,0,0,1,2679.745-365.965Zm-3.573,1.718c.513-.818,1.059-1.3,1-1.7-.061-.419-.7-.754-1.086-1.125-.374.393-1,.759-1.046,1.185C2675-365.5,2675.592-365.039,2676.172-364.247Z" transform="translate(-1502.823 2262.006)" fill="#1d272b"/>
  </g>
</svg>
