<svg xmlns="http://www.w3.org/2000/svg" width="111.378" height="111.241" viewBox="0 0 111.378 111.241">
  <g id="Grupo_129345" data-name="Grupo 129345" transform="translate(-361.622 -2106.339)">
    <path id="Trazado_163317" data-name="Trazado 163317" d="M3894.422,74.748a11.548,11.548,0,0,0-.15,1.225c-.09,4.7-.109,9.4-.271,14.1-.1,2.928-1.57,4.533-4.475,4.792-2.872.257-5.768.281-8.654.325-5.4.082-10.794.1-16.191.153-.208,0-.415.027-.773.051-.07,1.789-.128,3.58-.213,5.369a12.487,12.487,0,0,1-.26,3.006,22.039,22.039,0,0,1-1.522,3.121,3.109,3.109,0,0,0-.506,1.272c.039,1.211.322,2.416.326,3.624.015,3.828-.089,7.657-.073,11.485.009,2.08-2.8,4.426-4.88,4.41-12.747-.1-25.5-.033-38.244-.03q-7.575,0-15.149-.029a8.766,8.766,0,0,1-1.449-.148,1.258,1.258,0,0,1-1.071-1.441,1.1,1.1,0,0,1,1.225-1.134c1.808-.046,3.615-.173,5.424-.187,4.841-.037,9.683-.01,14.524-.049,5.71-.045,11.419-.128,17.129-.206.548-.008,1.095-.1,1.627-.158.3-5.687-.958-11.367.7-17.062-3.083-3.732-7.568-5.387-13.371-4.559.789.92,1.532,1.774,2.262,2.639a5.334,5.334,0,0,1,1.586,2.981,2.509,2.509,0,0,1-1.113,2.522q-7.459,4.995-14.955,9.934a1.45,1.45,0,0,1-1.293-.021c-4.969-3.27-9.928-6.557-14.839-9.914a2.951,2.951,0,0,1-.594-4.186c.809-1.085,1.751-2.071,2.64-3.1.215-.249.448-.482.906-.971-1.693,0-3.062-.08-4.42.014a12.417,12.417,0,0,0-11.927,11.56,69.738,69.738,0,0,0-.154,7.716c.037,2.068.569,2.538,2.653,2.669,2.326.146,4.655.242,6.984.347.709.032,1.349.114,1.374,1.039a1.625,1.625,0,0,1-1.489,1.712c-1.32.078-2.645.067-3.968.066-1.114,0-2.229-.019-3.342-.065a5.174,5.174,0,0,1-5.228-5.142,36.761,36.761,0,0,1,.661-11.621,15.805,15.805,0,0,1,13.207-11.224c2.488-.224,4.994-.246,7.574-.364V95.325c-.8-.093-1.588-.169-2.371-.28a5.258,5.258,0,0,1-4.615-4.906c-.1-1.283-.044-2.586-.239-3.853-.353-2.292-.794-4.574-1.284-6.842-.476-2.2-.521-2.261-2.787-2.359a4.817,4.817,0,0,1-4.657-4.9c.051-2.3,0-4.6-.025-6.893a5.1,5.1,0,0,1,2.686-4.944,1.673,1.673,0,0,0,.9-1.685c.046-2.5.085-5.014.349-7.5a12.986,12.986,0,0,1,3.825-7.826,3.725,3.725,0,0,0,1.082-2.877c0-6.163.069-12.326.119-18.489a5.361,5.361,0,0,1,5.094-5.284c2.746-.128,5.5-.2,8.246-.207q24.244-.045,48.487-.034c2.923,0,5.847.1,8.768.218a2.408,2.408,0,0,1,1.468.586,1.506,1.506,0,0,1,.281,1.3c-.088.281-.675.563-1.048.574-4.14.121-8.281.226-12.423.265-5.955.057-11.911.056-17.866.079q-17.814.069-35.627.139a2.977,2.977,0,0,0-2.41,2.3q.023,8.462.1,16.924a9.74,9.74,0,0,0,.123,1.02c1.167-.424,2.262-.769,3.3-1.238a1.288,1.288,0,0,0,.458-.975c.147-3.512.21-7.027.381-10.537.114-2.339.81-3.014,3.157-3.115,3.129-.134,6.262-.249,9.394-.254q24.192-.037,48.384,0c5.849.01,11.7.12,17.546.2,2.43.035,3.322.881,3.419,3.331.1,2.573.145,5.151.151,7.727q.053,22.2.067,44.409c0,1.774-.086,3.548-.163,5.321a3.211,3.211,0,0,1-3.408,3.231H3863.8v4.18h24.308c1.982,0,2.947-.9,3.056-2.917.068-1.251.08-2.505.081-3.758q.008-20.273,0-40.546c-.005-7-.042-14-.07-21,0-.591-.054-1.182-.064-1.773A2.5,2.5,0,0,0,3888.5,19.6c-4.282-.061-8.563-.124-12.844-.215-1.483-.032-2.12-.477-2.11-1.336.01-.843.712-1.452,2.068-1.458,4.628-.02,9.259-.039,13.883.109a5.2,5.2,0,0,1,4.587,4.593c.155,2.15.135,4.314.145,6.472.026,5.643.024,11.285.044,16.928a6.842,6.842,0,0,0,.149,1ZM3807.9,38.081c.321.021.593.053.865.055,4.666.026,9.334-.028,14,.088a15.663,15.663,0,0,1,15.453,14.509c.2,2.417.031,4.864.031,7.3,2.349.762,3.59,2.3,3.651,4.528.077,2.81.022,5.632-.154,8.437a4.071,4.071,0,0,1-3.509,3.867c-1.081.223-2.19.306-3.17.436l-2.306,7.586c1.956,0,3.861-.024,5.765.014a1.394,1.394,0,0,0,1.359-.727,5.265,5.265,0,0,1,4.1-2.556c1.25-.117,2.521-.023,3.864-.023v-1c0-6.687-.026-13.374.014-20.061.013-2.223.181-4.446.306-6.668a1.175,1.175,0,0,1,1.313-1.278c.965,0,1.157.654,1.224,1.374.106,1.142.2,2.291.2,3.437q.042,11.336.043,22.672c0,.367,0,.735,0,1.121l4.93.244a8.02,8.02,0,0,1,6.247,2.861,2.055,2.055,0,0,0,1.435.566c6.443.037,12.886.025,19.329.022.368,0,.735-.038,1.053-.055V26.886c-.469,0-.81,0-1.151,0-9.75-.034-19.5-.1-29.25-.1q-21.1,0-42.208.064c-.905,0-1.815-.024-2.713.063-.258.025-.689.4-.692.614C3807.886,31.006,3807.9,34.482,3807.9,38.081Zm13.83,20.562c.08-.034.006-.02-.045.022-.293.245-.579.5-.87.747A12.551,12.551,0,0,1,3813,62.719c-4.276.127-8.554.151-12.832.223-.4.007-.8.036-1.233.056,0,4.014-.028,7.907.014,11.8a21.031,21.031,0,0,0,.322,4.565,16.381,16.381,0,0,0,22.424,11.405c5.853-2.562,9.414-7.151,9.868-13.625.321-4.572.122-9.18.15-13.772,0-.1-.05-.2-.038-.153a26.845,26.845,0,0,1-5.407-1.264C3824.643,61.212,3823.313,59.836,3821.729,58.643Zm13.525,1.248c0-2.35.054-4.508-.01-6.663-.2-6.658-6.687-12.085-12.51-11.942-4.869.119-9.743.065-14.615.05a12.525,12.525,0,0,0-10.251,5.116c-2.14,2.68-2.683,5.812-2.621,9.126.026,1.408,0,2.817,0,4.247.367.025.536.047.706.046q8.563-.074,17.126-.155a4,4,0,0,0,1.346-.081c3.426-1.319,6.024-3.444,6.838-7.241.167-.781.321-1.566.5-2.344a1.129,1.129,0,0,1,1.333-1.016c.741.081,1.3.394,1.3,1.206a15.345,15.345,0,0,1-.149,2.9,5.231,5.231,0,0,0,2.922,5.935C3829.754,60.347,3832.495,59.7,3835.254,59.892Zm14.251,45.042c.819,1.287.987,1.484,2.043,1.527a48.256,48.256,0,0,0,5.008.026,4.355,4.355,0,0,0,3.985-4.028c.095-4.07,0-8.145.127-12.214.112-3.655-1.529-5.92-5.832-5.835-1.635.032-3.273-.064-4.907-.02a1.7,1.7,0,0,0-1.725,1.737c.013,1.014.67,1.376,1.558,1.474.31.035.623.062.935.07,1.183.028,2.368.01,3.549.079,1.052.061,1.729.675,1.666,1.5-.074.967-.723,1.367-1.632,1.413-.66.033-1.321.045-1.981.081-.971.052-1.952.048-2.91.2-1.01.156-1.334.725-1.158,1.728.188,1.07,1.05,1.231,1.887,1.295,1.49.113,2.987.157,4.481.19a1.2,1.2,0,0,1,1.277,1.228,1.3,1.3,0,0,1-1.034,1.487,10.391,10.391,0,0,1-1.857.241c-1.213.085-2.431.11-3.643.21a1.183,1.183,0,0,0-1.177,1.322,1.245,1.245,0,0,0,1.143,1.375c.719.113,1.451.145,2.178.2,1.039.076,2.083.1,3.116.219a1.3,1.3,0,0,1,1.336,1.427c-.025.982-.721,1.189-1.476,1.288a17,17,0,0,1-2.392.192A2.58,2.58,0,0,0,3849.505,104.933Zm-41.645-10.7a44.191,44.191,0,0,0,.054,5.273,15.482,15.482,0,0,0,1.254,3.7c.074.188.5.333.764.335,3.586.022,7.172.027,10.758-.009a1.244,1.244,0,0,0,.875-.52c1.788-2.823,1.237-5.921,1.156-8.769a36.74,36.74,0,0,1-14.86-.01Zm50.8,22.767h-14.836c0,1.935-.086,3.806.031,5.665a1.982,1.982,0,0,0,2.174,1.86c3.1,0,6.191.012,9.287-.009a13.686,13.686,0,0,0,2.067-.2,1.414,1.414,0,0,0,1.263-1.447C3858.692,120.934,3858.662,118.995,3858.662,117Zm-18.407-15.471c.281-2.033.066-3.093-1.008-5.465a1.22,1.22,0,0,0-1.323-.854c-3.029.044-6.059.019-9.088.019h-2.879v4.349a28.98,28.98,0,0,1,14.3,1.951Zm18.439,8.137c-3.122,0-6.143-.018-9.164.007-1.634.013-3.27.068-4.9.182-.306.022-.815.395-.837.641-.094,1.051-.04,2.114-.04,3.25h14.94Zm-62.972-35.549V62.964c-.778,0-1.474-.046-2.162.011a1.7,1.7,0,0,0-1.772,1.7c-.043,2.633-.019,5.269.045,7.9a1.293,1.293,0,0,0,1.184,1.374C3793.9,74.036,3794.793,74.063,3795.722,74.118Zm39.141-.1c.8,0,1.491.03,2.177-.007a1.722,1.722,0,0,0,1.762-1.727c.088-2.53.07-5.066.007-7.6a1.6,1.6,0,0,0-1.362-1.636,18.934,18.934,0,0,0-2.583-.025ZM3838.6,87.95c-1.816,0-3.521.1-5.21-.026-1.907-.142-3.485.17-4.7,1.84a17.464,17.464,0,0,1-2.512,2.306H3838.6Zm-18.866,18.795h-8.941l4.375,8.973.3-.021Zm21.981-15.469.143,0a22.049,22.049,0,0,1-.015,2.4c-.2,1.783.7,2.42,2.147,3.171.887.462,1.469.226,1.792-.727a2.184,2.184,0,0,0-.093-1.47,5,5,0,0,1,0-4.617,1.48,1.48,0,0,0,.2-1.08,8.3,8.3,0,0,1-.836-3.935c0-.178-.563-.581-.714-.518-1.146.48-2.238,1.114-2.385,2.508C3841.813,88.425,3841.792,89.854,3841.716,91.276Zm-22.384,23.378.286.233,9.5-6.429-4.39-4.738Zm-8.5.088.264-.277-5.256-10.843-4.339,4.895Zm32.512-14.679c.093,1.388.124,2.773.3,4.139a2.817,2.817,0,0,0,2.154,2.3c.687.234.965-.027.931-.752a11.016,11.016,0,0,1,.06-1.865A3.375,3.375,0,0,0,3843.349,100.063Zm-39.036-8.114-3.656-3.065C3800.539,91.254,3802.017,92.482,3804.313,91.949Z" transform="translate(-3421.422 2089.896)" fill="#1d272b"/>
    <path id="Trazado_163318" data-name="Trazado 163318" d="M3919.706,305.655a5.079,5.079,0,0,1-4.516-2.5,1.3,1.3,0,0,1,.287-1.763,1.253,1.253,0,0,1,1.7-.173,4.742,4.742,0,0,1,.718.6,2.094,2.094,0,0,0,3.145.16c.328-.257.64-.538.989-.763a1.308,1.308,0,0,1,1.848.333,1.236,1.236,0,0,1-.021,1.85C3922.757,304.679,3921.544,305.727,3919.706,305.655Z" transform="translate(-3525.717 1864.947)" fill="#1d272b"/>
    <path id="Trazado_163319" data-name="Trazado 163319" d="M3967.51,260.557a3.946,3.946,0,0,1-.2,1.267c-.241.475-.655,1.164-1.035,1.192a1.753,1.753,0,0,1-1.467-.8,6.451,6.451,0,0,1-.113-2.8c.14-.793.908-1.06,1.722-.985.83.076.935.7,1.019,1.337C3967.47,260.014,3967.483,260.256,3967.51,260.557Z" transform="translate(-3564.959 1898.582)" fill="#1d272b"/>
    <path id="Trazado_163320" data-name="Trazado 163320" d="M3895.744,260.871c.046-.448.1-.9.133-1.345.056-.856.594-1.1,1.345-1.1a1.1,1.1,0,0,1,1.245,1.109c.054.691.073,1.386.089,2.08a1.266,1.266,0,0,1-1.388,1.45,1.279,1.279,0,0,1-1.39-1.459c.007-.243,0-.487,0-.73Z" transform="translate(-3510.523 1898.584)" fill="#1d272b"/>
  </g>
</svg>
