<svg xmlns="http://www.w3.org/2000/svg" xmlns:xlink="http://www.w3.org/1999/xlink" width="79.155" height="79.154" viewBox="0 0 79.155 79.154">
  <defs>
    <radialGradient id="radial-gradient" cx="0.077" cy="0.019" r="1.465" gradientTransform="matrix(1, 0, 0, -1, 0, 9.666)" gradientUnits="objectBoundingBox">
      <stop offset="0" stop-color="#f4f4f5"/>
      <stop offset="0.477" stop-color="#f7f8fa"/>
      <stop offset="0.715" stop-color="#fff"/>
    </radialGradient>
  </defs>
  <g id="Grupo_129353" data-name="Grupo 129353" transform="translate(-800 -1813.272)">
    <g id="Group_18420" data-name="Group 18420" transform="translate(800 1813.272)">
      <g id="Group_18419" data-name="Group 18419">
        <path id="Path_40936" data-name="Path 40936" d="M201.954,554.407a39.577,39.577,0,1,1-39.578-39.575h0A39.576,39.576,0,0,1,201.954,554.407Z" transform="translate(-122.8 -514.832)" fill="#fff"/>
      </g>
    </g>
    <path id="Path_40937" data-name="Path 40937" d="M201.953,554.407a39.42,39.42,0,1,0,0,.312Z" transform="translate(677.201 1298.44)" fill="url(#radial-gradient)"/>
    <path id="Path_40938" data-name="Path 40938" d="M190.028,551.858a30.209,30.209,0,1,0-30.209,30.209h0a30.1,30.1,0,0,0,30.209-29.984Z" transform="translate(679.878 1301.122)" fill="none" stroke="#1d272b" stroke-miterlimit="10" stroke-width="2"/>
    <path id="Path_40939" data-name="Path 40939" d="M195.973,530.78a39.581,39.581,0,0,1-68.14,39.411,39.456,39.456,0,0,0,68.14-39.411Z" transform="translate(679.179 1304.712)" fill="#e7e9eb"/>
    <path id="Trazado_166382" data-name="Trazado 166382" d="M2233.107,886.893a32.532,32.532,0,0,1-12.034-2.06,18.592,18.592,0,0,1-10.233-10.158,1.521,1.521,0,0,1,.264-1.348,31.621,31.621,0,0,1,14.9-8.662c2.25-.587,4.179.571,5.99,1.7a1.714,1.714,0,0,0,2.234-.019,8.693,8.693,0,0,1,9.186-.828,37.091,37.091,0,0,1,11.64,7.367,1.457,1.457,0,0,1,.333,1.956c-3.287,7.085-9.057,10.6-16.572,11.592C2236.927,886.686,2235.011,886.746,2233.107,886.893Zm19.539-11.365c-2.547,0-4.947.153-7.32-.04-2.719-.221-5.4-.47-8.075.289a16.359,16.359,0,0,1-8.176.065,18.256,18.256,0,0,0-5.012-.509c-3.424.208-6.816,1.07-10.376.162a15.278,15.278,0,0,0,8.928,7.692,34.027,34.027,0,0,0,21-.035A15.524,15.524,0,0,0,2252.647,875.528Zm-.279-2.318a38.2,38.2,0,0,0-10.007-5.871c-2.435-1.024-4.751-.985-6.77.666-1.774,1.45-3.2,1.381-4.955,0a5.831,5.831,0,0,0-6.758-.522c-3.03,1.649-6,3.412-8.994,5.124-.3.169-.6.325-.9.487l.282.662a44.714,44.714,0,0,0,5.109-.034c3.361-.389,6.7-.915,10.052.02a16.557,16.557,0,0,0,7.507.022,32.746,32.746,0,0,1,7.124-.422C2246.754,873.46,2249.433,874.024,2252.368,873.21Z" transform="translate(-1393.101 978.834)" fill="#1d272b"/>
  </g>
</svg>
