<svg xmlns="http://www.w3.org/2000/svg" xmlns:xlink="http://www.w3.org/1999/xlink" width="79.155" height="79.154" viewBox="0 0 79.155 79.154">
  <defs>
    <radialGradient id="radial-gradient" cx="0.077" cy="0.019" r="1.465" gradientTransform="matrix(1, 0, 0, -1, 0, 9.666)" gradientUnits="objectBoundingBox">
      <stop offset="0" stop-color="#f4f4f5"/>
      <stop offset="0.477" stop-color="#f7f8fa"/>
      <stop offset="0.715" stop-color="#fff"/>
    </radialGradient>
  </defs>
  <g id="Grupo_129354" data-name="Grupo 129354" transform="translate(-800 -2406.537)">
    <path id="Path_40936" data-name="Path 40936" d="M201.954,554.407a39.577,39.577,0,1,1-39.578-39.575h0A39.576,39.576,0,0,1,201.954,554.407Z" transform="translate(677.2 1891.705)" fill="#fff"/>
    <path id="Path_40937" data-name="Path 40937" d="M201.953,554.407a39.42,39.42,0,1,0,0,.312Z" transform="translate(677.201 1891.705)" fill="url(#radial-gradient)"/>
    <path id="Path_40938" data-name="Path 40938" d="M190.028,551.858a30.209,30.209,0,1,0-30.209,30.209h0a30.1,30.1,0,0,0,30.209-29.984Z" transform="translate(679.878 1894.387)" fill="none" stroke="#1d272b" stroke-miterlimit="10" stroke-width="2"/>
    <path id="Path_40939" data-name="Path 40939" d="M195.973,530.78a39.581,39.581,0,0,1-68.14,39.411,39.456,39.456,0,0,0,68.14-39.411Z" transform="translate(679.179 1897.977)" fill="#e7e9eb"/>
    <path id="Trazado_166383" data-name="Trazado 166383" d="M2781.948,134.537c0,.243,0,.475,0,.707.005.491-.023.985.026,1.472a2.673,2.673,0,0,0,1.524,2.2,5.029,5.029,0,0,1,1.782,1.5,4.72,4.72,0,0,1,.949,2.8c.014,2.064,0,4.128,0,6.192,0,.029,0,.058-.005.1h-2.141v-.517c0-1.866.006-3.731,0-5.6a2.735,2.735,0,0,0-1.563-2.56,4.9,4.9,0,0,1-2.678-3.744,3.944,3.944,0,0,1-.041-.593c-.005-.6,0-1.2,0-1.8v-.166h-.2q-2.032,0-4.063,0a2.138,2.138,0,0,1-2.118-1.7,2.177,2.177,0,0,1-.046-.457q0-5.336,0-10.672a2.133,2.133,0,0,1,2.16-2.164q6.423,0,12.845,0l8.529,0c1.449,0,2.9,0,4.346,0a2.149,2.149,0,0,1,2.137,2.2c-.013,1.786,0,3.572,0,5.358,0,1.727-.024,3.454.008,5.18a2.2,2.2,0,0,1-2.272,2.261c-1.319-.025-2.639-.005-3.958-.005h-.208v.294c0,.575.02,1.152,0,1.726a4.84,4.84,0,0,1-2.373,4.092c-.121.077-.251.14-.377.208a2.725,2.725,0,0,0-1.529,2.507c-.015,2,0,4,0,6v.155h-2.147v-.157c0-2.059-.048-4.119.013-6.177a4.734,4.734,0,0,1,2.695-4.239,2.827,2.827,0,0,0,1.472-1.761,2.057,2.057,0,0,0,.1-.525c.011-.7,0-1.4,0-2.111Zm-6.428-2.168h25.711V121.682H2775.52Z" transform="translate(-1947.804 2314.598)" fill="#1d272b"/>
    <path id="Trazado_166384" data-name="Trazado 166384" d="M2927.991,263.493h9.586a1.073,1.073,0,1,1,.06,2.145c-.526.006-1.052,0-1.578,0h-14.037c-1.225,0-2.451,0-3.676,0a1.071,1.071,0,0,1-.959-1.573,1.014,1.014,0,0,1,.913-.569c.412-.01.824,0,1.235,0Z" transform="translate(-2087.41 2174.916)" fill="#1d272b"/>
    <path id="Trazado_166385" data-name="Trazado 166385" d="M2928.122,407.325h7.708c.665,0,1.329-.008,1.993,0a1.055,1.055,0,0,1,1.013.9,1.067,1.067,0,0,1-.693,1.169,1.219,1.219,0,0,1-.393.068q-5.639,0-11.279,0l-7.946,0a1.074,1.074,0,1,1-.017-2.146c1.027,0,2.054,0,3.08,0l6.443,0h.089Z" transform="translate(-2087.553 2035.367)" fill="#1d272b"/>
  </g>
</svg>
