<svg xmlns="http://www.w3.org/2000/svg" xmlns:xlink="http://www.w3.org/1999/xlink" width="79.155" height="79.154" viewBox="0 0 79.155 79.154">
  <defs>
    <radialGradient id="radial-gradient" cx="0.077" cy="0.019" r="1.465" gradientTransform="matrix(1, 0, 0, -1, 0, 9.666)" gradientUnits="objectBoundingBox">
      <stop offset="0" stop-color="#f4f4f5"/>
      <stop offset="0.477" stop-color="#f7f8fa"/>
      <stop offset="0.715" stop-color="#fff"/>
    </radialGradient>
  </defs>
  <g id="Grupo_129355" data-name="Grupo 129355" transform="translate(-800 -2521.362)">
    <path id="Path_40936" data-name="Path 40936" d="M201.954,554.407a39.577,39.577,0,1,1-39.578-39.575h0A39.576,39.576,0,0,1,201.954,554.407Z" transform="translate(677.2 2006.53)" fill="#fff"/>
    <path id="Path_40937" data-name="Path 40937" d="M201.953,554.407a39.42,39.42,0,1,0,0,.312Z" transform="translate(677.201 2006.53)" fill="url(#radial-gradient)"/>
    <path id="Path_40938" data-name="Path 40938" d="M190.028,551.858a30.209,30.209,0,1,0-30.209,30.209h0a30.1,30.1,0,0,0,30.209-29.984Z" transform="translate(679.878 2009.212)" fill="none" stroke="#1d272b" stroke-miterlimit="10" stroke-width="2"/>
    <path id="Path_40939" data-name="Path 40939" d="M195.973,530.78a39.581,39.581,0,0,1-68.14,39.411,39.456,39.456,0,0,0,68.14-39.411Z" transform="translate(679.179 2012.802)" fill="#e7e9eb"/>
    <path id="Trazado_166386" data-name="Trazado 166386" d="M3812.217,573.906c1.687.575,2.292,1.763,2.284,3.522-.044,9.552-.021,19.1-.021,28.655,0,2.144-.455,2.808-2.421,3.546H3801.9c-1.852-.757-2.348-1.5-2.348-3.555q0-14.307,0-28.613c0-2.051.5-2.8,2.348-3.555Zm.751,17.528h-11.846a3.708,3.708,0,0,0-.052.422q0,7.375,0,14.75c0,1.039.508,1.506,1.6,1.51q4.283.018,8.565,0c1.314,0,1.763-.458,1.764-1.762q0-7.058,0-14.115C3813,591.984,3812.981,591.728,3812.968,591.434Zm.037-5.5c0-2.95,0-5.857,0-8.763,0-1.305-.453-1.763-1.762-1.766-2.512-.006-5.024,0-7.537,0-2.54,0-2.64.1-2.64,2.629v7.845l2.137-.3c0-.872-.051-1.743.021-2.6.037-.442.18-1.125.469-1.251.933-.407.75-1.128.753-1.833,0-.582-.016-1.164.008-1.745a1.093,1.093,0,0,1,1.171-1.212c1.692-.029,3.386-.043,5.076.017.357.013.965.324,1,.571a6.711,6.711,0,0,1,.01,2.474c-.165.728-.968.565-1.562.6-.046,0-.089.05-.259.15.123.21.2.527.379.617a1.688,1.688,0,0,1,.97,1.747c-.02.838,0,1.678,0,2.51.361.039.625.053.884.1C3812.4,585.776,3812.676,585.857,3813,585.937Zm0,3.949c0-.481.01-.876,0-1.27a1.355,1.355,0,0,0-1.418-1.474c-3.04-.029-6.081-.022-9.121,0a1.239,1.239,0,0,0-1.333,1.02,10.547,10.547,0,0,0-.019,1.725Zm-3.3-7.03h-4.985v2.77h4.985Zm.914-3.78c-.246-.311-.381-.636-.526-.64-1.36-.039-2.722-.023-4.116-.023v2.848h2.435C3808.691,579.212,3808.691,579.212,3810.615,579.076Z" transform="translate(-2972.453 1969.107)" fill="#1d272b"/>
    <path id="Trazado_166387" data-name="Trazado 166387" d="M3910.639,724.454a18.92,18.92,0,0,1-3.321-1.176,4.97,4.97,0,0,1-1.345-7.783,18.037,18.037,0,0,1,2.394-2.049,10.271,10.271,0,0,0,1.27-1.1,4.548,4.548,0,0,1-.978-.65.982.982,0,0,1-.209-.835.89.89,0,0,1,.714-.456c3.29.4,6.173,1.584,7.867,4.635a6.082,6.082,0,0,1-4.6,9.3,2.316,2.316,0,0,0-.369.12Zm.347-12.261c.043,1.268-.836,1.794-1.637,2.41a15.207,15.207,0,0,0-2.385,2.045,3.4,3.4,0,0,0,.449,4.885,5.89,5.89,0,0,0,4.88,1.337,4.523,4.523,0,0,0,3.937-5.921C3915.5,714.3,3913.471,713.043,3910.986,712.193Z" transform="translate(-3060.872 1854.283)" fill="#1d272b"/>
  </g>
</svg>
