<svg xmlns="http://www.w3.org/2000/svg" xmlns:xlink="http://www.w3.org/1999/xlink" width="158.954" height="179.905" viewBox="0 0 158.954 179.905">
  <defs>
    <radialGradient id="radial-gradient" cx="0.076" cy="0.019" r="1.465" gradientTransform="translate(0)" gradientUnits="objectBoundingBox">
      <stop offset="0" stop-color="#f6f6f7"/>
      <stop offset="0.477" stop-color="#f9f9fa"/>
      <stop offset="0.715" stop-color="#fff"/>
    </radialGradient>
  </defs>
  <g id="Grupo_129347" data-name="Grupo 129347" transform="translate(-171 -2456.574)">
    <g id="Grupo_87605" data-name="Grupo 87605" transform="translate(196 2484.237)">
      <rect id="Rectángulo_32801" data-name="Rectángulo 32801" width="108.528" height="152.242" rx="5" fill="#b42218"/>
    </g>
    <g id="Grupo_91879" data-name="Grupo 91879" transform="translate(-219.109 -353.168)">
      <g id="Grupo_91843" data-name="Grupo 91843" transform="translate(390.109 2809.742)">
        <g id="Grupo_91009" data-name="Grupo 91009" transform="translate(0 0)">
          <g id="Grupo_42274" data-name="Grupo 42274">
            <g id="Grupo_18423" data-name="Grupo 18423" transform="translate(0 0)">
              <g id="Grupo_18421" data-name="Grupo 18421">
                <g id="Grupo_18420" data-name="Grupo 18420">
                  <g id="Grupo_18419" data-name="Grupo 18419">
                    <path id="Trazado_40936" data-name="Trazado 40936" d="M353.577,2225.2a79.477,79.477,0,1,1-79.476-79.476A79.476,79.476,0,0,1,353.577,2225.2Z" transform="translate(-194.623 -2145.721)" fill="#fff"/>
                  </g>
                </g>
              </g>
              <path id="Trazado_40937" data-name="Trazado 40937" d="M352.4,2223.915a79.475,79.475,0,1,0-79.476,79.481A79.164,79.164,0,0,0,352.4,2223.915Z" transform="translate(-193.446 -2144.438)" fill="url(#radial-gradient)"/>
              <path id="Trazado_40938" data-name="Trazado 40938" d="M336.112,2219.854a67.27,67.27,0,1,0-67.27,67.271A67.029,67.029,0,0,0,336.112,2219.854Z" transform="translate(-189.208 -2140.204)" fill="none" stroke="#008f85" stroke-miterlimit="10" stroke-width="5"/>
              <g id="Grupo_18422" data-name="Grupo 18422" transform="translate(14.08 44.621)">
                <path id="Trazado_40939" data-name="Trazado 40939" d="M337.382,2164.488a79.486,79.486,0,0,1-136.837,79.149,79.234,79.234,0,0,0,136.837-79.149Z" transform="translate(-200.545 -2164.488)" fill="#eceef0"/>
              </g>
            </g>
          </g>
        </g>
      </g>
      <g id="Grupo_91880" data-name="Grupo 91880" transform="translate(434.413 2855.781)">
        <g id="Grupo_87606" data-name="Grupo 87606">
          <path id="Trazado_139403" data-name="Trazado 139403" d="M131.69-31.557H75.535A8.2,8.2,0,0,1,68.356-35.7a8.2,8.2,0,0,1,0-8.289L96.433-92.625a8.208,8.208,0,0,1,7.179-4.144h0a8.207,8.207,0,0,1,7.178,4.144l28.078,48.633a8.2,8.2,0,0,1,0,8.289A8.2,8.2,0,0,1,131.69-31.557ZM100.155-90.475,72.078-41.843a3.948,3.948,0,0,0,0,3.992,3.951,3.951,0,0,0,3.457,2H131.69a3.953,3.953,0,0,0,3.457-2,3.951,3.951,0,0,0,0-3.992L107.069-90.475a3.951,3.951,0,0,0-3.456-2,3.953,3.953,0,0,0-3.458,2Z" transform="translate(-67.232 96.769)" fill="#1d272b"/>
        </g>
        <g id="Grupo_87607" data-name="Grupo 87607" transform="translate(31.205 17.604)">
          <path id="Trazado_139404" data-name="Trazado 139404" d="M96.75-83.045h0A5.189,5.189,0,0,1,101.9-77.24L99.623-58.172a2.91,2.91,0,0,1-2.889,2.563h0a2.909,2.909,0,0,1-2.889-2.568L91.6-77.247A5.19,5.19,0,0,1,96.75-83.045Z" transform="translate(-91.56 83.045)" fill="#1d272b"/>
          <path id="Trazado_139405" data-name="Trazado 139405" d="M93.579-52.874a3.994,3.994,0,0,1-1.2-2.94,4,4,0,0,1,1.2-2.941,4,4,0,0,1,2.94-1.2,4,4,0,0,1,2.941,1.2,4,4,0,0,1,1.2,2.941,3.993,3.993,0,0,1-1.2,2.94,4,4,0,0,1-2.941,1.2A3.994,3.994,0,0,1,93.579-52.874Z" transform="translate(-91.328 89.573)" fill="#1d272b"/>
        </g>
      </g>
    </g>
  </g>
</svg>
