<svg xmlns="http://www.w3.org/2000/svg" xmlns:xlink="http://www.w3.org/1999/xlink" width="79.155" height="79.154" viewBox="0 0 79.155 79.154">
  <defs>
    <radialGradient id="radial-gradient" cx="0.077" cy="0.019" r="1.465" gradientTransform="matrix(1, 0, 0, -1, 0, 9.666)" gradientUnits="objectBoundingBox">
      <stop offset="0" stop-color="#f4f4f5"/>
      <stop offset="0.477" stop-color="#f7f8fa"/>
      <stop offset="0.715" stop-color="#fff"/>
    </radialGradient>
  </defs>
  <g id="Grupo_129356" data-name="Grupo 129356" transform="translate(-800 -2636.188)">
    <g id="Group_18419" data-name="Group 18419" transform="translate(800 2636.188)">
      <path id="Path_40936" data-name="Path 40936" d="M201.954,554.407a39.577,39.577,0,1,1-39.578-39.575h0A39.576,39.576,0,0,1,201.954,554.407Z" transform="translate(-122.8 -514.832)" fill="#fff"/>
    </g>
    <path id="Path_40937" data-name="Path 40937" d="M201.953,554.407a39.42,39.42,0,1,0,0,.312Z" transform="translate(677.201 2121.355)" fill="url(#radial-gradient)"/>
    <path id="Path_40938" data-name="Path 40938" d="M190.028,551.858a30.209,30.209,0,1,0-30.209,30.209h0a30.1,30.1,0,0,0,30.209-29.984Z" transform="translate(679.878 2124.037)" fill="none" stroke="#1d272b" stroke-miterlimit="10" stroke-width="2"/>
    <path id="Path_40939" data-name="Path 40939" d="M195.973,530.78a39.581,39.581,0,0,1-68.14,39.411,39.456,39.456,0,0,0,68.14-39.411Z" transform="translate(679.179 2127.627)" fill="#e7e9eb"/>
    <path id="Trazado_166388" data-name="Trazado 166388" d="M3934.973,806.886a6.623,6.623,0,0,1,2.7-5.394.593.593,0,0,0,.283-.545c-.009-2.69.015-5.381-.013-8.071a11.033,11.033,0,0,1,2.587-7.565,10.73,10.73,0,0,1,10.891-3.832,10.85,10.85,0,0,1,8.545,7.961,10.588,10.588,0,0,1,.406,3.2c-.007,2.814,0,5.629-.008,8.443a.68.68,0,0,0,.277.592,6.579,6.579,0,0,1,2.486,4.995,1.683,1.683,0,0,1-.019.22h-2.159a1.688,1.688,0,0,1-.037-.218,4.553,4.553,0,0,0-4.713-4.284c-2.367.058-4.737.012-7.1.012-2.48,0-4.96-.012-7.44.008a4.374,4.374,0,0,0-3.951,2.349,5.212,5.212,0,0,0-.575,2.133Zm23.18-6.608v-.259c0-2.418.011-4.837-.011-7.255a12.354,12.354,0,0,0-.174-2.107,8.981,8.981,0,0,0-17.786,1.912q-.005,3.683,0,7.367v.279h3.612a.875.875,0,0,0-.207-.386,6.5,6.5,0,0,1-1.65-3.479c-.144-1.288-.1-2.6-.124-3.9,0-.075.154-.2.252-.22.413-.083.835-.115,1.247-.2a15.627,15.627,0,0,0,7.651-4.2c.4-.382.8-.763,1.224-1.16.141.458.292.927.428,1.4a7.268,7.268,0,0,0,3.667,4.519.449.449,0,0,1,.271.464c-.014.669,0,1.34-.01,2.009a7.338,7.338,0,0,1-1.826,4.8c-.074.085-.14.177-.215.271Zm-14.137-6.11c0,.15,0,.261,0,.372.007.3,0,.6.027.892a4.947,4.947,0,0,0,2.891,4.21,4.877,4.877,0,0,0,5.151-.4,5.145,5.145,0,0,0,2.251-4.419,1.382,1.382,0,0,0-.616-1.288,8.989,8.989,0,0,1-2.5-2.957A17.882,17.882,0,0,1,3944.016,794.168Z" transform="translate(-3109.207 1885.564)" fill="#1d272b"/>
    <path id="Trazado_166389" data-name="Trazado 166389" d="M4068.447,619.029v-4.278h2.2v2.059h4.073v-2.056h2.208v4.275Z" transform="translate(-3232.73 2039.612)" fill="#1d272b"/>
    <path id="Trazado_166390" data-name="Trazado 166390" d="M4040.491,698.594c-.807,1.565-1.568,3.05-2.341,4.529a.387.387,0,0,1-.274.182c-.74.015-1.481.008-2.269.008a2.837,2.837,0,0,1,.108-.3c.711-1.386,1.429-2.769,2.135-4.158a.409.409,0,0,1,.425-.267C4038.988,698.6,4039.7,698.594,4040.491,698.594Z" transform="translate(-3202.339 1962.025)" fill="#1d272b"/>
    <path id="Trazado_166391" data-name="Trazado 166391" d="M4149.7,698.689c.85,0,1.613,0,2.376.008a.325.325,0,0,1,.211.17q1.141,2.206,2.269,4.42a.451.451,0,0,1,.007.116c-.775,0-1.548,0-2.321-.006a.282.282,0,0,1-.188-.145C4151.283,701.761,4150.516,700.267,4149.7,698.689Z" transform="translate(-3307.929 1961.934)" fill="#1d272b"/>
    <path id="Trazado_166392" data-name="Trazado 166392" d="M4110.779,703.179V699.4h2.185v3.782Z" transform="translate(-3271.906 1961.277)" fill="#1d272b"/>
  </g>
</svg>
