<svg xmlns="http://www.w3.org/2000/svg" width="85.847" height="76.941" viewBox="0 0 85.847 76.941">
  <g id="Grupo_129331" data-name="Grupo 129331" transform="translate(-656.146 -482.029)">
    <g id="Grupo_128374" data-name="Grupo 128374" transform="translate(656.146 482.029)">
      <g id="Grupo_87606" data-name="Grupo 87606">
        <path id="Trazado_139403" data-name="Trazado 139403" d="M143.283-19.828H77.028a9.679,9.679,0,0,1-8.47-4.891,9.68,9.68,0,0,1,0-9.78l33.127-57.38a9.684,9.684,0,0,1,8.47-4.89h0a9.683,9.683,0,0,1,8.469,4.89L151.753-34.5a9.681,9.681,0,0,1,0,9.78A9.681,9.681,0,0,1,143.283-19.828ZM106.076-89.343,72.95-31.964a4.658,4.658,0,0,0,0,4.71A4.662,4.662,0,0,0,77.028-24.9h66.255a4.663,4.663,0,0,0,4.079-2.355,4.662,4.662,0,0,0,0-4.71L114.233-89.343a4.661,4.661,0,0,0-4.077-2.355,4.664,4.664,0,0,0-4.08,2.355Z" transform="translate(-67.232 96.769)" fill="#008f85"/>
      </g>
      <g id="Grupo_87607" data-name="Grupo 87607" transform="translate(36.817 20.77)">
        <path id="Trazado_139404" data-name="Trazado 139404" d="M97.683-83.045h0a6.123,6.123,0,0,1,6.079,6.85l-2.689,22.5a3.433,3.433,0,0,1-3.408,3.024h0a3.432,3.432,0,0,1-3.408-3.03L91.6-76.2A6.123,6.123,0,0,1,97.683-83.045Z" transform="translate(-91.56 83.045)" fill="#008f85"/>
        <path id="Trazado_139405" data-name="Trazado 139405" d="M93.795-51.6a4.712,4.712,0,0,1-1.417-3.469,4.721,4.721,0,0,1,1.417-3.47,4.717,4.717,0,0,1,3.469-1.415,4.723,4.723,0,0,1,3.47,1.415,4.719,4.719,0,0,1,1.415,3.47,4.711,4.711,0,0,1-1.415,3.469,4.718,4.718,0,0,1-3.47,1.417A4.712,4.712,0,0,1,93.795-51.6Z" transform="translate(-91.139 94.9)" fill="#008f85"/>
      </g>
    </g>
  </g>
</svg>
